<svg width="22" height="32" viewBox="0 0 22 32" fill="none" xmlns="http://www.w3.org/2000/svg">
<path d="M10.6667 0C4.78519 0 0 4.78519 0 10.6667C0 12.4323 0.441437 14.1829 1.28062 15.7357L10.0834 31.6562C10.2006 31.8685 10.4239 32 10.6667 32C10.9095 32 11.1328 31.8685 11.25 31.6562L20.056 15.7304C20.8919 14.1829 21.3334 12.4323 21.3334 10.6666C21.3334 4.78519 16.5482 0 10.6667 0ZM10.6667 16C7.72593 16 5.33337 13.6074 5.33337 10.6667C5.33337 7.72594 7.72593 5.33337 10.6667 5.33337C13.6074 5.33337 16 7.72594 16 10.6667C16 13.6074 13.6074 16 10.6667 16Z" fill="#2C0BF1"/>
</svg>
