<svg width="32" height="32" viewBox="0 0 32 32" fill="none" xmlns="http://www.w3.org/2000/svg">
<g clip-path="url(#clip0)">
<path d="M21.2123 16.1639L32.0003 22.9839V9.05591L21.2123 16.1639Z" fill="#2C0BF1"/>
<path d="M0 9.05591V22.9839L10.788 16.1639L0 9.05591Z" fill="#2C0BF1"/>
<path d="M30 5H2C1.002 5 0.209998 5.744 0.0599976 6.702L16 17.204L31.94 6.702C31.79 5.744 30.998 5 30 5Z" fill="#2C0BF1"/>
<path d="M19.3797 17.3721L16.5497 19.2361C16.3817 19.3461 16.1917 19.4001 15.9997 19.4001C15.8077 19.4001 15.6177 19.3461 15.4497 19.2361L12.6197 17.3701L0.0637207 25.3121C0.217721 26.2621 1.00572 27.0001 1.99972 27.0001H29.9997C30.9937 27.0001 31.7817 26.2621 31.9357 25.3121L19.3797 17.3721Z" fill="#2C0BF1"/>
</g>
<defs>
<clipPath id="clip0">
<rect width="32" height="32" fill="white"/>
</clipPath>
</defs>
</svg>
