<svg width="430" height="268" viewBox="0 0 430 268" fill="none" xmlns="http://www.w3.org/2000/svg">
<path d="M128 47.0544C141.255 47.0544 152 36.6295 152 23.7698C152 10.91 141.255 0.485107 128 0.485107C114.745 0.485107 104 10.91 104 23.7698C104 36.6295 114.745 47.0544 128 47.0544Z" fill="white"/>
<path d="M235 70.3391C253.225 70.3391 268 56.0049 268 38.3228C268 20.6406 253.225 6.3064 235 6.3064C216.775 6.3064 202 20.6406 202 38.3228C202 56.0049 216.775 70.3391 235 70.3391Z" fill="white"/>
<path d="M341.5 68.3987C351.717 68.3987 360 60.3628 360 50.4501C360 40.5373 351.717 32.5015 341.5 32.5015C331.283 32.5015 323 40.5373 323 50.4501C323 60.3628 331.283 68.3987 341.5 68.3987Z" fill="white"/>
<path d="M403.5 150.865C417.583 150.865 429 139.789 429 126.125C429 112.462 417.583 101.385 403.5 101.385C389.417 101.385 378 112.462 378 126.125C378 139.789 389.417 150.865 403.5 150.865Z" fill="white"/>
<path d="M340.5 237.212C359.554 237.212 375 222.226 375 203.741C375 185.255 359.554 170.269 340.5 170.269C321.446 170.269 306 185.255 306 203.741C306 222.226 321.446 237.212 340.5 237.212Z" fill="white"/>
<path d="M200.66 187.403C200.556 187.611 200.432 187.809 200.29 187.994L199.14 189.634C198.14 191.051 196.67 193.078 194.83 195.581C191.15 200.578 186 207.427 180.15 214.878C174.3 222.329 168.84 228.966 164.72 233.642C162.66 235.97 160.98 237.852 159.72 239.094L158.32 240.53C158.159 240.701 157.985 240.86 157.8 241.006C157.932 240.814 158.079 240.632 158.24 240.462L159.57 238.958C160.74 237.678 162.37 235.767 164.4 233.419C168.4 228.694 173.84 222.029 179.69 214.578C185.54 207.127 190.74 200.306 194.49 195.368L198.94 189.547C199.45 188.897 199.85 188.373 200.16 187.965C200.305 187.761 200.473 187.572 200.66 187.403Z" fill="#2C0BF1"/>
<path d="M229.14 71.0374C229.28 71.0374 228.65 76.257 227.73 82.6797C226.81 89.1024 225.95 94.2347 225.81 94.2153C225.67 94.1959 226.3 88.9956 227.22 82.573C228.14 76.1503 229 71.018 229.14 71.0374Z" fill="#2C0BF1"/>
<path d="M329.29 64.2944C329.079 64.4958 328.855 64.6838 328.62 64.8571C328.14 65.2452 327.48 65.7594 326.62 66.4095L319.32 72.0172L295.12 90.383L270.86 108.662L263.46 114.143L261.46 115.608C261.234 115.794 260.989 115.956 260.73 116.093C260.94 115.892 261.164 115.704 261.4 115.531L263.4 113.988L270.7 108.37L294.91 90.0047L319.21 71.7553L326.6 66.2736L328.6 64.8086C328.815 64.6193 329.046 64.4473 329.29 64.2944Z" fill="#2C0BF1"/>
<path d="M377.68 128.172C377.68 128.308 353.19 130.287 322.95 132.577C292.71 134.866 268.19 136.622 268.18 136.458C268.17 136.293 292.67 134.352 322.91 132.053C353.15 129.753 377.67 128.065 377.68 128.172Z" fill="#2C0BF1"/>
<path d="M309.98 186.578C309.92 186.704 299.52 181.678 286.77 175.362C274.02 169.046 263.77 163.827 263.77 163.72C263.77 163.613 274.22 168.571 286.98 174.926C299.74 181.28 310.06 186.452 309.98 186.578Z" fill="#2C0BF1"/>
<path d="M186.06 105.858C185.873 105.671 185.702 105.47 185.55 105.256L184.16 103.49C182.97 101.938 181.26 99.6872 179.16 96.8931C174.97 91.3048 169.27 83.5238 163.16 74.8212C157.05 66.1185 151.6 58.1435 147.74 52.3321C145.81 49.4215 144.27 47.0639 143.22 45.4243C142.71 44.6384 142.31 43.9981 142.01 43.5324C141.857 43.3205 141.73 43.0927 141.63 42.8533C141.801 43.0498 141.958 43.2573 142.1 43.4742L143.39 45.3176C144.52 46.9766 146.1 49.2954 148.05 52.1089C151.98 57.8719 157.45 65.8081 163.59 74.5107C169.73 83.2133 175.38 91.004 179.49 96.6602L184.36 103.345L185.67 105.169C185.825 105.384 185.956 105.615 186.06 105.858Z" fill="#2C0BF1"/>
<path d="M172.83 124.185C172.77 124.311 165.96 121.274 157.62 117.519C149.28 113.765 142.62 110.514 142.62 110.388C142.62 110.262 149.49 113.25 157.83 117.054C166.17 120.857 172.89 124.078 172.83 124.185Z" fill="#2C0BF1"/>
<path d="M168.95 142.211C168.95 142.346 145.95 140.464 117.68 138C89.4097 135.536 66.4297 133.431 66.4397 133.295C66.4497 133.159 89.4397 135.031 117.72 137.496C146 139.96 168.96 142.065 168.95 142.211Z" fill="#2C0BF1"/>
<path d="M177.15 168.814C177.21 168.94 163.58 174.693 146.71 181.669C129.84 188.644 116.12 194.203 116.06 194.038C116 193.873 129.63 188.149 146.51 181.174C163.39 174.198 177.06 168.697 177.15 168.814Z" fill="#2C0BF1"/>
<path d="M218.92 190.691C246.517 190.691 268.89 168.986 268.89 142.211C268.89 115.436 246.517 93.7302 218.92 93.7302C191.322 93.7302 168.95 115.436 168.95 142.211C168.95 168.986 191.322 190.691 218.92 190.691Z" fill="#E8505B"/>
<path d="M218.92 190.691C246.517 190.691 268.89 168.986 268.89 142.211C268.89 115.436 246.517 93.7302 218.92 93.7302C191.322 93.7302 168.95 115.436 168.95 142.211C168.95 168.986 191.322 190.691 218.92 190.691Z" fill="#2C0BF1"/>
<path d="M235.72 129.86C234.662 126.567 232.712 123.609 230.073 121.297C227.434 118.985 224.204 117.403 220.719 116.717C217.235 116.03 213.624 116.264 210.265 117.395C206.905 118.525 203.921 120.51 201.622 123.142C199.324 125.774 197.797 128.957 197.2 132.358C196.603 135.759 196.959 139.252 198.23 142.474C199.501 145.696 201.641 148.527 204.425 150.672C207.21 152.817 210.537 154.197 214.06 154.668L215.55 159.306L232.14 154.261C232.14 154.261 231.4 151.631 230.69 149.293C233.288 146.816 235.132 143.691 236.02 140.263C236.907 136.834 236.803 133.235 235.72 129.86Z" fill="#F4C03B"/>
<path d="M226.11 156.026L226.05 155.793C226.05 155.628 225.98 155.396 225.92 155.105C225.8 154.493 225.63 153.61 225.45 152.456C225.27 151.301 225.05 149.885 224.92 148.226C224.749 146.349 224.776 144.46 225 142.589C225.124 141.498 225.348 140.42 225.67 139.368C225.843 138.795 226.163 138.275 226.6 137.854C226.841 137.638 227.132 137.48 227.448 137.394C227.765 137.308 228.098 137.296 228.42 137.36C228.762 137.433 229.063 137.631 229.26 137.913C229.454 138.199 229.532 138.544 229.48 138.883C229.348 139.548 228.966 140.143 228.41 140.552C227.253 141.357 225.816 141.688 224.41 141.473C223.674 141.357 222.969 141.097 222.34 140.708C221.711 140.319 221.17 139.811 220.75 139.213C220.287 138.605 220.012 137.881 219.96 137.127C219.929 136.727 220.043 136.328 220.282 136.001C220.521 135.673 220.87 135.437 221.27 135.332C221.48 135.289 221.698 135.3 221.903 135.363C222.108 135.425 222.293 135.539 222.44 135.691C222.74 135.982 222.924 136.367 222.96 136.778C222.961 137.577 222.698 138.356 222.21 138.999C221.767 139.678 221.182 140.259 220.493 140.703C219.804 141.148 219.026 141.447 218.21 141.58C217.384 141.698 216.541 141.619 215.754 141.35C214.966 141.081 214.258 140.631 213.69 140.037C213.402 139.749 213.179 139.407 213.035 139.031C212.89 138.655 212.827 138.255 212.85 137.854C212.858 137.648 212.912 137.445 213.01 137.262C213.108 137.078 213.246 136.917 213.415 136.791C213.584 136.665 213.78 136.577 213.988 136.533C214.196 136.488 214.412 136.489 214.62 136.535C215.026 136.615 215.396 136.815 215.68 137.107C215.952 137.388 216.166 137.718 216.31 138.078C216.584 138.774 216.714 139.516 216.69 140.261C216.66 141.715 216.059 143.103 215.01 144.141C214.008 145.124 212.679 145.73 211.26 145.849C210.57 145.949 209.867 145.822 209.26 145.49C208.96 145.319 208.73 145.053 208.608 144.737C208.486 144.42 208.48 144.073 208.59 143.753C208.657 143.601 208.755 143.464 208.879 143.351C209.003 143.237 209.149 143.15 209.31 143.094C209.625 142.964 209.973 142.927 210.31 142.987C210.919 143.117 211.467 143.437 211.87 143.899C212.67 144.753 213.36 145.606 214.05 146.412C216.75 149.662 218.81 152.388 220.21 154.29C220.9 155.26 221.44 155.978 221.79 156.492L222.2 157.064L222.33 157.268C222.275 157.211 222.225 157.149 222.18 157.084L221.75 156.511L220.06 154.338C218.64 152.456 216.56 149.749 213.84 146.518C213.16 145.713 212.45 144.859 211.67 144.025C211.289 143.597 210.778 143.298 210.21 143.171C209.925 143.114 209.63 143.147 209.365 143.264C209.101 143.38 208.882 143.576 208.74 143.821C208.651 144.099 208.663 144.398 208.771 144.67C208.88 144.941 209.081 145.168 209.34 145.315C209.907 145.617 210.559 145.733 211.2 145.645C212.568 145.524 213.847 144.936 214.81 143.986C215.816 142.985 216.392 141.649 216.42 140.251C216.443 139.535 216.317 138.823 216.05 138.155C215.938 137.817 215.74 137.512 215.474 137.268C215.208 137.024 214.884 136.849 214.53 136.758C214.358 136.722 214.18 136.721 214.007 136.756C213.835 136.791 213.672 136.862 213.53 136.962C213.391 137.072 213.277 137.209 213.196 137.365C213.115 137.52 213.068 137.69 213.06 137.864C213.04 138.233 213.099 138.602 213.233 138.947C213.368 139.293 213.574 139.608 213.84 139.872C214.382 140.435 215.056 140.862 215.804 141.117C216.553 141.372 217.354 141.448 218.14 141.337C218.924 141.21 219.672 140.923 220.336 140.497C220.999 140.071 221.562 139.514 221.99 138.863C222.447 138.262 222.696 137.535 222.7 136.787C222.679 136.421 222.519 136.075 222.25 135.817C222.132 135.691 221.983 135.596 221.816 135.543C221.649 135.491 221.471 135.481 221.3 135.516C220.949 135.596 220.645 135.805 220.45 136.098C220.26 136.388 220.163 136.726 220.17 137.069C220.237 137.769 220.496 138.439 220.92 139.009C221.31 139.569 221.811 140.049 222.395 140.418C222.978 140.788 223.632 141.041 224.318 141.162C225.003 141.283 225.707 141.27 226.387 141.124C227.068 140.977 227.711 140.7 228.28 140.309C228.798 139.941 229.155 139.397 229.28 138.786C229.328 138.499 229.262 138.205 229.095 137.963C228.928 137.722 228.672 137.551 228.38 137.486C228.092 137.428 227.794 137.438 227.511 137.514C227.227 137.59 226.967 137.73 226.75 137.922C226.332 138.32 226.025 138.814 225.86 139.358C225.533 140.4 225.305 141.468 225.18 142.55C224.954 144.408 224.914 146.283 225.06 148.148C225.19 149.807 225.38 151.214 225.55 152.369C225.72 153.523 225.88 154.406 225.98 155.027C225.98 155.318 226.06 155.551 226.09 155.716L226.11 156.026Z" fill="#263238"/>
<path d="M231.82 157.656L217.56 161.964C217.275 162.046 216.968 162.017 216.704 161.883C216.441 161.749 216.242 161.52 216.15 161.246C216.062 160.971 216.091 160.673 216.23 160.418C216.369 160.163 216.606 159.973 216.89 159.888L231.15 155.58C231.29 155.536 231.437 155.52 231.583 155.532C231.73 155.544 231.872 155.584 232.002 155.65C232.132 155.716 232.248 155.807 232.342 155.916C232.436 156.025 232.506 156.152 232.55 156.288C232.595 156.424 232.612 156.568 232.599 156.711C232.587 156.853 232.546 156.992 232.478 157.119C232.41 157.246 232.317 157.359 232.204 157.451C232.091 157.544 231.96 157.613 231.82 157.656Z" fill="#263238"/>
<path d="M232.11 158.559L217.85 162.866C217.567 162.955 217.331 163.148 217.193 163.404C217.054 163.659 217.025 163.957 217.11 164.234C217.153 164.37 217.224 164.497 217.318 164.606C217.412 164.716 217.527 164.806 217.657 164.872C217.787 164.938 217.93 164.978 218.076 164.99C218.223 165.002 218.37 164.986 218.51 164.942L220.08 164.477L223.39 167.678C223.574 167.859 223.805 167.987 224.059 168.048C224.313 168.11 224.58 168.103 224.83 168.027L229.93 166.485C230.185 166.411 230.414 166.269 230.591 166.075C230.768 165.881 230.885 165.644 230.93 165.388L231.72 160.955L232.79 160.635C232.93 160.593 233.06 160.524 233.173 160.433C233.286 160.342 233.379 160.23 233.447 160.103C233.515 159.977 233.556 159.839 233.569 159.697C233.581 159.555 233.565 159.412 233.52 159.276C233.476 159.139 233.405 159.011 233.311 158.901C233.216 158.79 233.1 158.699 232.969 158.632C232.838 158.565 232.695 158.524 232.547 158.512C232.399 158.499 232.251 158.515 232.11 158.559Z" fill="#263238"/>
<g opacity="0.2">
<path opacity="0.2" d="M200.84 127.551C201.633 126.205 202.646 124.993 203.84 123.961C204.631 123.268 205.524 122.693 206.49 122.254C207.19 121.963 207.62 121.914 207.7 122.05C207.89 122.351 206.61 123.282 205.08 125.126C203.053 127.442 201.754 130.275 201.339 133.286C200.925 136.298 201.411 139.362 202.74 142.114C203.74 144.277 204.74 145.5 204.44 145.752C204.32 145.859 203.93 145.752 203.33 145.248C202.513 144.578 201.805 143.793 201.23 142.919C200.35 141.622 199.698 140.193 199.3 138.689C198.794 136.826 198.665 134.885 198.92 132.975" fill="white"/>
</g>
<g opacity="0.2">
<path opacity="0.2" d="M212.52 121.458C211.32 121.817 210.16 121.817 209.83 121.235C209.68 120.944 209.83 120.556 210.15 120.168C210.603 119.706 211.177 119.371 211.81 119.198C212.433 119.001 213.099 118.967 213.74 119.101C214.25 119.227 214.58 119.489 214.62 119.819" fill="white"/>
</g>
<path d="M230.76 165.796C230.76 165.796 230.34 165.796 229.69 165.796C228.832 165.814 227.983 165.958 227.17 166.223C226.362 166.498 225.6 166.887 224.91 167.378C224.639 167.607 224.356 167.821 224.06 168.018C224.26 167.721 224.514 167.461 224.81 167.252C225.485 166.704 226.258 166.28 227.09 166C227.926 165.724 228.807 165.596 229.69 165.622C230.054 165.622 230.416 165.681 230.76 165.796Z" fill="#455A64"/>
<path d="M231.76 160.994C231.76 161.062 229.21 161.886 226.04 162.847C222.87 163.807 220.26 164.535 220.24 164.477C220.22 164.419 222.78 163.584 225.96 162.624C229.14 161.663 231.74 160.936 231.76 160.994Z" fill="#455A64"/>
<path d="M231.39 162.905C230.955 163.132 230.5 163.32 230.03 163.468C229.18 163.788 228.03 164.195 226.67 164.613C225.31 165.03 224.14 165.389 223.26 165.583C222.79 165.731 222.309 165.838 221.82 165.903C222.269 165.705 222.734 165.543 223.21 165.418L226.59 164.351L229.97 163.274C230.434 163.12 230.908 162.996 231.39 162.905Z" fill="#455A64"/>
<path d="M152.23 23.9829C152.215 23.8572 152.215 23.7302 152.23 23.6045C152.23 23.3199 152.2 22.9416 152.14 22.4694L152.06 21.635C152.06 21.3343 151.96 21.0044 151.9 20.6649C151.79 19.8352 151.616 19.0148 151.38 18.2103C150.801 15.9903 149.881 13.8675 148.65 11.9138C145.743 7.19613 141.232 3.60943 135.893 1.77127C130.554 -0.0668811 124.721 -0.0414406 119.4 1.84321C118.312 2.22511 117.253 2.67893 116.23 3.20147C115.184 3.75045 114.181 4.37304 113.23 5.06423C112.258 5.75626 111.339 6.51495 110.48 7.33448C109.61 8.18553 108.802 9.09314 108.06 10.051C106.556 12.0228 105.385 14.2135 104.59 16.5416C102.923 21.3707 102.923 26.5951 104.59 31.4242C105.381 33.7569 106.553 35.9515 108.06 37.9245C108.796 38.8818 109.591 39.7954 110.44 40.6604C111.31 41.4722 112.232 42.2304 113.2 42.9307C114.154 43.6185 115.156 44.2409 116.2 44.7934C117.225 45.3089 118.284 45.7593 119.37 46.142C123.458 47.5865 127.869 47.9482 132.15 47.1898C135.548 46.5716 138.773 45.262 141.611 43.3473C144.45 41.4326 146.839 38.9562 148.62 36.0812C149.851 34.1241 150.771 31.9981 151.35 29.7749C151.586 28.9737 151.76 28.1565 151.87 27.3301C151.93 26.9711 151.99 26.6412 152.03 26.3599L152.08 25.5352C152.08 25.0501 152.15 24.6814 152.17 24.4001C152.155 24.2711 152.155 24.141 152.17 24.012C152.17 24.012 152.17 24.1478 152.17 24.4001C152.17 24.6523 152.17 25.0598 152.17 25.5352C152.17 25.7875 152.17 26.0688 152.17 26.3793C152.17 26.68 152.08 27.0099 152.03 27.3495C151.938 28.1845 151.781 29.0115 151.56 29.8234C151.009 32.0783 150.105 34.2379 148.88 36.2267C147.097 39.1593 144.691 41.69 141.822 43.6506C138.953 45.6111 135.686 46.9565 132.24 47.5973C127.895 48.4022 123.407 48.0673 119.24 46.6271C118.131 46.2347 117.049 45.7746 116 45.2494C114.955 44.6885 113.952 44.0563 113 43.3576C112.005 42.6495 111.063 41.8747 110.18 41.0388C109.301 40.1669 108.485 39.2365 107.74 38.2544C106.194 36.2431 104.995 34.002 104.19 31.6183C102.483 26.6892 102.483 21.3542 104.19 16.4251C104.993 14.0436 106.193 11.8054 107.74 9.79875C108.485 8.81344 109.3 7.8798 110.18 7.00461C111.065 6.17461 112.008 5.40319 113 4.69556C113.952 3.99688 114.955 3.36467 116 2.80369C117.047 2.27452 118.129 1.81426 119.24 1.42603C124.653 -0.472085 130.58 -0.475434 135.996 1.41656C141.412 3.30856 145.976 6.97697 148.9 11.7876C150.124 13.7739 151.027 15.93 151.58 18.1812C151.801 18.9964 151.958 19.8266 152.05 20.6649C152.1 21.0238 152.16 21.3634 152.19 21.635C152.22 21.9067 152.19 22.2172 152.19 22.4791C152.19 22.9513 152.19 23.3296 152.19 23.6142C152.209 23.7364 152.223 23.8594 152.23 23.9829Z" fill="#2C0BF1"/>
<path d="M132.97 21.4895C132.921 20.8817 132.824 20.2784 132.68 19.685C132.493 19.0007 132.203 18.3469 131.82 17.7446C131.315 16.9363 130.657 16.2285 129.88 15.6586C128.875 14.9045 127.69 14.4079 126.436 14.2146C125.181 14.0214 123.896 14.1376 122.7 14.5526C122.011 14.7755 121.363 15.103 120.78 15.5228C120.477 15.7402 120.19 15.9768 119.92 16.231C119.655 16.5001 119.408 16.7853 119.18 17.0848C118.214 18.3475 117.692 19.8782 117.692 21.4507C117.692 23.0232 118.214 24.554 119.18 25.8166C119.408 26.1161 119.655 26.4013 119.92 26.6704C120.19 26.9247 120.477 27.1613 120.78 27.3787C121.363 27.7985 122.011 28.1259 122.7 28.3489C124.358 28.9345 126.173 28.9431 127.837 28.3733C129.501 27.8034 130.908 26.6905 131.82 25.2248C132.203 24.6225 132.493 23.9687 132.68 23.2844C132.825 22.6879 132.922 22.0813 132.97 21.4701V21.5963C132.97 21.6933 132.97 21.8097 132.97 21.9552C132.987 22.1457 132.987 22.3372 132.97 22.5276C132.934 22.7887 132.884 23.0478 132.82 23.3038C132.649 24.0099 132.369 24.6869 131.99 25.3121C131.431 26.2339 130.677 27.0299 129.777 27.6471C128.877 28.2643 127.852 28.6888 126.77 28.8922C125.399 29.144 123.984 29.0368 122.67 28.5817C121.952 28.3428 121.277 27.9957 120.67 27.5533C120.357 27.3295 120.06 27.0865 119.78 26.8256C119.505 26.5503 119.248 26.2586 119.01 25.9525C118.023 24.6559 117.491 23.0866 117.491 21.475C117.491 19.8633 118.023 18.2941 119.01 16.9975C119.248 16.6913 119.505 16.3997 119.78 16.1243C120.06 15.8635 120.357 15.6204 120.67 15.3967C121.277 14.9542 121.952 14.6072 122.67 14.3683C123.98 13.9135 125.392 13.8063 126.76 14.0578C127.844 14.2593 128.871 14.6829 129.773 15.3003C130.675 15.9176 131.431 16.7146 131.99 17.6378C132.369 18.263 132.649 18.9401 132.82 19.6461C132.885 19.902 132.935 20.1611 132.97 20.4223C132.987 20.6127 132.987 20.8043 132.97 20.9947C132.97 21.1403 132.97 21.2567 132.97 21.3537V21.4895Z" fill="#2C0BF1"/>
<path d="M130.54 26.9321C130.59 26.9321 132.26 28.436 134.28 30.3959C136.3 32.3558 137.91 33.9859 137.86 34.0247C137.81 34.0635 136.14 32.5208 134.12 30.5609C132.1 28.601 130.5 26.9709 130.54 26.9321Z" fill="#2C0BF1"/>
<path d="M33.5997 161.314C51.7367 161.314 66.4397 147.049 66.4397 129.453C66.4397 111.856 51.7367 97.5916 33.5997 97.5916C15.4627 97.5916 0.759705 111.856 0.759705 129.453C0.759705 147.049 15.4627 161.314 33.5997 161.314Z" fill="white"/>
<path d="M84.84 237.872C102.977 237.872 117.68 223.607 117.68 206.011C117.68 188.414 102.977 174.15 84.84 174.15C66.703 174.15 52 188.414 52 206.011C52 223.607 66.703 237.872 84.84 237.872Z" fill="white"/>
<path d="M149.5 267.288C157.508 267.288 164 260.99 164 253.22C164 245.451 157.508 239.153 149.5 239.153C141.492 239.153 135 245.451 135 253.22C135 260.99 141.492 267.288 149.5 267.288Z" fill="white"/>
<path d="M66.4397 129.453C66.4397 129.453 66.4397 129.278 66.4397 128.939C66.4397 128.599 66.3797 128.075 66.3297 127.425C66.3297 127.086 66.3297 126.717 66.2597 126.309C66.1897 125.902 66.1297 125.465 66.0497 124.98C65.9092 123.869 65.6819 122.769 65.3697 121.691C64.5997 118.717 63.3726 115.871 61.7297 113.251C59.3431 109.399 56.1438 106.081 52.3418 103.515C48.5399 100.948 44.2213 99.1908 39.6697 98.3581C38.3092 98.1121 36.9324 97.9597 35.5497 97.9021C34.8397 97.9021 34.1397 97.8051 33.4197 97.8148L31.2597 97.9312C30.8997 97.9312 30.5397 97.9312 30.1697 97.9991L29.0897 98.1544C28.3597 98.2805 27.6197 98.3581 26.8897 98.5037C23.9013 99.165 21.0115 100.192 18.2897 101.56C17.6097 101.919 16.9497 102.346 16.2897 102.734C15.5919 103.127 14.9236 103.568 14.2897 104.053C12.9859 104.985 11.7496 106.003 10.5897 107.1C9.44191 108.25 8.37612 109.476 7.39972 110.767C5.37259 113.415 3.79904 116.364 2.73972 119.499C0.49954 125.973 0.49954 132.981 2.73972 139.456C3.79791 142.591 5.37154 145.539 7.39972 148.187C8.37818 149.477 9.44386 150.702 10.5897 151.855C11.7522 152.948 12.9882 153.966 14.2897 154.901C14.9218 155.388 15.5903 155.829 16.2897 156.221C16.9797 156.609 17.6397 157.026 18.2897 157.394C19.6654 158.093 21.0887 158.699 22.5497 159.209C23.968 159.711 25.4175 160.126 26.8897 160.451C27.6197 160.596 28.3597 160.674 29.0897 160.79L30.1697 160.955C30.5397 161.004 30.8997 161.004 31.2597 161.023L33.4197 161.13C34.1397 161.13 34.8497 161.081 35.5497 161.052C36.932 160.99 38.3085 160.837 39.6697 160.596C44.223 159.765 48.5431 158.007 52.3455 155.438C56.1478 152.87 59.3461 149.549 61.7297 145.694C63.376 143.075 64.6033 140.229 65.3697 137.253C65.6818 136.178 65.9091 135.082 66.0497 133.974C66.1297 133.489 66.2197 133.052 66.2597 132.635C66.2997 132.218 66.2597 131.859 66.3297 131.529C66.3297 130.879 66.4097 130.375 66.4397 130.016C66.4697 129.657 66.4397 129.501 66.4397 129.501C66.4397 129.501 66.4397 129.676 66.4397 130.016C66.4397 130.355 66.4397 130.879 66.4397 131.529C66.4397 131.869 66.4397 132.247 66.4397 132.655C66.4397 133.062 66.3197 133.508 66.2597 133.993C66.1299 135.111 65.9126 136.217 65.6097 137.302C64.8756 140.309 63.6681 143.189 62.0297 145.839C59.6303 149.755 56.3973 153.129 52.5465 155.736C48.6957 158.342 44.3159 160.122 39.6997 160.955C38.3191 161.207 36.9227 161.369 35.5197 161.44C34.8097 161.44 34.0897 161.527 33.3697 161.518L31.1797 161.421C30.8097 161.421 30.4397 161.421 30.0797 161.353L28.9697 161.188C28.2397 161.072 27.4897 160.994 26.7497 160.839C25.2489 160.523 23.7721 160.108 22.3297 159.597C20.8649 159.081 19.4382 158.468 18.0597 157.763C17.3597 157.394 16.6897 156.968 15.9997 156.57C15.301 156.174 14.6326 155.73 13.9997 155.241C12.6779 154.29 11.4218 153.256 10.2397 152.146C9.05848 150.983 7.95932 149.745 6.94972 148.44C4.88534 145.759 3.28441 142.771 2.20973 139.591C-0.0699084 133.017 -0.0699084 125.899 2.20973 119.324C3.28654 116.146 4.88729 113.157 6.94972 110.476C7.94403 109.157 9.02635 107.903 10.1897 106.721C11.3741 105.616 12.63 104.586 13.9497 103.636C14.5842 103.146 15.2524 102.699 15.9497 102.297C16.6397 101.899 17.3097 101.472 18.0097 101.113C19.4044 100.406 20.8478 99.7936 22.3297 99.2798C23.7734 98.7698 25.2499 98.3517 26.7497 98.0283C27.4897 97.8827 28.2397 97.8051 28.9697 97.6887L30.0697 97.5238C30.4397 97.4753 30.8097 97.4752 31.1797 97.4558L33.3697 97.3491C34.0897 97.3491 34.8097 97.4073 35.5197 97.4364C36.923 97.503 38.3198 97.6651 39.6997 97.9215C44.2997 98.7767 48.6601 100.57 52.4923 103.182C56.3246 105.795 59.5413 109.167 61.9297 113.076C63.5646 115.728 64.7719 118.607 65.5097 121.614C65.8136 122.702 66.0309 123.811 66.1597 124.932C66.2197 125.417 66.3097 125.902 66.3397 126.271C66.3697 126.639 66.3397 127.056 66.3397 127.386C66.3397 128.036 66.3397 128.541 66.3397 128.91C66.3397 129.278 66.4397 129.453 66.4397 129.453Z" fill="#2C0BF1"/>
<path d="M51.2097 130.239C51.2097 130.239 51.2097 129.86 51.1297 129.152C51.1192 128.716 51.0724 128.281 50.9897 127.852C50.9058 127.259 50.7822 126.673 50.6197 126.096C50.2146 124.505 49.5604 122.983 48.6797 121.585C47.4075 119.528 45.701 117.756 43.6724 116.384C41.6438 115.013 39.3391 114.074 36.9097 113.629C33.8465 113.079 30.6875 113.334 27.7597 114.366C26.1821 114.913 24.6987 115.689 23.3597 116.666C21.9345 117.654 20.6905 118.867 19.6797 120.255C17.4806 123.147 16.2941 126.645 16.2941 130.239C16.2941 133.832 17.4806 137.331 19.6797 140.222C20.2097 140.901 20.7808 141.549 21.3897 142.162C22.0208 142.745 22.6888 143.29 23.3897 143.792C24.7287 144.769 26.2121 145.544 27.7897 146.092C31.601 147.429 35.7731 147.44 39.5915 146.121C43.4099 144.803 46.6369 142.237 48.7197 138.864C49.5969 137.464 50.2477 135.943 50.6497 134.352C50.8121 133.779 50.9357 133.195 51.0197 132.606C51.103 132.174 51.1498 131.736 51.1597 131.296C51.2097 130.588 51.2397 130.219 51.2397 130.219C51.2397 130.219 51.2397 130.588 51.2397 131.306C51.2373 131.745 51.1972 132.183 51.1197 132.616C51.0482 133.209 50.9312 133.796 50.7697 134.372C50.375 135.974 49.731 137.508 48.8597 138.922C47.5881 141.004 45.875 142.801 43.8338 144.192C41.7926 145.584 39.47 146.539 37.0197 146.994C33.9245 147.552 30.7318 147.301 27.7697 146.266C26.1697 145.719 24.6656 144.937 23.3097 143.947C22.6069 143.44 21.9388 142.889 21.3097 142.298C20.6892 141.689 20.1113 141.041 19.5797 140.358C17.3517 137.434 16.1492 133.894 16.1492 130.258C16.1492 126.622 17.3517 123.082 19.5797 120.158C20.1093 119.473 20.6873 118.825 21.3097 118.218C21.9359 117.624 22.6042 117.072 23.3097 116.569C24.6669 115.581 26.1707 114.799 27.7697 114.25C30.7284 113.215 33.9178 112.964 37.0097 113.522C39.4613 113.974 41.7855 114.927 43.8272 116.319C45.8689 117.711 47.5811 119.509 48.8497 121.594C49.7006 123.004 50.3244 124.532 50.6997 126.125C50.8613 126.704 50.9783 127.295 51.0497 127.891C51.1276 128.323 51.1677 128.761 51.1697 129.201C51.1997 129.86 51.2097 130.239 51.2097 130.239Z" fill="#2C0BF1"/>
<path d="M33.6997 119.14C34.6443 119.076 35.5932 119.161 36.5097 119.392C39.0633 119.978 41.3306 121.4 42.9297 123.418C44.1277 124.908 44.9151 126.67 45.2177 128.537C45.5204 130.404 45.3283 132.315 44.6597 134.09C43.8909 136.19 42.4993 138.023 40.6597 139.358C38.6628 140.801 36.2395 141.58 33.7497 141.58C31.26 141.58 28.8367 140.801 26.8397 139.358C25.8865 138.693 25.0493 137.884 24.3597 136.962C23.685 136.074 23.1524 135.093 22.7797 134.051C22.2267 132.57 22.002 130.991 22.1204 129.42C22.2387 127.848 22.6974 126.318 23.4666 124.93C24.2357 123.542 25.2979 122.327 26.5839 121.364C27.8699 120.402 29.3508 119.713 30.9297 119.343C31.8497 119.113 32.8019 119.028 33.7497 119.091C32.817 119.179 31.8916 119.328 30.9797 119.537C28.9012 120.073 27.0219 121.169 25.5598 122.699C24.0978 124.229 23.113 126.13 22.7197 128.182C22.3609 130.093 22.537 132.063 23.2297 133.886C23.5937 134.871 24.1096 135.797 24.7597 136.632C25.3927 137.526 26.1692 138.315 27.0597 138.97C28.9711 140.343 31.2865 141.084 33.6647 141.084C36.043 141.084 38.3583 140.343 40.2697 138.97C41.1871 138.339 41.9911 137.565 42.6497 136.681C43.3034 135.848 43.8196 134.922 44.1797 133.935C44.8283 132.227 45.0244 130.389 44.7501 128.589C44.4757 126.789 43.7398 125.084 42.6097 123.632C41.0775 121.647 38.9002 120.222 36.4297 119.586C35.531 119.378 34.619 119.229 33.6997 119.14Z" fill="#2C0BF1"/>
<path d="M33.6997 126.717C33.9967 126.631 34.3128 126.631 34.6097 126.717C35.4469 126.889 36.1964 127.338 36.7297 127.988C37.1289 128.477 37.3934 129.058 37.4984 129.674C37.6033 130.29 37.5453 130.921 37.3297 131.51C37.0619 132.237 36.5689 132.866 35.9181 133.311C35.2674 133.756 34.4908 133.995 33.6947 133.995C32.8987 133.995 32.1221 133.756 31.4713 133.311C30.8206 132.866 30.3275 132.237 30.0597 131.51C29.8436 130.921 29.7863 130.288 29.893 129.672C29.9998 129.055 30.2671 128.476 30.6697 127.988C31.1997 127.335 31.9506 126.884 32.7897 126.717C33.0869 126.633 33.4025 126.633 33.6997 126.717C33.6997 126.717 33.3697 126.717 32.8397 126.92C32.0847 127.14 31.4244 127.593 30.9597 128.211C30.5838 128.703 30.3561 129.287 30.3022 129.898C30.2482 130.508 30.3701 131.121 30.6542 131.669C30.9383 132.216 31.3735 132.676 31.9113 132.997C32.449 133.319 33.0682 133.489 33.6997 133.489C34.3313 133.489 34.9505 133.319 35.4882 132.997C36.0259 132.676 36.4611 132.216 36.7452 131.669C37.0293 131.121 37.1512 130.508 37.0973 129.898C37.0433 129.287 36.8157 128.703 36.4397 128.211C35.973 127.595 35.3135 127.142 34.5597 126.92C34.0597 126.765 33.6997 126.755 33.6997 126.717Z" fill="#2C0BF1"/>
<path d="M15.0597 142.482C21.1097 138.388 27.6697 134.333 33.7197 130.239L15.0597 142.482Z" fill="#F5F5F5"/>
<path d="M33.6997 130.239C33.6997 130.239 29.5797 133.062 24.4197 136.448C19.2597 139.834 15.0597 142.531 15.0597 142.483C15.0597 142.434 19.1697 139.659 24.3297 136.273C29.4897 132.887 33.6597 130.19 33.6997 130.239Z" fill="#2C0BF1"/>
<path d="M17.0598 141.299C16.3416 141.37 15.6179 141.37 14.8997 141.299C14.1756 141.311 13.452 141.252 12.7397 141.124C13.4579 141.053 14.1816 141.053 14.8997 141.124C15.6239 141.113 16.3475 141.171 17.0598 141.299Z" fill="#2C0BF1"/>
<path d="M16.3597 144.054C16.3601 143.568 16.4308 143.085 16.5697 142.618C16.6376 142.135 16.7791 141.664 16.9897 141.221C16.9828 141.707 16.9088 142.19 16.7697 142.657C16.6968 143.138 16.5589 143.608 16.3597 144.054Z" fill="#2C0BF1"/>
<path d="M17.4097 143.734C17.4082 143.228 17.4686 142.723 17.5897 142.23C17.6512 141.729 17.7755 141.237 17.9597 140.765C17.9734 141.272 17.9162 141.778 17.7897 142.269C17.7334 142.772 17.6056 143.265 17.4097 143.734Z" fill="#2C0BF1"/>
<path d="M14.9297 140.086C15.4381 140.106 15.942 140.188 16.4297 140.329C16.9352 140.407 17.4267 140.554 17.8897 140.765C17.3801 140.757 16.8746 140.675 16.3897 140.523C15.8842 140.445 15.3927 140.298 14.9297 140.086Z" fill="#2C0BF1"/>
<path d="M135.577 115.359C145.311 111.499 149.976 100.714 145.998 91.2706C142.02 81.8268 130.904 77.3 121.17 81.1598C111.436 85.0195 106.77 95.8041 110.749 105.248C114.727 114.692 125.843 119.218 135.577 115.359Z" fill="white"/>
<path d="M147.41 98.2707C147.399 98.1708 147.399 98.0699 147.41 97.97C147.41 97.7468 147.36 97.4558 147.33 97.0968C147.318 96.6238 147.261 96.1528 147.16 95.69C147.079 95.0333 146.942 94.3843 146.75 93.7496C146.298 92.0384 145.584 90.403 144.63 88.8986C142.379 85.2535 138.889 82.484 134.76 81.0672C130.631 79.6505 126.122 79.6751 122.01 81.137C120.301 81.7221 118.695 82.5599 117.25 83.6207C116.48 84.158 115.749 84.7447 115.06 85.3768C114.401 86.0438 113.787 86.7502 113.22 87.4918C110.848 90.6111 109.569 94.3851 109.569 98.261C109.569 102.137 110.848 105.911 113.22 109.03C113.784 109.774 114.399 110.48 115.06 111.145C115.729 111.775 116.441 112.362 117.19 112.901C118.635 113.965 120.24 114.806 121.95 115.395C126.063 116.845 130.568 116.864 134.694 115.448C138.82 114.033 142.311 111.27 144.57 107.633C145.524 106.129 146.239 104.494 146.69 102.782C146.88 102.147 147.017 101.498 147.1 100.842C147.201 100.376 147.258 99.9015 147.27 99.4253C147.27 99.0663 147.33 98.7753 147.35 98.5521C147.34 98.4521 147.34 98.3514 147.35 98.2514C147.36 98.3513 147.36 98.4521 147.35 98.5521C147.35 98.7753 147.35 99.0663 147.35 99.435C147.348 99.9127 147.307 100.389 147.23 100.861C147.157 101.516 147.033 102.165 146.86 102.802C146.439 104.555 145.741 106.234 144.79 107.779C143.408 110.059 141.541 112.026 139.313 113.55C137.085 115.074 134.547 116.12 131.87 116.617C128.486 117.241 124.991 116.973 121.75 115.841C119.997 115.244 118.351 114.387 116.87 113.299C116.095 112.755 115.362 112.155 114.68 111.504C113.996 110.823 113.362 110.096 112.78 109.331C110.337 106.13 109.019 102.253 109.019 98.2707C109.019 94.2884 110.337 90.4112 112.78 87.2105C113.362 86.4451 113.996 85.719 114.68 85.0372C115.37 84.3945 116.101 83.795 116.87 83.2424C118.351 82.1575 119.997 81.3032 121.75 80.7101C124.99 79.5752 128.485 79.3039 131.87 79.9243C134.549 80.4208 137.087 81.4672 139.316 82.9932C141.544 84.5192 143.41 86.4897 144.79 88.7725C145.742 90.3135 146.441 91.9896 146.86 93.7399C147.033 94.3767 147.157 95.0254 147.23 95.6803C147.307 96.1553 147.348 96.6353 147.35 97.1162C147.35 97.4752 147.35 97.7662 147.35 97.9894C147.38 98.0809 147.4 98.1752 147.41 98.2707Z" fill="#2C0BF1"/>
<path d="M129.94 98.552C130.935 98.6865 131.891 99.0166 132.75 99.5222C133.734 100.142 134.528 101.006 135.05 102.025C135.728 103.372 136.071 104.854 136.05 106.352V106.42H135.97H120.79H120.69V106.333C120.674 104.891 120.995 103.465 121.63 102.161C122.124 101.152 122.883 100.285 123.83 99.6483C124.76 99.0686 125.806 98.6851 126.9 98.5229V98.7072C126.118 98.3725 125.449 97.831 124.97 97.1446C124.491 96.4583 124.22 95.6549 124.19 94.8264C124.149 94.0763 124.303 93.3282 124.636 92.6504C124.97 91.9725 125.473 91.3864 126.1 90.9455C126.673 90.5479 127.344 90.3022 128.045 90.2324C128.747 90.1627 129.455 90.2714 130.1 90.5477C130.643 90.7888 131.13 91.134 131.532 91.5625C131.934 91.991 132.243 92.494 132.44 93.0412C132.767 93.9336 132.805 94.9018 132.55 95.816C132.368 96.4916 132.026 97.1164 131.55 97.64C131.238 97.96 130.877 98.2316 130.48 98.4453C130.34 98.5145 130.197 98.576 130.05 98.6296C130.594 98.3765 131.083 98.024 131.49 97.5915C131.968 97.0772 132.312 96.458 132.49 95.7869C132.733 94.8962 132.688 93.9544 132.36 93.0897C132.167 92.5611 131.866 92.076 131.474 91.6641C131.082 91.2521 130.607 90.9218 130.08 90.6933C129.465 90.4362 128.793 90.3369 128.127 90.4049C127.462 90.4728 126.826 90.7058 126.28 91.0813C125.679 91.5137 125.198 92.084 124.881 92.741C124.563 93.398 124.418 94.1212 124.46 94.8458C124.493 95.635 124.755 96.3993 125.214 97.0513C125.674 97.7032 126.314 98.2165 127.06 98.5326L127.38 98.6587L127.03 98.7266C125.962 98.8838 124.939 99.2574 124.03 99.823C123.111 100.439 122.377 101.279 121.9 102.258C121.28 103.532 120.962 104.924 120.97 106.333L120.87 106.236L136.05 106.323L135.97 106.401C135.995 104.927 135.673 103.467 135.03 102.132C134.52 101.128 133.748 100.272 132.79 99.6483C132.435 99.4239 132.056 99.2384 131.66 99.0953C131.374 98.9694 131.076 98.8719 130.77 98.8042L129.94 98.552Z" fill="#2C0BF1"/>
<path d="M118.33 205.788C118.33 205.788 118.33 205.613 118.28 205.273C118.23 204.934 118.22 204.4 118.17 203.74C118.17 203.401 118.17 203.032 118.1 202.615C118.03 202.198 117.97 201.761 117.89 201.276C117.741 200.156 117.51 199.047 117.2 197.958C116.422 194.952 115.182 192.077 113.52 189.43C111.344 185.91 108.492 182.827 105.12 180.349C101.039 177.333 96.2844 175.289 91.2397 174.382C89.8653 174.138 88.4755 173.982 87.0797 173.917C86.3697 173.917 85.6498 173.829 84.9298 173.839L82.7498 173.946C82.3797 173.946 82.0097 173.946 81.6497 174.014L80.5497 174.179C79.8197 174.295 79.0697 174.382 78.3297 174.528C76.8401 174.853 75.3737 175.271 73.9397 175.779C72.4703 176.3 71.0373 176.912 69.6497 177.613C68.9497 177.982 68.2897 178.409 67.6497 178.806C66.951 179.199 66.2826 179.64 65.6497 180.126C64.3356 181.071 63.0894 182.102 61.9197 183.211C60.7587 184.375 59.6795 185.613 58.6897 186.917C56.6443 189.582 55.0571 192.55 53.9897 195.707C51.7296 202.249 51.7296 209.327 53.9897 215.868C55.0647 219.027 56.6549 221.998 58.6997 224.668C60.631 227.29 62.9963 229.585 65.6997 231.459C66.3324 231.948 67.0008 232.392 67.6997 232.788C68.3797 233.186 69.0497 233.613 69.6997 233.972C71.0824 234.682 72.5161 235.295 73.9897 235.805C75.4222 236.318 76.8889 236.737 78.3797 237.057C79.1197 237.212 79.8697 237.29 80.5997 237.406L81.6997 237.571C82.0597 237.62 82.4297 237.62 82.7997 237.639L84.9797 237.755C85.6997 237.755 86.4198 237.697 87.1297 237.678C88.5255 237.612 89.9153 237.457 91.2897 237.212C95.8768 236.363 100.228 234.585 104.058 231.994C107.889 229.403 111.113 226.057 113.52 222.174C115.18 219.526 116.421 216.652 117.2 213.646C117.51 212.557 117.741 211.449 117.89 210.328C117.97 209.843 118.06 209.358 118.1 208.979C118.14 208.601 118.15 208.194 118.17 207.854C118.17 207.204 118.25 206.69 118.28 206.331C118.31 205.972 118.33 205.807 118.33 205.807C118.33 205.807 118.33 205.982 118.33 206.331C118.33 206.68 118.33 207.204 118.28 207.864C118.28 208.203 118.28 208.582 118.23 208.989C118.18 209.397 118.11 209.853 118.04 210.347C117.91 211.477 117.693 212.596 117.39 213.695C116.643 216.732 115.422 219.64 113.77 222.32C111.361 226.27 108.113 229.678 104.242 232.318C100.372 234.957 95.9668 236.768 91.3197 237.629C89.9264 237.886 88.5163 238.048 87.0998 238.114C86.3797 238.114 85.6598 238.211 84.9298 238.202L82.7198 238.095C82.3498 238.095 81.9697 238.095 81.5997 238.027L80.4897 237.862C79.7397 237.746 78.9797 237.668 78.2397 237.513C76.7242 237.195 75.2338 236.774 73.7797 236.252C72.2839 235.737 70.827 235.121 69.4197 234.408C68.7097 234.03 68.0297 233.603 67.3297 233.205C66.6327 232.8 65.9645 232.349 65.3297 231.857C62.6017 229.954 60.2134 227.63 58.2597 224.978C56.1804 222.267 54.5631 219.251 53.4697 216.042C51.1768 209.4 51.1768 202.214 53.4697 195.571C54.5631 192.363 56.1804 189.346 58.2597 186.636C59.2658 185.315 60.3616 184.061 61.5397 182.881C62.7332 181.762 64.0027 180.721 65.3397 179.767C65.9701 179.269 66.6387 178.818 67.3397 178.418C68.0397 178.021 68.7197 177.584 69.4297 177.215C72.2189 175.812 75.1836 174.766 78.2498 174.101C78.9897 173.955 79.7497 173.868 80.4897 173.752L81.6098 173.587C81.9797 173.587 82.3498 173.587 82.7198 173.519L84.9298 173.422C85.6698 173.422 86.3898 173.48 87.1098 173.509C88.5263 173.576 89.9364 173.738 91.3298 173.994C95.9768 174.856 100.382 176.666 104.252 179.306C108.123 181.945 111.371 185.354 113.78 189.304C115.432 191.983 116.653 194.892 117.4 197.929C117.704 199.027 117.921 200.146 118.05 201.276C118.12 201.761 118.2 202.246 118.24 202.625C118.28 203.003 118.24 203.42 118.29 203.76C118.29 204.41 118.29 204.924 118.34 205.293C118.39 205.661 118.33 205.788 118.33 205.788Z" fill="#2C0BF1"/>
<path d="M67.4897 204.507C67.4983 204.6 67.4983 204.695 67.4897 204.788V206.195C67.4897 206.418 67.4897 206.651 67.5497 206.913C67.5975 207.513 67.6844 208.109 67.8097 208.698C68.1158 210.313 68.6721 211.873 69.4597 213.326C71.316 216.832 74.3722 219.601 78.1038 221.159C81.8353 222.717 86.0095 222.966 89.9097 221.864C90.7039 221.638 91.4822 221.362 92.2397 221.039C93.007 220.687 93.7487 220.285 94.4597 219.836C95.1868 219.384 95.8817 218.885 96.5397 218.342C97.1956 217.765 97.8103 217.146 98.3797 216.489C99.5565 215.148 100.502 213.631 101.18 211.997C101.869 210.315 102.293 208.542 102.44 206.738C102.534 204.927 102.352 203.113 101.9 201.354C101.448 199.65 100.715 198.028 99.7297 196.551C98.8099 195.103 97.6512 193.812 96.2997 192.729C95.6661 192.199 94.998 191.71 94.2997 191.264C93.5796 190.846 92.8313 190.477 92.0597 190.158C88.3465 188.574 84.182 188.288 80.2761 189.35C76.3702 190.411 72.9646 192.754 70.6397 195.979C69.6612 197.321 68.8991 198.799 68.3797 200.364C68.1726 200.927 68.0089 201.504 67.8897 202.091C67.8297 202.343 67.7597 202.576 67.7197 202.799C67.6797 203.022 67.6697 203.207 67.6397 203.391L67.5297 204.196C67.5212 204.289 67.501 204.38 67.4697 204.468C67.4609 204.374 67.4609 204.28 67.4697 204.187C67.4697 203.983 67.4697 203.721 67.5497 203.381L67.6097 202.78C67.6097 202.557 67.7097 202.324 67.7597 202.072C67.8671 201.476 68.0209 200.889 68.2197 200.316C68.7178 198.723 69.4666 197.214 70.4397 195.843C71.8618 193.824 73.7097 192.12 75.8611 190.846C78.0126 189.571 80.4186 188.755 82.9197 188.45C86.0823 188.078 89.2898 188.534 92.2097 189.77C92.9846 190.1 93.7362 190.479 94.4597 190.905C95.1923 191.354 95.8908 191.853 96.5497 192.399C97.9384 193.492 99.1282 194.804 100.07 196.28C101.085 197.79 101.839 199.452 102.3 201.199C102.765 202.995 102.95 204.85 102.85 206.7C102.702 208.55 102.267 210.369 101.56 212.094C100.865 213.764 99.8954 215.313 98.6897 216.683C98.1086 217.37 97.4805 218.018 96.8097 218.623C96.1332 219.177 95.4218 219.689 94.6797 220.156C93.9484 220.609 93.1867 221.014 92.3997 221.369C88.6967 222.953 84.5551 223.294 80.6297 222.339C78.1966 221.723 75.9268 220.611 73.9714 219.077C72.016 217.542 70.4201 215.622 69.2897 213.442C68.5032 211.962 67.96 210.371 67.6797 208.727C67.5603 208.135 67.4868 207.535 67.4597 206.932C67.4597 206.67 67.4597 206.428 67.4097 206.205C67.3597 205.982 67.4097 205.788 67.4097 205.603V204.788C67.4263 204.692 67.4531 204.598 67.4897 204.507Z" fill="#2C0BF1"/>
<path d="M93.0597 206.156H92.4297H90.7197C89.2697 206.156 87.2397 206.156 84.9497 206.156H84.8397V204.934C84.8397 202.46 84.8397 200.219 84.8397 198.589C84.8397 197.813 84.8397 197.163 84.8397 196.648C84.8232 196.416 84.8232 196.183 84.8397 195.95C84.8602 196.182 84.8602 196.416 84.8397 196.648C84.8397 197.143 84.8397 197.793 84.8397 198.589C84.8397 200.219 84.8397 202.47 84.8397 204.934V206.05L84.7197 205.933H90.4897H92.1997C92.4958 205.968 92.7854 206.043 93.0597 206.156Z" fill="#2C0BF1"/>
<path d="M85.0597 191.332C85.2106 192.296 85.2106 193.278 85.0597 194.242C84.8954 193.279 84.8954 192.295 85.0597 191.332Z" fill="#2C0BF1"/>
<path d="M93.0598 193.641C92.4839 194.407 91.789 195.081 90.9998 195.639C91.5756 194.874 92.2705 194.2 93.0598 193.641Z" fill="#2C0BF1"/>
<path d="M97.7697 198.618C97.3972 198.927 96.9875 199.19 96.5497 199.404C96.1536 199.683 95.7238 199.914 95.2697 200.093C95.5985 199.736 95.9916 199.44 96.4297 199.219C96.8306 198.934 97.2862 198.73 97.7697 198.618Z" fill="#2C0BF1"/>
<path d="M100.52 206.001C99.191 206.153 97.8484 206.153 96.5197 206.001C97.8492 205.861 99.1903 205.861 100.52 206.001Z" fill="#2C0BF1"/>
<path d="M72.5197 205.74C71.2514 205.895 69.968 205.895 68.6997 205.74C69.9688 205.597 71.2506 205.597 72.5197 205.74Z" fill="#2C0BF1"/>
<path d="M74.4997 211.24C74.0703 211.703 73.5871 212.117 73.0597 212.472C72.5745 212.895 72.041 213.263 71.4697 213.569C71.8999 213.095 72.3829 212.668 72.9097 212.298C73.397 211.888 73.9304 211.533 74.4997 211.24Z" fill="#2C0BF1"/>
<path d="M79.3798 215.499C79.0931 216.074 78.7587 216.626 78.3798 217.149C78.0917 217.711 77.7573 218.249 77.3798 218.759C77.5683 218.144 77.8552 217.561 78.2298 217.032C78.5309 216.468 78.9186 215.951 79.3798 215.499Z" fill="#2C0BF1"/>
<path d="M85.0597 220.981C84.9029 219.692 84.9029 218.389 85.0597 217.1C85.2035 218.39 85.2035 219.691 85.0597 220.981Z" fill="#2C0BF1"/>
<path d="M93.7397 218.371C92.5484 217.755 91.5214 216.878 90.7397 215.81C91.2674 216.212 91.7715 216.643 92.2498 217.1C92.7739 217.492 93.2715 217.917 93.7397 218.371Z" fill="#2C0BF1"/>
<path d="M97.8297 214.102C97.3326 213.78 96.882 213.395 96.4897 212.957C96.0462 212.573 95.6502 212.14 95.3097 211.667C95.8081 211.984 96.259 212.366 96.6497 212.802C97.0981 213.185 97.4946 213.622 97.8297 214.102Z" fill="#2C0BF1"/>
<path d="M74.3098 200.471C73.8709 200.204 73.4735 199.877 73.1298 199.501C72.7476 199.162 72.4116 198.777 72.1298 198.356C72.5726 198.618 72.9707 198.945 73.3098 199.326C73.6986 199.659 74.0355 200.044 74.3098 200.471Z" fill="#2C0BF1"/>
<path d="M79.3497 195.319C78.9161 195.053 78.5253 194.726 78.1897 194.349C77.7963 194.028 77.4587 193.648 77.1897 193.224C77.6213 193.493 78.0117 193.819 78.3497 194.194C78.7397 194.518 79.0769 194.897 79.3497 195.319Z" fill="#2C0BF1"/>
<path d="M164.45 253.046C164.341 251.861 164.15 250.684 163.88 249.524C163.521 248.18 162.958 246.895 162.21 245.711C160.441 242.856 157.703 240.688 154.465 239.58C151.228 238.472 147.693 238.492 144.47 239.638C143.134 240.095 141.879 240.749 140.75 241.578C139.557 242.421 138.511 243.443 137.65 244.605C135.792 247.046 134.789 250.001 134.789 253.036C134.789 256.071 135.792 259.026 137.65 261.467C138.508 262.634 139.555 263.66 140.75 264.504C141.881 265.329 143.136 265.983 144.47 266.444C146.945 267.321 149.617 267.542 152.21 267.084C154.27 266.711 156.225 265.92 157.948 264.763C159.672 263.606 161.124 262.109 162.21 260.371C162.96 259.188 163.523 257.903 163.88 256.558C164.151 255.398 164.342 254.221 164.45 253.036C164.454 253.114 164.454 253.191 164.45 253.269C164.45 253.463 164.45 253.686 164.45 253.967C164.449 254.344 164.419 254.72 164.36 255.093C164.304 255.603 164.21 256.109 164.08 256.606C163.744 257.971 163.197 259.28 162.46 260.487C161.374 262.286 159.906 263.84 158.152 265.045C156.398 266.25 154.4 267.077 152.29 267.472C149.615 267.963 146.853 267.752 144.29 266.861C141.46 265.869 138.999 264.083 137.22 261.729C135.286 259.204 134.242 256.142 134.242 252.997C134.242 249.852 135.286 246.79 137.22 244.266C139.003 241.918 141.463 240.136 144.29 239.143C146.851 238.243 149.615 238.032 152.29 238.532C154.398 238.928 156.395 239.754 158.149 240.957C159.902 242.16 161.372 243.711 162.46 245.507C163.196 246.715 163.742 248.023 164.08 249.388C164.211 249.889 164.305 250.398 164.36 250.911C164.419 251.28 164.449 251.653 164.45 252.027C164.45 252.308 164.45 252.541 164.45 252.726C164.458 252.832 164.458 252.939 164.45 253.046Z" fill="#2C0BF1"/>
<path d="M152.43 256.393C152.742 256.364 153.057 256.417 153.34 256.548C153.742 256.722 154.093 256.991 154.362 257.33C154.631 257.668 154.809 258.067 154.88 258.488C154.977 259.109 154.861 259.743 154.55 260.293C154.368 260.617 154.112 260.896 153.802 261.11C153.491 261.323 153.135 261.465 152.76 261.525C152.325 261.581 151.882 261.52 151.48 261.349C151.078 261.178 150.732 260.904 150.48 260.555C150.193 260.176 150.009 259.733 149.944 259.267C149.88 258.801 149.937 258.326 150.11 257.887V257.984C149.02 257.314 147.85 256.606 146.67 255.772H146.77C146.393 255.984 145.965 256.096 145.53 256.096C145.094 256.096 144.666 255.984 144.29 255.772C143.967 255.605 143.686 255.373 143.465 255.091C143.244 254.809 143.089 254.484 143.009 254.138C142.93 253.793 142.929 253.434 143.006 253.088C143.083 252.742 143.236 252.416 143.455 252.133C143.674 251.849 143.954 251.615 144.275 251.447C144.596 251.278 144.951 251.179 145.315 251.156C145.679 251.133 146.045 251.187 146.385 251.314C146.726 251.441 147.035 251.637 147.29 251.891H147.15L148.58 250.766L150.05 249.698V249.815C149.929 249.501 149.878 249.166 149.9 248.831C149.922 248.497 150.018 248.17 150.18 247.874C150.336 247.577 150.555 247.315 150.822 247.104C151.089 246.894 151.398 246.74 151.73 246.652C152.052 246.562 152.39 246.535 152.723 246.574C153.056 246.612 153.378 246.714 153.67 246.875C154.237 247.195 154.659 247.712 154.85 248.321C155.027 248.882 154.99 249.487 154.745 250.025C154.5 250.562 154.064 250.996 153.516 251.247C152.969 251.498 152.346 251.549 151.763 251.391C151.18 251.233 150.674 250.877 150.34 250.387H150.47C149.47 251.163 148.56 251.842 147.68 252.463V252.357C148.003 252.831 148.145 253.4 148.081 253.966C148.017 254.531 147.751 255.057 147.33 255.452V255.355C148.65 256.17 149.65 256.936 150.46 257.489H150.4C150.724 256.992 151.226 256.629 151.81 256.47C152.007 256.413 152.214 256.393 152.42 256.412C152.217 256.422 152.015 256.454 151.82 256.509C151.258 256.686 150.78 257.05 150.47 257.538C149.65 256.994 148.64 256.247 147.32 255.442H147.25L147.31 255.393C147.703 255.02 147.95 254.524 148.006 253.992C148.063 253.461 147.926 252.927 147.62 252.483V252.415H147.68C148.56 251.794 149.49 251.115 150.45 250.329L150.52 250.271V250.348C150.805 250.764 151.222 251.078 151.709 251.241C152.195 251.404 152.723 251.408 153.212 251.252C153.701 251.095 154.124 250.788 154.415 250.376C154.706 249.964 154.85 249.471 154.824 248.972C154.798 248.474 154.604 247.997 154.272 247.615C153.94 247.234 153.488 246.969 152.986 246.86C152.484 246.752 151.958 246.807 151.491 247.017C151.024 247.226 150.64 247.579 150.4 248.02C150.25 248.297 150.161 248.602 150.141 248.915C150.12 249.227 150.167 249.541 150.28 249.834V249.912H150.21L148.75 250.969L147.33 252.095L147.25 252.153L147.19 252.095C146.874 251.813 146.485 251.622 146.065 251.541C145.645 251.461 145.21 251.494 144.808 251.638C144.406 251.781 144.052 252.029 143.786 252.355C143.52 252.681 143.352 253.072 143.3 253.484C143.248 253.897 143.314 254.315 143.491 254.694C143.669 255.072 143.95 255.396 144.304 255.629C144.659 255.863 145.073 255.997 145.501 256.017C145.928 256.037 146.354 255.942 146.73 255.743H146.79H146.84C148 256.577 149.17 257.285 150.25 257.955H150.31V258.023C150.148 258.437 150.094 258.884 150.152 259.324C150.209 259.763 150.377 260.183 150.64 260.545C150.878 260.87 151.203 261.127 151.58 261.288C151.957 261.448 152.371 261.507 152.78 261.457C153.137 261.406 153.478 261.275 153.774 261.075C154.071 260.874 154.316 260.61 154.49 260.303C154.796 259.779 154.912 259.171 154.82 258.576C154.765 258.159 154.602 257.763 154.346 257.424C154.091 257.084 153.752 256.813 153.36 256.635C153.069 256.497 152.753 256.415 152.43 256.393Z" fill="#2C0BF1"/>
<path d="M374.48 203.537C374.48 203.537 374.48 203.352 374.42 202.993C374.36 202.635 374.36 202.091 374.32 201.402L374.24 200.238C374.24 199.811 374.1 199.346 374.02 198.841C373.869 197.677 373.629 196.526 373.3 195.397C372.497 192.27 371.209 189.28 369.48 186.529C366.975 182.487 363.618 179.004 359.628 176.308C355.638 173.613 351.107 171.766 346.33 170.89C344.899 170.633 343.453 170.471 342 170.405C341.26 170.405 340.52 170.317 339.77 170.327L337.5 170.444C337.12 170.444 336.74 170.444 336.36 170.511L335.22 170.686C334.46 170.802 333.68 170.89 332.92 171.045C331.369 171.382 329.842 171.816 328.35 172.345C326.819 172.892 325.329 173.541 323.89 174.285C323.17 174.674 322.47 175.11 321.76 175.527C321.035 175.936 320.343 176.397 319.69 176.905C318.328 177.891 317.032 178.961 315.81 180.107C314.602 181.324 313.483 182.62 312.46 183.987C310.333 186.759 308.682 189.845 307.57 193.127C305.209 199.921 305.209 207.279 307.57 214.073C308.686 217.332 310.337 220.396 312.46 223.144C313.485 224.51 314.604 225.806 315.81 227.025C317.027 228.179 318.323 229.252 319.69 230.237C320.346 230.742 321.038 231.202 321.76 231.614C322.47 232.022 323.17 232.468 323.89 232.846C325.329 233.591 326.819 234.239 328.35 234.787C329.842 235.319 331.369 235.757 332.92 236.096C333.68 236.242 334.46 236.329 335.22 236.455L336.36 236.63C336.74 236.679 337.13 236.63 337.51 236.698L339.77 236.814C340.52 236.814 341.27 236.756 342 236.727C343.453 236.661 344.899 236.499 346.33 236.242C351.11 235.374 355.646 233.531 359.636 230.835C363.627 228.139 366.982 224.651 369.48 220.603C371.209 217.855 372.497 214.868 373.3 211.745C373.629 210.613 373.869 209.458 374.02 208.291C374.1 207.786 374.2 207.321 374.24 206.903C374.28 206.486 374.29 206.079 374.32 205.729C374.32 205.05 374.4 204.517 374.42 204.148C374.44 203.779 374.48 203.605 374.48 203.605C374.48 203.605 374.48 203.789 374.48 204.148C374.48 204.507 374.48 205.05 374.42 205.739C374.42 206.088 374.42 206.477 374.37 206.913C374.32 207.35 374.25 207.806 374.18 208.32C374.039 209.492 373.812 210.653 373.5 211.793C372.725 214.948 371.453 217.969 369.73 220.748C367.229 224.854 363.856 228.396 359.835 231.139C355.814 233.882 351.238 235.764 346.41 236.659C344.963 236.922 343.5 237.09 342.03 237.164C341.28 237.164 340.53 237.261 339.77 237.251L337.47 237.144C337.09 237.144 336.7 237.144 336.31 237.067L335.16 236.902C334.38 236.776 333.6 236.688 332.82 236.533C331.249 236.197 329.703 235.762 328.19 235.233C326.636 234.687 325.122 234.039 323.66 233.293C322.92 232.914 322.22 232.468 321.49 232.051C320.763 231.629 320.065 231.162 319.4 230.654C316.559 228.681 314.076 226.264 312.05 223.503C309.877 220.691 308.188 217.555 307.05 214.219C304.65 207.324 304.65 199.856 307.05 192.962C308.188 189.625 309.877 186.489 312.05 183.677C314.08 180.922 316.563 178.509 319.4 176.536C320.06 176.021 320.759 175.555 321.49 175.139C322.22 174.722 322.92 174.276 323.66 173.888C326.558 172.434 329.636 171.349 332.82 170.657C333.6 170.502 334.38 170.414 335.15 170.298L336.31 170.123C336.7 170.123 337.09 170.123 337.47 170.055L339.77 169.949C340.53 169.949 341.28 170.007 342.03 170.036C343.5 170.104 344.964 170.273 346.41 170.541C351.238 171.432 355.815 173.311 359.836 176.052C363.858 178.794 367.23 182.336 369.73 186.442C371.453 189.225 372.725 192.248 373.5 195.407C373.813 196.547 374.04 197.708 374.18 198.88C374.25 199.384 374.33 199.85 374.37 200.287C374.41 200.723 374.37 201.111 374.42 201.461C374.42 202.14 374.42 202.673 374.48 203.052C374.54 203.43 374.48 203.537 374.48 203.537Z" fill="#2C0BF1"/>
<path d="M361.18 220.622C360.929 220.665 360.674 220.682 360.42 220.67L358.24 220.719L350.24 220.797L323.77 220.865H321.63V220.622C321.63 211.027 321.69 202.421 321.71 196.163C321.71 193.088 321.76 190.594 321.78 188.809C321.78 187.975 321.78 187.315 321.83 186.82C321.819 186.586 321.835 186.352 321.88 186.122C321.895 186.354 321.895 186.588 321.88 186.82C321.88 187.315 321.88 187.975 321.88 188.809C321.88 190.594 321.93 193.088 321.96 196.163C321.96 202.421 322.01 211.027 322.04 220.622L321.79 220.379H323.68L350.15 220.457L358.15 220.535H360.33C360.615 220.545 360.899 220.575 361.18 220.622Z" fill="#2C0BF1"/>
<path d="M356.81 194.494C356.448 194.884 356.057 195.248 355.64 195.581L352.32 198.414C349.5 200.781 345.58 204.032 341.24 207.602L340.58 208.145L340.41 208.281L340.25 208.136C338.51 206.574 336.86 205.07 335.32 203.692H335.63L328.39 209.513L326.3 211.143C326.055 211.349 325.791 211.531 325.51 211.687C325.715 211.444 325.947 211.223 326.2 211.027L328.2 209.3L335.32 203.372L335.48 203.246L335.63 203.382L340.58 207.796H340.25L340.91 207.253C345.25 203.682 349.2 200.461 352.08 198.171L355.5 195.455C355.909 195.101 356.347 194.78 356.81 194.494Z" fill="#2C0BF1"/>
<path d="M356.81 202.489C356.667 201.705 356.61 200.908 356.64 200.112C356.59 198.637 356.56 196.59 356.56 194.291L356.81 194.533H356.39C353.94 194.533 351.72 194.533 350.12 194.456C349.253 194.483 348.385 194.428 347.53 194.291C348.385 194.152 349.253 194.094 350.12 194.116C351.72 194.116 353.94 194.048 356.39 194.048H357.06V194.291C357.06 196.571 357.06 198.618 356.98 200.112C357.009 200.908 356.952 201.705 356.81 202.489Z" fill="#2C0BF1"/>
<path d="M429.78 127.415C429.748 127.282 429.732 127.145 429.73 127.008C429.73 126.717 429.7 126.319 429.64 125.815C429.64 125.543 429.64 125.252 429.58 124.932C429.52 124.612 429.47 124.262 429.41 123.884C429.296 123.005 429.116 122.136 428.87 121.284C428.257 118.934 427.282 116.687 425.98 114.619C422.908 109.627 418.139 105.831 412.494 103.883C406.849 101.935 400.68 101.958 395.05 103.946C393.898 104.349 392.776 104.826 391.69 105.373C390.595 105.949 389.543 106.597 388.54 107.313C387.516 108.056 386.541 108.859 385.62 109.719C384.719 110.635 383.88 111.608 383.11 112.63C381.513 114.714 380.271 117.033 379.43 119.499C377.669 124.608 377.669 130.135 379.43 135.245C380.263 137.712 381.503 140.031 383.1 142.114C383.874 143.136 384.716 144.108 385.62 145.024C386.539 145.887 387.514 146.69 388.54 147.431C389.543 148.147 390.595 148.795 391.69 149.371C392.776 149.918 393.898 150.394 395.05 150.797C400.681 152.776 406.846 152.794 412.489 150.847C418.132 148.9 422.901 145.109 425.98 140.125C427.284 138.057 428.258 135.81 428.87 133.46C429.117 132.611 429.297 131.745 429.41 130.869C429.47 130.491 429.55 130.142 429.58 129.822C429.61 129.501 429.58 129.201 429.64 128.939C429.68 128.434 429.71 128.036 429.73 127.745C429.732 127.608 429.748 127.472 429.78 127.338C429.793 127.473 429.793 127.61 429.78 127.745C429.78 128.036 429.78 128.434 429.78 128.948V129.831C429.78 130.151 429.69 130.51 429.64 130.889C429.539 131.773 429.368 132.649 429.13 133.508C428.56 135.902 427.605 138.194 426.3 140.3C424.413 143.398 421.869 146.072 418.836 148.144C415.804 150.216 412.352 151.64 408.71 152.32C404.106 153.16 399.355 152.788 394.95 151.243C393.778 150.837 392.635 150.354 391.53 149.798C390.411 149.203 389.335 148.535 388.31 147.799C387.255 147.047 386.252 146.227 385.31 145.345C384.385 144.43 383.523 143.458 382.73 142.434C381.102 140.305 379.836 137.937 378.98 135.42C377.166 130.212 377.166 124.57 378.98 119.363C379.833 116.846 381.103 114.48 382.74 112.358C383.527 111.332 384.386 110.36 385.31 109.447C386.251 108.566 387.253 107.75 388.31 107.003C389.33 106.265 390.403 105.597 391.52 105.004C392.625 104.448 393.768 103.965 394.94 103.558C399.345 102.013 404.096 101.642 408.7 102.481C412.331 103.164 415.771 104.587 418.793 106.656C421.815 108.725 424.35 111.393 426.23 114.483C427.531 116.59 428.486 118.881 429.06 121.274C429.298 122.137 429.468 123.016 429.57 123.903C429.62 124.282 429.68 124.631 429.71 124.961C429.74 125.291 429.71 125.582 429.71 125.844C429.71 126.358 429.71 126.756 429.71 127.047C429.744 127.167 429.768 127.291 429.78 127.415Z" fill="#2C0BF1"/>
<path d="M404.62 113.949C404.62 113.949 404.62 113.881 404.47 113.774C404.395 113.691 404.303 113.623 404.2 113.576C404.096 113.529 403.984 113.504 403.87 113.503C403.687 113.494 403.506 113.541 403.353 113.639C403.2 113.737 403.083 113.879 403.02 114.046C402.82 114.444 402.6 114.9 402.34 115.404C401.83 116.442 401.2 117.694 400.48 119.149L399.91 120.275L399.61 120.876C399.477 121.099 399.263 121.265 399.01 121.342C398.01 121.507 397.07 121.633 396.01 121.788L392.75 122.254L391.02 122.506C390.897 122.536 390.785 122.595 390.692 122.678C390.6 122.761 390.53 122.866 390.491 122.982C390.451 123.098 390.442 123.222 390.464 123.342C390.487 123.462 390.54 123.575 390.62 123.67L396.26 128.987C396.412 129.12 396.523 129.29 396.583 129.48C396.643 129.669 396.649 129.871 396.6 130.064L396.42 131.034L396.06 133.1C395.82 134.498 395.57 135.914 395.31 137.36C395.281 137.468 395.279 137.581 395.304 137.689C395.329 137.798 395.38 137.9 395.454 137.986C395.527 138.072 395.62 138.14 395.725 138.185C395.83 138.229 395.945 138.249 396.06 138.242C396.223 138.214 396.38 138.154 396.52 138.068L398.58 137.02L402.78 134.876L403.32 134.595C403.539 134.497 403.784 134.47 404.02 134.517C404.227 134.576 404.425 134.661 404.61 134.769L405.14 135.041L407.23 136.108L411.3 138.184C411.437 138.241 411.588 138.255 411.734 138.224C411.879 138.192 412.011 138.117 412.11 138.01C412.216 137.906 412.28 137.768 412.29 137.622C412.291 137.455 412.274 137.29 412.24 137.127C412.11 136.418 411.99 135.72 411.87 135.021C411.623 133.631 411.383 132.273 411.15 130.947C411.09 130.607 411.03 130.277 410.98 129.976C410.941 129.785 410.957 129.588 411.025 129.405C411.094 129.222 411.213 129.06 411.37 128.938L412.8 127.59L415.55 124.999L416.86 123.767C416.956 123.692 417.031 123.595 417.08 123.485C417.129 123.375 417.149 123.255 417.139 123.135C417.129 123.016 417.09 122.901 417.024 122.799C416.957 122.698 416.867 122.614 416.76 122.554C416.512 122.467 416.253 122.415 415.99 122.399L415.16 122.273L413.57 122.05L410.57 121.613L409.21 121.419C408.98 121.419 408.79 121.419 408.54 121.303C408.314 121.23 408.123 121.083 408 120.886L406.12 117.141L405.06 114.783C404.93 114.531 404.84 114.327 404.76 114.162L404.67 113.949C404.721 114.012 404.764 114.08 404.8 114.153L405.12 114.754C405.42 115.307 405.83 116.093 406.35 117.092C406.87 118.092 407.53 119.353 408.28 120.789C408.376 120.946 408.53 121.064 408.71 121.119C408.917 121.163 409.128 121.196 409.34 121.216L410.71 121.4L413.71 121.807L415.31 122.031L416.14 122.137C416.439 122.155 416.733 122.22 417.01 122.331C417.169 122.402 417.306 122.512 417.408 122.65C417.509 122.788 417.572 122.949 417.589 123.118C417.606 123.287 417.578 123.457 417.506 123.612C417.434 123.767 417.321 123.901 417.18 124L415.88 125.242L413.06 127.842L411.62 129.2C411.505 129.284 411.418 129.398 411.368 129.529C411.319 129.66 411.309 129.802 411.34 129.938C411.4 130.258 411.45 130.588 411.51 130.908C411.75 132.237 411.99 133.595 412.24 134.983C412.37 135.681 412.49 136.38 412.62 137.088C412.662 137.279 412.682 137.474 412.68 137.67C412.662 137.891 412.567 138.1 412.41 138.262C412.258 138.427 412.057 138.542 411.835 138.591C411.612 138.64 411.38 138.62 411.17 138.533L407.07 136.448L404.98 135.39L404.46 135.118C404.301 135.027 404.134 134.953 403.96 134.895C403.804 134.866 403.643 134.887 403.5 134.954L402.98 135.215L398.77 137.36L396.77 138.407C396.584 138.519 396.376 138.591 396.16 138.621C395.989 138.631 395.819 138.602 395.662 138.538C395.505 138.473 395.366 138.373 395.255 138.247C395.144 138.121 395.066 137.972 395.025 137.811C394.984 137.65 394.982 137.482 395.02 137.321C395.27 135.875 395.53 134.41 395.77 133.062C395.9 132.363 396.02 131.684 396.14 130.995L396.32 130.025C396.364 129.887 396.364 129.74 396.321 129.601C396.279 129.463 396.195 129.341 396.08 129.249L390.44 123.884C390.332 123.748 390.26 123.588 390.23 123.419C390.2 123.25 390.214 123.076 390.27 122.913C390.325 122.749 390.425 122.602 390.559 122.488C390.692 122.374 390.855 122.296 391.03 122.263L392.77 122.011L396.04 121.565L398.99 121.157C399.189 121.102 399.358 120.973 399.46 120.798L399.76 120.216L400.34 119.091L402.26 115.385C402.53 114.88 402.76 114.415 402.97 114.036C403.054 113.852 403.196 113.697 403.375 113.595C403.555 113.492 403.762 113.446 403.97 113.464C404.09 113.474 404.207 113.507 404.314 113.562C404.42 113.617 404.514 113.693 404.59 113.784C404.61 113.837 404.62 113.893 404.62 113.949Z" fill="#2C0BF1"/>
<path d="M360.43 50.0328C360.398 49.9355 360.381 49.8341 360.38 49.732C360.38 49.5089 360.38 49.2178 360.31 48.8589C360.293 48.383 360.236 47.9093 360.14 47.4424C360.058 46.7858 359.921 46.1368 359.73 45.502C359.28 43.7903 358.565 42.1547 357.61 40.6511C355.359 37.006 351.869 34.2365 347.74 32.8198C343.611 31.403 339.102 31.4277 334.99 32.8896C333.281 33.4746 331.675 34.3124 330.23 35.3732C329.466 35.9175 328.741 36.5106 328.06 37.1487C327.399 37.8136 326.784 38.5201 326.22 39.2637C323.848 42.3829 322.569 46.1569 322.569 50.0328C322.569 53.9087 323.848 57.6827 326.22 60.8019C326.784 61.5454 327.399 62.252 328.06 62.9169C328.729 63.5469 329.441 64.1336 330.19 64.6729C331.635 65.7367 333.24 66.5777 334.95 67.1663C339.063 68.6166 343.568 68.6356 347.694 67.2198C351.82 65.8041 355.311 63.0416 357.57 59.4048C358.525 57.9011 359.24 56.2656 359.69 54.5539C359.881 53.9191 360.018 53.2701 360.1 52.6135C360.196 52.1466 360.253 51.6729 360.27 51.197C360.27 50.838 360.33 50.547 360.34 50.3238C360.342 50.2218 360.359 50.1207 360.39 50.0231C360.4 50.1231 360.4 50.2239 360.39 50.3238C360.39 50.547 360.39 50.838 360.39 51.2067C360.389 51.6848 360.345 52.162 360.26 52.6329C360.191 53.2876 360.07 53.9363 359.9 54.5733C359.475 56.3248 358.777 58.0032 357.83 59.5503C356.448 61.8301 354.58 63.7977 352.353 65.3218C350.125 66.8459 347.587 67.8915 344.91 68.3887C341.526 69.0127 338.031 68.7447 334.79 67.6126C333.039 67.0121 331.393 66.1548 329.91 65.0707C329.135 64.5264 328.402 63.9264 327.72 63.2758C327.033 62.5966 326.398 61.8703 325.82 61.1026C323.377 57.9019 322.059 54.0248 322.059 50.0425C322.059 46.0601 323.377 42.1831 325.82 38.9823C326.947 37.4488 328.329 36.1078 329.91 35.0143C331.393 33.9301 333.039 33.0729 334.79 32.4724C338.031 31.3403 341.526 31.0723 344.91 31.6962C347.587 32.1935 350.125 33.239 352.353 34.7632C354.58 36.2873 356.448 38.2549 357.83 40.5346C358.777 42.0818 359.475 43.7601 359.9 45.5117C360.07 46.1487 360.191 46.7973 360.26 47.4521C360.345 47.923 360.389 48.4001 360.39 48.8783C360.39 49.2469 360.39 49.538 360.39 49.7611C360.412 49.8502 360.426 49.9412 360.43 50.0328Z" fill="#2C0BF1"/>
<path d="M341.16 51.4783C341.16 51.4783 341.5 51.4783 342.08 51.3231C342.904 51.107 343.629 50.6287 344.14 49.9648C344.55 49.426 344.798 48.7874 344.856 48.1199C344.915 47.4524 344.781 46.7824 344.47 46.1843C344.159 45.5863 343.683 45.0837 343.095 44.7325C342.507 44.3814 341.83 44.1955 341.14 44.1955C340.449 44.1955 339.772 44.3814 339.184 44.7325C338.596 45.0837 338.12 45.5863 337.809 46.1843C337.499 46.7824 337.365 47.4524 337.423 48.1199C337.481 48.7874 337.729 49.426 338.14 49.9648C338.652 50.627 339.377 51.105 340.2 51.3231C340.78 51.4686 341.12 51.4492 341.12 51.4783C340.804 51.5022 340.487 51.476 340.18 51.4007C339.335 51.1999 338.586 50.7238 338.06 50.0521C337.659 49.5518 337.394 48.9614 337.291 48.3355C337.188 47.7097 337.249 47.0687 337.47 46.4721C337.742 45.7367 338.241 45.1008 338.9 44.6513C339.559 44.2017 340.344 43.9604 341.15 43.9604C341.955 43.9604 342.741 44.2017 343.399 44.6513C344.058 45.1008 344.558 45.7367 344.83 46.4721C345.049 47.0682 345.112 47.7084 345.01 48.3338C344.909 48.9593 344.647 49.5501 344.25 50.0521C343.706 50.7411 342.931 51.2248 342.06 51.4201C341.765 51.4848 341.461 51.5044 341.16 51.4783Z" fill="#2C0BF1"/>
<path d="M349.84 47.8111C349.877 48.1983 349.877 48.5881 349.84 48.9753C349.691 50.0742 349.317 51.1332 348.74 52.0896L348.69 52.0119H348.81L348.74 52.0993L342.79 59.8025C342.658 60.028 342.482 60.2257 342.271 60.384C342.06 60.5423 341.818 60.6579 341.56 60.7242C341.284 60.7821 340.998 60.7706 340.729 60.6908C340.459 60.611 340.215 60.4655 340.02 60.2682C339.34 59.4338 338.69 58.5801 338.02 57.6875L333.7 52.1381L333.57 51.9731H333.79L333.7 52.1284C333.385 51.6091 333.127 51.0596 332.93 50.4888C332.348 48.8231 332.314 47.0234 332.832 45.3382C333.35 43.653 334.395 42.1655 335.822 41.0813C337.25 39.9971 338.989 39.3696 340.799 39.2856C342.61 39.2016 344.402 39.6652 345.93 40.6123C347.785 41.736 349.133 43.5008 349.7 45.5505C349.797 45.8679 349.867 46.1923 349.91 46.5207C349.954 46.7576 349.978 46.9978 349.98 47.2387C349.98 47.6267 349.98 47.8305 349.98 47.8305C349.937 47.0698 349.813 46.3155 349.61 45.5796C349.026 43.5633 347.684 41.8326 345.85 40.7287C344.59 39.9784 343.156 39.548 341.68 39.4772C339.987 39.4091 338.312 39.824 336.86 40.6705C335.174 41.6383 333.879 43.1346 333.189 44.9125C332.498 46.6903 332.452 48.6436 333.06 50.4499C333.257 51.0023 333.508 51.5351 333.81 52.041L333.9 52.1963H333.71L333.79 52.0313L338.09 57.5808L340.06 60.1518C340.235 60.3252 340.452 60.4533 340.691 60.5245C340.931 60.5956 341.184 60.6076 341.43 60.5592C341.666 60.4978 341.887 60.3905 342.08 60.2437C342.272 60.097 342.432 59.9139 342.55 59.7055C344.96 56.6397 347 54.0202 348.55 52.0605V52.1478H348.45L348.5 52.0605C349.076 51.1185 349.46 50.0776 349.63 48.9947C349.676 48.7087 349.706 48.4204 349.72 48.1312C349.83 47.9081 349.84 47.8111 349.84 47.8111Z" fill="#2C0BF1"/>
<path d="M267.94 38.8076C267.94 38.8076 267.94 38.6232 267.89 38.274C267.84 37.9247 267.83 37.3911 267.78 36.7314C267.78 36.3918 267.78 36.0134 267.71 35.5962C267.64 35.1791 267.57 34.7231 267.49 34.2283C267.342 33.0941 267.108 31.972 266.79 30.8714C266.007 27.8226 264.749 24.9075 263.06 22.227C260.623 18.2812 257.351 14.8816 253.461 12.2526C249.57 9.62367 245.149 7.82508 240.49 6.97556C239.096 6.72299 237.686 6.56415 236.27 6.50017C235.55 6.50017 234.82 6.41285 234.09 6.42255L231.88 6.52928C231.51 6.52928 231.14 6.52928 230.76 6.60689L229.65 6.77182C228.91 6.88825 228.15 6.97557 227.41 7.12109C225.9 7.45107 224.413 7.87561 222.96 8.39205C221.464 8.91389 220.007 9.53632 218.6 10.2548C217.9 10.6235 217.22 11.0504 216.53 11.4579C215.83 11.8555 215.161 12.303 214.53 12.7967C213.203 13.7601 211.941 14.8035 210.75 15.9207C209.575 17.1007 208.483 18.355 207.48 19.6754C205.405 22.3788 203.794 25.3896 202.71 28.5915C201.604 31.8927 201.017 35.3367 200.97 38.8076C201.012 42.2774 201.592 45.7213 202.69 49.0237C203.774 52.2286 205.385 55.2427 207.46 57.9495C209.395 60.5912 211.759 62.9109 214.46 64.8184C215.093 65.3134 215.761 65.7641 216.46 66.167C217.16 66.5648 217.84 67.0014 218.54 67.3701C219.947 68.0885 221.404 68.711 222.9 69.2328C224.353 69.7461 225.84 70.1674 227.35 70.4941C228.09 70.6493 228.85 70.7366 229.59 70.853L230.71 71.018C231.08 71.018 231.45 71.018 231.82 71.0859L234.03 71.2023C234.76 71.2023 235.49 71.1441 236.21 71.115C237.626 71.0542 239.036 70.8986 240.43 70.6493C245.098 69.7987 249.528 67.9991 253.428 65.3688C257.329 62.7385 260.611 59.3371 263.06 55.3882C264.742 52.7054 265.997 49.7909 266.78 46.7438C267.097 45.6429 267.331 44.521 267.48 43.3869C267.56 42.8921 267.65 42.4167 267.7 42.0189C267.75 41.6211 267.75 41.2234 267.77 40.8838C267.77 40.2144 267.85 39.7002 267.88 39.3315C267.91 38.9628 267.93 38.8076 267.93 38.8076C267.93 38.8076 267.93 38.9822 267.93 39.3315C267.93 39.6808 267.93 40.2241 267.88 40.8838C267.88 41.2331 267.88 41.6114 267.83 42.0286C267.78 42.4458 267.71 42.9115 267.64 43.4063C267.502 44.5486 267.281 45.68 266.98 46.7923C266.224 49.8678 264.986 52.8126 263.31 55.524C260.868 59.5275 257.577 62.9818 253.654 65.6579C249.732 68.3341 245.269 70.1711 240.56 71.0471C239.146 71.3067 237.716 71.472 236.28 71.5419C235.55 71.5419 234.82 71.6389 234.08 71.6292L231.84 71.5225C231.46 71.5225 231.08 71.5225 230.71 71.4546L229.58 71.2896C228.82 71.1732 228.06 71.0859 227.3 70.9307C225.766 70.604 224.256 70.1795 222.78 69.6597C221.264 69.1315 219.787 68.5026 218.36 67.7775C217.65 67.4089 216.96 66.9723 216.25 66.5648C215.551 66.155 214.882 65.6979 214.25 65.1968C212.899 64.2264 211.616 63.1698 210.41 62.034C209.205 60.8351 208.086 59.5579 207.06 58.2114C204.949 55.4686 203.311 52.4115 202.21 49.1595C201.092 45.814 200.498 42.3243 200.45 38.8076C200.492 35.2879 201.082 31.7945 202.2 28.4459C203.305 25.1967 204.946 22.1429 207.06 19.4037C208.074 18.0628 209.183 16.792 210.38 15.6006C211.59 14.462 212.876 13.4021 214.23 12.428C214.863 11.9308 215.531 11.4769 216.23 11.0698C216.94 10.6623 217.63 10.2257 218.34 9.84734C219.767 9.12532 221.244 8.49968 222.76 7.97486C224.237 7.45639 225.747 7.02866 227.28 6.69421C228.04 6.54868 228.8 6.46136 229.56 6.34494L230.69 6.18001C231.06 6.1315 231.44 6.1315 231.82 6.11209L234.06 6.00537C234.8 6.00537 235.53 6.06358 236.26 6.09269C237.697 6.15785 239.127 6.32321 240.54 6.58749C245.25 7.45709 249.715 9.29155 253.636 11.9684C257.558 14.6453 260.845 18.1029 263.28 22.1106C264.959 24.8218 266.2 27.7665 266.96 30.8423C267.261 31.9545 267.482 33.086 267.62 34.2283C267.69 34.7231 267.77 35.1985 267.81 35.5962C267.85 35.994 267.81 36.4015 267.86 36.7411C267.86 37.4105 267.86 37.9247 267.91 38.2934C267.96 38.6621 267.94 38.8076 267.94 38.8076Z" fill="#2C0BF1"/>
<path d="M232.95 32.1618C232.95 32.1618 233.09 32.1133 233.37 32.0745C233.785 32.0227 234.205 32.0227 234.62 32.0745C236.183 32.1971 237.652 32.8497 238.77 33.9178C239.901 35.0818 240.573 36.5958 240.666 38.1932C240.759 39.7905 240.268 41.3685 239.28 42.649C238.291 43.9294 236.868 44.8302 235.262 45.1923C233.656 45.5545 231.969 45.3549 230.5 44.6287C229.275 43.9872 228.281 42.999 227.65 41.7957C227.112 40.7897 226.845 39.6683 226.873 38.5354C226.901 37.4025 227.223 36.2948 227.81 35.3149C228.596 33.9993 229.83 32.9907 231.3 32.4625C231.689 32.3155 232.095 32.2145 232.51 32.1618C232.655 32.1363 232.804 32.1363 232.95 32.1618C232.95 32.22 232.35 32.2782 231.38 32.676C230.006 33.2552 228.867 34.2577 228.14 35.5283C227.614 36.4575 227.334 37.4989 227.325 38.5589C227.317 39.6189 227.579 40.6644 228.09 41.6017C228.716 42.7444 229.689 43.6738 230.875 44.2652C232.062 44.8565 233.407 45.0815 234.73 44.91C235.932 44.7501 237.065 44.2688 238.001 43.5198C238.938 42.7709 239.641 41.7839 240.032 40.6693C240.424 39.5547 240.488 38.3564 240.217 37.2086C239.946 36.0608 239.352 35.0087 238.5 34.1701C237.461 33.1174 236.087 32.434 234.6 32.2297C233.55 32.123 232.95 32.22 232.95 32.1618Z" fill="#2C0BF1"/>
<path d="M235.51 23.7501C235.472 23.681 235.439 23.6097 235.41 23.5367L235.14 22.8964C234.89 22.2851 234.54 21.4217 234.14 20.3157L234.23 20.3642L227.99 21.2373L228.11 21.1209C228.01 22.2366 227.91 23.4785 227.79 24.798V24.895H227.69C226.44 25.4129 225.263 26.0846 224.19 26.8936L224.11 26.9615H224.01L220.53 25.448L220.77 25.3898L216.96 30.2408V29.9788L219.41 32.8118L219.5 32.9088V33.0349C218.997 34.2549 218.661 35.5335 218.5 36.8381V36.9739L218.36 37.0224L214.8 38.3225L214.95 38.0702C215.22 40.0106 215.51 42.0286 215.81 44.134L215.58 43.9205L219.38 44.2407H219.53L219.59 44.3862C220.103 45.5907 220.776 46.7255 221.59 47.7625L221.69 47.8886L221.63 48.0342C221.13 49.082 220.63 50.2365 220.05 51.4007L219.97 51.0806L224.97 54.7867H224.63L227.55 52.4097L227.68 52.303L227.83 52.3709C229.08 52.8594 230.391 53.1856 231.73 53.3411C231.83 53.409 231.51 53.1665 231.96 53.5061V53.5643V53.671L232.04 53.8941L232.21 54.3307L232.55 55.1942L233.21 56.9212L232.92 56.7562L239.17 55.9316L238.94 56.1644L239.27 52.4874V52.3321L239.42 52.2642C240.668 51.7724 241.841 51.1197 242.91 50.3238L243.04 50.2268L243.18 50.2947L246.65 51.8373L246.33 51.9052L250.16 47.0543V47.3647L247.75 44.6288L247.66 44.522L247.72 44.3862C248.223 43.1697 248.559 41.8943 248.72 40.5927V40.4472H248.85L252.42 39.1569L252.28 39.3897C251.98 37.2553 251.71 35.247 251.45 33.326L251.64 33.5006L247.84 33.161H247.72V33.0543C247.213 31.8375 246.54 30.6922 245.72 29.6489L245.66 29.5616V29.4646C246.24 28.2422 246.77 27.1458 247.26 26.1077V26.3018L242.26 22.5568H242.42C241.25 23.527 240.28 24.2643 239.47 24.9047H239.42C238.471 24.5151 237.487 24.213 236.48 24.0024L235.73 23.8569L235.48 23.8084C235.566 23.7939 235.654 23.7939 235.74 23.8084C235.995 23.8277 236.248 23.8601 236.5 23.9054C237.526 24.0814 238.531 24.3577 239.5 24.73H239.41L242.31 22.324L242.38 22.2657L242.46 22.324L247.51 26.001L247.61 26.0786L247.55 26.1853C247.07 27.2332 246.55 28.3392 245.99 29.5616V29.387C246.833 30.4413 247.529 31.5995 248.06 32.8312L247.9 32.7148L251.69 33.0252H251.86V33.1805C252.14 35.1208 252.42 37.0612 252.73 39.2442V39.4188L252.56 39.4867L249.06 40.8062L249.21 40.6219C249.031 41.9545 248.675 43.259 248.15 44.5026V44.2504L250.6 47.0834L250.73 47.2386L250.61 47.3938L246.8 52.2448L246.67 52.4097L246.46 52.3903L242.99 50.8574H243.26C242.159 51.6973 240.944 52.3861 239.65 52.9045L239.82 52.6911C239.71 53.9038 239.6 55.1263 239.49 56.3681V56.5816H239.27L233.02 57.4062H232.81L232.73 57.2025C232.51 56.6301 232.29 56.0577 232.06 55.4756L231.73 54.6121L231.56 54.1755L231.48 53.9524V53.8456L231.7 54.0203C230.325 53.8449 228.981 53.4959 227.7 52.9822H227.98L225.06 55.3494L224.89 55.4853L224.72 55.3591L219.72 51.653L219.55 51.5269L219.64 51.3328L221.06 47.8498V48.1118C220.202 47.037 219.495 45.8559 218.96 44.5997L219.17 44.7549L215.38 44.425H215.17V44.2213C214.88 42.116 214.59 40.0688 214.33 38.1576V37.9732L214.52 37.9053L218.06 36.6149L217.91 36.7993C218.088 35.4654 218.447 34.1604 218.98 32.9185V33.1513L216.54 30.3087L216.43 30.1728L216.53 30.0467L220.37 25.1957L220.46 25.0793L220.6 25.1375L224.07 26.6898H223.88C224.983 25.8661 226.193 25.1875 227.48 24.6718L227.38 24.8077C227.51 23.4785 227.63 22.2366 227.74 21.1209V21.0142H227.85L234.11 20.238H234.18V20.306C234.58 21.412 234.9 22.2463 235.12 22.877L235.36 23.5561C235.418 23.6144 235.468 23.6796 235.51 23.7501Z" fill="#2C0BF1"/>
</svg>
