<svg width="417" height="379" viewBox="0 0 417 379" fill="none" xmlns="http://www.w3.org/2000/svg">
<path d="M167.394 71.0476H149.5C148.11 71.0801 146.461 71.9678 145.5 73C144.539 74.0322 143.97 75.5718 144 77V80.5C144.017 81.2078 143.249 83.3397 143 84C142.751 84.6603 141.5 85.5 140.5 85.9909C139.5 86 138.5 86 138 85.9909C137 85.9909 136.707 85.9774 136.018 85.9909H94.8502C93.4598 85.9585 92.1389 85.3605 91.1775 84.3283C90.2161 83.2961 89.6929 81.9142 89.7228 80.486V76.5145C89.7526 75.0838 89.2284 73.6994 88.2653 72.6654C87.3022 71.6315 85.9789 71.0325 84.5861 71H58.6802C56.4971 70.9988 54.335 71.4392 52.3176 72.2962C50.3001 73.1533 48.4668 74.4101 46.9222 75.9949C45.3776 77.5798 44.152 79.4616 43.3154 81.5329C42.4788 83.6043 42.0476 85.8246 42.0464 88.0672L42 361.866C41.9988 364.107 42.4274 366.327 43.2612 368.398C44.0951 370.469 45.318 372.352 46.86 373.937C48.402 375.523 50.233 376.781 52.2484 377.64C54.2638 378.499 56.4241 378.942 58.6061 378.943L167.32 379C169.502 379.003 171.663 378.563 173.68 377.707C175.697 376.851 177.53 375.595 179.074 374.011C180.618 372.426 181.843 370.545 182.679 368.474C183.514 366.404 183.944 364.184 183.944 361.942L184 88.1339C184 83.6073 182.251 79.2656 179.138 76.0622C176.024 72.8587 171.801 71.0552 167.394 71.0476Z" fill="white"/>
<path fill-rule="evenodd" clip-rule="evenodd" d="M310.956 305.599C308.63 304.385 306.475 302.869 304.547 301.089L297.715 303.524L291.26 293.381L296.378 288.236C295.592 285.734 295.142 283.138 295.041 280.518L288.484 277.41L291.112 265.691H298.369C299.577 263.364 301.094 261.212 302.878 259.291L300.444 252.449L310.587 245.995L315.732 251.122C318.23 250.329 320.823 249.876 323.441 249.775L326.557 243.219L338.277 245.847V253.104C340.6 254.318 342.752 255.834 344.677 257.613L351.509 255.179L357.964 265.322L352.837 270.467C353.622 272.97 354.074 275.564 354.183 278.185L360.73 281.292L358.102 293.012H350.845C349.637 295.338 348.121 297.491 346.336 299.411L348.771 306.253L338.628 312.708L333.482 307.581C330.985 308.374 328.392 308.826 325.774 308.927L322.657 315.483L310.937 312.855V305.599H310.956ZM321.283 291.767C323.775 292.332 326.38 292.145 328.765 291.229C331.151 290.313 333.211 288.71 334.685 286.622C336.159 284.534 336.98 282.056 337.044 279.501C337.108 276.946 336.412 274.43 335.045 272.271C333.677 270.112 331.7 268.407 329.363 267.373C327.026 266.339 324.434 266.021 321.917 266.461C319.4 266.901 317.069 268.078 315.221 269.843C313.373 271.609 312.091 273.883 311.537 276.378C310.785 279.716 311.39 283.215 313.217 286.108C315.045 289.001 317.946 291.049 321.283 291.804V291.767Z" fill="#F4C03B"/>
<path d="M393.833 271.324C393.219 271.24 392.624 271.053 392.072 270.771C390.766 270.134 389.672 269.134 388.92 267.891C388.168 266.649 387.789 265.215 387.83 263.763C387.871 262.393 388.279 261.059 389.011 259.9C389.402 259.273 389.887 258.71 390.449 258.231C391.029 257.72 391.686 257.303 392.395 256.995C393.89 256.332 395.559 256.167 397.155 256.526C398.751 256.884 400.189 257.747 401.256 258.987C401.772 259.563 402.19 260.22 402.491 260.933C402.794 261.605 402.989 262.321 403.072 263.053C403.243 264.414 403.046 265.796 402.501 267.055C402.019 268.13 401.293 269.077 400.38 269.821C399.058 270.926 397.391 271.533 395.668 271.537C395.044 271.553 394.421 271.469 393.824 271.288C393.824 271.232 394.479 271.417 395.668 271.371C396.689 271.329 397.69 271.076 398.608 270.627C399.526 270.178 400.34 269.543 401 268.763C401.66 267.983 402.15 267.074 402.44 266.094C402.73 265.115 402.814 264.085 402.685 263.072C402.491 261.648 401.885 260.311 400.942 259.227C399.923 258.068 398.561 257.264 397.053 256.933C395.546 256.601 393.972 256.759 392.561 257.382C391.885 257.664 391.262 258.057 390.716 258.544C390.184 258.996 389.721 259.525 389.343 260.112C388.638 261.218 388.237 262.49 388.181 263.8C388.137 264.939 388.358 266.072 388.826 267.11C389.508 268.627 390.676 269.873 392.146 270.651C393.188 271.158 393.852 271.269 393.833 271.324Z" fill="#263238"/>
<path d="M387.839 279.319C387.847 279.408 387.847 279.498 387.839 279.586C387.839 279.78 387.839 280.038 387.839 280.379C387.839 281.117 387.839 282.168 387.839 283.533L387.784 283.468L394.7 284.925L394.58 284.981L396.369 281.172V281.108H396.443C397.949 281.044 399.441 280.781 400.878 280.324H400.961L401.025 280.389L404.013 283.349H403.829L409.702 279.605L409.628 279.799C409.195 278.572 408.706 277.226 408.208 275.843V275.741L408.282 275.658C409.306 274.551 410.174 273.311 410.864 271.97L410.919 271.869H415.244L414.986 272.016C415.465 269.877 415.982 267.572 416.507 265.211L416.618 265.442L412.81 263.597L412.699 263.542V263.422C412.636 261.922 412.376 260.437 411.924 259.005V258.886L412.007 258.793L414.977 255.806V256.064L411.288 250.181L411.537 250.273L407.572 251.684L407.443 251.73L407.351 251.638C406.242 250.617 405.001 249.749 403.662 249.056C403.607 248.973 403.773 249.25 403.543 248.863V244.667L403.709 244.879L396.913 243.348L397.153 243.229C396.544 244.51 395.935 245.783 395.308 247.037L395.253 247.147H395.124C393.621 247.205 392.133 247.462 390.698 247.913H390.578L390.495 247.821L387.508 244.851H387.766L381.874 248.54L381.957 248.3L383.367 252.274V252.385L383.284 252.468C382.262 253.578 381.391 254.818 380.693 256.156L380.638 256.258H376.35L376.525 256.119C375.981 258.508 375.465 260.73 374.986 262.915L374.893 262.731L378.692 264.575H378.775V264.667C378.834 266.173 379.091 267.664 379.541 269.102V269.185L379.476 269.25L376.498 272.219V272.062L380.186 277.964H380.076L384.05 276.58C384.879 277.362 385.784 278.06 386.751 278.664L387.471 279.098L387.71 279.245L387.461 279.135C387.286 279.052 387.037 278.923 386.715 278.729C385.721 278.148 384.794 277.462 383.948 276.682H384.013L380.057 278.12H379.983V278.047C378.914 276.396 377.678 274.46 376.221 272.182L376.166 272.099L376.24 272.025L379.2 269.029V269.176C378.727 267.714 378.457 266.194 378.397 264.658L378.48 264.796L374.681 262.998L374.561 262.943V262.814L376.074 256.009V255.87H376.221H380.426L380.26 255.972C380.971 254.608 381.861 253.346 382.906 252.219L382.86 252.413L381.449 248.448L381.394 248.3L381.523 248.208C383.441 247 385.396 245.755 387.406 244.473L387.544 244.39L387.664 244.501C388.642 245.478 389.638 246.474 390.652 247.47L390.44 247.424C391.907 246.959 393.429 246.692 394.967 246.631L394.783 246.751L396.627 242.952L396.701 242.795H396.867L403.662 244.317H403.829V244.492C403.829 245.183 403.829 245.884 403.829 246.585V248.687C403.598 248.309 403.773 248.586 403.718 248.503C405.083 249.216 406.348 250.106 407.48 251.149L407.259 251.103L411.297 249.886L411.463 249.831L411.556 249.978L415.244 255.861L415.336 255.999L415.216 256.119L412.303 259.107L412.358 258.895C412.817 260.363 413.08 261.885 413.142 263.422L413.022 263.247L416.821 265.091L416.968 265.165V265.322C416.433 267.682 415.917 269.978 415.438 272.118V272.265H411.076L411.242 272.173C410.527 273.531 409.637 274.789 408.596 275.917V275.741L409.997 279.706L410.043 279.835L409.924 279.909L404.031 283.598L403.93 283.662L403.847 283.57L400.869 280.592H401.007C399.544 281.046 398.028 281.307 396.498 281.366L396.609 281.292L394.764 285.082V285.165H394.681L387.895 283.598H387.839V283.542C387.839 282.184 387.839 281.142 387.839 280.416C387.839 280.075 387.839 279.808 387.839 279.614C387.839 279.421 387.839 279.328 387.839 279.319Z" fill="#263238"/>
<path fill-rule="evenodd" clip-rule="evenodd" d="M354.128 239.217C352.975 238.615 351.909 237.862 350.956 236.977L347.563 238.185L344.372 233.15L346.917 230.596C346.525 229.355 346.299 228.069 346.244 226.769L342.998 225.229L344.298 219.411H347.895C348.494 218.254 349.248 217.184 350.135 216.23L348.927 212.836L353.962 209.646L356.516 212.191C357.756 211.797 359.043 211.574 360.343 211.527L361.883 208.272L367.701 209.572V213.177C368.856 213.78 369.926 214.533 370.882 215.418L374.276 214.21L377.466 219.236L374.921 221.79C375.315 223.029 375.538 224.317 375.585 225.616L378.84 227.166L377.531 232.975H373.934C373.332 234.127 372.579 235.194 371.694 236.147L372.902 239.54L367.876 242.73L365.322 240.185C364.082 240.578 362.795 240.804 361.495 240.859L359.946 244.104L354.137 242.804V239.208L354.128 239.217ZM359.255 232.375C360.488 232.651 361.775 232.555 362.954 232.099C364.132 231.643 365.149 230.848 365.876 229.815C366.603 228.781 367.007 227.555 367.037 226.292C367.067 225.028 366.722 223.785 366.046 222.717C365.369 221.65 364.391 220.808 363.235 220.296C362.08 219.785 360.799 219.627 359.554 219.844C358.309 220.06 357.156 220.641 356.241 221.513C355.326 222.384 354.69 223.507 354.414 224.74C354.048 226.392 354.35 228.121 355.256 229.55C356.161 230.979 357.596 231.992 359.245 232.366L359.255 232.375Z" fill="#F4C03B"/>
<g opacity="0.4">
<path opacity="0.4" fill-rule="evenodd" clip-rule="evenodd" d="M354.128 239.217C352.975 238.615 351.909 237.862 350.956 236.977L347.563 238.185L344.372 233.15L346.917 230.596C346.525 229.355 346.299 228.069 346.244 226.769L342.998 225.229L344.298 219.411H347.895C348.494 218.254 349.248 217.184 350.135 216.23L348.927 212.836L353.962 209.646L356.516 212.191C357.756 211.797 359.043 211.574 360.343 211.527L361.883 208.272L367.701 209.572V213.177C368.856 213.78 369.926 214.533 370.882 215.418L374.276 214.21L377.466 219.236L374.921 221.79C375.315 223.029 375.538 224.317 375.585 225.616L378.84 227.166L377.531 232.975H373.934C373.332 234.127 372.579 235.194 371.694 236.147L372.902 239.54L367.876 242.73L365.322 240.185C364.082 240.578 362.795 240.804 361.495 240.859L359.946 244.104L354.137 242.804V239.208L354.128 239.217ZM359.255 232.375C360.488 232.651 361.775 232.555 362.954 232.099C364.132 231.643 365.149 230.848 365.876 229.815C366.603 228.781 367.007 227.555 367.037 226.292C367.067 225.028 366.722 223.785 366.046 222.717C365.369 221.65 364.391 220.808 363.235 220.296C362.08 219.785 360.799 219.627 359.554 219.844C358.309 220.06 357.156 220.641 356.241 221.513C355.326 222.384 354.69 223.507 354.414 224.74C354.048 226.392 354.35 228.121 355.256 229.55C356.161 230.979 357.596 231.992 359.245 232.366L359.255 232.375Z" fill="white"/>
</g>
<path d="M18.8382 71.0838C18.7379 71.1599 18.6258 71.2191 18.5063 71.259C18.177 71.4097 17.83 71.5182 17.4735 71.5817C16.1454 71.8496 14.7655 71.6441 13.5731 71.0008C12.5804 70.4634 11.7582 69.6585 11.1998 68.6774C10.6413 67.6964 10.369 66.5785 10.4137 65.4506C10.4583 64.3226 10.8182 63.2298 11.4525 62.296C12.0868 61.3622 12.9701 60.6248 14.0022 60.1676C15.0342 59.7103 16.1738 59.5515 17.2916 59.709C18.4094 59.8666 19.4607 60.3342 20.3261 61.059C21.1916 61.7837 21.8367 62.7365 22.1881 63.8092C22.5396 64.8819 22.5833 66.0317 22.3145 67.128C21.9868 68.4417 21.2147 69.6015 20.1292 70.4107C19.8421 70.6244 19.533 70.8068 19.2071 70.9547C19.0943 71.0155 18.9731 71.059 18.8474 71.0838C18.8474 71.0838 19.3085 70.844 20.0185 70.2631C21.0167 69.4405 21.7113 68.3078 21.9918 67.045C22.1985 66.1261 22.1727 65.17 21.9167 64.2635C21.6607 63.357 21.1826 62.5287 20.5257 61.8537C19.7568 61.0508 18.7639 60.4981 17.6764 60.2677C16.5115 60.0126 15.2955 60.1362 14.2058 60.6205C13.1161 61.1049 12.2095 61.9246 11.6183 62.9602C11.0597 63.9196 10.8027 65.0248 10.8806 66.1322C10.9357 67.079 11.227 67.9969 11.7279 68.8022C12.2288 69.6076 12.9234 70.2746 13.7483 70.7426C14.8664 71.3775 16.1645 71.6209 17.4367 71.4342C18.3495 71.259 18.8198 71.0008 18.8382 71.0838Z" fill="#F4C03B"/>
<path d="M18.8013 78.8939L18.9397 79.0507L19.3177 79.5301L20.8299 81.485H20.7377L25.6986 79.2351L25.6248 79.3642C25.4312 78.3868 25.2098 77.3079 24.9701 76.1461V76.0631L25.0347 76.0078C25.9467 75.2641 26.7587 74.4056 27.4505 73.4536L27.5058 73.3706H27.5981L30.853 73.8317L30.6686 73.9423C31.2864 72.3379 31.9319 70.632 32.6142 68.8524L32.688 69.0737L29.9217 67.2295L29.8203 67.1649V67.0451C29.9448 65.8812 29.9138 64.706 29.7281 63.5504V63.4213L29.8295 63.3475L32.4575 61.3742L32.3929 61.6416C31.7013 60.0741 30.9452 58.3867 30.1799 56.6624L30.4196 56.7915L27.1923 57.4277H27.0632L26.971 57.3263C26.2397 56.4152 25.39 55.6059 24.4445 54.9196L24.3339 54.8366V54.6983C24.4814 53.684 24.6382 52.5683 24.8041 51.4433L24.9517 51.6923L19.8894 49.7928L20.1752 49.7098L18.3311 52.4761L18.2481 52.596H18.1005C16.9435 52.4631 15.7737 52.4911 14.6243 52.6789L14.3938 52.5867L14.3292 52.5037L14.2093 52.3378L13.9604 52.0058L13.4717 51.3419L12.485 50.0233L12.7801 50.1063L7.80083 52.3101L7.92992 52.0427C8.15122 53.1308 8.3633 54.2096 8.56616 55.2792V55.4175L8.4555 55.5098C7.54581 56.2391 6.73658 57.0855 6.04885 58.0271L5.96587 58.1469H5.82756L2.57259 57.6674L2.82154 57.5199L0.857506 62.6006L0.774508 62.3332L3.54077 64.1774L3.6422 64.2511V64.3802C3.51403 65.5403 3.53884 66.7121 3.71597 67.8657V67.9948L3.62377 68.0686L0.968152 69.8759L1.03271 69.6269C1.79804 71.3881 2.52648 73.0386 3.22727 74.6154L3.0244 74.514L6.25171 73.887H6.35314L6.4177 73.9607C7.15197 74.8804 8.00461 75.6989 8.95344 76.3951L9.02721 76.4504V76.5426C8.84279 77.7229 8.68603 78.7925 8.52927 79.7975L8.44629 79.6408L13.5086 81.6325L13.3887 81.6786L15.2329 78.9585H15.279C16.1633 79.0626 17.0554 79.0842 17.9438 79.023L18.5985 78.9677H18.8198L18.6077 79.023C18.4602 79.023 18.2481 79.0875 17.953 79.1152C17.0581 79.2124 16.1554 79.2124 15.2605 79.1152H15.3343L13.4901 81.8815V81.946H13.4071L8.3172 80.0189H8.20655V79.899C8.34486 78.8939 8.50162 77.8243 8.66759 76.644L8.73213 76.7915C7.75203 76.0929 6.87111 75.2647 6.11341 74.3296L6.27937 74.3849L3.05207 75.0396H2.91376L2.84921 74.9013L0.626984 69.9312L0.562431 69.7837L0.691523 69.6915L3.3287 67.7182L3.24571 67.9211C3.04855 66.7262 3.01752 65.5098 3.1535 64.3065L3.24571 64.5093L0.479447 62.6652L0.331909 62.5637L0.396462 62.407L2.34207 57.317L2.40661 57.1511H2.59102L5.84599 57.6213L5.6247 57.7135C6.33484 56.7341 7.17205 55.8535 8.11434 55.0948L8.03135 55.3253C7.8162 54.2557 7.60411 53.1769 7.39511 52.0888V51.9044L7.57031 51.8306L12.5496 49.6176L12.7248 49.5438L12.8354 49.6914L13.8128 51.01L14.3108 51.6739L14.5597 52.0058L14.6796 52.1718L14.7442 52.2548C14.2831 52.0611 14.6151 52.1995 14.5136 52.1534C15.7064 51.9653 16.9189 51.9374 18.119 52.0704L17.8977 52.1718L19.7419 49.4055L19.8433 49.2488L20.0185 49.3133L25.0992 51.2774L25.2836 51.3419V51.5263C25.1176 52.6513 24.9517 53.767 24.8041 54.7905L24.7027 54.56C25.6833 55.2722 26.5641 56.1127 27.3214 57.0589L27.1001 56.9759L30.3274 56.3396H30.5026L30.5764 56.4964L32.7802 61.4849L32.8447 61.6416L32.7064 61.7431L30.0693 63.6979L30.143 63.5043C30.3351 64.6966 30.363 65.9097 30.226 67.1096L30.143 66.916L32.9093 68.7602L33.0291 68.8432L32.9738 68.9907C32.2823 70.7703 31.6276 72.467 31.0006 74.0622L30.9544 74.1913H30.8161L27.5612 73.7025L27.7087 73.638C26.9999 74.6074 26.1659 75.4787 25.2283 76.2291L25.2744 76.0908C25.4957 77.2526 25.7078 78.3407 25.8922 79.3181V79.4195H25.8L20.8115 81.5864H20.7469V81.5311L19.3177 79.5578L18.9581 79.0414C18.9012 78.9974 18.8487 78.948 18.8013 78.8939Z" fill="#F4C03B"/>
<path d="M18.8383 71.0838L18.6723 71.1483C18.5038 71.2169 18.3313 71.2754 18.1559 71.3235C17.4833 71.5374 16.7756 71.6188 16.072 71.5633C15.2559 71.5018 14.4616 71.2701 13.7404 70.8833C13.0191 70.4964 12.3868 69.9628 11.8842 69.3168C11.3816 68.6709 11.0197 67.9269 10.8219 67.1327C10.6241 66.3385 10.5947 65.5117 10.7357 64.7055C10.8766 63.8992 11.1848 63.1314 11.6403 62.4514C12.0958 61.7714 12.6886 61.1943 13.3806 60.7572C14.0726 60.3201 14.8484 60.0327 15.6581 59.9135C16.4678 59.7942 17.2935 59.8458 18.0821 60.0648C19.194 60.3886 20.1873 61.0295 20.9406 61.909C21.7513 62.8303 22.2566 63.9802 22.387 65.2004C22.5175 66.4207 22.2666 67.6514 21.6691 68.7232C21.3599 69.28 20.9682 69.7868 20.5072 70.2262C20.2753 70.4435 20.0254 70.6409 19.7604 70.8164L19.3546 71.0838L19.1518 71.2037L19.0503 71.259H19.0042C19.0289 71.2204 19.042 71.1756 19.042 71.1299C19.042 71.0841 19.0289 71.0393 19.0042 71.0008L18.7276 70.8809C18.9653 70.7965 19.1939 70.6884 19.41 70.5582C20.4301 69.9429 21.231 69.0224 21.6993 67.927C22.1676 66.8315 22.2796 65.6166 22.0195 64.454C21.7064 62.9524 20.8097 61.6367 19.5266 60.7963C18.2435 59.9559 16.6791 59.6596 15.1776 59.9726C13.676 60.2857 12.3603 61.1823 11.5199 62.4655C10.6795 63.7486 10.3832 65.313 10.6962 66.8145C10.932 68.0844 11.5804 69.241 12.5407 70.1046C13.5011 70.9683 14.7197 71.4908 16.0074 71.5909C16.7103 71.6379 17.4158 71.5599 18.0914 71.3604C18.5616 71.2221 18.7829 71.093 18.7922 71.1114C18.593 71.2639 18.3681 71.3794 18.1283 71.4526C17.4472 71.7026 16.7227 71.8123 15.9982 71.7753C14.8404 71.7214 13.7229 71.334 12.7801 70.6596C11.5248 69.7511 10.6613 68.3999 10.3643 66.8791C10.1473 65.7697 10.2384 64.622 10.6276 63.5607C11.0169 62.4995 11.6895 61.5651 12.5723 60.8591C13.4552 60.1532 14.5146 59.7025 15.6355 59.5562C16.7564 59.4099 17.896 59.5734 18.9305 60.0291C19.965 60.4848 20.8549 61.2152 21.5036 62.141C22.1522 63.0667 22.5349 64.1525 22.61 65.2805C22.685 66.4084 22.4497 67.5353 21.9294 68.5389C21.4092 69.5425 20.6239 70.3844 19.6589 70.9731C19.4061 71.1256 19.137 71.2493 18.8567 71.342L18.6723 71.3973L18.5801 71.2221C18.5541 71.179 18.5403 71.1295 18.5403 71.0792C18.5403 71.0288 18.5541 70.9794 18.5801 70.9362L18.6262 70.8901H18.6815L18.7829 70.8256L18.9766 70.715L19.3546 70.4752C19.5966 70.3056 19.8276 70.1208 20.0462 69.922C20.4738 69.5205 20.8349 69.0536 21.1158 68.5388C21.5134 67.8142 21.7435 67.0097 21.7893 66.1845C21.8352 65.3592 21.6955 64.5342 21.3806 63.77C21.0658 63.0058 20.5837 62.3219 19.9698 61.7685C19.3559 61.2151 18.6258 60.8062 17.8332 60.572C16.8854 60.3073 15.8842 60.3002 14.9327 60.5515C13.9813 60.8027 13.1141 61.3031 12.4205 62.0012C11.8197 62.6156 11.3689 63.3606 11.1034 64.1779C10.8379 64.9952 10.7648 65.8629 10.8899 66.7131C11.1108 68.1294 11.8625 69.4085 12.9922 70.2908C13.6967 70.8257 14.5125 71.1955 15.3792 71.3726C16.2458 71.5498 17.1412 71.5299 17.9992 71.3143C18.5893 71.1299 18.829 71.0008 18.8383 71.0838Z" fill="#F4C03B"/>
<path d="M18.8014 78.8939L20.7931 81.568H20.7285L25.8093 79.3181L25.7539 79.4103C25.5603 78.4144 25.339 77.3079 25.1085 76.1184H25.3021V76.2199L25.1453 76.1C26.073 75.3575 26.895 74.4919 27.5889 73.5274L27.7272 73.7025L27.6258 73.7487V73.5274L30.973 74.0161L30.8346 74.0991L32.8725 68.8247L32.9185 68.9907L30.097 67.1465L30.309 66.9621L30.3736 67.0912H30.097C30.2211 65.912 30.1901 64.7215 30.0047 63.5504H30.2998L30.2445 63.6887L30.0047 63.5043L32.771 61.4664L32.7157 61.6693L30.4105 56.4687L30.5949 56.5609L27.2477 57.2248V56.8837L27.4045 56.939L27.2016 57.2248C26.459 56.2973 25.5935 55.4752 24.629 54.7813L24.9148 54.56L24.9794 54.7168H24.6198C24.7673 53.6932 24.9425 52.5222 25.1177 51.3327L25.2376 51.5356L19.8987 49.4885L20.1384 49.4147L18.2297 52.264L17.9807 51.9689L18.1375 51.8952L18.202 52.2824C17.0232 52.1549 15.8328 52.1828 14.6612 52.3654V51.9689L14.5044 52.3562H14.5874L14.7165 51.9966H14.7719H14.8825L14.6428 52.3193L12.5957 49.5531L12.8447 49.6176L7.62567 51.9413L7.75476 51.7015L8.41867 55.0579H7.9945L8.05906 54.9012L8.40022 55.1409C7.48 55.8851 6.66156 56.7469 5.96591 57.7043L5.69851 57.3724L5.85527 57.3078L5.91059 57.732L2.52653 57.2433L2.76626 57.105C2.13002 58.7555 1.43847 60.5812 0.728458 62.4254L0.645459 62.1488L3.48549 64.0483L3.14432 64.3341L3.07977 64.1958L3.51315 64.1221C3.3936 65.2953 3.42459 66.479 3.60537 67.6444H3.16277L3.21809 67.5061L3.57771 67.7827L0.811442 69.8206L0.885211 69.5347C1.61366 71.1484 2.39743 72.9188 3.19965 74.7076L2.93225 74.5693L6.26099 73.9054V74.3572L6.15033 74.3111L6.40851 73.9423C7.15533 74.8547 8.01693 75.6667 8.97191 76.3582L8.6123 76.644V76.5426L9.06413 76.478C8.91659 77.5292 8.75984 78.6726 8.59387 79.816L8.43711 79.5578L13.6654 81.5495L13.3795 81.6417C13.9604 80.7196 14.5874 79.7976 15.2237 78.8755L15.528 79.2166H15.4726L15.3989 78.7648C16.4028 78.8671 17.4155 78.8454 18.4141 78.7003H18.6631C18.5893 78.7003 18.6631 79.0599 18.7922 79.0138H18.8751L18.368 79.0599C18.036 79.0599 17.6857 79.1244 17.3353 79.1337C16.6485 79.1538 15.9612 79.123 15.279 79.0414L15.5095 78.94L13.6654 81.7063L13.3979 81.3467H13.4809V81.7985L8.40945 79.816L8.6953 79.4748L8.75984 79.5763L8.31724 79.6592L8.81516 76.3397L8.90738 76.5702C7.89775 75.8415 6.99463 74.9757 6.22409 73.9976L6.45462 74.0806L3.15354 74.7261L3.21809 74.2835L3.3564 74.3572L3.03368 74.6615C2.28371 72.9833 1.55219 71.3205 0.839104 69.673H1.27249V69.839L0.903642 69.59L3.61458 67.5799L3.52238 67.8012C3.31984 66.5602 3.29189 65.297 3.43938 64.0483L3.54082 64.2696L0.774551 62.4254L1.11573 62.1672L1.17106 62.3517H0.746889L2.71094 57.2802L3.03368 57.5476L2.85848 57.649L2.78471 57.2341L6.13189 57.732L5.9198 57.815C6.65202 56.7751 7.52744 55.8438 8.5201 55.0487L8.44633 55.2608C8.21581 54.1266 8.00372 53.0293 7.79164 51.9413L8.19736 51.9966L8.09593 52.181L7.8193 51.8767L12.7986 49.6822V50.0787L12.5957 50.0233L12.817 49.6914C13.4902 50.6135 14.1448 51.471 14.7811 52.3378L14.6889 52.264L14.7995 52.3101H14.8548L14.6243 52.43L14.7073 52.6882L14.8548 52.3009H14.7626C15.9827 52.1049 17.2241 52.0801 18.451 52.2271L18.2573 52.3193L20.1476 49.4977L20.3782 49.802L20.1753 49.8574V49.4885L25.256 51.4526L25.0255 51.7292L24.924 51.5448L25.2744 51.4802C25.0992 52.6697 24.9425 53.7578 24.7857 54.8366L24.712 54.6614C25.7317 55.3913 26.6442 56.2604 27.4229 57.2433L27.2477 57.1787L30.5672 56.5241L30.5211 56.8468L30.3551 56.7638L30.5949 56.5333C31.3787 58.3221 32.0979 59.9542 32.7987 61.5125H32.4852L32.5405 61.3373L32.7895 61.5033L29.8849 63.6241L29.9494 63.4766C30.1501 64.6959 30.1811 65.9371 30.0416 67.1649L29.9771 67.0266C31.0283 67.7366 31.9135 68.336 32.7433 68.8708L32.5313 69.0368L32.476 68.88H32.7433L30.7793 73.9607L30.6041 73.8132L30.7332 73.7394L30.7793 73.97L27.4506 73.4813H27.5612C26.8422 74.4817 25.989 75.3784 25.0255 76.1461V76.0447C25.2929 77.4186 25.4957 78.4144 25.6709 79.3365H25.5142L25.5603 79.2443L25.6709 79.3642L20.6917 81.568V81.4665H20.7562L20.7009 81.5495L18.7368 78.9124C18.9261 79.1059 19.1017 79.3123 19.2624 79.5302L20.7839 81.485L20.8853 81.6049H20.7285H20.664H20.5257L20.664 81.5403L25.6156 79.272L25.8369 79.1705L25.7263 79.3918L25.6709 79.484L25.5603 79.6961L25.5142 79.4564C25.3298 78.5343 25.1177 77.5477 24.8411 76.183V76.1184H24.8964C25.8338 75.3532 26.6648 74.4663 27.3676 73.4813V73.4259H27.4414L30.7609 73.887L31.1113 73.9423L30.807 74.1175L30.6779 74.1913L30.3828 74.3665L30.5027 74.0437C31.0836 72.5131 31.7014 70.881 32.4391 68.9538L32.5774 68.5757L32.6973 68.9538L32.7526 69.1106L32.8725 69.4886L32.5405 69.2765L29.7281 67.4324H29.6543V67.3401C29.7943 66.1117 29.757 64.8696 29.5437 63.6518V63.5596L29.6175 63.5043L32.3192 61.4757L32.688 61.199L32.5774 61.6509L32.5313 61.8261L32.4114 62.2779L32.2178 61.8537C31.5262 60.2862 30.7978 58.6633 29.9955 56.8837L29.7927 56.4318L30.2353 56.6531L30.4105 56.7454L30.8438 56.9759L30.3644 57.0681L27.0448 57.732H26.9342L26.8696 57.6398C26.104 56.6856 25.2103 55.8417 24.214 55.1317L24.1218 55.0672V54.9565C24.2786 53.8777 24.4353 52.7896 24.6013 51.6001L24.6843 51.0653L24.9609 51.5356L25.0624 51.7108L25.339 52.181L24.8226 51.9874L19.7419 50.0326L19.2163 49.8297L19.7511 49.6545L19.954 49.5992L20.4888 49.424L20.1753 49.8942L18.3311 52.7158L18.2573 52.8173H18.1375C16.9593 52.6809 15.7681 52.7057 14.5967 52.891H14.5229H14.4768V52.7896L14.5505 52.596C14.5505 52.5037 14.5505 52.5314 14.5505 52.5314H14.6059L14.6889 52.7988L14.4676 52.9187H14.4122H14.3569L14.2463 52.8726H14.1909L12.2177 50.2354L11.8581 49.7559L12.439 49.9127H12.6418L13.2227 50.0694L12.6787 50.3092L7.69944 52.5222L7.13697 52.7804L7.42281 52.2271L7.51503 52.0427L7.80087 51.4987L7.92073 52.098C8.13281 53.1953 8.35412 54.2926 8.57542 55.4268V55.5559L8.47399 55.6388C7.51651 56.4003 6.66934 57.2909 5.9567 58.2852L5.88293 58.3959H5.74461L2.39743 57.9072L1.76119 57.815L2.31445 57.4922L2.48042 57.3908L3.04289 57.0681L2.80316 57.6674C2.18843 59.3395 1.53681 61.0331 0.848319 62.7481L0.617797 63.3567L0.414937 62.7389L0.359614 62.5545L0.156753 61.9275L0.700796 62.2963L3.51315 64.1405L3.63303 64.2235V64.3618C3.49012 65.5676 3.51806 66.7876 3.71601 67.9856V68.1239L3.60537 68.2069L0.894427 70.2263L0.359614 70.6228L0.525597 69.9773L0.571704 69.8113L0.746889 69.1567L1.0143 69.7745C1.74275 71.4158 2.4712 73.0755 3.21809 74.7537L3.48549 75.3715L2.88614 75.058L2.74782 74.9843L2.14847 74.6707L2.81237 74.5417L6.11345 73.8962H6.25176L6.34397 74.0068C7.09433 74.9477 7.96909 75.7821 8.94425 76.4873L9.05491 76.5702V76.7178L8.55698 80.0373L8.45555 80.7104L8.11438 80.1203L8.05906 80.0189L7.70866 79.4195L8.3449 79.6777L13.4256 81.651L14.0526 81.8999L13.4072 82.1028H13.315L12.6603 82.3149L13.0476 81.7432C13.6654 80.8211 14.2832 79.899 14.8917 78.9769L14.9747 78.857H15.113C15.7742 78.9311 16.4397 78.9588 17.1047 78.94C17.4367 78.94 17.7686 78.94 18.1006 78.8755L18.6262 78.8201H18.7553C18.8383 78.8201 18.9581 79.1521 18.8844 79.1429L18.7737 79.2074C18.6998 79.25 18.6184 79.2782 18.534 79.2904H18.2758C17.2373 79.4417 16.1838 79.4603 15.1407 79.3457L14.2186 79.2628L15.0116 78.8939H15.0669L15.8323 78.5343L15.3712 79.2443L13.527 82.0106L13.4256 82.1765L13.2412 82.1028L8.02216 80.1203L7.84698 80.0557V79.8621C8.00373 78.7187 8.16971 77.5753 8.31724 76.5241L8.43711 75.6758L8.77828 76.4688V76.5702L9.11024 77.354L8.42789 76.8561C7.43569 76.1412 6.54271 75.2978 5.77228 74.348L5.23747 73.6841L6.03968 73.9792H6.15956L6.95255 74.265L6.12266 74.431L2.79393 75.0949H2.60951L2.53574 74.9197L0.230522 69.756L0.156753 69.5808L0.304291 69.4702L3.07056 67.4324L3.73446 66.9344L3.42095 67.709L3.36563 67.8473L3.05211 68.6126L2.92302 67.792C2.72374 66.5725 2.69272 65.3315 2.83082 64.1036L2.9138 63.2737L3.2642 64.0299L3.32874 64.1682L3.67914 64.9151L2.99679 64.454L0.156753 62.5545L0 62.4531L0.0737687 62.2871L2.12081 56.9667L2.18536 56.8007H2.36054L5.74461 57.2894L6.5376 57.4093L5.79994 57.7135L5.64319 57.7873L4.91473 58.0916L5.37578 57.4461C6.09674 56.4587 6.94292 55.5692 7.89307 54.7997L8.51087 54.311L8.23425 55.0487L8.3449 55.3253L8.0775 56.063L7.92073 55.2977C7.69021 54.1266 7.46892 52.9648 7.26606 51.9321V51.7661L7.42281 51.6923L12.6511 49.3871L12.7986 49.3133L12.9 49.4516L14.9471 52.2179L15.3897 52.808L14.6981 52.5314H14.5874H14.5321L14.6612 52.1718H14.7719L14.6796 52.4208L14.6243 52.5314L14.0803 52.3101L14.6428 52.1441C15.8475 51.952 17.0728 51.9241 18.285 52.0611L19.0042 52.1441L18.3496 52.4484L18.1836 52.513L17.5289 52.8265L17.9346 52.2179L19.8433 49.3779L19.9356 49.2488L20.0831 49.3041L25.4035 51.3696L25.5511 51.4249V51.5724C25.3759 52.7619 25.2099 53.933 25.0531 54.9565L24.9517 55.6204L24.6935 55.0026L24.629 54.8459L24.38 54.2373L24.9148 54.6245C25.8965 55.3459 26.7799 56.1921 27.5428 57.1419L27.9485 57.649L27.3399 57.4277L27.1924 57.3724L26.5838 57.1419L27.22 57.022L30.475 56.2474H30.6133L30.6686 56.3673C31.4709 58.2115 32.2547 59.9727 32.9647 61.5771V61.697L32.8632 61.78L30.097 63.7993L29.6451 64.1405L29.8572 63.6149L29.9126 63.4766L30.1246 62.9602L30.2076 63.5135C30.3965 64.7156 30.4213 65.9377 30.2814 67.1465L30.2261 67.6721L30.0047 67.1926L29.9402 67.0635L29.7189 66.5748L30.1615 66.8791L32.9739 68.7786L33.0661 68.8432V68.9446L31.0098 74.2005V74.3019H30.9084L27.5243 73.7671L27.1186 73.7025L27.4967 73.5458L27.5981 73.4997L27.9762 73.3429L27.7364 73.6749C27.0238 74.6498 26.1834 75.5244 25.2376 76.2752L24.9517 76.4965L25.0716 76.1553V76.0631L25.2007 75.7219L25.2652 76.0815C25.4957 77.271 25.6986 78.3868 25.8922 79.3826V79.4472H25.8277L20.7285 81.6417L19.2809 79.6131L18.9213 79.0876L18.8014 78.8939Z" fill="#F4C03B"/>
<path d="M14.0066 38.995C13.2169 39.1239 12.4131 39.1425 11.6184 39.0503L10.3828 40.8945L6.96181 39.5759L7.28454 37.3813C6.64469 36.9099 6.07095 36.3547 5.57868 35.7308L3.40255 36.1642L1.89032 32.8078L3.66995 31.4892C3.54125 30.6995 3.52263 29.8958 3.61462 29.101L1.77045 27.8654L3.08904 24.4444L5.2836 24.7671C5.75122 24.1244 6.3033 23.5475 6.92493 23.0521L6.50076 20.8575L9.84795 19.3637L11.1758 21.1341C11.9659 21.01 12.769 20.9914 13.564 21.0788L14.7996 19.2346L18.2205 20.5532L17.8978 22.7478C18.5473 23.2174 19.1304 23.7726 19.6313 24.3983L21.8074 23.9742L23.292 27.3306L21.5216 28.6491C21.6412 29.4427 21.6598 30.2483 21.5769 31.0466L23.4211 32.2822L22.1025 35.7031L19.9079 35.3804C19.4359 36.0279 18.881 36.6107 18.2574 37.1139L18.6908 39.2808L15.3344 40.7746L14.0066 38.995ZM14.0066 33.7298C14.7158 33.4139 15.3155 32.895 15.7299 32.2384C16.1444 31.5819 16.355 30.8173 16.3351 30.0412C16.3153 29.265 16.0659 28.5122 15.6184 27.8777C15.1709 27.2432 14.5455 26.7556 13.821 26.4763C13.0966 26.1971 12.3056 26.1388 11.5481 26.3088C10.7905 26.4789 10.1004 26.8696 9.56473 27.4316C9.0291 27.9936 8.67203 28.7018 8.53863 29.4667C8.40522 30.2315 8.50146 31.0187 8.8152 31.7289C9.02293 32.2059 9.32358 32.6368 9.69959 32.9964C10.0756 33.356 10.5195 33.6371 11.0053 33.8234C11.4911 34.0097 12.0091 34.0973 12.5292 34.0812C13.0492 34.0652 13.5608 33.9457 14.0342 33.7298H14.0066Z" fill="#F4C03B"/>
<path d="M14.0342 33.7299C13.7475 33.8894 13.4356 33.9986 13.1121 34.0526C12.2255 34.2247 11.3067 34.0846 10.5118 33.6561C9.95954 33.3594 9.48553 32.9359 9.12865 32.4205C8.71655 31.8294 8.47129 31.1382 8.41864 30.4196C8.38215 30.0304 8.41018 29.6378 8.50163 29.2578C8.58341 28.8616 8.72983 28.4815 8.93501 28.1328C9.35681 27.381 10.0101 26.7855 10.7976 26.435C11.5851 26.0844 12.4648 25.9975 13.3057 26.1872C13.704 26.2765 14.0864 26.4257 14.4399 26.6298C14.7815 26.8183 15.0924 27.0577 15.362 27.3398C15.8545 27.8546 16.2013 28.4911 16.367 29.184C16.5369 29.9297 16.489 30.7084 16.2291 31.4276C15.9692 32.1469 15.5082 32.7764 14.9009 33.2412C14.6418 33.44 14.3522 33.5957 14.0434 33.7022C14.3066 33.5505 14.5592 33.381 14.7995 33.1951C15.4801 32.6455 15.9546 31.8818 16.1457 31.0282C16.2841 30.4462 16.2841 29.8398 16.1457 29.2578C15.9872 28.5897 15.6492 27.9775 15.1683 27.4874C14.9164 27.219 14.624 26.9918 14.3016 26.8142C13.9692 26.6224 13.608 26.4853 13.2319 26.4085C12.4367 26.2339 11.6064 26.3188 10.8629 26.6507C10.1195 26.9826 9.50196 27.5441 9.10099 28.2527C8.90296 28.5798 8.7626 28.9385 8.68604 29.3131C8.60057 29.6722 8.5695 30.0421 8.59384 30.4104C8.63152 31.0522 8.83146 31.674 9.17497 32.2175C9.51848 32.761 9.9943 33.2084 10.5579 33.5178C11.3222 33.9475 12.2082 34.1098 13.0752 33.9789C13.4002 33.9181 13.7206 33.8349 14.0342 33.7299Z" fill="#F4C03B"/>
<path d="M14.0065 38.995C14.0065 38.995 14.0065 38.995 14.0987 39.0965L14.3569 39.4284C14.5874 39.7419 14.9286 40.1753 15.362 40.747H15.3159L18.6631 39.244V39.3085C18.534 38.6446 18.3864 37.9162 18.2297 37.1324C18.8433 36.6307 19.3889 36.051 19.8526 35.4081H19.8987L22.0932 35.7216L22.001 35.7677L23.338 32.273V32.3837L21.4939 31.1481V31.0927C21.5774 30.3035 21.5557 29.5066 21.4293 28.723V28.5847H21.4754L23.2551 27.2569V27.3767L21.7705 24.0295L21.8811 24.0941L19.7142 24.5183H19.6497V24.4629C19.1538 23.8471 18.5768 23.3012 17.9346 22.8401V22.7663C18.036 22.0839 18.1375 21.3371 18.2481 20.5809L18.3219 20.7008L14.7995 19.3638H14.9286L13.693 21.208V21.2633H13.6285C12.8427 21.1762 12.0488 21.1948 11.2679 21.3186C11.2218 21.3186 11.3786 21.3186 11.1573 21.3186L11.1112 21.2633L11.0282 21.1526L10.8622 20.9221L10.5302 20.4795L9.87556 19.5574H10.0047L6.65747 21.042L6.72202 20.9221C6.86034 21.6506 7.00786 22.379 7.14618 23.089V23.1536H7.09085C6.47362 23.6473 5.92477 24.221 5.45875 24.8594V24.9148H5.39421L3.19964 24.592L3.31952 24.5275L1.89028 27.9023V27.7732L3.73445 29.018V29.0826C3.64334 29.8679 3.65885 30.662 3.78056 31.4431V31.5077L2.00092 32.8355V32.7156C2.51729 33.8959 3.006 35.0116 3.47627 36.072L3.38406 36.0259L5.56018 35.6018C6.05398 36.2249 6.63108 36.7771 7.27527 37.2431C7.1554 38.0453 7.05398 38.7645 6.95255 39.4376L6.90644 39.3639L10.3182 40.7009H10.2628L11.5076 38.8567C12.1056 38.9142 12.7078 38.9142 13.3057 38.8567H13.7483H13.8866H13.7483C13.6469 38.8567 13.4994 38.9028 13.3057 38.9213C12.6927 38.9856 12.0746 38.9856 11.4616 38.9213C11.1204 39.4192 10.7239 40.0278 10.2352 40.7654H10.1891L6.94332 39.6497H6.88799V39.5944C6.98942 38.9121 7.09085 38.1928 7.2015 37.3998V37.4736C6.54931 36.9971 5.96057 36.4393 5.44954 35.8138H5.53252L3.35639 36.2472H3.29185V36.1827L1.79806 32.8355V32.7617H1.8534C2.43431 32.3376 3.02444 31.895 3.63302 31.4339L3.58692 31.5353C3.46258 30.736 3.44398 29.9237 3.53159 29.1195V29.2117L1.68742 27.9761H1.61365V27.9023C2.04703 26.7866 2.48042 25.6432 2.93224 24.4814V24.3984H3.02444L5.2098 24.7211L5.10837 24.7672C5.58394 24.1086 6.14521 23.5163 6.77735 23.006V23.1167C6.62981 22.3975 6.4915 21.6782 6.34396 20.9406V20.8576H6.42695L9.78335 19.3638H9.85712L9.91244 19.4283L10.5763 20.3504L10.9083 20.8022L11.0743 21.0235L11.1573 21.1342V21.1895H11.0466C11.8491 21.0657 12.6644 21.0471 13.4717 21.1342H13.3611L14.5967 19.29V19.207H14.6796L18.1006 20.5256H18.1836V20.6086L17.8608 22.8032V22.7017C18.5201 23.1733 19.1098 23.7351 19.6128 24.3707L19.5114 24.3246L21.6875 23.9005H21.7705V23.9834C22.2869 25.1453 22.794 26.2794 23.2551 27.3306V27.4044L23.1905 27.4597L21.4109 28.7783V28.6861C21.5344 29.4855 21.553 30.2977 21.4662 31.102V31.0098L23.3104 32.2546H23.3657V32.3191C22.8954 33.5178 22.4436 34.6612 22.0379 35.7401V35.7954H21.9734L19.788 35.4727H19.8526C19.3788 36.1217 18.8207 36.7047 18.1928 37.2062V37.1416C18.3495 37.9254 18.4879 38.6631 18.617 39.3178L15.2606 40.7839L14.3385 39.4653L14.0895 39.1149L14.0065 38.995Z" fill="#F4C03B"/>
<path fill-rule="evenodd" clip-rule="evenodd" d="M55.4821 56.1091C53.9571 56.352 52.4065 56.3892 50.8716 56.2197L48.4834 59.779L41.872 57.234L42.4898 52.9924C41.2393 52.0836 40.1139 51.014 39.1427 49.8112L34.9472 50.6411L32.0703 44.1865L35.5004 41.6323C35.262 40.1069 35.2248 38.5569 35.3898 37.0218L31.8305 34.6336L34.3847 28.0223L38.6171 28.64C39.5292 27.3893 40.6019 26.2639 41.8075 25.2929L40.9776 21.0974L47.4322 18.2205L49.9957 21.6598C51.5201 21.4131 53.0709 21.3727 54.6061 21.54L56.9943 17.9807L63.6057 20.5349L62.9879 24.7673C64.2406 25.677 65.3663 26.75 66.3351 27.9577L70.5398 27.1278L73.4075 33.5824L69.9773 36.1458C70.2203 37.6708 70.2575 39.2214 70.0879 40.7563L73.6472 43.1353L71.1022 49.7466L66.8606 49.1288C65.9508 50.3788 64.8778 51.5014 63.6702 52.4668L64.5001 56.6715L58.0455 59.5392L55.4913 56.1091H55.4821ZM55.5282 45.9661C56.9011 45.3558 58.0622 44.3522 58.8648 43.0821C59.6674 41.8121 60.0755 40.3325 60.0374 38.8306C59.9994 37.3287 59.5169 35.8717 58.6509 34.644C57.785 33.4162 56.5745 32.4727 55.1724 31.9328C53.7704 31.3928 52.2397 31.2807 50.774 31.6105C49.3082 31.9403 47.9731 32.6972 46.9374 33.7857C45.9018 34.8741 45.2121 36.2452 44.9555 37.7255C44.6989 39.2058 44.8869 40.729 45.4959 42.1025C45.9021 43.0137 46.484 43.8357 47.2082 44.5218C47.9325 45.2078 48.7849 45.7443 49.7167 46.1006C50.6485 46.4568 51.6414 46.6259 52.6386 46.5981C53.6358 46.5703 54.6177 46.3461 55.5282 45.9384V45.9661Z" fill="#F4C03B"/>
<g opacity="0.4">
<path opacity="0.4" d="M14.0058 38.995C13.2161 39.1239 12.4124 39.1425 11.6176 39.0503L10.382 40.8945L6.96101 39.5759L7.28375 37.3813C6.6439 36.9099 6.07016 36.3547 5.57788 35.7308L3.40175 36.1642L1.88953 32.8078L3.66915 31.4892C3.54045 30.6995 3.52184 29.8958 3.61383 29.101L1.76965 27.8654L3.08825 24.4444L5.28281 24.7671C5.75043 24.1244 6.30251 23.5475 6.92414 23.0521L6.49997 20.8575L9.84715 19.3637L11.175 21.1341C11.9651 21.01 12.7682 20.9914 13.5632 21.0788L14.7988 19.2346L18.2197 20.5532L17.897 22.7478C18.5465 23.2174 19.1296 23.7726 19.6305 24.3983L21.8066 23.9742L23.2912 27.3306L21.5208 28.6491C21.6404 29.4427 21.659 30.2483 21.5761 31.0466L23.4203 32.2822L22.1017 35.7031L19.9071 35.3804C19.4351 36.0279 18.8802 36.6107 18.2566 37.1139L18.69 39.2808L15.3336 40.7746L14.0058 38.995ZM14.0058 33.7298C14.715 33.4139 15.3147 32.895 15.7291 32.2384C16.1436 31.5819 16.3542 30.8173 16.3343 30.0412C16.3145 29.265 16.0651 28.5122 15.6176 27.8777C15.1701 27.2432 14.5447 26.7556 13.8202 26.4763C13.0958 26.1971 12.3048 26.1388 11.5473 26.3088C10.7897 26.4789 10.0996 26.8696 9.56394 27.4316C9.02831 27.9936 8.67124 28.7018 8.53783 29.4667C8.40443 30.2315 8.50067 31.0187 8.81441 31.7289C9.02214 32.2059 9.32279 32.6368 9.6988 32.9964C10.0748 33.356 10.5187 33.6371 11.0045 33.8234C11.4903 34.0097 12.0083 34.0973 12.5284 34.0812C13.0484 34.0652 13.56 33.9457 14.0334 33.7298H14.0058Z" fill="white"/>
<path opacity="0.4" d="M14.0342 33.7299C13.7475 33.8894 13.4356 33.9986 13.1121 34.0526C12.2255 34.2247 11.3067 34.0846 10.5118 33.6561C9.95954 33.3594 9.48553 32.9359 9.12865 32.4205C8.71655 31.8294 8.47129 31.1382 8.41864 30.4196C8.38215 30.0304 8.41018 29.6378 8.50163 29.2578C8.58341 28.8616 8.72983 28.4815 8.93501 28.1328C9.35681 27.381 10.0101 26.7855 10.7976 26.435C11.5851 26.0844 12.4648 25.9975 13.3057 26.1872C13.704 26.2765 14.0864 26.4257 14.4399 26.6298C14.7815 26.8183 15.0924 27.0577 15.362 27.3398C15.8545 27.8546 16.2013 28.4911 16.367 29.184C16.5369 29.9297 16.489 30.7084 16.2291 31.4276C15.9692 32.1469 15.5082 32.7764 14.9009 33.2412C14.6418 33.44 14.3522 33.5957 14.0434 33.7022C14.3066 33.5505 14.5592 33.381 14.7995 33.1951C15.4801 32.6455 15.9546 31.8818 16.1457 31.0282C16.2841 30.4462 16.2841 29.8398 16.1457 29.2578C15.9872 28.5897 15.6492 27.9775 15.1683 27.4874C14.9164 27.219 14.624 26.9918 14.3016 26.8142C13.9692 26.6224 13.608 26.4853 13.2319 26.4085C12.4367 26.2339 11.6064 26.3188 10.8629 26.6507C10.1195 26.9826 9.50196 27.5441 9.10099 28.2527C8.90296 28.5798 8.7626 28.9385 8.68604 29.3131C8.60057 29.6722 8.5695 30.0421 8.59384 30.4104C8.63152 31.0522 8.83146 31.674 9.17497 32.2175C9.51848 32.761 9.9943 33.2084 10.5579 33.5178C11.3222 33.9475 12.2082 34.1098 13.0752 33.9789C13.4002 33.9181 13.7206 33.8349 14.0342 33.7299Z" fill="white"/>
<path opacity="0.4" d="M14.0065 38.995C14.0065 38.995 14.0065 38.995 14.0987 39.0965L14.3569 39.4284C14.5874 39.7419 14.9286 40.1753 15.362 40.747H15.3159L18.6631 39.244V39.3085C18.534 38.6446 18.3864 37.9162 18.2297 37.1324C18.8433 36.6307 19.3889 36.051 19.8526 35.4081H19.8987L22.0932 35.7216L22.001 35.7677L23.338 32.273V32.3837L21.4939 31.1481V31.0927C21.5774 30.3035 21.5557 29.5066 21.4293 28.723V28.5847H21.4754L23.2551 27.2569V27.3767L21.7705 24.0295L21.8811 24.0941L19.7142 24.5183H19.6497V24.4629C19.1538 23.8471 18.5768 23.3012 17.9346 22.8401V22.7663C18.036 22.0839 18.1375 21.3371 18.2481 20.5809L18.3219 20.7008L14.7995 19.3638H14.9286L13.693 21.208V21.2633H13.6285C12.8427 21.1762 12.0488 21.1948 11.2679 21.3186C11.2218 21.3186 11.3786 21.3186 11.1573 21.3186L11.1112 21.2633L11.0282 21.1526L10.8622 20.9221L10.5302 20.4795L9.87556 19.5574H10.0047L6.65747 21.042L6.72202 20.9221C6.86034 21.6506 7.00786 22.379 7.14618 23.089V23.1536H7.09085C6.47362 23.6473 5.92477 24.221 5.45875 24.8594V24.9148H5.39421L3.19964 24.592L3.31952 24.5275L1.89028 27.9023V27.7732L3.73445 29.018V29.0826C3.64334 29.8679 3.65885 30.662 3.78056 31.4431V31.5077L2.00092 32.8355V32.7156C2.51729 33.8959 3.006 35.0116 3.47627 36.072L3.38406 36.0259L5.56018 35.6018C6.05398 36.2249 6.63108 36.7771 7.27527 37.2431C7.1554 38.0453 7.05398 38.7645 6.95255 39.4376L6.90644 39.3639L10.3182 40.7009H10.2628L11.5076 38.8567C12.1056 38.9142 12.7078 38.9142 13.3057 38.8567H13.7483H13.8866H13.7483C13.6469 38.8567 13.4994 38.9028 13.3057 38.9213C12.6927 38.9856 12.0746 38.9856 11.4616 38.9213C11.1204 39.4192 10.7239 40.0278 10.2352 40.7654H10.1891L6.94332 39.6497H6.88799V39.5944C6.98942 38.9121 7.09085 38.1928 7.2015 37.3998V37.4736C6.54931 36.9971 5.96057 36.4393 5.44954 35.8138H5.53252L3.35639 36.2472H3.29185V36.1827L1.79806 32.8355V32.7617H1.8534C2.43431 32.3376 3.02444 31.895 3.63302 31.4339L3.58692 31.5353C3.46258 30.736 3.44398 29.9237 3.53159 29.1195V29.2117L1.68742 27.9761H1.61365V27.9023C2.04703 26.7866 2.48042 25.6432 2.93224 24.4814V24.3984H3.02444L5.2098 24.7211L5.10837 24.7672C5.58394 24.1086 6.14521 23.5163 6.77735 23.006V23.1167C6.62981 22.3975 6.4915 21.6782 6.34396 20.9406V20.8576H6.42695L9.78335 19.3638H9.85712L9.91244 19.4283L10.5763 20.3504L10.9083 20.8022L11.0743 21.0235L11.1573 21.1342V21.1895H11.0466C11.8491 21.0657 12.6644 21.0471 13.4717 21.1342H13.3611L14.5967 19.29V19.207H14.6796L18.1006 20.5256H18.1836V20.6086L17.8608 22.8032V22.7017C18.5201 23.1733 19.1098 23.7351 19.6128 24.3707L19.5114 24.3246L21.6875 23.9005H21.7705V23.9834C22.2869 25.1453 22.794 26.2794 23.2551 27.3306V27.4044L23.1905 27.4597L21.4109 28.7783V28.6861C21.5344 29.4855 21.553 30.2977 21.4662 31.102V31.0098L23.3104 32.2546H23.3657V32.3191C22.8954 33.5178 22.4436 34.6612 22.0379 35.7401V35.7954H21.9734L19.788 35.4727H19.8526C19.3788 36.1217 18.8207 36.7047 18.1928 37.2062V37.1416C18.3495 37.9254 18.4879 38.6631 18.617 39.3178L15.2606 40.7839L14.3385 39.4653L14.0895 39.1149L14.0065 38.995Z" fill="white"/>
</g>
<path d="M170.679 71.1737H171.272C171.855 71.1783 172.437 71.2245 173.013 71.3118C175.29 71.5846 177.481 72.3378 179.441 73.5211C180.9 74.3661 182.222 75.4278 183.359 76.6693C184.742 78.1613 185.849 79.8847 186.628 81.7599C187.516 83.9591 187.951 86.313 187.906 88.6823C187.906 91.2045 187.906 93.8833 187.906 96.7185C187.906 119.437 187.906 152.3 187.971 192.914C188.036 233.528 187.971 281.884 187.971 335.597V361.151C188.007 362.907 187.785 364.659 187.314 366.352C186.837 368.055 186.1 369.676 185.128 371.157C184.135 372.636 182.93 373.963 181.553 375.097C178.733 377.37 175.267 378.707 171.642 378.917C168.048 379.027 164.473 378.917 160.861 378.972H139.021H94.1835H59.6916C55.7312 379.191 51.8077 378.115 48.5215 375.907C45.2596 373.648 42.8634 370.358 41.7232 366.573C41.187 364.697 40.9464 362.75 41.01 360.801V332.264C41.01 317.18 41.01 302.322 41.01 287.692C41.01 258.474 41.01 230.279 41.01 203.427C41.01 176.575 41.01 151.058 41.01 127.179C41.01 115.237 41.01 103.721 41.01 92.6314C41.01 91.2413 41.01 89.8698 41.01 88.489C41.01 87.8078 41.0656 87.1082 41.1026 86.427C41.1397 85.7458 41.2786 85.0554 41.4546 84.3926C42.0728 81.7378 43.3065 79.2633 45.0575 77.1664C46.7946 75.1371 48.9695 73.523 51.4206 72.4441C53.8294 71.4201 56.4338 70.93 59.0525 71.008H74.0015H84.8103C86.0076 70.9444 87.1935 71.2673 88.1909 71.9286C89.1649 72.606 89.8978 73.5728 90.2842 74.6902C90.6153 75.7777 90.7348 76.9181 90.6361 78.0501V79.7163C90.6172 80.257 90.6357 80.7983 90.6917 81.3364C90.8209 82.3933 91.2662 83.3874 91.9699 84.1901C92.6524 84.9884 93.5688 85.5548 94.591 85.8102C95.0971 85.9318 95.6175 85.9845 96.1378 85.9667H103.909H126.527H136.502C137.289 85.9667 138.095 85.9667 138.836 85.9667C139.583 85.8797 140.301 85.6281 140.938 85.2303C141.548 84.8443 142.075 84.3422 142.488 83.7528C142.901 83.1635 143.193 82.4987 143.347 81.7967C143.468 81.1133 143.512 80.4185 143.476 79.7255C143.476 79.0351 143.476 78.3539 143.476 77.6819C143.444 77.018 143.472 76.3525 143.56 75.6936C143.669 75.0476 143.888 74.425 144.208 73.8525C144.822 72.7522 145.805 71.9017 146.987 71.4499C148.087 71.1029 149.245 70.9777 150.395 71.0817H161.509H168.354H170.679H168.354H161.509H150.395C149.264 70.9809 148.125 71.1029 147.042 71.4407C145.911 71.8933 144.975 72.7233 144.393 73.7881C144.084 74.3406 143.871 74.9414 143.763 75.5647C143.683 76.2119 143.658 76.8648 143.689 77.5162V79.5598C143.725 80.2654 143.679 80.9729 143.55 81.6678C143.396 82.396 143.097 83.0862 142.671 83.6979C142.245 84.3097 141.7 84.8306 141.068 85.2303C140.409 85.6441 139.665 85.9081 138.892 86.0035C138.095 86.0679 137.326 86.0035 136.53 86.0035H96.1563C95.6146 86.02 95.073 85.9674 94.5447 85.847C93.4635 85.579 92.4926 84.984 91.7661 84.144C91.0282 83.2941 90.5579 82.2473 90.4138 81.1339C90.3586 80.5834 90.3401 80.0299 90.3583 79.4769V77.8108C90.449 76.7134 90.336 75.6088 90.0248 74.5521C89.6484 73.5023 88.9524 72.595 88.0335 71.9562C87.097 71.3057 85.97 70.982 84.8288 71.0357H59.1636C56.5928 70.9602 54.0362 71.4408 51.6706 72.4441C49.2757 73.4963 47.1487 75.0692 45.4465 77.0467C43.7279 79.0986 42.5191 81.5236 41.9177 84.1256C41.751 84.77 41.6954 85.4512 41.575 86.114C41.4546 86.7768 41.4916 87.458 41.4824 88.1392V92.2815C41.4824 103.365 41.4824 114.881 41.4824 126.829C41.4824 150.708 41.4824 176.225 41.4824 203.077V287.342C41.4824 301.954 41.4824 316.812 41.4824 331.914V360.451C41.3929 362.45 41.637 364.45 42.2048 366.37C43.3098 370.053 45.6417 373.254 48.8179 375.446C52.0201 377.603 55.8482 378.652 59.7101 378.429H94.2298H139.067H160.907C164.51 378.429 168.123 378.484 171.661 378.383C175.186 378.188 178.561 376.9 181.312 374.701C182.647 373.591 183.816 372.299 184.785 370.862C185.736 369.422 186.457 367.845 186.925 366.186C187.382 364.531 187.597 362.82 187.564 361.105V355.931C187.564 349.064 187.564 342.27 187.564 335.551C187.564 281.856 187.619 233.5 187.647 192.868C187.675 152.236 187.721 119.391 187.74 96.6725C187.74 93.8372 187.74 91.1585 187.74 88.6362C187.798 86.2864 187.372 83.9496 186.489 81.7691C185.727 79.9041 184.635 78.1895 183.266 76.7061C180.581 73.7754 176.952 71.8676 173.004 71.3118C172.43 71.2252 171.852 71.1729 171.272 71.1553L170.679 71.1737Z" fill="#263238"/>
<path d="M170.494 155.003C171.553 154.768 172.64 154.687 173.721 154.763L173.482 155.003V154.376C173.482 154.173 173.482 153.97 173.482 153.767C173.482 153.38 173.482 153.03 173.537 152.744C173.583 152.154 173.638 151.822 173.703 151.822C173.768 151.822 173.832 152.181 173.878 152.744C173.878 153.03 173.878 153.38 173.878 153.767C173.878 153.97 173.878 154.173 173.878 154.376V155.003L173.638 155.243C172.584 155.311 171.526 155.231 170.494 155.003Z" fill="#2C0BF1"/>
<path d="M158.046 155.003C160.108 154.683 162.208 154.683 164.27 155.003C162.208 155.323 160.108 155.323 158.046 155.003Z" fill="#2C0BF1"/>
<path d="M145.589 155.003C147.651 154.683 149.75 154.683 151.813 155.003C149.75 155.323 147.651 155.323 145.589 155.003Z" fill="#2C0BF1"/>
<path d="M133.14 155.003C135.203 154.683 137.302 154.683 139.364 155.003C137.302 155.323 135.203 155.323 133.14 155.003Z" fill="#2C0BF1"/>
<path d="M120.683 155.003C122.745 154.683 124.845 154.683 126.907 155.003C124.845 155.323 122.745 155.323 120.683 155.003Z" fill="#2C0BF1"/>
<path d="M108.235 155.003C110.297 154.683 112.396 154.683 114.459 155.003C112.396 155.323 110.297 155.323 108.235 155.003Z" fill="#2C0BF1"/>
<path d="M95.7775 155.003C97.8398 154.683 99.9392 154.683 102.002 155.003C99.9392 155.323 97.8398 155.323 95.7775 155.003Z" fill="#2C0BF1"/>
<path d="M83.3201 155.003C85.3855 154.684 87.4879 154.684 89.5534 155.003C87.4879 155.323 85.3855 155.323 83.3201 155.003Z" fill="#2C0BF1"/>
<path d="M70.8718 155.003C72.9342 154.683 75.0336 154.683 77.0959 155.003C75.0336 155.323 72.9342 155.323 70.8718 155.003Z" fill="#2C0BF1"/>
<path d="M61.4204 151.776C61.6558 152.834 61.7366 153.921 61.6601 155.003L61.4204 154.763H62.6744C63.0617 154.763 63.4029 154.782 63.6979 154.819C64.2789 154.819 64.62 154.92 64.62 154.985C64.62 155.049 64.2512 155.114 63.6979 155.151C63.4029 155.151 63.0617 155.169 62.6744 155.206H62.0659H61.4204L61.1714 154.966C61.0934 153.896 61.1773 152.821 61.4204 151.776Z" fill="#2C0BF1"/>
<path d="M61.4204 139.143C61.74 141.236 61.74 143.366 61.4204 145.459C61.0885 143.367 61.0885 141.235 61.4204 139.143Z" fill="#2C0BF1"/>
<path d="M61.4204 126.52C61.7401 128.61 61.7401 130.737 61.4204 132.827C61.0885 130.738 61.0885 128.609 61.4204 126.52Z" fill="#2C0BF1"/>
<path d="M64.6476 116.976C63.5891 117.212 62.502 117.292 61.4203 117.216C61.8998 116.736 61.5494 117.078 61.6601 116.976V118.212C61.6601 118.599 61.6416 118.94 61.6048 119.235C61.5587 119.816 61.5033 120.157 61.4388 120.157C61.3742 120.157 61.3097 119.789 61.2636 119.235C61.2636 118.94 61.2636 118.599 61.2175 118.212V117.603V116.976L61.4664 116.736C62.5328 116.659 63.6049 116.74 64.6476 116.976Z" fill="#2C0BF1"/>
<path d="M77.0959 116.976C75.0336 117.296 72.9342 117.296 70.8718 116.976C72.9342 116.656 75.0336 116.656 77.0959 116.976Z" fill="#2C0BF1"/>
<path d="M89.5534 116.976C87.4879 117.296 85.3855 117.296 83.3201 116.976C85.3855 116.657 87.4879 116.657 89.5534 116.976Z" fill="#2C0BF1"/>
<path d="M102.002 116.976C99.9392 117.296 97.8398 117.296 95.7775 116.976C97.8398 116.656 99.9392 116.656 102.002 116.976Z" fill="#2C0BF1"/>
<path d="M114.459 116.976C112.396 117.296 110.297 117.296 108.235 116.976C110.297 116.656 112.396 116.656 114.459 116.976Z" fill="#2C0BF1"/>
<path d="M126.907 116.976C124.845 117.296 122.745 117.296 120.683 116.976C122.745 116.656 124.845 116.656 126.907 116.976Z" fill="#2C0BF1"/>
<path d="M139.364 116.976C137.302 117.296 135.203 117.296 133.14 116.976C135.203 116.656 137.302 116.656 139.364 116.976Z" fill="#2C0BF1"/>
<path d="M151.813 116.976C149.75 117.296 147.651 117.296 145.589 116.976C147.651 116.656 149.75 116.656 151.813 116.976Z" fill="#2C0BF1"/>
<path d="M164.27 116.976C162.208 117.296 160.108 117.296 158.046 116.976C160.108 116.656 162.208 116.656 164.27 116.976Z" fill="#2C0BF1"/>
<path d="M173.721 120.203C173.486 119.145 173.405 118.058 173.482 116.976C173.961 117.456 173.62 117.105 173.721 117.216H172.477L171.453 117.161C170.863 117.161 170.531 117.059 170.531 116.995C170.531 116.93 170.891 116.865 171.453 116.819H172.477H173.085H173.731L173.97 117.059C174.041 118.114 173.957 119.173 173.721 120.203Z" fill="#2C0BF1"/>
<path d="M173.721 132.827C173.402 130.737 173.402 128.61 173.721 126.52C174.041 128.61 174.041 130.737 173.721 132.827Z" fill="#2C0BF1"/>
<path d="M173.722 145.459C173.402 143.366 173.402 141.236 173.722 139.143C174.041 141.236 174.041 143.366 173.722 145.459Z" fill="#2C0BF1"/>
<path d="M62.6652 115.98H60.6827V117.963H62.6652V115.98Z" fill="#2C0BF1"/>
<path d="M62.407 154.016H60.4245V155.999H62.407V154.016Z" fill="#2C0BF1"/>
<path d="M118.562 154.016H116.58V155.999H118.562V154.016Z" fill="#2C0BF1"/>
<path d="M118.562 115.565H116.58V117.548H118.562V115.565Z" fill="#2C0BF1"/>
<path d="M173.675 98.0364C173.675 98.1102 170.854 98.1932 167.368 98.2208C163.883 98.2485 161.061 98.2208 161.061 98.1471C161.061 98.0733 163.883 97.9903 167.368 97.9534C170.854 97.9165 173.666 97.9626 173.675 98.0364Z" fill="#263238"/>
<path d="M173.694 101.264C173.694 101.338 170.872 101.421 167.396 101.448C163.92 101.476 161.089 101.448 161.089 101.365C161.089 101.282 163.911 101.208 167.396 101.181C170.882 101.153 173.694 101.19 173.694 101.264Z" fill="#263238"/>
<path d="M173.721 104.491C173.721 104.565 170.9 104.648 167.424 104.676C163.947 104.703 161.116 104.676 161.116 104.593C161.116 104.51 163.938 104.436 167.424 104.408C170.909 104.38 173.721 104.417 173.721 104.491Z" fill="#263238"/>
<path d="M135.16 210.946C135.16 211.066 126.437 211.167 115.695 211.167C104.952 211.167 96.22 211.066 96.22 210.946C96.22 210.826 104.934 210.725 115.695 210.725C126.455 210.725 135.16 210.817 135.16 210.946Z" fill="#E0E0E0"/>
<path d="M166.197 218.931C166.197 219.051 150.522 219.153 131.213 219.153C111.905 219.153 96.22 219.051 96.22 218.931C96.22 218.812 111.896 218.71 131.213 218.71C150.531 218.71 166.197 218.812 166.197 218.931Z" fill="#263238"/>
<path d="M165.377 224.639C165.377 224.759 149.895 224.861 130.798 224.861C111.702 224.861 96.22 224.759 96.22 224.639C96.22 224.519 111.702 224.418 130.798 224.418C149.895 224.418 165.377 224.519 165.377 224.639Z" fill="#263238"/>
<path d="M137.05 230.079C137.05 230.209 127.912 230.301 116.635 230.301C105.358 230.301 96.22 230.209 96.22 230.079C96.22 229.95 105.358 229.858 116.635 229.858C127.912 229.858 137.05 229.96 137.05 230.079Z" fill="#263238"/>
<path d="M135.16 297.835C135.16 297.954 126.437 298.056 115.695 298.056C104.952 298.056 96.22 297.954 96.22 297.835C96.22 297.715 104.934 297.613 115.695 297.613C126.455 297.613 135.16 297.678 135.16 297.835Z" fill="#E0E0E0"/>
<path d="M166.197 305.792C166.197 305.912 150.522 306.013 131.213 306.013C111.905 306.013 96.22 305.912 96.22 305.792C96.22 305.672 111.896 305.571 131.213 305.571C150.531 305.571 166.197 305.663 166.197 305.792Z" fill="#263238"/>
<path d="M165.377 311.5C165.377 311.62 149.895 311.721 130.798 311.721C111.702 311.721 96.22 311.62 96.22 311.5C96.22 311.38 111.702 311.279 130.798 311.279C149.895 311.279 165.377 311.371 165.377 311.5Z" fill="#263238"/>
<path d="M137.05 316.94C137.05 317.06 127.912 317.162 116.635 317.162C105.358 317.162 96.22 317.06 96.22 316.94C96.22 316.82 105.358 316.719 116.635 316.719C127.912 316.719 137.05 316.82 137.05 316.94Z" fill="#263238"/>
<path d="M135.261 171.647C135.261 171.767 126.548 171.868 115.796 171.868C105.044 171.868 96.3307 171.767 96.3307 171.647C96.3307 171.527 105.044 171.426 115.796 171.426C126.548 171.426 135.261 171.509 135.261 171.647Z" fill="#2C0BF1"/>
<path d="M166.308 179.641C166.308 179.761 150.632 179.863 131.315 179.863C111.997 179.863 96.3307 179.761 96.3307 179.641C96.3307 179.521 112.006 179.42 131.315 179.42C150.623 179.42 166.308 179.512 166.308 179.641Z" fill="#263238"/>
<path d="M165.478 185.34C165.478 185.469 149.996 185.57 130.909 185.57C111.822 185.57 96.3307 185.469 96.3307 185.34C96.3307 185.211 111.803 185.119 130.909 185.119C150.015 185.119 165.478 185.22 165.478 185.34Z" fill="#263238"/>
<path d="M137.161 190.789C137.161 190.909 128.014 191.011 116.746 191.011C105.478 191.011 96.3307 190.909 96.3307 190.789C96.3307 190.67 105.469 190.568 116.746 190.568C128.023 190.568 137.161 190.67 137.161 190.789Z" fill="#263238"/>
<path d="M79.5394 192.468C81.679 192.148 83.8543 192.148 85.994 192.468C83.8543 192.787 81.679 192.787 79.5394 192.468Z" fill="#2C0BF1"/>
<path d="M66.6301 192.468C68.7698 192.148 70.9451 192.148 73.0847 192.468C70.9451 192.787 68.7698 192.787 66.6301 192.468Z" fill="#2C0BF1"/>
<path d="M64.2419 181.947C64.5615 184.086 64.5615 186.261 64.2419 188.401C63.9223 186.261 63.9223 184.086 64.2419 181.947Z" fill="#2C0BF1"/>
<path d="M65.9294 170.716C65.3861 170.896 64.8128 170.968 64.2419 170.928L64.454 170.716C64.454 171.167 64.454 171.702 64.454 172.265C64.536 173.346 64.4552 174.434 64.2143 175.492C63.9788 174.433 63.8981 173.346 63.9745 172.265C63.9745 171.702 63.9745 171.167 63.9745 170.716V170.494H64.1774C64.7702 170.454 65.3651 170.53 65.9294 170.716Z" fill="#2C0BF1"/>
<path d="M78.8386 170.716C76.6989 171.035 74.5236 171.035 72.384 170.716C74.5236 170.396 76.6989 170.396 78.8386 170.716Z" fill="#2C0BF1"/>
<path d="M85.994 176.469C85.7531 175.412 85.6723 174.324 85.7543 173.242C85.7543 172.209 85.7542 171.296 85.8464 170.715L85.994 170.863C85.5514 170.863 85.2932 170.771 85.2932 170.715C85.2932 170.66 85.5514 170.605 85.994 170.568H86.1231V170.725C86.1784 171.306 86.2153 172.218 86.2153 173.251C86.2969 174.329 86.2223 175.413 85.994 176.469Z" fill="#2C0BF1"/>
<path d="M85.994 189.379C85.6744 187.239 85.6744 185.064 85.994 182.924C86.3136 185.064 86.3136 187.239 85.994 189.379Z" fill="#2C0BF1"/>
<path d="M86.9623 191.407H84.5556V193.814H86.9623V191.407Z" fill="#2C0BF1"/>
<path d="M86.9623 168.927H84.5556V171.333H86.9623V168.927Z" fill="#2C0BF1"/>
<path d="M65.45 191.407H63.0433V193.814H65.45V191.407Z" fill="#2C0BF1"/>
<path d="M65.45 169.517H63.0433V171.923H65.45V169.517Z" fill="#2C0BF1"/>
<path d="M79.5394 232.505C81.679 232.185 83.8543 232.185 85.994 232.505C83.8552 232.837 81.6781 232.837 79.5394 232.505Z" fill="#E0E0E0"/>
<path d="M66.6301 232.505C68.7698 232.185 70.9451 232.185 73.0847 232.505C70.946 232.837 68.7689 232.837 66.6301 232.505Z" fill="#E0E0E0"/>
<path d="M64.2419 221.984C64.5615 224.123 64.5615 226.299 64.2419 228.438C63.9223 226.299 63.9223 224.123 64.2419 221.984Z" fill="#E0E0E0"/>
<path d="M65.9294 210.762C65.385 210.936 64.8127 211.008 64.242 210.974L64.4541 210.762C64.4541 211.214 64.4541 211.739 64.4541 212.302C64.5367 213.383 64.4559 214.471 64.2143 215.529C63.9782 214.47 63.8975 213.383 63.9746 212.302C63.9746 211.739 63.9746 211.214 63.9746 210.762V210.54H64.1774C64.7704 210.494 65.3665 210.57 65.9294 210.762Z" fill="#E0E0E0"/>
<path d="M78.8386 210.762C76.6989 211.081 74.5236 211.081 72.384 210.762C74.5236 210.442 76.6989 210.442 78.8386 210.762Z" fill="#E0E0E0"/>
<path d="M85.994 216.516C85.7531 215.458 85.6723 214.37 85.7543 213.288C85.7543 212.256 85.7542 211.343 85.8464 210.762L85.994 210.909C85.5514 210.863 85.2932 210.817 85.2932 210.762C85.2932 210.706 85.5514 210.651 85.994 210.614H86.1231V210.78C86.1784 211.361 86.2153 212.274 86.2153 213.307C86.296 214.381 86.2215 215.462 85.994 216.516Z" fill="#E0E0E0"/>
<path d="M85.994 229.425C85.6744 227.285 85.6744 225.11 85.994 222.97C86.3136 225.11 86.3136 227.285 85.994 229.425Z" fill="#E0E0E0"/>
<path d="M86.9623 231.453H84.5556V233.86H86.9623V231.453Z" fill="#E0E0E0"/>
<path d="M86.9623 208.964H84.5556V211.37H86.9623V208.964Z" fill="#E0E0E0"/>
<path d="M65.45 231.453H63.0433V233.86H65.45V231.453Z" fill="#E0E0E0"/>
<path d="M65.45 209.554H63.0433V211.96H65.45V209.554Z" fill="#E0E0E0"/>
<path d="M79.65 274.911C81.7897 274.592 83.965 274.592 86.1046 274.911C83.965 275.231 81.7897 275.231 79.65 274.911Z" fill="#2C0BF1"/>
<path d="M66.7408 274.911C68.8805 274.592 71.0557 274.592 73.1954 274.911C71.0557 275.231 68.8805 275.231 66.7408 274.911Z" fill="#2C0BF1"/>
<path d="M64.3618 264.39C64.6814 266.53 64.6814 268.705 64.3618 270.845C64.0422 268.705 64.0422 266.53 64.3618 264.39Z" fill="#2C0BF1"/>
<path d="M66.0401 253.169C65.4977 253.338 64.929 253.407 64.3619 253.371L64.574 253.169C64.574 253.62 64.574 254.146 64.574 254.708C64.6504 255.79 64.5697 256.877 64.3342 257.936C64.0933 256.878 64.0125 255.79 64.0945 254.708C64.0945 254.146 64.0945 253.62 64.0945 253.169V252.947H64.2973C64.8873 252.901 65.4806 252.976 66.0401 253.169Z" fill="#2C0BF1"/>
<path d="M78.9494 253.168C76.8097 253.488 74.6344 253.488 72.4948 253.168C74.6344 252.849 76.8097 252.849 78.9494 253.168Z" fill="#2C0BF1"/>
<path d="M86.1047 258.923C85.8693 257.864 85.7885 256.777 85.865 255.695C85.865 254.663 85.865 253.75 85.9572 253.169L86.1047 253.316C85.6621 253.27 85.4039 253.224 85.4039 253.169C85.4039 253.113 85.6621 253.058 86.1047 253.021H86.243V253.187C86.3076 253.768 86.3352 254.681 86.3352 255.714C86.4184 256.789 86.3407 257.87 86.1047 258.923Z" fill="#2C0BF1"/>
<path d="M86.1047 271.832C85.7851 269.692 85.7851 267.517 86.1047 265.377C86.4243 267.517 86.4243 269.692 86.1047 271.832Z" fill="#2C0BF1"/>
<path d="M87.0821 273.851H84.6755V276.258H87.0821V273.851Z" fill="#2C0BF1"/>
<path d="M87.0821 251.371H84.6755V253.777H87.0821V251.371Z" fill="#2C0BF1"/>
<path d="M65.5605 273.851H63.1539V276.258H65.5605V273.851Z" fill="#2C0BF1"/>
<path d="M65.5605 251.961H63.1539V254.367H65.5605V251.961Z" fill="#2C0BF1"/>
<path d="M79.5394 317.198C81.679 316.879 83.8543 316.879 85.994 317.198C83.8543 317.518 81.679 317.518 79.5394 317.198Z" fill="#E0E0E0"/>
<path d="M66.6301 317.198C68.7698 316.879 70.9451 316.879 73.0847 317.198C70.9451 317.518 68.7698 317.518 66.6301 317.198Z" fill="#E0E0E0"/>
<path d="M64.2419 306.677C64.5615 308.817 64.5615 310.992 64.2419 313.132C63.9223 310.992 63.9223 308.817 64.2419 306.677Z" fill="#E0E0E0"/>
<path d="M65.9294 295.456C65.385 295.63 64.8127 295.702 64.242 295.668L64.4541 295.456C64.4541 295.907 64.4541 296.433 64.4541 296.995C64.5367 298.077 64.4559 299.165 64.2143 300.223C63.9782 299.164 63.8975 298.077 63.9746 296.995C63.9746 296.433 63.9746 295.907 63.9746 295.456V295.234H64.1774C64.7702 295.194 65.3651 295.27 65.9294 295.456Z" fill="#E0E0E0"/>
<path d="M78.8386 295.456C76.6989 295.775 74.5236 295.775 72.384 295.456C74.5236 295.136 76.6989 295.136 78.8386 295.456Z" fill="#E0E0E0"/>
<path d="M85.994 301.209C85.7531 300.152 85.6723 299.064 85.7543 297.982C85.7543 296.949 85.7542 296.037 85.8464 295.456L85.994 295.603C85.5514 295.603 85.2932 295.511 85.2932 295.456C85.2932 295.4 85.5514 295.345 85.994 295.308H86.1231V295.465C86.1784 296.046 86.2153 296.959 86.2153 297.991C86.2969 299.069 86.2223 300.153 85.994 301.209Z" fill="#E0E0E0"/>
<path d="M85.994 314.119C85.6744 311.979 85.6744 309.804 85.994 307.664C86.3136 309.804 86.3136 311.979 85.994 314.119Z" fill="#E0E0E0"/>
<path d="M86.9623 316.147H84.5556V318.554H86.9623V316.147Z" fill="#E0E0E0"/>
<path d="M86.9623 293.657H84.5556V296.064H86.9623V293.657Z" fill="#E0E0E0"/>
<path d="M65.45 316.147H63.0433V318.554H65.45V316.147Z" fill="#E0E0E0"/>
<path d="M65.45 294.248H63.0433V296.654H65.45V294.248Z" fill="#E0E0E0"/>
<path d="M79.5394 360.97C81.679 360.65 83.8543 360.65 85.994 360.97C83.8543 361.29 81.679 361.29 79.5394 360.97Z" fill="#2C0BF1"/>
<path d="M66.6301 360.97C68.7698 360.65 70.9451 360.65 73.0847 360.97C70.9451 361.29 68.7698 361.29 66.6301 360.97Z" fill="#2C0BF1"/>
<path d="M64.2419 350.44C64.5615 352.579 64.5615 354.755 64.2419 356.894C63.9223 354.755 63.9223 352.579 64.2419 350.44Z" fill="#2C0BF1"/>
<path d="M65.9294 339.218C65.385 339.393 64.8127 339.465 64.242 339.43L64.4541 339.218C64.4541 339.67 64.4541 340.195 64.4541 340.758C64.5367 341.84 64.4559 342.928 64.2143 343.985C63.9782 342.927 63.8975 341.84 63.9746 340.758C63.9746 340.195 63.9746 339.67 63.9746 339.218V338.997H64.1774C64.7702 338.957 65.3651 339.032 65.9294 339.218Z" fill="#2C0BF1"/>
<path d="M78.8386 339.218C76.6989 339.538 74.5236 339.538 72.384 339.218C74.5236 338.898 76.6989 338.898 78.8386 339.218Z" fill="#2C0BF1"/>
<path d="M85.994 344.972C85.7531 343.914 85.6723 342.826 85.7543 341.744C85.7543 340.712 85.7542 339.799 85.8464 339.218L85.994 339.365C85.5514 339.365 85.2932 339.273 85.2932 339.218C85.2932 339.163 85.5514 339.107 85.994 339.07H86.1231V339.227C86.1784 339.808 86.2153 340.721 86.2153 341.754C86.2969 342.831 86.2223 343.915 85.994 344.972Z" fill="#2C0BF1"/>
<path d="M85.994 357.881C85.6744 355.741 85.6744 353.566 85.994 351.426C86.3136 353.566 86.3136 355.741 85.994 357.881Z" fill="#2C0BF1"/>
<path d="M86.9623 359.909H84.5556V362.316H86.9623V359.909Z" fill="#2C0BF1"/>
<path d="M86.9623 337.42H84.5556V339.826H86.9623V337.42Z" fill="#2C0BF1"/>
<path d="M65.45 359.909H63.0433V362.316H65.45V359.909Z" fill="#2C0BF1"/>
<path d="M65.45 338.01H63.0433V340.417H65.45V338.01Z" fill="#2C0BF1"/>
<path d="M134.33 252.431C134.33 252.551 125.616 252.652 114.865 252.652C104.113 252.652 95.3994 252.551 95.3994 252.431C95.3994 252.311 104.113 252.209 114.865 252.209C125.616 252.209 134.33 252.311 134.33 252.431Z" fill="#2C0BF1"/>
<path d="M165.377 260.425C165.377 260.545 149.701 260.647 130.393 260.647C111.084 260.647 95.3994 260.545 95.3994 260.425C95.3994 260.306 111.075 260.204 130.393 260.204C149.71 260.204 165.377 260.296 165.377 260.425Z" fill="#263238"/>
<path d="M164.556 266.133C164.556 266.253 149.074 266.354 129.978 266.354C110.881 266.354 95.3994 266.253 95.3994 266.133C95.3994 266.013 110.881 265.912 129.978 265.912C149.074 265.912 164.556 266.004 164.556 266.133Z" fill="#263238"/>
<path d="M136.229 271.573C136.229 271.693 127.092 271.795 115.814 271.795C104.537 271.795 95.3994 271.693 95.3994 271.573C95.3994 271.453 104.537 271.352 115.814 271.352C127.092 271.352 136.229 271.453 136.229 271.573Z" fill="#263238"/>
<path d="M134.33 341.108C134.33 341.237 125.616 341.329 114.865 341.329C104.113 341.329 95.3994 341.237 95.3994 341.108C95.3994 340.979 104.113 340.887 114.865 340.887C125.616 340.887 134.33 340.988 134.33 341.108Z" fill="#2C0BF1"/>
<path d="M165.377 349.103C165.377 349.223 149.701 349.324 130.393 349.324C111.084 349.324 95.3994 349.223 95.3994 349.103C95.3994 348.983 111.075 348.881 130.393 348.881C149.71 348.881 165.377 348.983 165.377 349.103Z" fill="#263238"/>
<path d="M164.556 354.81C164.556 354.93 149.074 355.032 129.978 355.032C110.881 355.032 95.3994 354.93 95.3994 354.81C95.3994 354.691 110.881 354.589 129.978 354.589C149.074 354.589 164.556 354.681 164.556 354.81Z" fill="#263238"/>
<path d="M136.229 360.251C136.229 360.37 127.092 360.472 115.814 360.472C104.537 360.472 95.3994 360.37 95.3994 360.251C95.3994 360.131 104.537 360.029 115.814 360.029C127.092 360.029 136.229 360.131 136.229 360.251Z" fill="#263238"/>
<path d="M61.8261 104.067H62.0751H62.7851L65.3946 104.002L65.3208 104.076C65.3208 103.495 65.3208 102.868 65.3208 102.186C65.3208 101.835 65.3208 101.504 65.3208 101.089C65.3653 100.88 65.4735 100.691 65.6305 100.547C65.7876 100.404 65.9855 100.312 66.1968 100.286C66.621 100.286 66.9898 100.286 67.4509 100.286C67.6903 100.328 67.9075 100.452 68.0643 100.637C68.2211 100.823 68.3076 101.058 68.3084 101.301C68.3084 102.223 68.3084 103.145 68.3084 104.067L68.1885 103.947H71.4804L71.3605 104.076C71.3605 102.748 71.3605 101.374 71.3605 99.9729C71.3605 99.6132 71.3605 99.2721 71.3605 98.9217C71.3424 98.7664 71.291 98.6168 71.2098 98.4831C71.1287 98.3495 71.0197 98.2349 70.8902 98.1471L69.4518 96.7271L68.0686 95.3532L67.3955 94.6893C67.1558 94.468 66.9806 94.2375 66.7132 94.1821C66.5844 94.1453 66.4488 94.1395 66.3174 94.1651C66.186 94.1908 66.0625 94.2472 65.9571 94.3297C65.7542 94.4957 65.5421 94.7354 65.3393 94.929L64.159 96.1185C63.4121 96.8931 62.6375 97.6031 62.0751 98.267C61.9142 98.6544 61.857 99.0771 61.9091 99.4934V100.655C61.9091 101.365 61.9091 101.992 61.9091 102.499C61.9091 103.007 61.9091 103.366 61.9091 103.689C61.9091 104.012 61.9091 104.113 61.9091 104.122C61.896 103.99 61.896 103.858 61.9091 103.726C61.9091 103.412 61.9091 103.025 61.9091 102.555C61.9091 102.084 61.9091 101.384 61.863 100.711C61.863 100.342 61.863 99.9452 61.863 99.5303C61.863 99.3182 61.863 99.1061 61.863 98.8848C61.8563 98.6425 61.9169 98.4031 62.0382 98.1932C62.6468 97.4463 63.3752 96.7824 64.1313 95.9894C64.5094 95.6022 64.8967 95.1964 65.3024 94.7907C65.5145 94.5786 65.6804 94.3758 65.9386 94.1545C66.0696 94.0585 66.22 93.9922 66.3793 93.9604C66.5386 93.9285 66.7028 93.9318 66.8607 93.9701C67.1706 94.0833 67.4445 94.2775 67.6537 94.5325L68.3268 95.1964L69.7192 96.5611L71.1669 97.9811C71.3033 98.1001 71.4269 98.233 71.5357 98.3776C71.6392 98.5446 71.6995 98.7348 71.7109 98.9309C71.7109 99.2813 71.7109 99.6317 71.7109 99.9821C71.7109 101.393 71.7109 102.748 71.7109 104.085V104.214H71.5818H68.29H68.1701V104.095C68.1701 103.173 68.1701 102.25 68.1701 101.328C68.1748 101.137 68.1103 100.95 67.9882 100.803C67.8662 100.656 67.695 100.557 67.5062 100.526C67.1281 100.526 66.6855 100.526 66.3167 100.526C66.1453 100.541 65.9834 100.611 65.8554 100.726C65.7273 100.84 65.64 100.994 65.6067 101.162C65.6067 101.494 65.6067 101.882 65.6067 102.223V104.187H65.5329H62.8773H62.1857C62.0589 104.172 61.9364 104.131 61.8261 104.067Z" fill="#2C0BF1"/>
<path d="M63.0893 132.034C63.0893 132.322 63.0039 132.604 62.8438 132.843C62.6837 133.083 62.4562 133.27 62.19 133.38C61.9238 133.49 61.6308 133.519 61.3482 133.463C61.0656 133.406 60.806 133.268 60.6022 133.064C60.3985 132.86 60.2597 132.601 60.2035 132.318C60.1473 132.035 60.1762 131.742 60.2864 131.476C60.3967 131.21 60.5834 130.983 60.823 130.822C61.0626 130.662 61.3443 130.577 61.6324 130.577C62.0188 130.577 62.3894 130.73 62.6626 131.004C62.9358 131.277 63.0893 131.647 63.0893 132.034Z" fill="#2C0BF1"/>
<path d="M89.6362 143.91C89.5901 143.91 89.5901 143.578 89.4334 142.988C89.2044 142.215 88.7283 141.538 88.0779 141.061C87.6032 140.718 87.0515 140.496 86.471 140.416C85.8906 140.335 85.2993 140.399 84.7492 140.6C84.0814 140.847 83.5053 141.293 83.0984 141.877C82.6916 142.462 82.4735 143.157 82.4735 143.869C82.4735 144.581 82.6916 145.276 83.0984 145.86C83.5053 146.445 84.0814 146.891 84.7492 147.138C85.2989 147.342 85.8907 147.406 86.4715 147.326C87.0524 147.246 87.6043 147.023 88.0779 146.677C88.7283 146.2 89.2044 145.523 89.4334 144.75C89.5901 144.196 89.5901 143.827 89.6362 143.827C89.719 144.129 89.719 144.448 89.6362 144.75C89.4579 145.601 88.9843 146.362 88.2992 146.898C87.7878 147.306 87.1802 147.577 86.5344 147.683C85.8887 147.79 85.2264 147.729 84.6109 147.507C83.847 147.238 83.1854 146.739 82.7173 146.078C82.2493 145.418 81.9979 144.628 81.9979 143.818C81.9979 143.009 82.2493 142.219 82.7173 141.558C83.1854 140.897 83.847 140.398 84.6109 140.13C85.2272 139.913 85.8884 139.855 86.5331 139.961C87.1779 140.067 87.7853 140.335 88.2992 140.738C88.9843 141.275 89.4579 142.036 89.6362 142.887C89.7359 143.221 89.7359 143.577 89.6362 143.91Z" fill="#2C0BF1"/>
<path d="M283.634 378.665L175.307 378.6C169.051 378.598 163.052 376.111 158.628 371.686C154.205 367.261 151.72 361.26 151.72 355.004L151.776 83.412C151.777 80.3125 152.389 77.2436 153.576 74.3807C154.764 71.5177 156.504 68.9167 158.697 66.7264C160.89 64.536 163.493 62.7991 166.357 61.6149C169.221 60.4308 172.291 59.8225 175.39 59.825L283.717 59.8895C289.974 59.8919 295.973 62.3791 300.396 66.8039C304.82 71.2288 307.304 77.2292 307.304 83.4857L307.249 355.078C307.248 358.177 306.636 361.246 305.448 364.109C304.261 366.972 302.521 369.573 300.328 371.763C298.135 373.954 295.532 375.69 292.668 376.875C289.803 378.059 286.734 378.667 283.634 378.665Z" fill="#263238"/>
<path d="M283.607 69.4885H262.602C261.219 69.5199 259.905 70.0989 258.949 71.0982C257.993 72.0975 257.473 73.4355 257.502 74.8182V78.6264C257.52 79.3117 257.401 79.9936 257.154 80.6329C256.906 81.2722 256.535 81.8563 256.061 82.3516C255.587 82.8469 255.02 83.2437 254.392 83.519C253.765 83.7944 253.089 83.9429 252.403 83.9561H211.463C210.08 83.9246 208.766 83.3456 207.81 82.3463C206.854 81.347 206.334 80.0091 206.363 78.6264V74.7813C206.393 73.3961 205.872 72.0558 204.914 71.0548C203.956 70.0538 202.64 69.4738 201.255 69.4424H175.492C173.321 69.4412 171.171 69.8676 169.164 70.6974C167.158 71.5271 165.335 72.7439 163.799 74.2783C162.263 75.8127 161.044 77.6346 160.212 79.64C159.38 81.6454 158.951 83.7951 158.95 85.9662L158.904 351.048C158.902 353.218 159.329 355.367 160.158 357.372C160.987 359.377 162.203 361.2 163.737 362.735C165.27 364.27 167.091 365.488 169.095 366.32C171.1 367.151 173.248 367.58 175.418 367.581L283.533 367.636C285.703 367.639 287.853 367.214 289.859 366.385C291.864 365.556 293.687 364.34 295.222 362.806C296.758 361.272 297.976 359.451 298.807 357.446C299.638 355.441 300.066 353.292 300.066 351.122L300.121 86.0308C300.121 81.6483 298.382 77.4449 295.286 74.3434C292.19 71.2419 287.989 69.4958 283.607 69.4885Z" fill="white"/>
<path d="M286.816 96.2566C286.816 96.3304 284.049 96.4134 280.721 96.4411C277.392 96.4687 274.616 96.4411 274.616 96.3581C274.616 96.2751 277.383 96.2105 280.711 96.1829C284.04 96.1552 286.816 96.1921 286.816 96.2566Z" fill="#263238"/>
<path d="M286.816 99.3825C286.816 99.4562 284.049 99.53 280.711 99.5577C277.373 99.5853 274.616 99.5576 274.616 99.4839C274.616 99.4101 277.383 99.3271 280.711 99.2995C284.04 99.2718 286.816 99.3087 286.816 99.3825Z" fill="#263238"/>
<path d="M286.816 102.499C286.816 102.573 284.049 102.656 280.711 102.684C277.373 102.711 274.607 102.684 274.607 102.601C274.607 102.518 277.373 102.453 280.711 102.426C284.049 102.398 286.816 102.435 286.816 102.499Z" fill="#263238"/>
<path d="M175.815 106.04H176.073H176.774L179.383 105.975L179.309 106.049C179.309 105.468 179.309 104.841 179.309 104.159C179.309 103.808 179.309 103.477 179.309 103.071C179.35 102.861 179.457 102.669 179.615 102.525C179.772 102.38 179.973 102.29 180.185 102.269C180.609 102.269 180.978 102.269 181.43 102.269C181.67 102.306 181.888 102.428 182.045 102.612C182.202 102.797 182.288 103.031 182.288 103.274C182.288 104.196 182.288 105.118 182.288 106.04L182.168 105.92H185.45L185.331 106.04C185.331 104.721 185.331 103.347 185.331 101.946C185.331 101.595 185.331 101.254 185.331 100.904C185.317 100.749 185.268 100.598 185.188 100.464C185.108 100.33 184.999 100.216 184.87 100.129L183.385 98.6632L182.002 97.2985L181.329 96.6346C181.152 96.4063 180.916 96.2309 180.646 96.1275C180.518 96.0914 180.382 96.086 180.251 96.1116C180.12 96.1372 179.996 96.1932 179.89 96.275C179.697 96.441 179.485 96.6807 179.282 96.8744L178.101 98.0639C177.364 98.8384 176.589 99.5392 176.027 100.203C175.861 100.589 175.804 101.013 175.861 101.429V102.591C175.861 103.301 175.861 103.919 175.861 104.435C175.861 104.952 175.861 105.302 175.861 105.625C175.874 105.769 175.874 105.914 175.861 106.058C175.861 106.058 175.861 105.929 175.861 105.662C175.861 105.394 175.861 104.961 175.861 104.491C175.861 104.021 175.861 103.32 175.861 102.647C175.861 102.269 175.861 101.881 175.861 101.466C175.861 101.254 175.861 101.042 175.861 100.821C175.862 100.578 175.925 100.34 176.045 100.129C176.654 99.3825 177.382 98.7278 178.129 97.9348L179.291 96.7361C179.503 96.524 179.678 96.3211 179.927 96.109C180.058 96.0131 180.208 95.9462 180.367 95.9128C180.526 95.8794 180.691 95.8803 180.849 95.9154C181.156 96.03 181.426 96.2242 181.633 96.4779L182.306 97.1418C182.767 97.5844 183.228 98.0639 183.699 98.5065L185.137 99.9173C185.274 100.036 185.397 100.169 185.506 100.314C185.613 100.479 185.674 100.67 185.681 100.867C185.681 101.217 185.681 101.568 185.681 101.918C185.681 103.32 185.681 104.684 185.681 106.012V106.141H185.561H182.269H182.149V106.04C182.149 105.118 182.149 104.196 182.149 103.274C182.158 103.081 182.095 102.893 181.972 102.744C181.85 102.596 181.676 102.499 181.485 102.471C181.107 102.471 180.665 102.471 180.296 102.471C180.126 102.489 179.965 102.56 179.838 102.674C179.71 102.789 179.622 102.94 179.586 103.108C179.586 103.44 179.586 103.827 179.586 104.159V106.123H179.512H176.866H176.174L175.815 106.04Z" fill="#263238"/>
<path d="M277.309 122.564H179.752C174.868 122.564 170.909 126.523 170.909 131.407V134.68C170.909 139.564 174.868 143.523 179.752 143.523H277.309C282.193 143.523 286.152 139.564 286.152 134.68V131.407C286.152 126.523 282.193 122.564 277.309 122.564Z" fill="#F5F5F5"/>
<path d="M277.318 143.532L277.982 143.477C278.625 143.413 279.261 143.289 279.881 143.108C280.879 142.782 281.814 142.289 282.648 141.651C283.786 140.772 284.689 139.626 285.276 138.313C285.628 137.538 285.861 136.714 285.967 135.87C286.052 134.932 286.08 133.989 286.05 133.048C286.078 132.034 286.025 131.02 285.894 130.014C285.597 128.26 284.772 126.639 283.527 125.368C282.283 124.097 280.679 123.238 278.932 122.905C277.605 122.74 276.266 122.688 274.93 122.748H270.67L179.733 122.813C177.57 122.81 175.485 123.621 173.893 125.086C172.301 126.55 171.318 128.559 171.14 130.715C171.066 131.766 171.14 132.864 171.14 133.933C171.083 134.983 171.192 136.034 171.462 137.05C172.027 139.052 173.293 140.784 175.031 141.928C175.872 142.493 176.81 142.899 177.797 143.126C178.796 143.321 179.814 143.396 180.831 143.348H198.747L239.632 143.394L267.194 143.468H274.69H276.636C277.078 143.468 277.3 143.468 277.3 143.468H276.636H274.69H267.194L239.632 143.532L198.747 143.578H180.849C179.802 143.625 178.753 143.547 177.723 143.348C176.678 143.115 175.684 142.693 174.791 142.103C172.97 140.897 171.642 139.078 171.047 136.976C170.766 135.925 170.648 134.836 170.697 133.749C170.697 132.67 170.697 131.61 170.697 130.494C170.891 128.232 171.925 126.125 173.597 124.589C175.268 123.052 177.454 122.198 179.724 122.195L270.661 122.26H274.921C276.275 122.203 277.632 122.259 278.978 122.426C280.209 122.668 281.377 123.166 282.404 123.887C283.432 124.608 284.297 125.536 284.944 126.612C285.529 127.583 285.923 128.656 286.106 129.775C286.231 130.805 286.271 131.845 286.225 132.882C286.253 133.833 286.219 134.785 286.124 135.731C285.8 138.06 284.567 140.165 282.694 141.587C281.326 142.643 279.671 143.26 277.945 143.357L277.318 143.532Z" fill="#263238"/>
<path d="M279.098 132.55C279.098 132.55 279.098 132.209 278.895 131.628C278.669 130.826 278.178 130.124 277.503 129.636C276.966 129.238 276.33 128.997 275.664 128.939C274.999 128.882 274.33 129.011 273.733 129.311C273.137 129.611 272.635 130.071 272.285 130.64C271.934 131.209 271.749 131.864 271.749 132.532C271.749 133.199 271.934 133.854 272.285 134.423C272.635 134.992 273.137 135.452 273.733 135.752C274.33 136.052 274.999 136.181 275.664 136.124C276.33 136.066 276.966 135.825 277.503 135.427C278.178 134.939 278.669 134.237 278.895 133.435C279.061 132.873 279.061 132.513 279.098 132.513C279.135 132.513 279.098 132.596 279.098 132.753C279.107 132.991 279.085 133.23 279.033 133.463C278.847 134.331 278.361 135.105 277.659 135.648C277.139 136.061 276.522 136.334 275.867 136.442C275.212 136.55 274.541 136.489 273.916 136.266C273.141 135.99 272.47 135.482 271.996 134.81C271.522 134.138 271.268 133.335 271.268 132.513C271.268 131.691 271.522 130.888 271.996 130.217C272.47 129.545 273.141 129.036 273.916 128.76C274.54 128.538 275.211 128.478 275.866 128.584C276.52 128.69 277.137 128.96 277.659 129.369C278.36 129.917 278.846 130.693 279.033 131.563C279.085 131.793 279.107 132.029 279.098 132.264C279.116 132.455 279.116 132.55 279.098 132.55Z" fill="#263238"/>
<path d="M281.191 139.097C279.853 138.072 278.702 136.824 277.788 135.408C278.495 135.866 279.118 136.439 279.633 137.105C280.259 137.678 280.786 138.351 281.191 139.097Z" fill="#263238"/>
<path d="M186.474 130.936H184.464V130.402H189.194V130.936H187.138V136.248H186.52L186.474 130.936Z" fill="#E0E0E0"/>
<path d="M193.371 134.256H189.683C189.695 134.47 189.749 134.679 189.842 134.873C189.935 135.066 190.066 135.238 190.226 135.381C190.386 135.523 190.573 135.632 190.776 135.702C190.979 135.771 191.193 135.8 191.407 135.786C191.66 135.795 191.912 135.747 192.145 135.646C192.378 135.546 192.585 135.395 192.753 135.206L193.085 135.593C192.77 135.926 192.363 136.159 191.916 136.261C191.469 136.364 191.002 136.332 190.573 136.169C190.144 136.007 189.773 135.72 189.506 135.347C189.239 134.974 189.089 134.53 189.074 134.071C189.074 133.504 189.3 132.96 189.701 132.559C190.102 132.158 190.646 131.932 191.214 131.932C191.781 131.932 192.325 132.158 192.726 132.559C193.127 132.96 193.353 133.504 193.353 134.071C193.353 134.071 193.371 134.182 193.371 134.256ZM189.683 133.813H192.8C192.8 133.4 192.635 133.004 192.343 132.711C192.051 132.419 191.654 132.255 191.241 132.255C190.828 132.255 190.432 132.419 190.139 132.711C189.847 133.004 189.683 133.4 189.683 133.813Z" fill="#E0E0E0"/>
<path d="M197.272 136.266L195.87 134.422L194.468 136.266H193.805L195.538 134.007L193.888 131.858H194.551L195.87 133.583L197.198 131.858H197.843L196.193 133.998L197.945 136.257L197.272 136.266Z" fill="#E0E0E0"/>
<path d="M201.246 135.999C200.986 136.211 200.659 136.322 200.324 136.312C200.151 136.331 199.976 136.311 199.812 136.253C199.648 136.196 199.498 136.102 199.375 135.979C199.252 135.856 199.159 135.707 199.101 135.542C199.043 135.378 199.023 135.203 199.042 135.03V132.375H198.295V131.858H199.079V130.936H199.669V131.858H201.006V132.366H199.669V134.984C199.653 135.09 199.661 135.198 199.694 135.3C199.726 135.402 199.781 135.496 199.855 135.573C199.929 135.651 200.019 135.71 200.12 135.747C200.22 135.784 200.328 135.798 200.434 135.786C200.669 135.793 200.898 135.714 201.08 135.565L201.246 135.999Z" fill="#E0E0E0"/>
<path d="M201.006 160.775H175.778V186.003H201.006V160.775Z" fill="#2C0BF1"/>
<path d="M249.526 163.495C249.526 163.615 241.089 163.707 230.688 163.707C220.287 163.707 211.85 163.615 211.85 163.495C211.85 163.375 220.287 163.283 230.688 163.283C241.089 163.283 249.526 163.375 249.526 163.495Z" fill="#2C0BF1"/>
<path d="M279.568 171.223C279.568 171.342 264.409 171.444 245.709 171.444C227.009 171.444 211.85 171.342 211.85 171.223C211.85 171.103 227.009 171.01 245.709 171.01C264.409 171.01 279.568 171.112 279.568 171.223Z" fill="#263238"/>
<path d="M278.775 176.746C278.775 176.866 263.791 176.967 245.312 176.967C226.834 176.967 211.85 176.866 211.85 176.746C211.85 176.626 226.825 176.534 245.312 176.534C263.8 176.534 278.775 176.626 278.775 176.746Z" fill="#263238"/>
<path d="M251.361 182.02C251.361 182.131 242.518 182.232 231.61 182.232C220.702 182.232 211.85 182.131 211.85 182.02C211.85 181.909 220.693 181.799 231.61 181.799C242.528 181.799 251.361 181.9 251.361 182.02Z" fill="#263238"/>
<path d="M201.006 202.804H175.778V228.032H201.006V202.804Z" fill="#2C0BF1"/>
<path d="M249.526 205.524C249.526 205.635 241.089 205.736 230.688 205.736C220.287 205.736 211.85 205.635 211.85 205.524C211.85 205.413 220.287 205.303 230.688 205.303C241.089 205.303 249.526 205.404 249.526 205.524Z" fill="#2C0BF1"/>
<path d="M279.568 213.251C279.568 213.371 264.409 213.463 245.709 213.463C227.009 213.463 211.85 213.371 211.85 213.251C211.85 213.131 227.009 213.039 245.709 213.039C264.409 213.039 279.568 213.131 279.568 213.251Z" fill="#263238"/>
<path d="M278.775 218.774C278.775 218.894 263.791 218.986 245.312 218.986C226.834 218.986 211.85 218.894 211.85 218.774C211.85 218.655 226.825 218.535 245.322 218.535C263.819 218.535 278.775 218.655 278.775 218.774Z" fill="#263238"/>
<path d="M251.361 224.067C251.361 224.187 242.518 224.289 231.61 224.289C220.702 224.289 211.85 224.187 211.85 224.067C211.85 223.947 220.693 223.855 231.61 223.855C242.528 223.855 251.361 223.92 251.361 224.067Z" fill="#263238"/>
<path d="M201.006 244.833H175.778V270.061H201.006V244.833Z" fill="#2C0BF1"/>
<path d="M249.526 247.544C249.526 247.663 241.089 247.765 230.688 247.765C220.287 247.765 211.85 247.663 211.85 247.544C211.85 247.424 220.287 247.332 230.688 247.332C241.089 247.332 249.526 247.424 249.526 247.544Z" fill="#2C0BF1"/>
<path d="M279.568 255.28C279.568 255.4 264.409 255.492 245.709 255.492C227.009 255.492 211.85 255.4 211.85 255.28C211.85 255.16 227.009 255.068 245.709 255.068C264.409 255.068 279.568 255.16 279.568 255.28Z" fill="#263238"/>
<path d="M278.775 260.803C278.775 260.923 263.791 261.015 245.312 261.015C226.834 261.015 211.85 260.923 211.85 260.803C211.85 260.684 226.825 260.591 245.312 260.591C263.8 260.591 278.775 260.684 278.775 260.803Z" fill="#263238"/>
<path d="M251.361 266.069C251.361 266.188 242.518 266.281 231.61 266.281C220.702 266.281 211.85 266.188 211.85 266.069C211.85 265.949 220.693 265.856 231.61 265.856C242.528 265.856 251.361 265.949 251.361 266.069Z" fill="#263238"/>
<path d="M201.006 286.862H175.778V312.09H201.006V286.862Z" fill="#2C0BF1"/>
<path d="M249.526 289.536C249.526 289.655 241.089 289.748 230.688 289.748C220.287 289.748 211.85 289.655 211.85 289.536C211.85 289.416 220.287 289.323 230.688 289.323C241.089 289.323 249.526 289.453 249.526 289.536Z" fill="#455A64"/>
<path d="M279.568 297.309C279.568 297.419 264.409 297.521 245.709 297.521C227.009 297.521 211.85 297.419 211.85 297.309C211.85 297.198 227.009 297.087 245.709 297.087C264.409 297.087 279.568 297.189 279.568 297.309Z" fill="#263238"/>
<path d="M278.775 302.832C278.775 302.943 263.791 303.044 245.312 303.044C226.834 303.044 211.85 302.943 211.85 302.832C211.85 302.722 226.825 302.611 245.312 302.611C263.8 302.611 278.775 302.712 278.775 302.832Z" fill="#263238"/>
<path d="M251.361 308.097C251.361 308.217 242.518 308.309 231.61 308.309C220.702 308.309 211.85 308.217 211.85 308.097C211.85 307.977 220.693 307.885 231.61 307.885C242.528 307.885 251.361 307.977 251.361 308.097Z" fill="#263238"/>
<path d="M201.006 328.89H175.778V354.119H201.006V328.89Z" fill="#E0E0E0"/>
<path d="M249.526 331.601C249.526 331.721 241.089 331.813 230.688 331.813C220.287 331.813 211.85 331.721 211.85 331.601C211.85 331.481 220.287 331.389 230.688 331.389C241.089 331.389 249.526 331.481 249.526 331.601Z" fill="#E0E0E0"/>
<path d="M279.568 339.328C279.568 339.448 264.409 339.55 245.709 339.55C227.009 339.55 211.85 339.448 211.85 339.328C211.85 339.208 227.009 339.116 245.709 339.116C264.409 339.116 279.568 339.218 279.568 339.328Z" fill="#EBEBEB"/>
<path d="M278.775 344.861C278.775 344.981 263.791 345.082 245.312 345.082C226.834 345.082 211.85 344.981 211.85 344.861C211.85 344.741 226.825 344.649 245.312 344.649C263.8 344.649 278.775 344.732 278.775 344.861Z" fill="#EBEBEB"/>
<path d="M251.361 350.126C251.361 350.237 242.518 350.338 231.61 350.338C220.702 350.338 211.85 350.237 211.85 350.126C211.85 350.015 220.693 349.905 231.61 349.905C242.528 349.905 251.361 350.006 251.361 350.126Z" fill="#EBEBEB"/>
<g opacity="0.3">
<path opacity="0.3" d="M201.006 286.862H175.778V312.09H201.006V286.862Z" fill="black"/>
</g>
<g opacity="0.3">
<path opacity="0.3" d="M201.006 202.804H175.778V228.032H201.006V202.804Z" fill="black"/>
</g>
<path d="M233.943 0.221191H96.8839V55.8876H233.943V0.221191Z" fill="white"/>
<path d="M233.934 55.8878C233.934 55.8878 233.934 55.5466 233.934 54.8919C233.934 54.2372 233.934 53.269 233.934 52.0058C233.934 49.4608 233.934 45.7356 233.934 40.9407C233.934 31.3326 233.888 17.4367 233.851 0.239741L233.998 0.387275L96.8654 0.433383L97.0775 0.221303C97.0775 19.7142 97.0775 38.5341 97.0775 55.8878L96.8746 55.6757L195.142 55.7771L223.643 55.8324H231.278H233.251H231.297H223.708L195.252 55.8878L96.8654 56.0998H96.6533V55.8878C96.6533 38.5341 96.6533 19.7142 96.6533 0.221303V0H96.8654L233.906 0.0645459H234.063V0.221303C234.063 17.4551 233.998 31.3879 233.98 41.0145C233.98 45.8093 233.98 49.5346 233.98 52.0795C233.98 53.3336 233.98 54.2926 233.98 54.938C233.98 55.5835 233.934 55.8878 233.934 55.8878Z" fill="#2C0BF1"/>
<path d="M97.0129 7.72716C97.0129 7.60729 127.654 7.50586 165.432 7.50586C203.21 7.50586 233.86 7.60729 233.86 7.72716C233.86 7.84703 203.228 7.93924 165.432 7.93924C127.635 7.93924 97.0129 7.84703 97.0129 7.72716Z" fill="#2C0BF1"/>
<g opacity="0.3">
<path opacity="0.3" d="M101.762 5.36647C102.312 5.36647 102.758 4.92061 102.758 4.37061C102.758 3.82062 102.312 3.37476 101.762 3.37476C101.212 3.37476 100.766 3.82062 100.766 4.37061C100.766 4.92061 101.212 5.36647 101.762 5.36647Z" fill="#2C0BF1"/>
</g>
<g opacity="0.3">
<path opacity="0.3" d="M106.16 4.37066C106.16 4.56762 106.102 4.76015 105.992 4.92392C105.883 5.08769 105.727 5.21533 105.545 5.2907C105.363 5.36608 105.163 5.3858 104.97 5.34737C104.777 5.30895 104.599 5.2141 104.46 5.07483C104.321 4.93556 104.226 4.75811 104.187 4.56494C104.149 4.37176 104.169 4.17153 104.244 3.98956C104.319 3.80759 104.447 3.65206 104.611 3.54263C104.775 3.43321 104.967 3.3748 105.164 3.3748C105.295 3.37357 105.425 3.39849 105.547 3.4481C105.668 3.49771 105.778 3.57101 105.871 3.66373C105.964 3.75645 106.037 3.86673 106.087 3.9881C106.136 4.10948 106.161 4.23954 106.16 4.37066Z" fill="#2C0BF1"/>
</g>
<g opacity="0.3">
<path opacity="0.3" d="M109.526 4.37061C109.526 4.56757 109.467 4.76011 109.358 4.92388C109.248 5.08765 109.093 5.21529 108.911 5.29066C108.729 5.36603 108.529 5.38576 108.336 5.34733C108.142 5.30891 107.965 5.21406 107.826 5.07479C107.686 4.93551 107.592 4.75807 107.553 4.56489C107.515 4.37172 107.534 4.17148 107.61 3.98951C107.685 3.80755 107.813 3.65202 107.977 3.54259C108.14 3.43316 108.333 3.37476 108.53 3.37476C108.794 3.37476 109.047 3.47968 109.234 3.66644C109.421 3.8532 109.526 4.1065 109.526 4.37061Z" fill="#2C0BF1"/>
</g>
<path d="M141.633 16.7727H108.53V49.8757H141.633V16.7727Z" fill="#2C0BF1"/>
<path d="M141.633 16.7727H108.53V49.8757H141.633V16.7727Z" fill="#2C0BF1"/>
<path d="M224.455 25.6432C224.455 25.7631 207.424 25.8645 186.409 25.8645C165.395 25.8645 148.364 25.7631 148.364 25.6432C148.364 25.5234 165.395 25.4312 186.409 25.4312C207.424 25.4312 224.455 25.5234 224.455 25.6432Z" fill="#2C0BF1"/>
<path d="M224.455 32.3929C224.455 32.5128 207.424 32.605 186.409 32.605C165.395 32.605 148.364 32.5128 148.364 32.3929C148.364 32.2731 165.395 32.1716 186.409 32.1716C207.424 32.1716 224.455 32.2731 224.455 32.3929Z" fill="#2C0BF1"/>
<path d="M197.373 39.1334C197.208 39.1535 197.04 39.1535 196.875 39.1334H195.446L190.199 39.2072L172.882 39.2625L155.566 39.2072L150.31 39.1334H148.89C148.724 39.1535 148.557 39.1535 148.392 39.1334C148.557 39.1134 148.724 39.1134 148.89 39.1334H150.31L155.566 39.0597L172.882 38.9951L190.199 39.0597L195.446 39.1334H196.875C197.04 39.1134 197.208 39.1134 197.373 39.1334Z" fill="#2C0BF1"/>
</svg>
