<svg width="1440" height="746" viewBox="0 0 1440 746" fill="none" xmlns="http://www.w3.org/2000/svg">
<path opacity="0.15" d="M1410.25 201.966L1379.36 75.2057C1380.66 74.4997 1381.76 73.49 1382.59 72.263C1383.41 71.036 1383.92 69.6282 1384.08 68.1603C1384.24 66.6925 1384.04 65.2082 1383.49 63.8346C1382.95 62.4611 1382.08 61.2391 1380.97 60.2736C1379.85 59.308 1378.51 58.6276 1377.07 58.2905C1375.64 57.9534 1374.14 57.9698 1372.7 58.3382C1371.27 58.7065 1369.95 59.416 1368.86 60.4057C1367.76 61.3954 1366.92 62.6359 1366.41 64.0209L1196.16 44.5595C1196 43.2044 1195.54 41.9017 1194.82 40.7472C1194.09 39.5927 1193.11 38.6157 1191.96 37.8883C1190.8 37.1609 1189.5 36.7016 1188.14 36.5441C1186.79 36.3866 1185.41 36.535 1184.12 36.9783C1182.83 37.4216 1181.65 38.1486 1180.68 39.1057C1179.71 40.0628 1178.96 41.2257 1178.5 42.5087C1178.04 43.7918 1177.87 45.1623 1178 46.5195C1178.14 47.8766 1178.58 49.1858 1179.29 50.3507L1064.09 139.456C1063 138.44 1061.67 137.708 1060.23 137.325C1058.78 136.941 1057.27 136.918 1055.81 137.257C1054.36 137.596 1053.01 138.286 1051.88 139.268C1050.76 140.249 1049.89 141.492 1049.36 142.886L841.182 101.303C841.207 100.952 841.207 100.599 841.182 100.247C841.067 98.911 840.659 97.6166 839.987 96.4559C839.314 95.2951 838.395 94.2965 837.292 93.5308C836.19 92.7652 834.933 92.2513 833.61 92.0257C832.287 91.8002 830.93 91.8684 829.636 92.2256C828.342 92.5829 827.143 93.2203 826.123 94.0927C825.104 94.9651 824.289 96.0511 823.737 97.2734C823.185 98.4958 822.909 99.8245 822.929 101.165C822.949 102.506 823.264 103.826 823.852 105.032L709.312 178.64C708.288 177.466 706.979 176.574 705.512 176.05C704.044 175.525 702.466 175.385 700.929 175.643C699.391 175.901 697.946 176.549 696.731 177.524C695.515 178.499 694.57 179.769 693.986 181.212L524.608 140.115C524.614 140.061 524.614 140.007 524.608 139.953C524.425 137.683 523.399 135.563 521.731 134.011C520.062 132.459 517.873 131.586 515.594 131.564C513.314 131.542 511.109 132.373 509.411 133.893C507.713 135.413 506.647 137.513 506.42 139.779L403.002 146.825C402.76 144.984 401.962 143.26 400.713 141.884C399.464 140.508 397.825 139.546 396.014 139.126C394.203 138.705 392.307 138.848 390.579 139.533C388.851 140.218 387.374 141.414 386.344 142.96L153.284 12.7824C153.894 11.3834 154.143 9.85401 154.009 8.3339C153.876 6.8138 153.363 5.35142 152.517 4.08031C151.672 2.80919 150.522 1.76985 149.171 1.05721C147.82 0.344578 146.312 -0.0186226 144.785 0.000735177C143.257 0.020093 141.759 0.421395 140.427 1.16803C139.095 1.91467 137.971 2.98286 137.158 4.27498C136.346 5.56711 135.87 7.04202 135.775 8.56502C135.68 10.088 135.968 11.6106 136.613 12.9936L57.6782 70.2347C56.7357 69.3336 55.6103 68.6453 54.3783 68.2165C53.1463 67.7877 51.8364 67.6283 50.5374 67.7492C48.1272 67.9609 45.8992 69.1184 44.3416 70.9679C42.7839 72.8174 42.0236 75.2082 42.2271 77.6166C42.3813 79.4204 43.0694 81.1376 44.2037 82.5496C45.338 83.9615 46.8672 85.0044 48.5967 85.5454L25.1339 193.267H24.9348C23.7334 193.37 22.5642 193.709 21.4946 194.266C20.4251 194.822 19.4762 195.584 18.7026 196.508C17.9291 197.432 17.3461 198.5 16.9874 199.65C16.6286 200.8 16.501 202.009 16.6121 203.209C16.7616 204.924 17.3934 206.562 18.4345 207.934C19.4756 209.306 20.8837 210.356 22.4965 210.964L-7 351.854L-3.72814 347.492L175.826 332.032C176.287 333.978 177.376 335.718 178.924 336.985C180.473 338.252 182.395 338.976 184.395 339.045C186.395 339.114 188.363 338.525 189.995 337.368C191.627 336.211 192.834 334.55 193.429 332.641L327.563 353.582C327.563 353.867 327.563 354.141 327.563 354.439C327.666 355.727 328.042 356.979 328.666 358.111C329.289 359.244 330.146 360.231 331.18 361.008C332.214 361.785 333.401 362.334 334.663 362.618C335.925 362.903 337.233 362.917 338.501 362.659C339.768 362.401 340.967 361.878 342.017 361.123C343.067 360.369 343.945 359.4 344.593 358.281C345.24 357.162 345.643 355.919 345.774 354.633C345.905 353.348 345.761 352.049 345.353 350.823L510.501 268.416C511.309 269.621 512.393 270.615 513.663 271.318C514.933 272.02 516.352 272.41 517.803 272.455C519.254 272.5 520.695 272.199 522.006 271.576C523.317 270.954 524.461 270.028 525.342 268.876L669.354 351.867C668.848 353.148 668.638 354.527 668.742 355.901C668.845 357.274 669.258 358.607 669.949 359.798C670.641 360.99 671.593 362.01 672.735 362.782C673.877 363.554 675.179 364.058 676.543 364.256C677.908 364.455 679.3 364.342 680.615 363.927C681.929 363.512 683.133 362.806 684.136 361.86C685.139 360.915 685.914 359.755 686.405 358.468C686.896 357.18 687.089 355.799 686.969 354.427C686.969 354.265 686.969 354.091 686.895 353.93L895.895 292.016C896.492 293.301 897.381 294.429 898.49 295.311C899.6 296.193 900.901 296.804 902.288 297.096C903.676 297.388 905.113 297.353 906.484 296.993C907.856 296.633 909.125 295.959 910.189 295.023L1008.79 378.548C1008.2 379.612 1007.83 380.783 1007.7 381.992C1007.57 383.202 1007.68 384.425 1008.03 385.591C1008.38 386.756 1008.96 387.84 1009.73 388.778C1010.51 389.717 1011.46 390.491 1012.54 391.056C1013.62 391.62 1014.8 391.964 1016.01 392.065C1017.23 392.167 1018.45 392.026 1019.61 391.649C1020.76 391.272 1021.83 390.667 1022.75 389.871C1023.68 389.075 1024.43 388.103 1024.97 387.012L1138.54 417.794C1138.48 418.41 1138.48 419.03 1138.54 419.646C1138.74 422.06 1139.9 424.293 1141.76 425.854C1143.61 427.414 1146.01 428.174 1148.43 427.966C1150.85 427.759 1153.08 426.601 1154.65 424.747C1156.21 422.893 1156.97 420.495 1156.76 418.08C1156.76 417.757 1156.69 417.434 1156.62 417.123L1356.28 346.697C1356.95 347.962 1357.91 349.051 1359.08 349.879C1360.24 350.706 1361.59 351.248 1363.01 351.46C1364.42 351.673 1365.87 351.55 1367.23 351.102C1368.59 350.654 1369.83 349.892 1370.84 348.88C1371.85 347.867 1372.61 346.631 1373.05 345.272C1373.5 343.913 1373.62 342.467 1373.4 341.053C1373.19 339.639 1372.64 338.295 1371.81 337.129C1370.98 335.964 1369.89 335.01 1368.62 334.344L1408.83 219.874C1409.79 220.105 1410.79 220.181 1411.78 220.098C1414.16 219.857 1416.35 218.694 1417.88 216.86C1419.41 215.025 1420.16 212.664 1419.97 210.283C1419.78 207.902 1418.66 205.69 1416.86 204.121C1415.06 202.553 1412.71 201.752 1410.32 201.892L1410.25 201.966ZM1370.18 75.0317L1333.09 150.69L1195.71 48.7848C1195.89 48.2799 1196.03 47.7602 1196.12 47.2314L1212.11 49.1079L1365.9 66.7301C1365.86 67.1437 1365.86 67.5593 1365.9 67.9729C1366.01 69.3993 1366.45 70.7802 1367.19 72.0026C1367.94 73.2251 1368.96 74.2545 1370.18 75.0068V75.0317ZM1066.99 363.35L1266.87 277.774C1267.12 278.174 1267.4 278.552 1267.71 278.905L1152.49 411.22C1150.68 410.058 1148.51 409.576 1146.37 409.86C1144.24 410.145 1142.27 411.177 1140.82 412.774L1066.99 363.35ZM1194.43 51.1958L1331.9 153.101L1277.41 264.24C1276.27 263.869 1275.06 263.734 1273.86 263.843C1273.47 263.879 1273.09 263.941 1272.71 264.029L1192.76 52.8859C1193.39 52.4012 1193.95 51.8325 1194.43 51.1958ZM1283.79 272.181C1283.74 271.575 1283.62 270.976 1283.45 270.392L1401.22 215.922L1303.41 293.544L1282.65 277.451C1283.55 275.849 1283.95 274.013 1283.79 272.181ZM1301.21 295.259L1158.14 408.785L1269.71 280.657C1271.43 281.754 1273.47 282.242 1275.5 282.044C1277.53 281.846 1279.43 280.972 1280.9 279.563L1301.21 295.259ZM1064.34 361.498L1040.07 345.23C1040.76 343.767 1041.06 342.147 1040.93 340.533C1040.93 340.396 1040.93 340.284 1040.93 340.16L1255.18 279.849L1064.34 361.498ZM1061.39 362.741L1024.32 378.598C1023.47 377.238 1022.29 376.12 1020.89 375.355L1030 350.251C1030.86 350.42 1031.73 350.47 1032.6 350.4C1034.89 350.202 1037.02 349.145 1038.56 347.442L1061.39 362.741ZM1010.52 376.535L911.919 293.01V292.911L1022.9 339.066C1022.64 340.051 1022.56 341.072 1022.64 342.086C1022.77 343.594 1023.27 345.046 1024.1 346.31C1024.94 347.575 1026.07 348.613 1027.4 349.331L1018.3 374.447C1017.44 374.268 1016.57 374.214 1015.7 374.286C1013.78 374.473 1011.96 375.265 1010.52 376.548V376.535ZM896.729 282.882L764.76 215.139L828.978 109.63C830.214 110.065 831.528 110.235 832.834 110.127C833.432 110.078 834.024 109.97 834.601 109.804L899.69 280.259C898.521 280.91 897.511 281.81 896.729 282.894V282.882ZM949.651 244.22L909.841 281.055C908.008 279.584 905.677 278.876 903.335 279.079C902.941 279.115 902.551 279.177 902.165 279.265L837.052 108.673L837.213 108.561L949.651 244.22ZM951.368 246.295L1025.03 335.214C1024.65 335.645 1024.3 336.111 1024.01 336.606L913.063 290.438C913.32 289.457 913.409 288.44 913.325 287.43C913.184 285.862 912.645 284.356 911.757 283.056L951.368 246.295ZM953.346 244.468L1051.99 153.139C1052.94 153.938 1054.06 154.531 1055.26 154.878L1050.98 187.053L1031.67 332.194H1031.04C1029.64 332.301 1028.3 332.727 1027.09 333.437L953.346 244.468ZM1065.04 151.722L1114.97 180.964L1034.84 332.703L1034.33 332.542L1053.74 186.693L1057.92 155.276C1058.15 155.289 1058.38 155.289 1058.6 155.276C1059.86 155.169 1061.08 154.801 1062.19 154.196C1063.3 153.59 1064.27 152.76 1065.04 151.759V151.722ZM1117.29 182.331L1266.15 269.522C1265.62 270.85 1265.4 272.284 1265.52 273.71C1265.52 273.834 1265.52 273.959 1265.52 274.083L1040.14 337.575C1039.5 336.136 1038.49 334.889 1037.22 333.959L1117.29 182.331ZM1118.53 179.945L1184.8 54.576C1185.81 54.8388 1186.86 54.927 1187.9 54.837C1188.75 54.7656 1189.59 54.5688 1190.39 54.2529L1270.18 264.998C1269.15 265.566 1268.25 266.331 1267.52 267.248L1118.53 179.945ZM1334.09 154.742L1403.28 206.042C1402.15 207.746 1401.63 209.784 1401.81 211.821C1401.81 212.082 1401.88 212.343 1401.91 212.604L1282.29 267.956C1281.63 266.974 1280.78 266.13 1279.8 265.471L1334.09 154.742ZM1366.01 333.486C1365.19 333.333 1364.35 333.292 1363.52 333.362C1361.44 333.528 1359.49 334.406 1357.99 335.848L1305.57 295.21L1404.07 217.041C1404.7 217.765 1405.45 218.386 1406.28 218.88L1366.01 333.486ZM1155.65 414.638C1155.65 414.538 1155.54 414.452 1155.48 414.352L1303.4 296.962L1356.32 337.973C1355.42 339.576 1355.03 341.412 1355.19 343.242C1355.21 343.563 1355.26 343.883 1355.32 344.199L1155.65 414.638ZM1025.62 384.476C1025.69 383.861 1025.69 383.24 1025.62 382.625C1025.59 382.103 1025.49 381.587 1025.35 381.084L1064.03 364.543L1139.29 414.998C1139.29 415.085 1139.21 415.172 1139.17 415.247L1025.62 384.476ZM686.173 351.407C685.591 350.178 684.741 349.095 683.685 348.238L763.304 217.438L895.51 285.23C895.096 286.427 894.939 287.697 895.049 288.959C895.049 289.133 895.049 289.294 895.124 289.456L686.173 351.407ZM163.311 109.543C161.222 110.298 159.479 111.786 158.409 113.731L95.7213 90.6903L140.756 17.2687C141.951 17.8838 143.269 18.2236 144.613 18.2629L163.311 109.543ZM341.546 345.964C341.189 345.735 340.815 345.536 340.426 345.367L393.05 157.103C395.258 157.333 397.473 156.739 399.27 155.438L458.176 209.746L341.546 345.964ZM332.502 345.591L269.453 258.35L388.484 155.338C389.094 155.792 389.759 156.168 390.462 156.457L337.839 344.634C337.202 344.571 336.56 344.571 335.923 344.634C334.731 344.729 333.569 345.054 332.502 345.591ZM267.811 256.113L172.853 124.655C173.983 123.548 174.809 122.17 175.254 120.653L384.839 148.901C385.002 150.538 385.603 152.1 386.581 153.424L267.811 256.113ZM265.833 257.89L190.655 322.998C189.155 321.703 187.272 320.934 185.293 320.81L168.573 126.941C169.299 126.771 170 126.512 170.663 126.171L265.833 257.89ZM76.2644 240.728L162.104 126.146C163.254 126.772 164.529 127.137 165.836 127.215L182.556 321.084C181.038 321.446 179.637 322.19 178.488 323.246L76.2644 240.728ZM74.1619 239.037L33.8547 206.527C34.6456 204.996 34.9864 203.273 34.8375 201.556C34.757 200.623 34.5303 199.709 34.1657 198.847L159.367 123.909L159.939 124.543L74.1619 239.037ZM72.5571 241.187L-1.88695 340.545L25.1339 211.473C25.5936 211.504 26.055 211.504 26.5147 211.473C28.7055 211.28 30.7519 210.299 32.2747 208.714L72.5571 241.187ZM31.5905 195.367L94.328 93.0143L157.488 116.216C157.309 117.082 157.255 117.97 157.327 118.851C157.409 119.773 157.627 120.677 157.974 121.535L32.4613 196.212C32.1897 195.912 31.8988 195.63 31.5905 195.367ZM403.002 149.522L506.569 142.463C506.807 143.689 507.294 144.853 508 145.884C508.706 146.914 509.616 147.789 510.675 148.453L459.955 207.695L401.236 153.573C402.151 152.39 402.759 150.998 403.002 149.522ZM586.039 232.786L525.89 258.412C525.198 257.334 524.286 256.414 523.214 255.711C522.143 255.009 520.935 254.54 519.669 254.336L520.154 207.322L520.776 148.217C521.448 147.763 522.055 147.22 522.58 146.602L586.039 232.786ZM461.933 209.485L513.25 149.535C514.256 149.797 515.299 149.886 516.335 149.796C516.908 149.75 517.475 149.646 518.027 149.485L517.418 207.099L516.92 254.323C515.331 254.541 513.829 255.176 512.566 256.162L461.933 209.485ZM628.773 168.114L693.463 183.797C693.413 184.335 693.413 184.875 693.463 185.413C693.516 185.924 693.608 186.431 693.737 186.929L588.639 231.668L524.086 144.079C524.264 143.648 524.405 143.203 524.509 142.749L628.773 168.114ZM673.67 347.157L590.219 233.917L694.72 189.402C695.896 191.311 697.733 192.721 699.883 193.366L677.85 346.125C677.602 346.125 677.353 346.125 677.104 346.125C675.879 346.244 674.69 346.608 673.608 347.194L673.67 347.157ZM709.934 189.949L761.028 216.171L681.446 346.846L680.513 346.51L683.362 326.713L702.495 193.739C702.74 193.752 702.984 193.752 703.229 193.739C704.542 193.63 705.816 193.238 706.963 192.59C708.109 191.942 709.102 191.054 709.872 189.986L709.934 189.949ZM526.686 266.589C527.162 265.32 527.353 263.963 527.245 262.612C527.195 262.035 527.087 261.465 526.922 260.91L587.619 235.048L671.456 348.797C671.196 349.048 670.955 349.318 670.734 349.605L526.686 266.589ZM344.183 348.474C344.002 348.215 343.807 347.966 343.599 347.728L460.129 211.573L510.65 258.151C509.413 259.905 508.836 262.04 509.02 264.178C509.082 264.814 509.202 265.442 509.381 266.055L344.183 348.474ZM193.84 329.969C193.858 329.684 193.858 329.397 193.84 329.112C193.701 327.648 193.215 326.238 192.421 324.998L267.4 260.114L330.312 347.107C329.226 348.166 328.418 349.476 327.961 350.922L193.84 329.969ZM-1.5635 344.609L74.6471 242.877L176.833 325.297C176.098 326.532 175.671 327.926 175.589 329.36L-1.5635 344.609ZM51.2465 85.9679H52.1049C53.7762 85.8274 55.3762 85.2285 56.7284 84.2373C58.0807 83.2461 59.1326 81.9012 59.7682 80.3507L91.7528 92.1071L29.3014 194.013C28.8255 193.816 28.3346 193.658 27.8334 193.54L51.2465 85.9679ZM138.106 15.2306C138.255 15.4046 138.405 15.5537 138.566 15.7153L93.2332 89.7334L60.4152 77.6912C60.465 77.1455 60.465 76.5964 60.4152 76.0508C60.3035 74.7733 59.9264 73.5331 59.3079 72.4095L138.106 15.2306ZM385.187 145.396C385.1 145.67 385.038 145.931 384.976 146.216L284.369 132.658L175.565 117.981C175.577 117.762 175.577 117.542 175.565 117.322C175.358 114.963 174.243 112.776 172.453 111.223C170.664 109.669 168.34 108.871 165.973 108.996L147.312 17.9522C149.092 17.4697 150.684 16.4602 151.878 15.0566L385.187 145.396ZM825.383 107.256C825.758 107.663 826.175 108.03 826.627 108.35L762.371 213.909L711.116 187.6C711.525 186.402 711.677 185.132 711.564 183.872C711.48 182.845 711.219 181.84 710.793 180.902L825.383 107.256ZM1048.66 145.508C1048.63 145.984 1048.63 146.462 1048.66 146.937C1048.79 148.456 1049.3 149.918 1050.15 151.187L951.629 242.43L839.191 106.734C839.857 105.903 840.371 104.96 840.709 103.95L1048.66 145.508ZM1180.87 52.4509C1181.31 52.849 1181.78 53.2067 1182.28 53.5197L1116.23 178.627L1066.36 149.41C1066.85 148.125 1067.05 146.744 1066.94 145.371C1066.82 144.018 1066.39 142.71 1065.7 141.544L1180.87 52.4509ZM1376.77 76.1875L1407.57 202.538C1406.67 202.9 1405.83 203.408 1405.09 204.042L1335.29 152.256L1372.62 76.0383C1373.63 76.2992 1374.68 76.3916 1375.73 76.3118C1376.09 76.2908 1376.46 76.2493 1376.82 76.1875H1376.77Z" fill="#F1F5FF" fill-opacity="0.1"/>
<g opacity="0.7">
<path opacity="0.3" d="M2159.94 324.635L2105.39 123.587C2107.42 122.4 2109.14 120.739 2110.39 118.746C2111.64 116.752 2112.39 114.486 2112.57 112.139C2112.76 109.793 2112.37 107.437 2111.45 105.272C2110.53 103.107 2109.09 101.198 2107.27 99.7073C2105.45 98.2169 2103.3 97.1895 2100.99 96.7128C2098.69 96.2362 2096.3 96.3246 2094.04 96.9703C2091.78 97.616 2089.71 98.7999 2088 100.421C2086.29 102.042 2085.01 104.052 2084.25 106.279L1811.94 82.1902C1811.41 78.3652 1809.39 74.9048 1806.32 72.5677C1803.25 70.2306 1799.38 69.2077 1795.55 69.7233C1791.73 70.2389 1788.26 72.2508 1785.92 75.3179C1783.57 78.3851 1782.54 82.257 1783.04 86.0847C1783.29 88.2432 1784.01 90.319 1785.17 92.1568L1605.19 239.241C1603.4 237.669 1601.26 236.56 1598.94 236.011C1596.62 235.461 1594.21 235.489 1591.9 236.091C1589.6 236.692 1587.48 237.85 1585.72 239.462C1583.97 241.074 1582.64 243.092 1581.85 245.338L1248.22 187.592C1248.23 187.027 1248.2 186.462 1248.14 185.9C1247.65 182.102 1245.69 178.65 1242.68 176.286C1239.67 173.923 1235.85 172.838 1232.05 173.266C1228.24 173.694 1224.76 175.6 1222.35 178.573C1219.93 181.546 1218.79 185.348 1219.15 189.16C1219.36 190.955 1219.9 192.696 1220.73 194.299L1041.15 316.61C1039.47 314.778 1037.34 313.409 1034.98 312.632C1032.61 311.855 1030.09 311.697 1027.65 312.172C1025.21 312.648 1022.93 313.741 1021.03 315.348C1019.13 316.954 1017.67 319.021 1016.8 321.35L745.024 262.746C745.03 262.663 745.03 262.58 745.024 262.497C744.605 258.902 742.865 255.592 740.144 253.208C737.422 250.824 733.912 249.536 730.295 249.595C726.678 249.654 723.211 251.055 720.569 253.526C717.926 255.998 716.295 259.363 715.993 262.97L551.288 278.535C550.829 275.602 549.486 272.88 547.437 270.731C545.389 268.583 542.733 267.113 539.826 266.516C536.919 265.919 533.899 266.225 531.171 267.392C528.442 268.56 526.135 270.533 524.559 273.048L147.486 74.8615C148.41 72.5992 148.753 70.1409 148.482 67.7119C148.211 65.2828 147.335 62.9606 145.935 60.9579C144.534 58.9552 142.654 57.3361 140.465 56.2489C138.277 55.1617 135.851 54.6411 133.41 54.7349C130.968 54.8286 128.589 55.5338 126.491 56.7856C124.392 58.0374 122.642 59.796 121.399 61.9002C120.156 64.0044 119.46 66.387 119.376 68.8297C119.292 71.2724 119.822 73.6971 120.918 75.8818L-2.59247 170.657C-4.12862 169.247 -5.94994 168.184 -7.93289 167.54C-9.91586 166.896 -12.0141 166.686 -14.0853 166.925C-15.9924 167.14 -17.8385 167.729 -19.5177 168.658C-21.1968 169.588 -22.6762 170.84 -23.8709 172.343C-25.0656 173.845 -25.9522 175.569 -26.4799 177.415C-27.0076 179.261 -27.1661 181.193 -26.9463 183.1C-26.6301 185.983 -25.4627 188.706 -23.593 190.922C-21.7232 193.138 -19.236 194.747 -16.4485 195.543L-49.3597 368.496H-49.6706C-51.5783 368.711 -53.4248 369.3 -55.1046 370.229C-56.7844 371.159 -58.2645 372.411 -59.4602 373.913C-60.6559 375.416 -61.5437 377.139 -62.0729 378.985C-62.6021 380.831 -62.7622 382.763 -62.5441 384.671C-62.2347 387.404 -61.1583 389.994 -59.4392 392.141C-57.7201 394.288 -55.4287 395.904 -52.8299 396.803L-94 623.122L-89.0248 616.018L196.666 583.866C197.486 586.952 199.297 589.684 201.82 591.641C204.343 593.598 207.438 594.672 210.631 594.699C213.823 594.726 216.936 593.704 219.492 591.789C222.047 589.875 223.903 587.174 224.776 584.102L439.557 612.036C439.557 612.484 439.557 612.932 439.644 613.392C440.134 617.19 442.097 620.642 445.109 623.005C448.12 625.369 451.939 626.453 455.743 626.026C459.547 625.598 463.03 623.692 465.442 620.719C467.854 617.746 469.002 613.944 468.637 610.132C468.504 609.024 468.245 607.934 467.866 606.885L727.822 468.41C729.161 470.292 730.928 471.828 732.978 472.892C735.027 473.955 737.301 474.516 739.609 474.527C741.918 474.538 744.197 473.999 746.256 472.955C748.316 471.911 750.098 470.391 751.454 468.522L984.581 595.064C983.83 597.13 983.555 599.339 983.777 601.526C983.999 603.713 984.713 605.821 985.864 607.693C987.016 609.566 988.576 611.153 990.427 612.337C992.278 613.522 994.373 614.272 996.555 614.532C998.737 614.792 1000.95 614.555 1003.03 613.839C1005.1 613.123 1006.99 611.947 1008.55 610.398C1010.11 608.849 1011.3 606.967 1012.03 604.893C1012.76 602.82 1013.01 600.608 1012.77 598.424C1012.77 598.15 1012.68 597.901 1012.64 597.64L1343.28 490.061C1344.29 492.09 1345.75 493.856 1347.56 495.219C1349.37 496.583 1351.47 497.505 1353.7 497.913C1355.92 498.322 1358.22 498.205 1360.39 497.572C1362.56 496.938 1364.56 495.807 1366.22 494.266L1526.94 623.545C1525.34 626.25 1524.67 629.406 1525.03 632.529C1525.39 635.754 1526.81 638.768 1529.07 641.093C1531.34 643.418 1534.31 644.922 1537.52 645.366C1540.74 645.81 1544.01 645.169 1546.81 643.545C1549.62 641.921 1551.81 639.406 1553.03 636.399L1735.43 680.819C1735.33 681.808 1735.33 682.804 1735.43 683.793C1735.65 685.696 1736.23 687.539 1737.16 689.215C1738.09 690.892 1739.34 692.369 1740.83 693.564C1742.33 694.758 1744.05 695.645 1745.89 696.175C1747.73 696.705 1749.65 696.867 1751.56 696.652C1753.46 696.437 1755.3 695.85 1756.98 694.923C1758.65 693.996 1760.13 692.748 1761.32 691.25C1762.52 689.752 1763.41 688.033 1763.94 686.192C1764.47 684.351 1764.63 682.424 1764.41 680.52C1764.36 680.01 1764.28 679.503 1764.16 679.002L2079.79 558.184C2080.91 560.172 2082.49 561.869 2084.38 563.138C2086.28 564.408 2088.44 565.215 2090.71 565.494C2092.97 565.773 2095.27 565.516 2097.42 564.744C2099.56 563.973 2101.5 562.708 2103.07 561.051C2104.64 559.395 2105.8 557.393 2106.45 555.207C2107.11 553.021 2107.24 550.711 2106.84 548.464C2106.44 546.217 2105.52 544.096 2104.15 542.27C2102.78 540.444 2101 538.965 2098.96 537.952L2158.31 353.453C2160.37 353.902 2162.51 353.9 2164.57 353.445C2166.63 352.99 2168.56 352.093 2170.24 350.817C2171.92 349.541 2173.3 347.916 2174.29 346.054C2175.28 344.192 2175.86 342.136 2175.98 340.03C2176.1 337.924 2175.76 335.818 2174.98 333.855C2174.21 331.893 2173.02 330.122 2171.5 328.664C2169.97 327.207 2168.15 326.097 2166.16 325.412C2164.16 324.727 2162.04 324.484 2159.94 324.698V324.635ZM2090.75 123.574L2034.78 245.948L1811.43 88.9963C1811.69 88.1847 1811.89 87.3522 1812.01 86.5078L1837.6 88.7724L2083.51 110.535C2083.49 111.228 2083.52 111.922 2083.59 112.612C2083.84 114.873 2084.62 117.042 2085.87 118.946C2087.11 120.85 2088.78 122.435 2090.75 123.574ZM1619.25 596.57L1934.44 451.663C1934.85 452.294 1935.31 452.893 1935.81 453.454L1757.58 669.583C1754.65 667.797 1751.17 667.114 1747.77 667.657C1744.38 668.199 1741.29 669.932 1739.05 672.545L1619.25 596.57ZM1809.48 92.8287L2032.95 249.88L1950.7 429.639C1948.85 429.111 1946.92 428.95 1945.01 429.166C1944.39 429.233 1943.78 429.345 1943.17 429.502L1806.9 95.6781C1807.88 94.8463 1808.75 93.8881 1809.48 92.8287ZM1961.13 442.032C1961.02 441.065 1960.82 440.11 1960.52 439.182L2146.06 347.281L1993.32 475.328L1959.53 450.443C1960.89 447.875 1961.45 444.958 1961.13 442.069V442.032ZM1989.94 478.116L1766.55 665.365L1939.08 456.154C1941.87 457.85 1945.16 458.554 1948.4 458.152C1951.65 457.75 1954.66 456.266 1956.95 453.939L1989.94 478.116ZM1614.93 593.745L1575.55 568.773C1576.61 566.411 1577.02 563.805 1576.72 561.233C1576.72 561.034 1576.66 560.847 1576.63 560.648L1915.82 455.42L1614.93 593.745ZM1610.29 595.885L1551.83 622.749C1550.43 620.628 1548.5 618.912 1546.22 617.772L1559.72 577.321C1562.2 577.766 1564.76 577.553 1567.14 576.704C1569.51 575.855 1571.62 574.399 1573.26 572.481L1610.29 595.885ZM1529.74 620.024L1369.02 490.745C1369.05 490.684 1369.08 490.626 1369.12 490.571L1548.01 559.677C1547.3 562.838 1547.66 566.146 1549.05 569.077C1550.43 572.008 1552.75 574.393 1555.64 575.853L1542.16 616.341C1539.94 615.942 1537.66 616.065 1535.51 616.7C1533.35 617.335 1531.36 618.464 1529.72 619.999L1529.74 620.024ZM1344.42 475.204L1131.08 372.577L1229.1 201.391C1231.1 202.055 1233.23 202.272 1235.32 202.025C1236.28 201.924 1237.22 201.724 1238.13 201.428L1349.02 470.949C1347.17 472.034 1345.58 473.517 1344.38 475.291L1344.42 475.204ZM1427.17 411.361L1365.25 471.832C1362.27 469.556 1358.53 468.522 1354.8 468.945C1354.17 469.023 1353.55 469.139 1352.94 469.294L1241.94 199.537L1242.19 199.35L1427.17 411.361ZM1429.99 414.596L1551.14 553.481C1550.54 554.181 1550.01 554.935 1549.56 555.733L1370.66 486.664C1371.12 484.649 1371.14 482.559 1370.73 480.535C1370.31 478.51 1369.47 476.599 1368.25 474.93L1429.99 414.596ZM1433.06 411.597L1586.56 261.638C1588.13 262.865 1589.93 263.762 1591.86 264.276L1586.37 315.776L1561.62 548.367C1561.29 548.367 1560.95 548.367 1560.6 548.367C1558.39 548.623 1556.26 549.385 1554.38 550.594L1433.06 411.597ZM1607.32 258.814L1688.17 303.458L1566.7 549.051L1565.88 548.815L1590.75 315.079L1596.11 264.749C1596.47 264.743 1596.84 264.718 1597.19 264.674C1599.19 264.456 1601.13 263.825 1602.87 262.821C1604.61 261.816 1606.13 260.46 1607.32 258.839V258.814ZM1691.9 305.523L1932.99 438.61C1932.18 440.751 1931.89 443.054 1932.14 445.329C1932.14 445.528 1932.21 445.715 1932.24 445.914L1575.37 556.654C1574.27 554.391 1572.61 552.446 1570.55 551.005L1691.9 305.523ZM1693.8 301.679L1794.24 98.627C1797.21 99.3312 1800.33 99.0742 1803.14 97.8928L1939.2 431.157C1937.59 432.122 1936.18 433.39 1935.05 434.89L1693.8 301.679ZM2036.48 252.406L2148.96 331.454C2147.23 334.224 2146.49 337.502 2146.86 340.749C2146.86 341.172 2146.98 341.582 2147.06 341.993L1958.58 435.313C1957.51 433.761 1956.14 432.434 1954.55 431.406L2036.48 252.406ZM2094.84 536.546C2093.52 536.328 2092.17 536.29 2090.84 536.434C2087.54 536.803 2084.46 538.296 2082.13 540.665L1996.86 477.954L2150.66 349.011C2151.71 350.142 2152.93 351.1 2154.27 351.847L2094.84 536.546ZM1762.75 674.884C1762.66 674.722 1762.56 674.585 1762.46 674.423L1993.46 480.791L2079.63 544.136C2078.26 546.728 2077.71 549.673 2078.04 552.585C2078.09 553.1 2078.17 553.611 2078.29 554.115L1762.75 674.884ZM1554.12 632.118C1554.22 631.134 1554.22 630.142 1554.12 629.157C1554.03 628.314 1553.86 627.481 1553.62 626.668L1614.57 598.635L1736.71 676.091C1736.64 676.224 1736.58 676.361 1736.53 676.501L1554.12 632.118ZM1011.44 593.471C1010.48 591.536 1009.11 589.837 1007.42 588.494L1128.94 376.285L1342.51 479.136C1341.91 481.058 1341.72 483.083 1341.94 485.083C1341.94 485.357 1342.03 485.606 1342.08 485.88L1011.44 593.471ZM167.498 228.964C164.196 230.278 161.485 232.75 159.874 235.919L58.9885 201.665L127.697 82.551C129.64 83.4758 131.763 83.9601 133.916 83.9695L167.498 228.964ZM461.61 599.133C461.025 598.782 460.419 598.471 459.794 598.2L535.902 295.358C539.407 295.614 542.885 294.578 545.679 292.446L641.887 376.72L461.61 599.133ZM447.156 598.896L342.975 462.201L528.514 292.732C529.508 293.415 530.582 293.975 531.711 294.4L455.639 597.155C454.618 597.043 453.588 597.043 452.567 597.155C450.667 597.377 448.829 597.969 447.156 598.896ZM340.363 458.78L183.295 252.692C185.052 250.883 186.312 248.649 186.952 246.209L522.444 282.604C522.756 285.216 523.78 287.691 525.404 289.759L340.363 458.78ZM337.191 461.691L220.012 568.698C217.546 566.686 214.486 565.541 211.305 565.438L176.603 256.611C177.753 256.312 178.86 255.869 179.899 255.292L337.191 461.691ZM34.1496 442.094L166.267 255.529C168.148 256.483 170.216 257.01 172.324 257.072L207.064 565.936C204.655 566.567 202.451 567.815 200.671 569.557L34.1496 442.094ZM30.7416 439.481L-34.8444 389.238C-33.7023 386.762 -33.2716 384.018 -33.6006 381.312C-33.7676 379.829 -34.162 378.381 -34.7698 377.019L161.827 252.095C162.125 252.443 162.436 252.767 162.759 253.078L30.7416 439.481ZM28.254 442.99L-86.3133 604.745L-48.6134 397.487C-47.8804 397.536 -47.1449 397.536 -46.4119 397.487C-42.9162 397.078 -39.6888 395.411 -37.3321 392.796L28.254 442.99ZM-38.9117 371.519L56.8616 205.46L158.543 239.926C158.297 241.322 158.251 242.747 158.406 244.156C158.565 245.626 158.951 247.061 159.55 248.412L-37.5559 372.788C-38.0031 372.346 -38.4766 371.93 -38.9739 371.544L-38.9117 371.519ZM551.4 282.84L716.267 267.25C716.697 269.197 717.521 271.035 718.689 272.651C719.857 274.267 721.344 275.626 723.058 276.644L644.698 373.386L548.689 289.423C550.099 287.48 551.009 285.219 551.338 282.84H551.4ZM846.705 408.25L751.827 451.687C750.667 449.993 749.161 448.564 747.41 447.492C745.659 446.42 743.702 445.729 741.666 445.466L740.496 370.3L739.029 275.885C740.072 275.126 741.013 274.235 741.827 273.235L846.705 408.25ZM647.82 376.21L727.15 278.324C728.778 278.716 730.463 278.817 732.126 278.622C733.037 278.52 733.936 278.332 734.812 278.063L736.243 370.138L737.412 445.566C734.885 445.985 732.513 447.062 730.533 448.689L647.82 376.21ZM912.167 303.184L1015.9 325.581C1015.82 326.434 1015.82 327.292 1015.9 328.144C1015.99 328.967 1016.16 329.779 1016.4 330.571L850.748 406.384L744.153 269.203C744.405 268.504 744.613 267.789 744.775 267.063L912.167 303.184ZM991.223 587.25L853.422 409.893L1018.23 334.44C1020.18 337.447 1023.17 339.627 1026.63 340.562L997.94 585.396C997.542 585.396 997.156 585.396 996.696 585.471C994.771 585.692 992.91 586.297 991.223 587.25ZM1042.51 334.664L1125.07 374.481L1003.74 586.379C1003.24 586.191 1002.74 586.029 1002.23 585.894L1005.96 554.153L1030.89 341.06C1031.29 341.06 1031.67 341.06 1032.07 341.06C1034.17 340.817 1036.19 340.121 1037.99 339.018C1039.79 337.916 1041.33 336.434 1042.51 334.677V334.664ZM753.556 464.628C754.265 462.579 754.507 460.399 754.265 458.245C754.165 457.328 753.973 456.423 753.693 455.545L849.404 411.734L987.84 589.888C987.449 590.305 987.083 590.745 986.746 591.207L753.556 464.628ZM465.913 602.978C465.614 602.568 465.29 602.178 464.943 601.808L645.109 379.545L727.611 451.812C725.714 454.671 724.886 458.108 725.272 461.517C725.383 462.534 725.604 463.535 725.931 464.503L465.913 602.978ZM225.385 579.76C225.385 579.312 225.385 578.851 225.298 578.403C225.04 576.067 224.216 573.829 222.898 571.883L339.816 465.113L443.761 601.497C442.073 603.242 440.846 605.38 440.191 607.718L225.385 579.76ZM-85.6416 611.24L31.662 445.591L198.059 572.966C196.945 574.973 196.322 577.216 196.243 579.511L-85.6416 611.24ZM-12.1822 195.978C-11.7345 195.978 -11.2743 195.978 -10.8265 195.891C-8.15577 195.605 -5.61619 194.586 -3.48895 192.945C-1.36172 191.305 0.270172 189.108 1.22602 186.597L52.7322 204.016L-42.6929 369.379C-43.4559 369.079 -44.2421 368.842 -45.0437 368.67L-12.1822 195.978ZM123.393 79.403C123.625 79.6685 123.874 79.9173 124.139 80.1496L54.8591 200.259L2.08425 182.416C2.1649 181.547 2.1649 180.672 2.08425 179.803C1.855 177.762 1.19352 175.794 0.143913 174.029L123.393 79.403ZM522.842 276.98C522.718 277.409 522.618 277.846 522.544 278.286L361.545 260.805L187.412 241.904C187.406 241.555 187.381 241.206 187.337 240.859C186.907 237.091 185.026 233.639 182.093 231.237C179.159 228.834 175.405 227.671 171.628 227.993L138.045 83.3598C140.858 82.5147 143.35 80.8409 145.197 78.5569L522.842 276.98ZM1223.26 197.745C1223.88 198.373 1224.55 198.944 1225.27 199.45L1127.21 370.711L1044.37 330.819C1045.47 327.291 1045.18 323.479 1043.56 320.156L1223.26 197.745ZM1581.03 249.606C1580.96 250.364 1580.96 251.125 1581.03 251.883C1581.28 254.296 1582.14 256.606 1583.51 258.602L1430.24 408.387L1245.26 196.339C1246.29 194.987 1247.07 193.462 1247.57 191.835L1581.03 249.606ZM1787.98 95.4665C1788.69 96.0856 1789.46 96.6395 1790.27 97.1214L1690.08 299.626L1609.32 255.044C1610.06 252.989 1610.32 250.792 1610.09 248.621C1609.85 246.449 1609.12 244.361 1607.95 242.514L1787.98 95.4665ZM2101.42 125.229L2155.83 325.73C2154.36 326.332 2153 327.173 2151.81 328.219L2038.36 248.499L2094.74 125.18C2096.37 125.566 2098.05 125.672 2099.72 125.491C2100.28 125.408 2100.84 125.304 2101.39 125.18L2101.42 125.229Z" fill="#F1F5FF" fill-opacity="0.1"/>
<path d="M1320.43 124.052C1320.04 122.764 1319.35 121.589 1318.41 120.622C1317.47 119.655 1316.32 118.924 1315.05 118.49C1313.77 118.057 1312.42 117.932 1311.09 118.127C1309.75 118.321 1308.49 118.83 1307.39 119.61L1233.28 34.6997C1234.13 33.6854 1234.74 32.4856 1235.04 31.1965C1235.35 29.9074 1235.35 28.5647 1235.04 27.276C1234.73 25.9872 1234.13 24.7881 1233.28 23.7748C1232.42 22.7614 1231.35 21.962 1230.13 21.4404C1228.91 20.9187 1227.59 20.6895 1226.27 20.7709C1224.95 20.8524 1223.67 21.2423 1222.52 21.9094C1221.38 22.5766 1220.41 23.5024 1219.69 24.6128C1218.96 25.7232 1218.51 26.9874 1218.37 28.3041L1022.13 36.4168C1022.08 36.1184 1022 35.8234 1021.92 35.5334C1021.66 34.3943 1021.17 33.3209 1020.48 32.3803C1019.78 31.4398 1018.9 30.6524 1017.89 30.0674C1016.88 29.4825 1015.76 29.1125 1014.61 28.9808C1013.45 28.8491 1012.27 28.9585 1011.16 29.302C1010.04 29.6455 1009.01 30.2158 1008.12 30.9772C1007.24 31.7386 1006.52 32.6747 1006.01 33.7269C1005.51 34.7791 1005.22 35.9247 1005.18 37.0919C1005.13 38.2592 1005.33 39.423 1005.76 40.5105C1005.92 41.0642 1006.14 41.5983 1006.42 42.1032L919.192 107.802C917.849 106.479 916.104 105.642 914.233 105.422C912.362 105.203 910.471 105.613 908.859 106.589C907.247 107.565 906.005 109.051 905.331 110.811C904.656 112.572 904.587 114.508 905.133 116.313C905.659 118.069 906.746 119.603 908.228 120.68L852.13 226.768C850.895 226.325 849.573 226.176 848.271 226.333C846.968 226.491 845.72 226.95 844.625 227.675C843.531 228.399 842.62 229.37 841.966 230.508C841.312 231.647 840.931 232.922 840.856 234.234L639.558 252.898C639.558 252.749 639.496 252.599 639.446 252.45C639.12 251.384 638.587 250.393 637.878 249.533C637.168 248.673 636.297 247.961 635.313 247.438C634.329 246.915 633.252 246.592 632.143 246.485C631.034 246.379 629.915 246.493 628.85 246.82C627.784 247.147 626.794 247.68 625.935 248.39C625.076 249.1 624.365 249.972 623.843 250.957C623.32 251.942 622.997 253.021 622.891 254.131C622.785 255.241 622.898 256.361 623.225 257.427C623.602 258.685 624.271 259.836 625.176 260.787L529.786 382.068C528.63 381.375 527.325 380.968 525.98 380.882C524.635 380.796 523.289 381.034 522.055 381.574C520.82 382.115 519.732 382.943 518.882 383.99C518.033 385.037 517.445 386.272 517.169 387.592L346.512 373.457C346.479 372.811 346.367 372.172 346.177 371.553C345.517 369.399 344.03 367.594 342.041 366.537C340.053 365.48 337.726 365.257 335.574 365.917C333.421 366.577 331.618 368.066 330.562 370.056C329.506 372.047 329.283 374.376 329.943 376.531C330.03 376.78 330.117 377.028 330.216 377.277L221.948 441.657C220.769 440.236 219.159 439.239 217.363 438.816C215.567 438.394 213.682 438.57 211.995 439.318C210.308 440.065 208.91 441.343 208.014 442.957C207.119 444.572 206.773 446.435 207.031 448.264L47.0523 496.816L42.7266 494.178L116.812 605.617C115.39 606.915 114.452 608.659 114.152 610.562C113.852 612.465 114.208 614.414 115.161 616.088C116.114 617.761 117.608 619.06 119.397 619.772C121.185 620.483 123.163 620.563 125.003 620.001H125.177L182.531 704.861C181.537 705.67 180.739 706.693 180.197 707.855C179.655 709.016 179.382 710.286 179.401 711.568C179.419 712.85 179.727 714.111 180.302 715.256C180.877 716.402 181.704 717.402 182.721 718.182C183.737 718.962 184.917 719.501 186.172 719.759C187.426 720.017 188.723 719.987 189.964 719.672C191.206 719.356 192.36 718.763 193.339 717.937C194.319 717.111 195.099 716.073 195.62 714.902L283.366 737.1C283.295 738.511 283.578 739.916 284.187 741.19C284.797 742.463 285.715 743.563 286.858 744.391C288.001 745.219 289.332 745.748 290.731 745.929C292.13 746.111 293.552 745.94 294.868 745.432C296.184 744.923 297.352 744.094 298.267 743.019C299.181 741.943 299.812 740.657 300.103 739.275C300.394 737.893 300.336 736.461 299.933 735.108C299.531 733.754 298.797 732.523 297.798 731.526L453.501 538.736C454.92 539.72 456.606 540.245 458.333 540.242C460.059 540.239 461.743 539.708 463.16 538.72C464.576 537.731 465.656 536.333 466.256 534.712C466.856 533.092 466.946 531.326 466.515 529.653L558.003 500.064C558.992 501.921 560.636 503.345 562.616 504.057C564.595 504.769 566.768 504.72 568.713 503.918C570.657 503.116 572.235 501.619 573.139 499.718C574.042 497.817 574.208 495.647 573.603 493.631C573.608 493.585 573.608 493.539 573.603 493.494L705.278 399.587C706.28 400.632 707.533 401.402 708.917 401.824C710.302 402.246 711.771 402.305 713.184 401.997C714.598 401.689 715.909 401.023 716.993 400.063C718.077 399.103 718.896 397.881 719.374 396.514L843.392 420.516C843.313 421.565 843.427 422.619 843.727 423.627C844.409 425.755 845.9 427.528 847.879 428.564C849.857 429.599 852.163 429.812 854.298 429.158C856.432 428.503 858.224 427.034 859.284 425.067C860.343 423.1 860.587 420.795 859.961 418.65C859.862 418.339 859.737 418.028 859.613 417.729L1024.48 310.048C1025.42 311.068 1026.59 311.841 1027.9 312.3C1029.2 312.759 1030.6 312.89 1031.97 312.681C1033.34 312.473 1034.63 311.93 1035.74 311.102C1036.86 310.274 1037.75 309.186 1038.34 307.933L1168.3 345.075C1168.1 346.323 1168.19 347.6 1168.56 348.808C1169.22 350.911 1170.67 352.675 1172.6 353.727C1174.54 354.778 1176.81 355.034 1178.93 354.441C1181.05 353.847 1182.86 352.451 1183.97 350.547C1185.08 348.644 1185.4 346.382 1184.88 344.241L1324.73 268.651C1325.65 269.669 1326.8 270.45 1328.09 270.926C1329.37 271.402 1330.75 271.559 1332.11 271.384C1333.47 271.208 1334.77 270.706 1335.89 269.92C1337.01 269.133 1337.93 268.086 1338.56 266.868C1339.19 265.65 1339.51 264.298 1339.51 262.926C1339.5 261.555 1339.16 260.205 1338.52 258.993C1337.88 257.781 1336.95 256.743 1335.82 255.968C1334.69 255.192 1333.39 254.703 1332.03 254.541L1314.93 134.566C1317.03 133.882 1318.79 132.399 1319.82 130.434C1320.85 128.468 1321.07 126.177 1320.43 124.052ZM1322.92 265.478C1323.04 265.861 1323.18 266.235 1323.35 266.598L1197.01 334.859L1183.87 341.964C1183.61 341.524 1183.31 341.108 1182.98 340.72L1266.14 205.429L1324.19 257.925C1323.39 258.99 1322.85 260.23 1322.62 261.543C1322.39 262.856 1322.48 264.204 1322.87 265.478H1322.92ZM1010.13 45.637C1011.93 46.5101 1013.98 46.7192 1015.91 46.2274C1017.85 45.7356 1019.55 44.5745 1020.71 42.9493L1165.57 117.383C1165.44 117.789 1165.33 118.205 1165.25 118.627L963.63 113.787L1010.13 45.637ZM1179.01 338.231L1175.01 128.469C1175.36 128.408 1175.72 128.329 1176.07 128.233C1177.13 127.9 1178.13 127.359 1178.99 126.64L1264.25 203.786L1181.04 339.14C1180.4 338.75 1179.72 338.444 1179.01 338.231ZM1178.92 113.488L1191.24 92.4347L1302.25 125.682L1182.09 119.299C1182.04 118.738 1181.93 118.184 1181.77 117.644C1181.26 116.003 1180.27 114.554 1178.92 113.488ZM1176.76 112.244C1175 111.533 1173.05 111.437 1171.23 111.969C1169.41 112.502 1167.82 113.633 1166.72 115.18L1026.45 43.0862L1188.79 91.7006L1176.76 112.244ZM1154.39 120.954L949.112 142.816L949.037 142.48C948.59 141.05 947.775 139.763 946.675 138.747L961.952 116.35L1154.39 120.954ZM944.674 137.266C942.74 136.317 940.517 136.143 938.459 136.781C937.685 137.017 936.949 137.36 936.271 137.801L919.813 119.286C920.761 118.138 921.391 116.761 921.641 115.292L959.044 116.201L944.674 137.266ZM915.711 121.974C916.485 121.733 917.221 121.386 917.899 120.941L934.407 139.469C933.506 140.549 932.888 141.837 932.608 143.217C932.328 144.596 932.395 146.023 932.803 147.37C933.083 148.26 933.503 149.1 934.046 149.859L854.43 228L854.33 227.925L910.429 121.85C912.132 122.452 913.982 122.495 915.711 121.974ZM848.202 243.168L850.962 412.715C850.408 412.761 849.862 412.87 849.333 413.038C848.169 413.386 847.096 413.985 846.188 414.793L754.49 345.909L844.759 241.911C845.802 242.575 846.977 243.004 848.202 243.168ZM853.634 412.827C853.576 412.819 853.518 412.819 853.46 412.827L850.688 243.118C851.938 242.916 853.126 242.434 854.163 241.708C855.201 240.982 856.061 240.03 856.68 238.925L903.654 256.992L853.634 412.827ZM857.587 236.548C857.85 235.376 857.86 234.161 857.615 232.985C857.371 231.809 856.878 230.699 856.17 229.729L935.811 151.613C936.235 151.937 936.689 152.22 937.166 152.459L904.412 254.565L857.587 236.548ZM939.54 153.181C940.823 153.401 942.138 153.316 943.381 152.932C943.572 152.879 943.759 152.812 943.941 152.733L1010.64 271.301L1025.47 297.655C1024.56 298.37 1023.81 299.263 1023.26 300.281L906.811 255.486L939.54 153.181ZM1028.18 296.112C1027.97 296.174 1027.78 296.262 1027.58 296.336L1013.14 270.667L946.116 151.513L946.501 151.202L1067.83 254.478L1034.92 297.008C1033.91 296.417 1032.79 296.04 1031.63 295.901C1030.48 295.762 1029.3 295.863 1028.18 296.199V296.112ZM948.117 149.286C948.877 148.038 949.305 146.616 949.36 145.155L1165.38 122.136C1165.38 122.248 1165.38 122.36 1165.46 122.472C1165.85 123.744 1166.53 124.907 1167.45 125.869L1069.36 252.562L948.117 149.286ZM1169.45 127.399C1170.4 127.937 1171.44 128.284 1172.52 128.42L1176.51 337.796C1175.71 337.794 1174.92 337.915 1174.15 338.157C1173.23 338.423 1172.37 338.844 1171.59 339.401L1071.27 254.18L1169.45 127.399ZM1180.64 124.712C1181.24 123.794 1181.66 122.773 1181.88 121.7L1303.99 128.171C1303.99 128.407 1304.09 128.643 1304.16 128.892C1304.71 130.709 1305.86 132.287 1307.42 133.372L1265.54 201.509L1180.64 124.712ZM1305.58 121.252C1305.04 121.963 1304.63 122.752 1304.33 123.592L1192.56 90.1203L1223.64 36.9768C1225.43 37.7012 1227.42 37.789 1229.27 37.2256C1230.01 36.9925 1230.72 36.662 1231.38 36.2426L1305.58 121.252ZM1218.5 30.83C1218.56 31.1284 1218.63 31.4234 1218.71 31.7134C1219.21 33.3454 1220.18 34.7899 1221.51 35.8569L1190.09 89.5231L1022.28 39.2538C1022.28 39.1418 1022.28 39.0423 1022.28 38.9427L1218.5 30.83ZM1007.88 44.0568L1008.07 44.2309L960.66 113.737L921.653 112.804C921.596 112.323 921.496 111.848 921.355 111.385C921.195 110.832 920.974 110.297 920.696 109.793L1007.88 44.0568ZM841.079 236.772L841.191 237.22C841.534 238.345 842.105 239.388 842.869 240.281L752.476 344.391L638.788 258.995C639.384 257.89 639.728 256.666 639.795 255.412L841.079 236.772ZM288.351 729.734C287.206 730.228 286.187 730.972 285.367 731.912L221.314 684.081L267.306 642.572C268.897 643.887 270.913 644.573 272.974 644.501L288.351 729.734ZM492.308 456.377L460.312 523.568C458.839 523.195 457.291 523.234 455.837 523.68C455.351 523.829 454.881 524.025 454.433 524.265L344.151 379.928C344.423 379.638 344.677 379.33 344.909 379.007L492.308 456.377ZM340.558 382.13C341.132 381.957 341.687 381.723 342.211 381.433L452.432 525.671C451.925 526.16 451.482 526.712 451.114 527.314L313.137 479.483L337.326 382.429C338.413 382.538 339.51 382.437 340.558 382.13ZM450.144 529.615C449.755 531.095 449.776 532.652 450.207 534.12L279.401 630.826C278.499 629.668 277.313 628.763 275.958 628.2L312.441 481.922L450.144 529.615ZM273.633 627.591C272.952 627.51 272.263 627.51 271.582 627.591L219.101 454.635C220.772 453.851 222.139 452.539 222.992 450.902L310.166 481.113L273.633 627.591ZM212.364 454.896C213.717 455.417 215.182 455.576 216.615 455.356L269.096 628.375C267.986 628.901 267.003 629.661 266.212 630.602L152.76 561.345L212.364 454.896ZM264.907 632.742C264.808 632.978 264.721 633.227 264.634 633.476L130.957 611.975C130.961 610.745 130.698 609.528 130.188 608.409C129.677 607.29 128.93 606.295 127.999 605.492L151.492 563.522L264.907 632.742ZM125.948 604.123C124.082 603.285 121.977 603.148 120.019 603.738C119.595 603.869 119.179 604.026 118.776 604.211L50.9803 502.179L149.367 562.241L125.948 604.123ZM130.398 614.849L264.236 636.002C264.231 636.846 264.356 637.685 264.609 638.491C264.839 639.283 265.192 640.034 265.653 640.718L219.275 682.551L129.95 615.894C130.125 615.562 130.274 615.216 130.398 614.862V614.849ZM462.624 524.464L494.521 457.497L558.624 491.092C557.946 492.032 557.467 493.101 557.217 494.233C556.967 495.365 556.951 496.536 557.17 497.675L465.546 527.301C464.818 526.131 463.815 525.157 462.624 524.464ZM569.464 488.604C568.802 488.249 568.095 487.986 567.363 487.82L546.43 437.04L529.786 396.651C530.814 396.038 531.701 395.215 532.389 394.235C533.077 393.255 533.549 392.14 533.776 390.964L594.424 392.321L569.464 488.604ZM523.086 397.509C524.52 397.919 526.036 397.949 527.486 397.596L544.193 438.16L564.591 487.658C564.06 487.718 563.536 487.826 563.025 487.982C562.107 488.248 561.241 488.669 560.464 489.226L495.59 455.195L523.086 397.509ZM572.434 491.217C572.188 490.863 571.914 490.53 571.614 490.221L596.984 392.37L702.928 394.747C702.988 395.222 703.083 395.692 703.214 396.153C703.364 396.629 703.555 397.092 703.786 397.534L653.543 433.37L572.434 491.217ZM633.791 263.089L634.449 262.852L706.011 387.057C704.386 388.358 703.29 390.207 702.928 392.258L597.581 389.907L630.434 263.4C631.563 263.525 632.704 263.419 633.791 263.089ZM708.87 385.577C708.65 385.642 708.434 385.721 708.224 385.813L645.885 277.709L636.6 261.608C636.849 261.409 637.072 261.21 637.296 260.998L750.835 346.294L715.955 386.547C714.916 385.879 713.744 385.446 712.52 385.279C711.296 385.111 710.05 385.213 708.87 385.577ZM627.128 262.33C627.41 262.487 627.708 262.637 628.023 262.778L595.07 389.845L533.888 388.476C533.829 387.94 533.721 387.411 533.565 386.896C533.203 385.688 532.574 384.578 531.725 383.648L627.128 262.33ZM517.069 390.081C517.18 391.365 517.58 392.607 518.242 393.713C518.903 394.819 519.807 395.76 520.886 396.464L493.439 454.087L346.065 376.804C346.164 376.518 346.239 376.232 346.314 375.946L517.069 390.081ZM331.484 379.368C332.371 380.461 333.516 381.316 334.815 381.856L310.725 478.674L223.713 448.538C223.971 447.197 223.898 445.813 223.501 444.506C223.425 444.252 223.334 444.003 223.228 443.76L331.484 379.368ZM207.715 450.603C208.289 451.81 209.141 452.863 210.201 453.677L150.635 560.051L49.9486 498.558L207.715 450.603ZM127.365 618.806C127.754 618.534 128.12 618.231 128.459 617.898L217.386 684.268L193.905 705.421C192.821 704.304 191.451 703.507 189.945 703.116C188.439 702.726 186.855 702.757 185.365 703.206C185.104 703.293 184.855 703.38 184.619 703.48L127.365 618.806ZM196.242 712.426C196.389 711.245 196.287 710.045 195.943 708.905C195.794 708.42 195.603 707.95 195.372 707.499L219.424 685.799L284.062 734.015C283.988 734.201 283.901 734.4 283.838 734.587L196.242 712.426ZM295.685 729.996C294.16 729.188 292.425 728.867 290.712 729.075L275.361 644.078C277.445 643.368 279.172 641.877 280.178 639.918C281.185 637.959 281.392 635.685 280.756 633.576C280.756 633.377 280.619 633.19 280.544 633.003L369.185 582.809L451.189 536.397C451.338 536.621 451.487 536.832 451.648 537.031L295.685 729.996ZM719.771 394.038C719.821 393.083 719.703 392.127 719.423 391.213C719.086 390.086 718.514 389.043 717.745 388.152L752.811 347.775L844.548 416.684C844.287 417.121 844.062 417.579 843.876 418.053L719.771 394.038ZM858.221 415.626C857.579 414.871 856.809 414.235 855.946 413.747L905.954 257.863L1022.31 302.595C1022.03 303.978 1022.09 305.411 1022.5 306.763C1022.64 307.19 1022.8 307.606 1023 308.008L858.221 415.626ZM1039.02 305.594C1039.21 304.346 1039.12 303.07 1038.76 301.861C1038.39 300.636 1037.74 299.512 1036.87 298.576L1069.74 256.158L1169.81 341.317C1169.49 341.759 1169.21 342.23 1168.97 342.723L1039.02 305.594ZM1328.51 254.889C1327.58 255.172 1326.71 255.614 1325.94 256.195L1267.45 203.313L1309.72 134.591C1310.59 134.879 1311.51 135.017 1312.43 135.002L1329.49 254.665C1329.16 254.715 1328.83 254.79 1328.51 254.889Z" fill="#F1F5FF" fill-opacity="0.1"/>
</g>
</svg>
