<svg width="501" height="373" viewBox="0 0 501 373" fill="none" xmlns="http://www.w3.org/2000/svg">
<g clip-path="url(#clip0)">
<path d="M500.5 327.45H0.5V327.7H500.5V327.45Z" fill="#EBEBEB"/>
<path d="M450.4 343.54H417.28V343.79H450.4V343.54Z" fill="#EBEBEB"/>
<path d="M331.72 346.26H323.03V346.51H331.72V346.26Z" fill="#EBEBEB"/>
<path d="M416.28 334.26H397.09V334.51H416.28V334.26Z" fill="#EBEBEB"/>
<path d="M96.15 335.94H52.96V336.19H96.15V335.94Z" fill="#EBEBEB"/>
<path d="M111.39 335.94H105.06V336.19H111.39V335.94Z" fill="#EBEBEB"/>
<path d="M225.65 340.16H131.97V340.41H225.65V340.16Z" fill="#EBEBEB"/>
<path d="M237.5 282.85H44.41C42.8973 282.847 41.4475 282.245 40.3789 281.174C39.3102 280.104 38.71 278.653 38.71 277.14V5.71005C38.7232 4.20607 39.3292 2.76803 40.3964 1.70827C41.4637 0.648507 42.906 0.0526252 44.41 0.0500488H237.5C239.014 0.0500488 240.467 0.651637 241.538 1.72247C242.608 2.7933 243.21 4.24566 243.21 5.76005V277.14C243.21 278.654 242.608 280.107 241.538 281.178C240.467 282.248 239.014 282.85 237.5 282.85ZM44.41 0.25005C42.9636 0.252699 41.5774 0.829114 40.5557 1.85278C39.5339 2.87644 38.96 4.2637 38.96 5.71005V277.14C38.96 278.586 39.5339 279.974 40.5557 280.997C41.5774 282.021 42.9636 282.597 44.41 282.6H237.5C238.947 282.597 240.335 282.021 241.358 280.998C242.381 279.975 242.957 278.587 242.96 277.14V5.71005C242.957 4.26278 242.381 2.87554 241.358 1.85217C240.335 0.828789 238.947 0.252693 237.5 0.25005H44.41Z" fill="#EBEBEB"/>
<path d="M453.81 282.85H260.71C259.196 282.847 257.746 282.245 256.675 281.175C255.605 280.104 255.003 278.654 255 277.14V5.71005C255.016 4.20516 255.624 2.76713 256.693 1.70764C257.762 0.648157 259.205 0.0525971 260.71 0.0500488H453.81C455.312 0.0552533 456.752 0.652298 457.817 1.71178C458.882 2.77126 459.487 4.2078 459.5 5.71005V277.14C459.5 278.651 458.901 280.1 457.835 281.171C456.768 282.241 455.321 282.845 453.81 282.85ZM260.71 0.25005C259.263 0.252693 257.875 0.828789 256.852 1.85217C255.829 2.87554 255.253 4.26278 255.25 5.71005V277.14C255.253 278.587 255.829 279.975 256.852 280.998C257.875 282.021 259.263 282.597 260.71 282.6H453.81C455.257 282.597 456.645 282.021 457.668 280.998C458.691 279.975 459.267 278.587 459.27 277.14V5.71005C459.267 4.26278 458.691 2.87554 457.668 1.85217C456.645 0.828789 455.257 0.252693 453.81 0.25005H260.71Z" fill="#EBEBEB"/>
<path d="M287.98 209.22H142.91V301.5H287.98V209.22Z" fill="#EBEBEB"/>
<path d="M287.98 209.22H142.91V215.47H287.98V209.22Z" fill="#E0E0E0"/>
<path d="M283.94 214.23C284.978 214.23 285.82 213.388 285.82 212.35C285.82 211.312 284.978 210.47 283.94 210.47C282.902 210.47 282.06 211.312 282.06 212.35C282.06 213.388 282.902 214.23 283.94 214.23Z" fill="#FAFAFA"/>
<path d="M277.68 214.23C278.718 214.23 279.56 213.388 279.56 212.35C279.56 211.312 278.718 210.47 277.68 210.47C276.642 210.47 275.8 211.312 275.8 212.35C275.8 213.388 276.642 214.23 277.68 214.23Z" fill="#FAFAFA"/>
<path d="M271.42 214.23C272.458 214.23 273.3 213.388 273.3 212.35C273.3 211.312 272.458 210.47 271.42 210.47C270.382 210.47 269.54 211.312 269.54 212.35C269.54 213.388 270.382 214.23 271.42 214.23Z" fill="#FAFAFA"/>
<path d="M369.01 235.01H223.94V327.29H369.01V235.01Z" fill="#F5F5F5"/>
<path d="M369.01 235.01H223.94V241.26H369.01V235.01Z" fill="#E0E0E0"/>
<path d="M366.85 238.13C366.85 238.502 366.74 238.865 366.533 239.174C366.327 239.484 366.033 239.725 365.689 239.867C365.346 240.009 364.968 240.046 364.603 239.974C364.239 239.901 363.904 239.722 363.641 239.459C363.378 239.196 363.199 238.861 363.126 238.497C363.054 238.132 363.091 237.754 363.233 237.411C363.375 237.067 363.616 236.773 363.926 236.567C364.235 236.36 364.598 236.25 364.97 236.25C365.468 236.253 365.944 236.452 366.296 236.804C366.648 237.156 366.847 237.632 366.85 238.13Z" fill="#FAFAFA"/>
<path d="M360.59 238.13C360.59 238.502 360.48 238.865 360.273 239.174C360.067 239.484 359.773 239.725 359.429 239.867C359.086 240.009 358.708 240.046 358.343 239.974C357.979 239.901 357.644 239.722 357.381 239.459C357.118 239.196 356.939 238.861 356.866 238.497C356.794 238.132 356.831 237.754 356.973 237.411C357.115 237.067 357.356 236.773 357.666 236.567C357.975 236.36 358.338 236.25 358.71 236.25C359.208 236.253 359.684 236.452 360.036 236.804C360.388 237.156 360.587 237.632 360.59 238.13Z" fill="#FAFAFA"/>
<path d="M354.33 238.13C354.33 238.504 354.218 238.869 354.009 239.18C353.8 239.49 353.504 239.731 353.157 239.871C352.811 240.012 352.43 240.046 352.064 239.969C351.698 239.893 351.364 239.709 351.103 239.441C350.842 239.173 350.667 238.833 350.6 238.465C350.533 238.097 350.578 237.718 350.728 237.375C350.878 237.033 351.127 236.743 351.442 236.542C351.758 236.342 352.126 236.24 352.5 236.25C352.989 236.266 353.453 236.47 353.794 236.821C354.136 237.171 354.328 237.641 354.33 238.13Z" fill="#FAFAFA"/>
<path d="M265.72 31.94H265.36C265.52 31.0791 265.604 30.2057 265.61 29.33C265.607 25.5126 264.089 21.8525 261.389 19.1541C258.689 16.4558 255.027 14.94 251.21 14.94H251.1C250.113 13.2403 248.688 11.8362 246.974 10.8738C245.26 9.91137 243.319 9.42585 241.354 9.4677C239.389 9.50956 237.471 10.0773 235.799 11.1118C234.128 12.1463 232.764 13.6098 231.85 15.35C230.849 15.0813 229.817 14.9435 228.78 14.94C225.649 14.9404 222.64 16.1544 220.386 18.3269C218.131 20.4994 216.806 23.4613 216.69 26.59C214.855 27.9746 213.5 29.8992 212.816 32.0934C212.131 34.2876 212.151 36.6411 212.872 38.8235C213.594 41.0059 214.981 42.9074 216.839 44.2609C218.696 45.6144 220.932 46.352 223.23 46.37C224.117 46.3681 225 46.2573 225.86 46.04H263.56C264.259 46.2573 264.988 46.3685 265.72 46.37C267.635 46.37 269.471 45.6093 270.825 44.2553C272.179 42.9013 272.94 41.0649 272.94 39.15C272.94 37.2351 272.179 35.3987 270.825 34.0447C269.471 32.6907 267.635 31.93 265.72 31.93V31.94Z" fill="#EBEBEB"/>
<path d="M381.19 60.3201H380.91C381.035 59.6607 381.099 58.9912 381.1 58.3201C381.1 55.4027 379.941 52.6048 377.878 50.5419C375.815 48.479 373.017 47.3201 370.1 47.3201H370.02C369.267 46.0149 368.177 44.9359 366.865 44.196C365.552 43.4561 364.065 43.0825 362.558 43.1142C361.052 43.1458 359.582 43.5817 358.301 44.3761C357.021 45.1705 355.977 46.2944 355.28 47.6301C353.937 47.267 352.53 47.2127 351.164 47.4713C349.797 47.7299 348.507 48.2946 347.39 49.123C346.272 49.9515 345.357 51.0222 344.713 52.2548C344.069 53.4874 343.712 54.8499 343.67 56.2401C342.248 57.29 341.193 58.7624 340.658 60.447C340.122 62.1317 340.132 63.9425 340.686 65.6212C341.24 67.2998 342.311 68.7604 343.745 69.7946C345.178 70.8288 346.902 71.3837 348.67 71.3801C349.455 71.3777 350.236 71.2667 350.99 71.0501H379.33C380.089 71.3249 380.9 71.43 381.704 71.3581C382.508 71.2862 383.287 71.039 383.986 70.6339C384.684 70.2287 385.286 69.6755 385.748 69.0131C386.21 68.3507 386.521 67.5951 386.66 66.7995C386.798 66.004 386.761 65.1877 386.55 64.408C386.34 63.6284 385.961 62.9043 385.441 62.2868C384.92 61.6692 384.271 61.1731 383.538 60.8333C382.806 60.4936 382.008 60.3184 381.2 60.3201H381.19Z" fill="#EBEBEB"/>
<path d="M153.19 68.3201H152.91C153.035 67.6607 153.099 66.9912 153.1 66.3201C153.1 63.4027 151.941 60.6048 149.878 58.5419C147.815 56.479 145.017 55.3201 142.1 55.3201H142.02C141.267 54.0149 140.177 52.9359 138.865 52.196C137.552 51.4561 136.065 51.0825 134.558 51.1142C133.052 51.1458 131.582 51.5817 130.301 52.3761C129.021 53.1705 127.977 54.2944 127.28 55.6301C125.937 55.267 124.53 55.2127 123.163 55.4713C121.797 55.7299 120.507 56.2946 119.39 57.123C118.272 57.9515 117.357 59.0222 116.713 60.2548C116.069 61.4874 115.712 62.8499 115.67 64.2401C114.248 65.29 113.193 66.7624 112.658 68.447C112.122 70.1317 112.132 71.9425 112.686 73.6212C113.24 75.2998 114.311 76.7604 115.745 77.7946C117.178 78.8288 118.902 79.3837 120.67 79.3801C121.455 79.3777 122.236 79.2667 122.99 79.0501H151.33C152.089 79.3249 152.9 79.43 153.704 79.3581C154.508 79.2862 155.287 79.039 155.986 78.6339C156.684 78.2287 157.286 77.6755 157.748 77.0131C158.21 76.3507 158.521 75.5951 158.66 74.7995C158.798 74.004 158.761 73.1877 158.55 72.408C158.34 71.6284 157.961 70.9043 157.441 70.2868C156.92 69.6692 156.271 69.1731 155.538 68.8333C154.806 68.4936 154.008 68.3184 153.2 68.3201H153.19Z" fill="#EBEBEB"/>
<path d="M79.28 291.83L78.02 290.05C77.7916 289.735 77.4906 289.479 77.1424 289.305C76.7943 289.131 76.4092 289.044 76.02 289.05H67.2C66.8332 289.044 66.471 289.133 66.1486 289.308C65.8263 289.483 65.5546 289.739 65.36 290.05L64.36 291.8C64.1647 292.11 63.8929 292.365 63.5707 292.54C63.2485 292.716 62.8867 292.805 62.52 292.8H57.18C56.8842 292.798 56.5911 292.857 56.3192 292.974C56.0474 293.091 55.8027 293.262 55.6007 293.479C55.3987 293.695 55.2436 293.95 55.1454 294.229C55.0472 294.509 55.0079 294.805 55.03 295.1L56.74 324.69C56.7825 325.307 57.0546 325.885 57.5026 326.311C57.9506 326.737 58.542 326.979 59.16 326.99H101.07C101.366 326.992 101.659 326.933 101.931 326.816C102.203 326.699 102.447 326.528 102.649 326.311C102.851 326.095 103.006 325.84 103.105 325.561C103.203 325.281 103.242 324.985 103.22 324.69L101.5 295.16C101.462 294.543 101.193 293.964 100.746 293.537C100.299 293.111 99.7077 292.869 99.09 292.86H81.24C80.8554 292.854 80.4775 292.758 80.137 292.579C79.7965 292.4 79.5029 292.144 79.28 291.83Z" fill="#E0E0E0"/>
<path d="M103.28 295.68H64.88C64.0948 295.69 63.3406 295.988 62.7601 296.517C62.1796 297.046 61.8131 297.769 61.73 298.55L59.42 324.17C59.3801 324.538 59.4191 324.91 59.5343 325.261C59.6495 325.612 59.8384 325.935 60.0882 326.208C60.3381 326.48 60.6432 326.696 60.9832 326.842C61.3232 326.987 61.6903 327.058 62.06 327.05H100.5C101.287 327.035 102.041 326.735 102.622 326.205C103.204 325.675 103.573 324.952 103.66 324.17L105.97 298.55C106.011 298.179 105.971 297.803 105.852 297.448C105.734 297.094 105.541 296.769 105.285 296.496C105.03 296.224 104.718 296.01 104.372 295.869C104.026 295.728 103.653 295.663 103.28 295.68Z" fill="#F0F0F0"/>
<path d="M418.21 292.25L416.96 290.5C416.73 290.186 416.429 289.931 416.081 289.757C415.733 289.583 415.349 289.495 414.96 289.5H406.1C405.733 289.492 405.37 289.58 405.047 289.756C404.724 289.931 404.453 290.188 404.26 290.5L403.2 292.25C403.005 292.561 402.734 292.817 402.411 292.992C402.089 293.167 401.727 293.256 401.36 293.25H396.07C395.774 293.248 395.481 293.307 395.209 293.424C394.937 293.541 394.693 293.712 394.491 293.929C394.289 294.145 394.134 294.4 394.035 294.679C393.937 294.959 393.898 295.255 393.92 295.55L395.64 325.14C395.678 325.757 395.947 326.336 396.394 326.763C396.841 327.189 397.432 327.431 398.05 327.44H440C440.296 327.442 440.589 327.383 440.861 327.266C441.133 327.149 441.377 326.978 441.579 326.761C441.781 326.545 441.936 326.29 442.035 326.011C442.133 325.731 442.172 325.435 442.15 325.14L440.44 295.55C440.398 294.933 440.125 294.355 439.677 293.929C439.229 293.503 438.638 293.261 438.02 293.25H420.17C419.788 293.248 419.412 293.156 419.071 292.982C418.731 292.809 418.436 292.558 418.21 292.25Z" fill="#E0E0E0"/>
<path d="M442.21 296.1H403.82C403.034 296.11 402.278 296.407 401.696 296.936C401.114 297.465 400.745 298.188 400.66 298.97L398.35 324.6C398.312 324.967 398.352 325.338 398.468 325.688C398.584 326.038 398.773 326.359 399.022 326.631C399.272 326.902 399.577 327.118 399.916 327.262C400.255 327.407 400.621 327.478 400.99 327.47H439.38C440.166 327.458 440.92 327.16 441.502 326.631C442.083 326.103 442.453 325.381 442.54 324.6L444.85 298.97C444.89 298.603 444.851 298.231 444.736 297.881C444.62 297.53 444.431 297.208 444.181 296.936C443.931 296.664 443.626 296.449 443.286 296.305C442.946 296.161 442.579 296.091 442.21 296.1Z" fill="#F0F0F0"/>
<path d="M297.5 268.34L296.24 266.59C296.012 266.275 295.711 266.019 295.362 265.845C295.014 265.671 294.629 265.584 294.24 265.59H285.38C285.013 265.584 284.651 265.673 284.329 265.848C284.006 266.023 283.735 266.279 283.54 266.59L282.5 268.34C282.305 268.65 282.033 268.905 281.711 269.081C281.389 269.256 281.027 269.345 280.66 269.34H275.37C275.074 269.338 274.781 269.397 274.509 269.514C274.237 269.631 273.993 269.802 273.791 270.019C273.589 270.235 273.434 270.49 273.335 270.77C273.237 271.049 273.198 271.345 273.22 271.64L274.93 301.23C274.972 301.847 275.245 302.425 275.693 302.851C276.141 303.277 276.732 303.519 277.35 303.53H319.25C319.546 303.534 319.84 303.476 320.113 303.359C320.385 303.243 320.63 303.071 320.833 302.855C321.035 302.638 321.19 302.382 321.288 302.102C321.385 301.822 321.424 301.525 321.4 301.23L319.69 271.64C319.652 271.023 319.383 270.444 318.936 270.017C318.489 269.591 317.898 269.349 317.28 269.34H299.43C299.053 269.333 298.683 269.239 298.348 269.066C298.013 268.892 297.723 268.644 297.5 268.34Z" fill="#E0E0E0"/>
<path d="M321.5 272.19H283.1C282.315 272.202 281.562 272.501 280.982 273.029C280.402 273.558 280.035 274.28 279.95 275.06L277.64 300.69C277.6 301.057 277.639 301.429 277.754 301.78C277.87 302.13 278.059 302.452 278.309 302.724C278.559 302.996 278.864 303.211 279.204 303.355C279.544 303.5 279.911 303.569 280.28 303.56H318.67C319.456 303.548 320.21 303.25 320.792 302.721C321.373 302.193 321.743 301.471 321.83 300.69L324.1 275.05C324.14 274.687 324.102 274.319 323.989 273.972C323.876 273.624 323.69 273.305 323.444 273.034C323.199 272.764 322.898 272.549 322.563 272.403C322.228 272.258 321.865 272.185 321.5 272.19Z" fill="#F0F0F0"/>
<path d="M162.13 72.0601H62.45C61.1411 72.0601 60.08 73.1211 60.08 74.4301V248.59C60.08 249.899 61.1411 250.96 62.45 250.96H162.13C163.439 250.96 164.5 249.899 164.5 248.59V74.4301C164.5 73.1211 163.439 72.0601 162.13 72.0601Z" fill="#2C0BF1" fill-opacity="0.2"/>
<path d="M86.84 94.7201H67.17V97.3901H86.84V94.7201Z" fill="#2C0BF1"/>
<path d="M86.84 100.72H67.17V103.39H86.84V100.72Z" fill="#2C0BF1"/>
<path d="M156.88 94.7201H137.21V97.3901H156.88V94.7201Z" fill="#2C0BF1"/>
<path d="M120.21 82.38H100.54V85.05H120.21V82.38Z" fill="#2C0BF1"/>
<path d="M156.88 77.7101H67.17V80.3801H156.88V77.7101Z" fill="#2C0BF1"/>
<path d="M156.87 109.05H77.17V111.72H156.87V109.05Z" fill="#2C0BF1"/>
<path d="M156.88 114.38H67.17V117.05H156.88V114.38Z" fill="#2C0BF1"/>
<path d="M156.88 119.71H67.17V122.38H156.88V119.71Z" fill="#2C0BF1"/>
<path d="M156.88 125.05H67.17V127.72H156.88V125.05Z" fill="#2C0BF1"/>
<path d="M146.87 130.38H67.17V133.05H146.87V130.38Z" fill="#2C0BF1"/>
<path d="M156.87 140.07H77.17V142.74H156.87V140.07Z" fill="#2C0BF1"/>
<path d="M156.88 145.4H67.17V148.07H156.88V145.4Z" fill="#2C0BF1"/>
<path d="M156.88 150.73H67.17V153.4H156.88V150.73Z" fill="#2C0BF1"/>
<path d="M156.88 156.07H67.17V158.74H156.88V156.07Z" fill="#2C0BF1"/>
<path d="M146.87 161.4H67.17V164.07H146.87V161.4Z" fill="#2C0BF1"/>
<path d="M156.87 171.09H77.17V173.76H156.87V171.09Z" fill="#2C0BF1"/>
<path d="M156.88 176.42H67.17V179.09H156.88V176.42Z" fill="#2C0BF1"/>
<path d="M156.88 181.75H67.17V184.42H156.88V181.75Z" fill="#2C0BF1"/>
<path d="M156.88 187.09H67.17V189.76H156.88V187.09Z" fill="#2C0BF1"/>
<path d="M146.87 192.42H67.17V195.09H146.87V192.42Z" fill="#2C0BF1"/>
<path d="M156.87 203.11H77.17V205.78H156.87V203.11Z" fill="#2C0BF1"/>
<path d="M156.88 208.44H67.17V211.11H156.88V208.44Z" fill="#2C0BF1"/>
<path d="M156.88 213.77H67.17V216.44H156.88V213.77Z" fill="#2C0BF1"/>
<path d="M156.88 219.11H67.17V221.78H156.88V219.11Z" fill="#2C0BF1"/>
<path d="M146.87 224.44H67.17V227.11H146.87V224.44Z" fill="#2C0BF1"/>
<path d="M156.88 239.81H137.21V242.48H156.88V239.81Z" fill="#2C0BF1"/>
<g opacity="0.2">
<path opacity="0.2" d="M86.84 94.7201H67.17V97.3901H86.84V94.7201Z" fill="white"/>
<path opacity="0.2" d="M86.84 100.72H67.17V103.39H86.84V100.72Z" fill="white"/>
<path opacity="0.2" d="M156.88 94.7201H137.21V97.3901H156.88V94.7201Z" fill="white"/>
<path opacity="0.2" d="M120.21 82.3801H100.54V85.0501H120.21V82.3801Z" fill="white"/>
<path opacity="0.2" d="M156.88 77.7101H67.17V80.3801H156.88V77.7101Z" fill="white"/>
<path opacity="0.2" d="M156.87 109.05H77.17V111.72H156.87V109.05Z" fill="white"/>
<path opacity="0.2" d="M156.88 114.38H67.17V117.05H156.88V114.38Z" fill="white"/>
<path opacity="0.2" d="M156.88 119.71H67.17V122.38H156.88V119.71Z" fill="white"/>
<path opacity="0.2" d="M156.88 125.05H67.17V127.72H156.88V125.05Z" fill="white"/>
<path opacity="0.2" d="M146.87 130.38H67.17V133.05H146.87V130.38Z" fill="white"/>
<path opacity="0.2" d="M156.87 140.07H77.17V142.74H156.87V140.07Z" fill="white"/>
<path opacity="0.2" d="M156.88 145.4H67.17V148.07H156.88V145.4Z" fill="white"/>
<path opacity="0.2" d="M156.88 150.73H67.17V153.4H156.88V150.73Z" fill="white"/>
<path opacity="0.2" d="M156.88 156.07H67.17V158.74H156.88V156.07Z" fill="white"/>
<path opacity="0.2" d="M146.87 161.4H67.17V164.07H146.87V161.4Z" fill="white"/>
<path opacity="0.2" d="M156.87 171.09H77.17V173.76H156.87V171.09Z" fill="white"/>
<path opacity="0.2" d="M156.88 176.42H67.17V179.09H156.88V176.42Z" fill="white"/>
<path opacity="0.2" d="M156.88 181.75H67.17V184.42H156.88V181.75Z" fill="white"/>
<path opacity="0.2" d="M156.88 187.09H67.17V189.76H156.88V187.09Z" fill="white"/>
<path opacity="0.2" d="M146.87 192.42H67.17V195.09H146.87V192.42Z" fill="white"/>
<path opacity="0.2" d="M156.87 203.11H77.17V205.78H156.87V203.11Z" fill="white"/>
<path opacity="0.2" d="M156.88 208.44H67.17V211.11H156.88V208.44Z" fill="white"/>
<path opacity="0.2" d="M156.88 213.77H67.17V216.44H156.88V213.77Z" fill="white"/>
<path opacity="0.2" d="M156.88 219.11H67.17V221.78H156.88V219.11Z" fill="white"/>
<path opacity="0.2" d="M146.87 224.44H67.17V227.11H146.87V224.44Z" fill="white"/>
<path opacity="0.2" d="M156.88 239.81H137.21V242.48H156.88V239.81Z" fill="white"/>
</g>
<path opacity="0.1" d="M167.13 210.35H111.53C110.221 210.35 109.16 211.411 109.16 212.72V258.11C109.16 259.419 110.221 260.48 111.53 260.48H167.13C168.439 260.48 169.5 259.419 169.5 258.11V212.72C169.5 211.411 168.439 210.35 167.13 210.35Z" fill="black"/>
<path d="M174.57 219.84H118.97C117.661 219.84 116.6 220.901 116.6 222.21V267.6C116.6 268.909 117.661 269.97 118.97 269.97H174.57C175.879 269.97 176.94 268.909 176.94 267.6V222.21C176.94 220.901 175.879 219.84 174.57 219.84Z" fill="#2C0BF1"/>
<path opacity="0.3" d="M174.57 219.84H118.97C117.661 219.84 116.6 220.901 116.6 222.21V267.6C116.6 268.909 117.661 269.97 118.97 269.97H174.57C175.879 269.97 176.94 268.909 176.94 267.6V222.21C176.94 220.901 175.879 219.84 174.57 219.84Z" fill="white"/>
<path d="M134.5 249.05H122.5V255.05H134.5V249.05Z" fill="#2C0BF1"/>
<path d="M169.5 249.05H135.5V255.05H169.5V249.05Z" fill="#2C0BF1"/>
<path d="M134.5 241.05H122.5V248.05H134.5V241.05Z" fill="#2C0BF1"/>
<path d="M134.5 234.05H122.5V240.05H134.5V234.05Z" fill="#2C0BF1"/>
<path d="M169.5 241.05H135.5V248.05H169.5V241.05Z" fill="#2C0BF1"/>
<path d="M169.5 256.05H135.5V263.05H169.5V256.05Z" fill="#2C0BF1"/>
<path d="M169.5 234.05H135.5V240.05H169.5V234.05Z" fill="#2C0BF1"/>
<path d="M134.5 256.05H122.5V263.05H134.5V256.05Z" fill="#2C0BF1"/>
<path d="M134.5 226.05H122.5V233.05H134.5V226.05Z" fill="#2C0BF1"/>
<path d="M169.5 226.05H135.5V233.05H169.5V226.05Z" fill="#2C0BF1"/>
<path opacity="0.1" d="M184.4 123.67H128.8C127.491 123.67 126.43 124.731 126.43 126.04V171.43C126.43 172.739 127.491 173.8 128.8 173.8H184.4C185.709 173.8 186.77 172.739 186.77 171.43V126.04C186.77 124.731 185.709 123.67 184.4 123.67Z" fill="black"/>
<path d="M195.57 121.3H139.97C138.661 121.3 137.6 122.361 137.6 123.67V169.06C137.6 170.369 138.661 171.43 139.97 171.43H195.57C196.879 171.43 197.94 170.369 197.94 169.06V123.67C197.94 122.361 196.879 121.3 195.57 121.3Z" fill="#2C0BF1"/>
<path opacity="0.3" d="M195.57 121.3H139.97C138.661 121.3 137.6 122.361 137.6 123.67V169.06C137.6 170.369 138.661 171.43 139.97 171.43H195.57C196.879 171.43 197.94 170.369 197.94 169.06V123.67C197.94 122.361 196.879 121.3 195.57 121.3Z" fill="white"/>
<path d="M191.5 128.05H176.5V135.05H191.5V128.05Z" fill="#2C0BF1"/>
<path d="M175.5 128.05H160.5V135.05H175.5V128.05Z" fill="#2C0BF1"/>
<path d="M175.5 135.05H160.5V165.05H175.5V135.05Z" fill="#2C0BF1"/>
<path d="M191.5 135.05H176.5V165.05H191.5V135.05Z" fill="#2C0BF1"/>
<path d="M159.5 128.05H144.5V135.05H159.5V128.05Z" fill="#2C0BF1"/>
<path d="M159.5 135.05H144.5V165.05H159.5V135.05Z" fill="#2C0BF1"/>
<path opacity="0.1" d="M203.3 176.28H147.7C146.391 176.28 145.33 177.341 145.33 178.65V224.04C145.33 225.349 146.391 226.41 147.7 226.41H203.3C204.609 226.41 205.67 225.349 205.67 224.04V178.65C205.67 177.341 204.609 176.28 203.3 176.28Z" fill="black"/>
<path d="M223.57 173.07H167.97C166.661 173.07 165.6 174.131 165.6 175.44V220.83C165.6 222.139 166.661 223.2 167.97 223.2H223.57C224.879 223.2 225.94 222.139 225.94 220.83V175.44C225.94 174.131 224.879 173.07 223.57 173.07Z" fill="#2C0BF1"/>
<path opacity="0.3" d="M223.57 173.07H167.97C166.661 173.07 165.6 174.131 165.6 175.44V220.83C165.6 222.139 166.661 223.2 167.97 223.2H223.57C224.879 223.2 225.94 222.139 225.94 220.83V175.44C225.94 174.131 224.879 173.07 223.57 173.07Z" fill="white"/>
<path d="M219.5 180.05H196.5V197.05H219.5V180.05Z" fill="#2C0BF1"/>
<path d="M195.5 180.05H172.5V197.05H195.5V180.05Z" fill="#2C0BF1"/>
<path d="M195.5 198.05H172.5V217.05H195.5V198.05Z" fill="#2C0BF1"/>
<path d="M219.5 198.05H196.5V217.05H219.5V198.05Z" fill="#2C0BF1"/>
<path opacity="0.2" d="M225.5 175.44V209.05H204.77C204.188 209.069 203.608 208.964 203.069 208.744C202.53 208.524 202.043 208.193 201.641 207.772C201.238 207.351 200.928 206.851 200.732 206.302C200.535 205.754 200.456 205.171 200.5 204.59V173.05H223.57C224.88 173.05 225.5 174.13 225.5 175.44Z" fill="black"/>
<path opacity="0.1" d="M204.56 76.54H148.96C147.651 76.54 146.59 77.6011 146.59 78.91V124.3C146.59 125.609 147.651 126.67 148.96 126.67H204.56C205.869 126.67 206.93 125.609 206.93 124.3V78.91C206.93 77.6011 205.869 76.54 204.56 76.54Z" fill="black"/>
<path d="M214.57 67.53H158.97C157.661 67.53 156.6 68.5911 156.6 69.9V115.29C156.6 116.599 157.661 117.66 158.97 117.66H214.57C215.879 117.66 216.94 116.599 216.94 115.29V69.9C216.94 68.5911 215.879 67.53 214.57 67.53Z" fill="#2C0BF1"/>
<path opacity="0.3" d="M214.57 67.53H158.97C157.661 67.53 156.6 68.5911 156.6 69.9V115.29C156.6 116.599 157.661 117.66 158.97 117.66H214.57C215.879 117.66 216.94 116.599 216.94 115.29V69.9C216.94 68.5911 215.879 67.53 214.57 67.53Z" fill="white"/>
<path d="M199.5 74.05H180.5V79.05H199.5V74.05Z" fill="#2C0BF1"/>
<path d="M189.5 80.05H180.5V111.05H189.5V80.05Z" fill="#2C0BF1"/>
<path d="M210.5 74.05H200.5V79.05H210.5V74.05Z" fill="#2C0BF1"/>
<path d="M210.5 80.05H200.5V111.05H210.5V80.05Z" fill="#2C0BF1"/>
<path d="M199.5 80.05H190.5V111.05H199.5V80.05Z" fill="#2C0BF1"/>
<path d="M179.5 80.05H163.5V111.05H179.5V80.05Z" fill="#2C0BF1"/>
<path d="M179.5 74.05H163.5V79.05H179.5V74.05Z" fill="#2C0BF1"/>
<path d="M380.59 184.74H312.51C309.909 184.74 307.8 186.849 307.8 189.45V257.53C307.8 260.131 309.909 262.24 312.51 262.24H380.59C383.191 262.24 385.3 260.131 385.3 257.53V189.45C385.3 186.849 383.191 184.74 380.59 184.74Z" fill="#2C0BF1"/>
<path opacity="0.25" d="M375.5 194.87H317.92V252.12H375.5V194.87Z" fill="white"/>
<path opacity="0.25" d="M317.92 252.05L332.58 240L337.37 243.85L352.55 231.03L360.01 238.37L375.5 225.38V252.05H317.92Z" fill="white"/>
<path opacity="0.25" d="M317.92 252.05L330.33 228.76L344.83 231.03L355.67 216.87L366.83 218.88L375.5 210.21V252.05H317.92Z" fill="white"/>
<path opacity="0.25" d="M317.92 252.05L346.55 248.51L355.83 243.86L365.83 244.87L375.5 240.05V252.05H317.92Z" fill="white"/>
<path opacity="0.2" d="M377.5 185.05V193.05C377.446 194.359 376.902 195.599 375.976 196.526C375.049 197.452 373.809 197.996 372.5 198.05H316.5V221.53C316.435 222.792 315.872 223.977 314.935 224.824C313.998 225.672 312.762 226.113 311.5 226.05H307.5V189.45C307.5 186.85 309.9 185.05 312.5 185.05H377.5Z" fill="black"/>
<path d="M286.2 118.93H218.12C215.519 118.93 213.41 121.039 213.41 123.64V191.72C213.41 194.321 215.519 196.43 218.12 196.43H286.2C288.801 196.43 290.91 194.321 290.91 191.72V123.64C290.91 121.039 288.801 118.93 286.2 118.93Z" fill="#2C0BF1"/>
<path opacity="0.8" d="M262.01 127.01H242C241.52 127.01 241.13 127.4 241.13 127.88V139.17C241.13 139.65 241.52 140.04 242 140.04H262.01C262.49 140.04 262.88 139.65 262.88 139.17V127.88C262.88 127.4 262.49 127.01 262.01 127.01Z" fill="white"/>
<path opacity="0.6" d="M246.74 155.05H230.89C230.41 155.05 230.02 155.44 230.02 155.92V164.13C230.02 164.611 230.41 165 230.89 165H246.74C247.22 165 247.61 164.611 247.61 164.13V155.92C247.61 155.44 247.22 155.05 246.74 155.05Z" fill="white"/>
<path opacity="0.6" d="M273.43 155.05H257.58C257.099 155.05 256.71 155.44 256.71 155.92V164.13C256.71 164.611 257.099 165 257.58 165H273.43C273.91 165 274.3 164.611 274.3 164.13V155.92C274.3 155.44 273.91 155.05 273.43 155.05Z" fill="white"/>
<path opacity="0.4" d="M257.02 176.1H249.53C249.05 176.1 248.66 176.49 248.66 176.97V183.73C248.66 184.211 249.05 184.6 249.53 184.6H257.02C257.5 184.6 257.89 184.211 257.89 183.73V176.97C257.89 176.49 257.5 176.1 257.02 176.1Z" fill="white"/>
<path opacity="0.4" d="M268.74 176.1H261.25C260.77 176.1 260.38 176.49 260.38 176.97V183.73C260.38 184.211 260.77 184.6 261.25 184.6H268.74C269.22 184.6 269.61 184.211 269.61 183.73V176.97C269.61 176.49 269.22 176.1 268.74 176.1Z" fill="white"/>
<path opacity="0.4" d="M280.47 176.1H272.98C272.5 176.1 272.11 176.49 272.11 176.97V183.73C272.11 184.211 272.5 184.6 272.98 184.6H280.47C280.95 184.6 281.34 184.211 281.34 183.73V176.97C281.34 176.49 280.95 176.1 280.47 176.1Z" fill="white"/>
<path opacity="0.4" d="M229.89 176.1H222.4C221.92 176.1 221.53 176.49 221.53 176.97V183.73C221.53 184.211 221.92 184.6 222.4 184.6H229.89C230.37 184.6 230.76 184.211 230.76 183.73V176.97C230.76 176.49 230.37 176.1 229.89 176.1Z" fill="white"/>
<path opacity="0.4" d="M242.61 176.1H235.12C234.64 176.1 234.25 176.49 234.25 176.97V183.73C234.25 184.211 234.64 184.6 235.12 184.6H242.61C243.09 184.6 243.48 184.211 243.48 183.73V176.97C243.48 176.49 243.09 176.1 242.61 176.1Z" fill="white"/>
<g opacity="0.3">
<path opacity="0.3" d="M264.5 155.05H265.5V148.05H252.5V140.05H251.5V148.05H238.5V155.05H239.5V149.05H264.5V155.05Z" fill="white"/>
<path opacity="0.3" d="M238.5 171.05H225.5V176.05H226.5V172.05H238.5V176.05H239.5V165.05H238.5V171.05Z" fill="white"/>
<path opacity="0.3" d="M265.5 172.05V165.05H264.5V172.05H252.5V176.05H253.5V173.05H264.5V176.05H265.5V173.05H276.5V176.05H277.5V172.05H265.5Z" fill="white"/>
</g>
<path opacity="0.2" d="M290.5 123.64V146.05H235.57C234.251 146.006 232.997 145.467 232.058 144.541C231.118 143.614 230.562 142.368 230.5 141.05V119.05H286.21C286.8 119.046 287.385 119.164 287.928 119.397C288.47 119.63 288.958 119.973 289.362 120.404C289.765 120.836 290.074 121.346 290.27 121.903C290.466 122.46 290.544 123.051 290.5 123.64Z" fill="black"/>
<path d="M392.47 85.2301H324.39C321.789 85.2301 319.68 87.3388 319.68 89.9401V158.02C319.68 160.621 321.789 162.73 324.39 162.73H392.47C395.071 162.73 397.18 160.621 397.18 158.02V89.9401C397.18 87.3388 395.071 85.2301 392.47 85.2301Z" fill="#2C0BF1"/>
<path opacity="0.25" d="M387.22 95.3601H329.64V152.61H387.22V95.3601Z" fill="white"/>
<path opacity="0.35" d="M341.32 130.55H335.52V145.42H341.32V130.55Z" fill="white"/>
<path opacity="0.35" d="M341.32 130.55H335.52V152.61H341.32V130.55Z" fill="white"/>
<path opacity="0.35" d="M351.32 120.13H345.52V142.02H351.32V120.13Z" fill="white"/>
<path opacity="0.35" d="M351.32 120.13H345.52V152.61H351.32V120.13Z" fill="white"/>
<path opacity="0.35" d="M361.33 126.54H355.53V144.11H361.33V126.54Z" fill="white"/>
<path opacity="0.35" d="M361.33 126.54H355.53V152.61H361.33V126.54Z" fill="white"/>
<path opacity="0.35" d="M371.34 117.54H365.54V141.18H371.34V117.54Z" fill="white"/>
<path opacity="0.35" d="M371.34 117.54H365.54V152.61H371.34V117.54Z" fill="white"/>
<path opacity="0.35" d="M381.34 103.79H375.54V136.69H381.34V103.79Z" fill="white"/>
<path opacity="0.35" d="M381.34 103.79H375.54V152.61H381.34V103.79Z" fill="white"/>
<path opacity="0.2" d="M340.5 85.05V127.45C340.469 128.7 339.942 129.887 339.037 130.749C338.131 131.612 336.92 132.08 335.67 132.05H319.5V89.94C319.528 88.6536 320.051 87.4275 320.96 86.5167C321.869 85.6059 323.094 85.0806 324.38 85.05H340.5Z" fill="black"/>
<path d="M328.56 32.08H260.48C257.879 32.08 255.77 34.1887 255.77 36.79V104.87C255.77 107.471 257.879 109.58 260.48 109.58H328.56C331.161 109.58 333.27 107.471 333.27 104.87V36.79C333.27 34.1887 331.161 32.08 328.56 32.08Z" fill="#2C0BF1"/>
<path opacity="0.25" d="M319.616 74.9147C321.865 61.0625 312.458 48.0102 298.606 45.7617C284.754 43.5131 271.701 52.9198 269.453 66.772C267.204 80.6243 276.611 93.6766 290.463 95.9251C304.315 98.1736 317.368 88.767 319.616 74.9147Z" fill="white"/>
<path opacity="0.25" d="M294.5 70.8399L319.5 75.5799C318.599 80.3157 316.369 84.6973 313.071 88.2134C309.773 91.7295 305.543 94.2349 300.875 95.4371C296.206 96.6393 291.292 96.4887 286.706 95.0028C282.12 93.517 278.051 90.7573 274.975 87.0459C271.898 83.3344 269.941 78.8244 269.332 74.0424C268.722 69.2604 269.486 64.4036 271.533 60.0392C273.58 55.6748 276.827 51.9827 280.893 49.3941C284.96 46.8055 289.679 45.4271 294.5 45.4199V70.8399Z" fill="white"/>
<path opacity="0.25" d="M294.5 70.8399V96.2499C287.847 96.1091 281.514 93.3649 276.862 88.6065C272.21 83.8482 269.609 77.4553 269.618 70.8006C269.627 64.1459 272.246 57.7602 276.911 53.0147C281.576 48.2692 287.916 45.5424 294.57 45.4199L294.5 70.8399Z" fill="white"/>
<path opacity="0.25" d="M294.5 70.8399L281.11 49.2399C283.097 48.002 285.248 47.0494 287.5 46.4099C289.749 45.7582 292.078 45.4216 294.42 45.4099L294.5 70.8399Z" fill="white"/>
</g>
<defs>
<clipPath id="clip0">
<rect width="500" height="372.61" fill="white" transform="translate(0.5)"/>
</clipPath>
</defs>
</svg>
