<svg width="448" height="286" viewBox="0 0 448 286" fill="none" xmlns="http://www.w3.org/2000/svg">
<path d="M30.7005 190.407C30.7005 190.461 29.894 190.084 28.5833 189.634C26.8765 189.055 25.104 188.691 23.3071 188.552C21.5105 188.42 19.7046 188.51 17.9301 188.821C16.5858 189.069 15.7457 189.325 15.7255 189.264C15.8998 189.159 16.0874 189.078 16.2834 189.022C16.8073 188.843 17.3415 188.695 17.8831 188.579C21.4838 187.789 25.2373 188.074 28.6774 189.399C29.1947 189.592 29.6997 189.816 30.1897 190.071C30.3755 190.157 30.5476 190.27 30.7005 190.407Z" fill="#E0E0E0"/>
<path d="M56.8194 271.909C56.8194 272.01 50.5753 272.091 42.8727 272.091C35.1702 272.091 28.9194 272.01 28.9194 271.909C28.9194 271.808 35.1634 271.734 42.8727 271.734C50.582 271.734 56.8194 271.815 56.8194 271.909Z" fill="#FAFAFA"/>
<path d="M56.396 275.323C56.396 275.418 50.5418 275.498 43.3164 275.498C36.091 275.498 30.2368 275.418 30.2368 275.323C30.2368 275.229 36.091 275.142 43.3164 275.142C50.5418 275.142 56.396 275.223 56.396 275.323Z" fill="#FAFAFA"/>
<path d="M33.9604 262.862C34.1934 265.77 34.1934 268.692 33.9604 271.6C33.7184 268.692 33.7184 265.77 33.9604 262.862Z" fill="#FAFAFA"/>
<path d="M44.1229 262.862C44.3649 265.873 44.3649 268.898 44.1229 271.909C43.8899 268.898 43.8899 265.873 44.1229 262.862Z" fill="#FAFAFA"/>
<path d="M53.6671 262.782C53.9091 265.855 53.9091 268.943 53.6671 272.017C53.4341 268.943 53.4341 265.856 53.6671 262.782Z" fill="#FAFAFA"/>
<path d="M59.2928 262.862C59.2928 262.956 51.9666 263.037 42.9333 263.037C33.8999 263.037 26.567 262.956 26.567 262.862C26.567 262.768 33.8931 262.681 42.9333 262.681C51.9734 262.681 59.2928 262.762 59.2928 262.862Z" fill="#FAFAFA"/>
<path d="M433.735 160.222L405.627 151.128C404.695 150.826 403.921 150.167 403.474 149.295C403.028 148.423 402.947 147.409 403.247 146.477L415.836 107.574C415.985 107.112 416.223 106.684 416.538 106.314C416.852 105.945 417.236 105.641 417.668 105.42C418.1 105.199 418.572 105.065 419.055 105.026C419.539 104.988 420.026 105.045 420.487 105.195L438.312 110.962L447.5 129.647L438.379 157.842C438.077 158.773 437.419 159.546 436.549 159.992C435.678 160.437 434.666 160.52 433.735 160.222Z" fill="white"/>
<path d="M438.312 110.962L434.77 121.91C434.49 122.778 434.566 123.72 434.981 124.532C435.395 125.343 436.115 125.957 436.981 126.239L447.5 129.647L438.312 110.962Z" fill="#EBEBEB"/>
<path d="M432.559 120.7C432.512 120.842 429.568 120.028 425.978 118.852C422.389 117.676 419.513 116.634 419.553 116.493C419.593 116.352 422.551 117.165 426.14 118.341C429.729 119.518 432.606 120.559 432.559 120.7Z" fill="#E0E0E0"/>
<path d="M438.957 129.606C438.91 129.747 434.078 128.309 428.203 126.4C422.329 124.491 417.543 122.825 417.59 122.683C417.637 122.542 422.457 123.981 428.344 125.889C434.232 127.798 438.998 129.465 438.957 129.606Z" fill="#E0E0E0"/>
<path d="M439.206 135.4C439.166 135.541 433.903 133.962 427.464 131.878C421.025 129.795 415.836 127.993 415.883 127.845C415.93 127.698 421.186 129.277 427.625 131.367C434.064 133.458 439.253 135.259 439.206 135.4Z" fill="#E0E0E0"/>
<path d="M437.633 140.273C437.586 140.414 432.323 138.841 425.884 136.758C419.445 134.674 414.257 132.873 414.304 132.725C414.351 132.577 419.607 134.157 426.052 136.24C432.498 138.324 437.68 140.132 437.633 140.273Z" fill="#E0E0E0"/>
<path d="M436.074 145.153C436.027 145.294 430.771 143.721 424.332 141.637C417.893 139.554 412.704 137.746 412.744 137.605C412.785 137.463 418.047 139.043 424.493 141.127C430.939 143.21 436.074 145.011 436.074 145.153Z" fill="#E0E0E0"/>
<path d="M434.474 150.032C434.434 150.167 429.171 148.594 422.732 146.51C416.293 144.427 411.104 142.626 411.151 142.478C411.198 142.33 416.454 143.909 422.893 145.993C429.332 148.077 434.521 149.891 434.474 150.032Z" fill="#E0E0E0"/>
<path d="M35.5936 92.3234L3.39875 81.9055C2.33647 81.5537 1.45698 80.7952 0.95302 79.7961C0.449064 78.797 0.361758 77.6388 0.710238 76.5755L15.1274 32.0135C15.2981 31.4844 15.5715 30.9943 15.9319 30.571C16.2924 30.1478 16.7327 29.7998 17.2278 29.547C17.7229 29.2941 18.2629 29.1414 18.8171 29.0975C19.3713 29.0537 19.9286 29.1195 20.4573 29.2913L40.8631 35.8984L51.4021 57.2989L40.9505 89.5946C40.7798 90.1268 40.5055 90.6199 40.1434 91.0456C39.7812 91.4712 39.3384 91.8209 38.8404 92.0746C38.3424 92.3283 37.7991 92.4809 37.2419 92.5236C36.6846 92.5663 36.1245 92.4983 35.5936 92.3234Z" fill="#F4C03B"/>
<path d="M40.8632 35.8982L36.8304 48.4334C36.6702 48.9254 36.6087 49.4442 36.6494 49.9601C36.6901 50.476 36.8322 50.9787 37.0676 51.4396C37.303 51.9004 37.6271 52.3102 38.0212 52.6455C38.4153 52.9809 38.8718 53.2351 39.3644 53.3937L51.4223 57.2987L40.8632 35.8982Z" fill="#F4C03B"/>
<g opacity="0.2">
<path opacity="0.2" d="M36.5883 49.5897C36.5883 49.5897 35.4457 52.5807 38.6047 54.6979C38.7257 54.7785 38.8534 54.8525 38.9744 54.9197C40.4598 55.7128 50.2258 60.9083 50.3065 60.6664L51.3953 57.3057L39.3172 53.394C39.3172 53.394 36.3397 52.3186 36.5883 49.5897Z" fill="black"/>
</g>
<g opacity="0.3">
<path opacity="0.3" d="M40.8632 35.8982L36.8304 48.4334C36.6702 48.9254 36.6087 49.4442 36.6494 49.9601C36.6901 50.476 36.8322 50.9787 37.0676 51.4396C37.303 51.9004 37.6271 52.3102 38.0212 52.6455C38.4153 52.9809 38.8718 53.2351 39.3644 53.3937L51.4223 57.2987L40.8632 35.8982Z" fill="white"/>
</g>
<path d="M34.2494 47.049C34.1956 47.2103 30.8215 46.2626 26.7081 44.9318C22.5947 43.601 19.3147 42.3979 19.355 42.2433C19.3954 42.0887 22.7829 43.0297 26.8963 44.3605C31.0097 45.6913 34.3032 46.8877 34.2494 47.049Z" fill="#FAFAFA"/>
<path d="M41.5756 57.2316C41.5218 57.3929 35.9902 55.7529 29.2219 53.5618C22.4535 51.3706 17.0093 49.4685 17.0631 49.3072C17.1168 49.1459 22.6417 50.7859 29.4101 52.977C36.1784 55.1682 41.6293 57.0904 41.5756 57.2316Z" fill="#FAFAFA"/>
<path d="M41.8646 63.8923C41.8175 64.0537 35.8154 62.2456 28.422 59.8596C21.0286 57.4735 15.0937 55.4034 15.1475 55.2152C15.2013 55.027 21.1967 56.8619 28.5901 59.2479C35.9835 61.634 41.9183 63.731 41.8646 63.8923Z" fill="#FAFAFA"/>
<path d="M40.0566 69.4778C40.0095 69.6391 34.0074 67.8311 26.614 65.4451C19.2206 63.059 13.3059 60.9956 13.3395 60.8343C13.3731 60.6729 19.3886 62.4743 26.782 64.867C34.1754 67.2598 40.1103 69.3299 40.0566 69.4778Z" fill="#FAFAFA"/>
<path d="M38.2553 75.0633C38.2015 75.2246 32.1725 73.4166 24.8127 71.0305C17.4529 68.6445 11.4911 66.581 11.5449 66.4197C11.5987 66.2584 17.5941 68.0597 24.9875 70.4525C32.3809 72.8452 38.3023 74.902 38.2553 75.0633Z" fill="#FAFAFA"/>
<path d="M36.4473 80.6483C36.3935 80.8096 30.3981 79.0083 23.0047 76.6155C15.6113 74.2228 9.66974 72.1661 9.72351 72.0182C9.77728 71.8703 15.7727 73.6582 23.166 76.051C30.5594 78.4437 36.4943 80.487 36.4473 80.6483Z" fill="#FAFAFA"/>
<path d="M426.187 51.4513L391.041 58.6565C390.221 58.8232 389.369 58.6578 388.671 58.1966C387.973 57.7354 387.486 57.0161 387.318 56.1966L377.639 8.87209C377.556 8.4665 377.553 8.04844 377.631 7.64177C377.709 7.23511 377.866 6.84782 378.094 6.50203C378.322 6.15624 378.616 5.85872 378.959 5.62648C379.302 5.39424 379.687 5.23182 380.092 5.1485L404.652 0.10083L421.032 10.5927L428.64 47.7143C428.727 48.1209 428.732 48.5406 428.655 48.9492C428.578 49.3577 428.421 49.747 428.193 50.0945C427.965 50.442 427.67 50.7408 427.326 50.9737C426.981 51.2066 426.594 51.3689 426.187 51.4513Z" fill="#F4C03B"/>
<path d="M404.632 0L406.561 9.40978C406.672 9.96351 406.892 10.4898 407.207 10.9585C407.522 11.4273 407.927 11.8292 408.398 12.1414C408.868 12.4535 409.396 12.6698 409.95 12.7777C410.505 12.8857 411.075 12.8832 411.629 12.7704L421.038 10.6263L404.632 0Z" fill="#F4C03B"/>
<path d="M419.002 43.1842C418.952 43.0395 418.914 42.8912 418.888 42.7406C418.82 42.4314 418.726 42.0214 418.612 41.4972C418.37 40.3814 418.027 38.8087 417.597 36.7923L414.082 20.1571L414.31 20.3117L390.369 25.272C390.329 25.3258 390.699 24.7612 390.544 25.0032V25.0435V25.0905V25.1914L390.584 25.3863L390.665 25.7828L390.826 26.5625C390.934 27.0868 391.035 27.611 391.142 28.1286C391.357 29.1636 391.566 30.1853 391.774 31.2002L393.058 37.1619C393.844 41.0334 394.583 44.6898 395.269 48.0571L395.034 47.9025L412.321 44.4613L417.227 43.5068L418.531 43.2649C418.687 43.2309 418.844 43.2062 419.002 43.1909C418.865 43.2356 418.726 43.2716 418.585 43.2985L417.321 43.5808L412.482 44.6226L395.074 48.2924L394.879 48.3327L394.839 48.1378C394.167 44.7772 393.387 41.1208 392.587 37.2493C392.184 35.3203 391.774 33.3308 391.357 31.301C391.149 30.2861 390.941 29.2846 390.725 28.2227L390.403 26.6633L390.242 25.8769L390.161 25.4871L390.121 25.2855V25.1914V25.104C389.959 25.3392 390.329 24.7746 390.295 24.8284L414.263 19.9488L414.452 19.9084L414.492 20.1034L417.853 36.9065C418.242 38.9229 418.525 40.4621 418.76 41.5711C418.854 42.0819 418.928 42.4852 418.988 42.7877C419 42.9195 419.005 43.0519 419.002 43.1842Z" fill="white"/>
<path d="M406.85 45.9601C406.722 45.9601 405.566 40.8452 404.262 34.4801C402.958 28.1151 401.997 22.9532 402.125 22.9128C402.252 22.8725 403.402 28.021 404.706 34.3928C406.01 40.7645 406.971 45.9332 406.85 45.9601Z" fill="white"/>
<path d="M417.752 37.552C417.752 37.673 412.375 38.8962 405.768 40.2405C399.161 41.5847 393.73 42.6064 393.73 42.4854C393.73 42.3644 399.073 41.1411 405.714 39.7969C412.355 38.4526 417.725 37.431 417.752 37.552Z" fill="white"/>
<path d="M416.817 31.6168C416.817 31.7445 411.481 32.961 404.84 34.3053C398.2 35.6496 392.796 36.6779 392.742 36.5502C392.688 36.4225 398.079 35.206 404.719 33.8617C411.36 32.5174 416.791 31.4958 416.817 31.6168Z" fill="white"/>
<path d="M415.433 25.7828C415.433 25.9038 410.136 27.1271 403.543 28.4713C396.949 29.8156 391.586 30.8171 391.566 30.6961C391.545 30.5751 396.862 29.3518 403.449 28.0076C410.036 26.6633 415.406 25.6417 415.433 25.7828Z" fill="white"/>
<g opacity="0.3">
<path opacity="0.3" d="M404.632 0L406.561 9.40978C406.672 9.96351 406.892 10.4898 407.207 10.9585C407.522 11.4273 407.927 11.8292 408.398 12.1414C408.868 12.4535 409.396 12.6698 409.95 12.7777C410.505 12.8857 411.075 12.8832 411.629 12.7704L421.038 10.6263L404.632 0Z" fill="white"/>
</g>
<path d="M371.059 26.1458H77.6486C76.4459 26.1449 75.2548 26.381 74.1434 26.8407C73.0319 27.3003 72.0219 27.9745 71.1712 28.8246C70.3204 29.6748 69.6455 30.6842 69.185 31.7953C68.7245 32.9064 68.4875 34.0974 68.4875 35.3001V242.551C68.4875 243.753 68.7245 244.944 69.185 246.055C69.6455 247.166 70.3204 248.176 71.1712 249.026C72.0219 249.876 73.0319 250.55 74.1434 251.01C75.2548 251.47 76.4459 251.706 77.6486 251.705H190.257C190.257 251.705 197.422 273.885 175.215 285.311H280.517C280.517 285.311 255.44 276.721 261.885 251.705H371.059C372.262 251.706 373.453 251.47 374.564 251.01C375.676 250.55 376.686 249.876 377.536 249.026C378.387 248.176 379.062 247.166 379.523 246.055C379.983 244.944 380.22 243.753 380.22 242.551V35.3068C380.22 32.8772 379.255 30.547 377.537 28.829C375.819 27.1109 373.489 26.1458 371.059 26.1458Z" fill="#2C0BF1"/>
<path d="M228.272 229.915C232.265 235.614 226.014 241.865 220.308 237.873C220.118 237.737 219.953 237.571 219.817 237.382C215.838 231.676 222.075 225.438 227.782 229.424C227.972 229.558 228.138 229.724 228.272 229.915Z" fill="#263238"/>
<path d="M80.0549 29.9432H368.646C369.502 29.9432 370.35 30.1119 371.141 30.4395C371.932 30.7672 372.651 31.2474 373.256 31.8528C373.862 32.4582 374.342 33.1769 374.669 33.9679C374.997 34.7589 375.166 35.6067 375.166 36.4629V213.79H73.542V36.4562C73.5438 34.7294 74.2305 33.0738 75.4515 31.8528C76.6726 30.6318 78.3281 29.945 80.0549 29.9432Z" fill="white"/>
<path d="M79.692 29.9432H370.138C371.479 29.9432 372.764 30.4758 373.712 31.4236C374.66 32.3715 375.193 33.6571 375.193 34.9976V45.214H73.542V36.0932C73.542 34.4621 74.1899 32.8979 75.3433 31.7445C76.4966 30.5912 78.0609 29.9432 79.692 29.9432Z" fill="#EBEBEB"/>
<path d="M83.1466 40.0185C84.3159 40.0185 85.2638 39.0706 85.2638 37.9013C85.2638 36.732 84.3159 35.7841 83.1466 35.7841C81.9773 35.7841 81.0294 36.732 81.0294 37.9013C81.0294 39.0706 81.9773 40.0185 83.1466 40.0185Z" fill="#E0E0E0"/>
<path d="M89.4579 40.0185C90.6272 40.0185 91.5751 39.0706 91.5751 37.9013C91.5751 36.732 90.6272 35.7841 89.4579 35.7841C88.2886 35.7841 87.3407 36.732 87.3407 37.9013C87.3407 39.0706 88.2886 40.0185 89.4579 40.0185Z" fill="#E0E0E0"/>
<path d="M95.4667 40.0185C96.636 40.0185 97.584 39.0706 97.584 37.9013C97.584 36.732 96.636 35.7841 95.4667 35.7841C94.2974 35.7841 93.3495 36.732 93.3495 37.9013C93.3495 39.0706 94.2974 40.0185 95.4667 40.0185Z" fill="#E0E0E0"/>
<path d="M318.606 251.738C318.606 251.833 276.847 251.913 225.355 251.913C173.864 251.913 132.104 251.833 132.104 251.738C132.104 251.644 173.843 251.564 225.355 251.564C276.867 251.564 318.606 251.638 318.606 251.738Z" fill="#263238"/>
<path d="M402.783 74.7943H324.85C320.459 74.7943 316.899 78.3542 316.899 82.7456V166.506C316.899 170.897 320.459 174.457 324.85 174.457H402.783C407.175 174.457 410.735 170.897 410.735 166.506V82.7456C410.735 78.3542 407.175 74.7943 402.783 74.7943Z" fill="#F5F5F5"/>
<path d="M406.5 173.745V83.7739H410.735V167.339C410.741 170.626 407.387 174.007 406.5 173.745Z" fill="white"/>
<path d="M324.918 74.7943H402.723C404.85 74.7943 406.889 75.6391 408.393 77.1429C409.897 78.6466 410.741 80.6862 410.741 82.8128V83.7739H316.899V82.8128C316.899 80.6862 317.744 78.6466 319.248 77.1429C320.751 75.6391 322.791 74.7943 324.918 74.7943Z" fill="#E0E0E0"/>
<path d="M410.741 95.6168C410.741 94.4475 409.793 93.4996 408.624 93.4996C407.455 93.4996 406.507 94.4475 406.507 95.6168V107.487C406.507 108.656 407.455 109.604 408.624 109.604C409.793 109.604 410.741 108.656 410.741 107.487V95.6168Z" fill="#E0E0E0"/>
<path d="M402.468 174.457C402.548 174.453 402.629 174.453 402.709 174.457C402.871 174.457 403.113 174.457 403.429 174.397C405.15 174.186 406.762 173.44 408.036 172.264C409.311 171.088 410.184 169.542 410.533 167.844C410.695 166.745 410.749 165.633 410.694 164.523C410.694 155.113 410.661 141.442 410.641 124.579C410.641 116.15 410.641 106.908 410.641 97.0215V89.4332C410.641 88.1494 410.641 86.8589 410.641 85.5617C410.689 84.2609 410.646 82.9583 410.513 81.6634C410.283 80.3639 409.74 79.1401 408.931 78.0978C408.122 77.0554 407.07 76.2261 405.868 75.6815C404.633 75.1338 403.286 74.8851 401.937 74.9556H397.763H325.22C324.431 74.9649 323.646 75.0802 322.888 75.2983C321.379 75.7498 320.036 76.633 319.023 77.839C318.005 79.0301 317.364 80.497 317.181 82.0532C317.112 82.8331 317.088 83.6163 317.107 84.3989V107.641C317.107 119.773 317.107 131.481 317.107 142.632C317.107 148.206 317.107 153.637 317.107 158.924C317.107 161.559 317.107 164.18 317.107 166.721C317.19 167.961 317.554 169.165 318.173 170.243C318.791 171.32 319.647 172.242 320.676 172.938C321.689 173.607 322.836 174.045 324.037 174.222C325.233 174.321 326.433 174.352 327.633 174.316H334.677H347.911L387.855 174.37L398.717 174.403H401.54H402.501H401.54H398.717L387.855 174.437L347.911 174.491H334.677H327.599C326.386 174.526 325.173 174.495 323.963 174.397C322.72 174.209 321.534 173.75 320.488 173.053C319.42 172.333 318.53 171.379 317.887 170.263C317.244 169.147 316.865 167.899 316.778 166.614C316.724 164.033 316.778 161.445 316.778 158.797C316.778 153.514 316.778 148.083 316.778 142.504C316.778 131.354 316.778 119.652 316.778 107.513V89.1307C316.778 87.5579 316.778 85.9919 316.778 84.4258C316.759 83.6275 316.784 82.8287 316.852 82.0331C316.964 81.2275 317.19 80.4421 317.524 79.7008C317.854 78.9565 318.286 78.262 318.808 77.6373C319.34 77.0181 319.952 76.4733 320.629 76.0175C321.318 75.5742 322.064 75.2281 322.847 74.9892C323.637 74.7628 324.453 74.643 325.274 74.6329H397.816H401.97C403.355 74.5707 404.736 74.8307 406.003 75.3924C407.251 75.9588 408.343 76.821 409.182 77.9043C410.022 78.9877 410.585 80.2596 410.822 81.6096C410.928 82.2763 410.973 82.9512 410.956 83.626V85.5886C410.956 86.8858 410.956 88.1763 410.956 89.4601V97.0215C410.956 106.935 410.956 116.177 410.956 124.579C410.956 141.442 410.916 155.087 410.903 164.523C410.957 165.646 410.899 166.772 410.728 167.884C410.519 168.838 410.143 169.748 409.619 170.572C408.957 171.629 408.065 172.522 407.009 173.185C405.953 173.849 404.762 174.265 403.523 174.403C402.797 174.464 402.468 174.457 402.468 174.457Z" fill="#263238"/>
<path d="M402.091 88.1829H322.834V164.859H402.091V88.1829Z" fill="#2C0BF1"/>
<g opacity="0.3">
<path opacity="0.3" d="M376.476 111.163C376.478 112.292 376.144 113.396 375.518 114.335C374.892 115.274 374.001 116.007 372.958 116.44C371.916 116.873 370.768 116.987 369.661 116.767C368.553 116.548 367.536 116.005 366.737 115.207C365.939 114.409 365.394 113.393 365.174 112.285C364.953 111.178 365.066 110.031 365.497 108.988C365.929 107.944 366.66 107.053 367.599 106.426C368.538 105.798 369.641 105.463 370.77 105.463C372.282 105.463 373.733 106.064 374.803 107.132C375.873 108.201 376.475 109.651 376.476 111.163Z" fill="black"/>
</g>
<g opacity="0.3">
<path opacity="0.3" d="M395.968 94.1986L329.004 94.1448C329.078 94.0641 328.285 94.864 328.621 94.5346V103.212C328.621 106.088 328.621 108.934 328.621 111.748C328.621 117.385 328.621 122.894 328.621 128.275C328.621 139.029 328.621 149.165 328.661 158.521V158.857H328.991L377.619 158.689L391.196 158.602L394.758 158.561H395.659H395.955L379.723 130.735L368.861 144.057L350.922 118.839L329.353 158.145C329.353 148.903 329.353 138.868 329.353 128.262C329.353 122.885 329.353 117.376 329.353 111.734C329.353 108.92 329.353 106.075 329.353 103.198V94.8707L395.618 94.8169C395.686 113.818 395.739 129.653 395.78 140.79C395.82 146.376 395.847 150.772 395.867 153.81C395.867 155.295 395.867 156.444 395.867 157.264C395.867 157.634 395.867 157.936 395.867 158.158C395.859 158.263 395.859 158.369 395.867 158.474C395.878 158.38 395.878 158.286 395.867 158.192C395.867 157.97 395.867 157.694 395.867 157.331C395.867 156.532 395.867 155.402 395.907 153.971C395.907 150.946 395.955 146.577 395.988 141.026C396.028 129.774 396.089 113.751 396.156 94.5212V94.1986H395.968Z" fill="black"/>
</g>
<path d="M325.415 81.2265C326.335 81.2265 327.082 80.5133 327.082 79.6336C327.082 78.7538 326.335 78.0406 325.415 78.0406C324.494 78.0406 323.748 78.7538 323.748 79.6336C323.748 80.5133 324.494 81.2265 325.415 81.2265Z" fill="white"/>
<path d="M330.422 81.2265C331.343 81.2265 332.089 80.5133 332.089 79.6336C332.089 78.7538 331.343 78.0406 330.422 78.0406C329.502 78.0406 328.755 78.7538 328.755 79.6336C328.755 80.5133 329.502 81.2265 330.422 81.2265Z" fill="white"/>
<path d="M335.477 81.2265C336.397 81.2265 337.143 80.5133 337.143 79.6336C337.143 78.7538 336.397 78.0406 335.477 78.0406C334.556 78.0406 333.81 78.7538 333.81 79.6336C333.81 80.5133 334.556 81.2265 335.477 81.2265Z" fill="white"/>
<path d="M122.95 74.828H57.2429C54.7819 74.828 52.7867 76.8231 52.7867 79.2842V173.422C52.7867 175.883 54.7819 177.879 57.2429 177.879H122.95C125.411 177.879 127.406 175.883 127.406 173.422V79.2842C127.406 76.8231 125.411 74.828 122.95 74.828Z" fill="#F5F5F5"/>
<path d="M57.9352 74.828H122.265C123.63 74.828 124.94 75.3704 125.905 76.336C126.871 77.3015 127.413 78.611 127.413 79.9765V84.1168H52.8069V79.9832C52.8051 78.6201 53.344 77.3119 54.3053 76.3455C55.2667 75.379 56.5721 74.8333 57.9352 74.828Z" fill="#E0E0E0"/>
<path d="M57.505 80.9579C58.3254 80.9579 58.9904 80.2928 58.9904 79.4725C58.9904 78.6521 58.3254 77.9871 57.505 77.9871C56.6846 77.9871 56.0196 78.6521 56.0196 79.4725C56.0196 80.2928 56.6846 80.9579 57.505 80.9579Z" fill="white"/>
<path d="M63.4399 79.4725C63.4399 79.7663 63.3527 80.0534 63.1895 80.2977C63.0263 80.542 62.7943 80.7324 62.5229 80.8448C62.2515 80.9572 61.9528 80.9866 61.6647 80.9293C61.3765 80.872 61.1119 80.7306 60.9041 80.5228C60.6964 80.3151 60.5549 80.0504 60.4976 79.7623C60.4403 79.4741 60.4697 79.1755 60.5821 78.904C60.6946 78.6326 60.8849 78.4006 61.1292 78.2374C61.3735 78.0742 61.6607 77.9871 61.9545 77.9871C62.1498 77.9862 62.3433 78.024 62.5239 78.0983C62.7046 78.1727 62.8687 78.282 63.0068 78.4201C63.1449 78.5583 63.2543 78.7224 63.3286 78.903C63.4029 79.0836 63.4407 79.2772 63.4399 79.4725Z" fill="white"/>
<path d="M66.451 80.9579C67.2713 80.9579 67.9364 80.2928 67.9364 79.4725C67.9364 78.6521 67.2713 77.9871 66.451 77.9871C65.6306 77.9871 64.9656 78.6521 64.9656 79.4725C64.9656 80.2928 65.6306 80.9579 66.451 80.9579Z" fill="white"/>
<path d="M124.046 84.1097H56.1541V175.828H124.046V84.1097Z" fill="white"/>
<path d="M125.726 110.82C125.28 110.82 124.853 110.643 124.538 110.328C124.223 110.013 124.046 109.586 124.046 109.14V95.8587C124.045 95.6374 124.088 95.4182 124.172 95.2136C124.256 95.0089 124.379 94.8229 124.535 94.6662C124.692 94.5094 124.877 94.385 125.081 94.3002C125.286 94.2153 125.505 94.1716 125.726 94.1716C126.173 94.1716 126.602 94.3494 126.919 94.6657C127.235 94.9821 127.413 95.4112 127.413 95.8587V109.14C127.413 109.361 127.369 109.58 127.284 109.784C127.2 109.989 127.075 110.174 126.918 110.33C126.762 110.487 126.576 110.61 126.371 110.694C126.166 110.778 125.947 110.821 125.726 110.82Z" fill="#E0E0E0"/>
<path d="M119.139 177.879C120.299 177.851 121.442 177.59 122.5 177.112C123.786 176.53 124.9 175.625 125.733 174.484C126.268 173.762 126.679 172.956 126.949 172.098C127.239 171.12 127.368 170.1 127.332 169.08C127.332 160.343 127.332 147.774 127.272 132.214C127.272 124.431 127.272 115.908 127.272 106.754C127.272 102.184 127.272 97.4451 127.272 92.5722C127.272 90.1391 127.272 87.6656 127.272 85.1788C127.335 83.9281 127.277 82.6743 127.097 81.435C126.824 80.2086 126.277 79.0598 125.497 78.0744C124.695 77.0746 123.668 76.2775 122.501 75.7474C121.333 75.2173 120.057 74.9692 118.776 75.0229H59.6289C58.8896 75.0229 58.1368 75.0229 57.4109 75.0229C56.3364 75.0605 55.3092 75.474 54.5084 76.1913C53.7075 76.9086 53.1838 77.8843 53.0286 78.9482C52.9734 79.6704 52.9554 80.395 52.9749 81.1191V104.744C52.9749 115.942 52.9749 126.743 52.9749 137.007C52.9749 147.27 52.9749 157.076 52.9749 166.231V172.952C52.9955 174.014 53.3645 175.04 54.0251 175.872C54.6857 176.704 55.6014 177.295 56.6312 177.556C57.1342 177.681 57.6526 177.733 58.1704 177.711H68.7564L105.623 177.764L115.644 177.798H118.252H119.139H118.252H115.644L105.623 177.831L68.7564 177.892H58.1301C57.5897 177.915 57.0488 177.861 56.5237 177.731C55.4361 177.455 54.4688 176.83 53.7697 175.953C53.0705 175.075 52.678 173.993 52.6523 172.871C52.6523 170.66 52.6523 168.408 52.6523 166.15C52.6523 156.996 52.6523 147.216 52.6523 136.926C52.6523 126.636 52.6523 115.834 52.6523 104.664C52.6523 99.0582 52.6523 93.363 52.6523 87.5783V81.0385C52.6326 80.2986 52.6527 79.5582 52.7127 78.8204C52.824 78.0637 53.1089 77.3429 53.5449 76.7144C53.981 76.0859 54.5565 75.5668 55.2265 75.1977C55.9031 74.8304 56.6551 74.6235 57.4244 74.5928C58.1771 74.5928 58.9098 74.5928 59.6558 74.5928H118.803C120.133 74.5409 121.457 74.8015 122.669 75.3535C123.881 75.9056 124.946 76.7339 125.78 77.7719C126.589 78.8013 127.154 80.0009 127.433 81.2804C127.487 81.5963 127.541 81.9122 127.574 82.2349C127.608 82.5575 127.615 82.907 127.615 83.196V92.4982C127.615 97.3712 127.615 102.11 127.615 106.68C127.615 115.834 127.615 124.357 127.615 132.14C127.615 147.7 127.574 160.296 127.561 169.006C127.593 170.041 127.457 171.074 127.158 172.065C126.794 173.173 126.203 174.194 125.423 175.062C124.643 175.93 123.691 176.626 122.627 177.106C121.827 177.458 120.977 177.685 120.107 177.778C119.442 177.879 119.139 177.879 119.139 177.879Z" fill="#263238"/>
<path d="M80.0549 120.969C80.0549 121.064 76.3178 121.144 71.7138 121.144C67.1097 121.144 63.3727 121.064 63.3727 120.969C63.3727 120.875 67.103 120.795 71.7138 120.795C76.3246 120.795 80.0549 120.875 80.0549 120.969Z" fill="#263238"/>
<path d="M76.4187 125.788C74.25 125.962 72.0738 126.02 69.899 125.963C67.722 126.02 65.5435 125.962 63.3727 125.788C65.5435 125.615 67.722 125.557 69.899 125.614C72.0738 125.557 74.25 125.615 76.4187 125.788Z" fill="#263238"/>
<path d="M77.9108 131.253C77.9108 131.354 74.6577 131.428 70.6451 131.428C66.6325 131.428 63.3727 131.354 63.3727 131.253C63.3727 131.152 66.6258 131.078 70.6451 131.078C74.6644 131.078 77.9108 131.166 77.9108 131.253Z" fill="#263238"/>
<path d="M80.0549 136.085C80.0549 136.186 76.3178 136.26 71.7138 136.26C67.1097 136.26 63.3727 136.186 63.3727 136.085C63.3727 135.985 67.103 135.911 71.7138 135.911C76.3246 135.911 80.0549 135.991 80.0549 136.085Z" fill="#263238"/>
<path d="M76.4187 141.543C74.25 141.716 72.0738 141.775 69.899 141.718C67.722 141.775 65.5435 141.716 63.3727 141.543C65.5433 141.366 67.722 141.308 69.899 141.368C72.0738 141.308 74.2503 141.366 76.4187 141.543Z" fill="#263238"/>
<path d="M74.4695 146.376C72.622 146.549 70.7656 146.607 68.911 146.551C67.0563 146.607 65.1999 146.549 63.3525 146.376C65.1994 146.194 67.0562 146.134 68.911 146.195C70.7658 146.134 72.6226 146.194 74.4695 146.376Z" fill="#263238"/>
<path d="M113.453 114.712C113.453 114.806 101.818 114.886 87.4684 114.886C73.1185 114.886 61.484 114.806 61.484 114.712C61.484 114.618 73.1118 114.537 87.4684 114.537C101.825 114.537 113.453 114.611 113.453 114.712Z" fill="#263238"/>
<path d="M90.8895 155.9C90.7954 155.9 90.7148 144.541 90.7148 130.527C90.7148 116.513 90.7954 105.148 90.8895 105.148C90.9836 105.148 91.0643 116.507 91.0643 130.527C91.0643 144.548 90.9904 155.9 90.8895 155.9Z" fill="#263238"/>
<path d="M102.181 155.9C102.087 155.9 102.007 144.541 102.007 130.527C102.007 116.513 102.087 105.148 102.181 105.148C102.275 105.148 102.356 116.507 102.356 130.527C102.356 144.548 102.282 155.9 102.181 155.9Z" fill="#263238"/>
<path d="M113.453 155.9C113.352 155.9 113.278 144.541 113.278 130.527C113.278 116.513 113.352 105.148 113.453 105.148C113.554 105.148 113.628 116.507 113.628 130.527C113.628 144.548 113.54 155.9 113.453 155.9Z" fill="#263238"/>
<path d="M83.4021 109.577C83.4021 109.678 78.9795 109.752 73.5218 109.752C68.0641 109.752 63.6415 109.678 63.6415 109.577C63.6415 109.476 68.0641 109.402 73.5218 109.402C78.9795 109.402 83.4021 109.483 83.4021 109.577Z" fill="#263238"/>
<path d="M99.3382 109.577C98.4196 109.753 97.4823 109.812 96.5489 109.752C95.6177 109.812 94.6826 109.753 93.7663 109.577C94.6831 109.404 95.6177 109.346 96.5489 109.402C97.4823 109.346 98.4191 109.405 99.3382 109.577Z" fill="#263238"/>
<path d="M111 109.577C110.083 109.753 109.148 109.812 108.217 109.752C107.286 109.812 106.351 109.753 105.434 109.577C107.282 109.344 109.152 109.344 111 109.577Z" fill="#263238"/>
<path d="M113.103 151.793C113.103 151.887 102.188 151.968 88.732 151.968C75.2761 151.968 64.3674 151.887 64.3674 151.793C64.3674 151.699 75.2761 151.618 88.732 151.618C102.188 151.618 113.103 151.699 113.103 151.793Z" fill="#263238"/>
<path d="M109.42 153.89C107.975 154.123 106.503 154.123 105.058 153.89C106.503 153.657 107.975 153.657 109.42 153.89Z" fill="#263238"/>
<path d="M114.071 157.6C114.071 157.701 107.35 157.775 98.982 157.775C90.614 157.775 83.8927 157.701 83.8927 157.6C83.8927 157.499 90.614 157.425 98.982 157.425C107.35 157.425 114.071 157.506 114.071 157.6Z" fill="#263238"/>
<path d="M117.949 165.585L117.553 165.625L116.41 165.706L112.048 165.975L96.3338 166.869H95.7759L96.2464 166.573C98.1089 165.414 100.238 164.754 102.43 164.658C103.6 164.602 104.772 164.711 105.912 164.98C106.507 165.105 107.085 165.304 107.632 165.572C107.927 165.714 108.186 165.92 108.392 166.174C108.598 166.429 108.744 166.726 108.822 167.044C108.928 167.697 108.814 168.367 108.498 168.949C108.182 169.531 107.681 169.991 107.074 170.256C105.869 170.778 104.552 170.993 103.243 170.881C101.89 170.854 100.575 170.431 99.4592 169.665C98.8927 169.256 98.4244 168.726 98.0884 168.113C97.7524 167.5 97.5571 166.82 97.5167 166.123C97.5227 165.482 97.685 164.853 97.9895 164.29C98.2941 163.726 98.7317 163.246 99.2643 162.89C100.29 162.199 101.495 161.82 102.732 161.801C105.072 161.755 107.397 162.173 109.575 163.031C110.614 163.437 111.615 163.934 112.566 164.516C113.07 164.772 113.515 165.131 113.87 165.572C113.969 165.695 114.038 165.841 114.071 165.996C114.103 166.151 114.099 166.312 114.058 166.466C114.001 166.618 113.902 166.751 113.772 166.849C113.643 166.947 113.487 167.005 113.325 167.017C112.771 167.014 112.228 166.863 111.752 166.58C111.289 166.358 110.84 166.107 110.408 165.827C109.562 165.29 108.784 164.654 108.089 163.932L108.338 163.784C108.395 163.959 108.416 164.145 108.399 164.329C108.382 164.512 108.326 164.691 108.237 164.852C108.068 165.159 107.823 165.416 107.525 165.599C107.243 165.781 106.925 165.899 106.592 165.942C106.259 165.985 105.921 165.952 105.602 165.847C105.014 165.624 104.49 165.259 104.077 164.785C103.685 164.345 103.328 163.875 103.008 163.38L103.237 163.273C103.324 163.619 103.299 163.985 103.165 164.316C103.031 164.647 102.794 164.927 102.49 165.115C102.226 165.312 101.92 165.444 101.595 165.501C101.271 165.558 100.937 165.539 100.622 165.444C100.048 165.254 99.5393 164.904 99.1567 164.436C98.8019 164.014 98.514 163.54 98.3031 163.031H98.4846C97.8461 164.57 97.3016 165.874 96.8312 166.99L96.7572 167.165L96.69 166.99C96.112 165.457 95.6549 164.301 95.3458 163.461L95.0097 162.554C94.9672 162.454 94.9334 162.35 94.9089 162.245C94.9651 162.338 95.0102 162.437 95.0433 162.54C95.1374 162.755 95.2584 163.051 95.4197 163.434L96.8312 166.936H96.69C97.1471 165.814 97.678 164.496 98.3031 162.95L98.3905 162.735L98.4846 162.95C98.6716 163.463 98.9646 163.93 99.3445 164.321C99.7244 164.713 100.183 165.02 100.689 165.222C100.969 165.303 101.265 165.317 101.551 165.265C101.838 165.212 102.109 165.094 102.343 164.92C102.605 164.763 102.812 164.527 102.933 164.246C103.053 163.964 103.082 163.652 103.015 163.354L102.739 162.513L103.243 163.239C103.875 164.147 104.587 165.189 105.71 165.585C105.989 165.675 106.285 165.7 106.576 165.661C106.867 165.621 107.145 165.517 107.39 165.357C107.648 165.217 107.854 164.997 107.975 164.73C108.096 164.463 108.127 164.164 108.062 163.878L107.847 163.253L108.311 163.73C108.994 164.429 109.756 165.045 110.583 165.565C111.013 165.84 111.462 166.085 111.927 166.298C112.349 166.548 112.828 166.686 113.318 166.701C113.422 166.697 113.522 166.662 113.606 166.601C113.689 166.54 113.753 166.455 113.789 166.358C113.811 166.252 113.808 166.143 113.781 166.038C113.755 165.933 113.704 165.836 113.634 165.753C113.303 165.355 112.894 165.03 112.431 164.799C111.495 164.228 110.51 163.742 109.487 163.347C107.348 162.509 105.064 162.1 102.766 162.144C101.596 162.159 100.455 162.516 99.4861 163.172C98.9984 163.495 98.5971 163.931 98.3171 164.445C98.0371 164.958 97.8869 165.532 97.8797 166.116C97.9169 166.76 98.098 167.388 98.4097 167.954C98.7215 168.519 99.1558 169.007 99.681 169.383C100.743 170.107 101.992 170.508 103.277 170.539C104.525 170.645 105.78 170.444 106.933 169.954C107.463 169.705 107.907 169.305 108.21 168.805C108.505 168.305 108.608 167.715 108.499 167.144C108.431 166.872 108.304 166.618 108.126 166.401C107.948 166.183 107.724 166.008 107.471 165.888C106.95 165.633 106.399 165.443 105.831 165.323C104.731 165.059 103.6 164.95 102.47 165C100.329 165.084 98.2459 165.719 96.4212 166.842L96.3338 166.58L112.062 165.814L116.43 165.619L117.573 165.578C117.698 165.574 117.824 165.576 117.949 165.585Z" fill="#263238"/>
<path d="M115.321 95.9191C115.321 96.0132 103.687 96.0939 89.3437 96.0939C75.0005 96.0939 63.3593 96.0132 63.3593 95.9191C63.3593 95.825 74.9938 95.7444 89.3437 95.7444C103.694 95.7444 115.321 95.8183 115.321 95.9191Z" fill="#263238"/>
<path d="M106.227 92.2829C106.483 92.2454 106.742 92.2297 107 92.2359V92.33C104.843 92.4039 97.4629 92.4577 88.7051 92.4577L75.229 92.4039L71.1425 92.3502L70.0334 92.3166C69.9064 92.3356 69.7773 92.3356 69.6503 92.3166C69.7763 92.2907 69.9049 92.2794 70.0334 92.2829H71.1425L75.229 92.2292L88.7051 92.1754C97.4428 92.1754 104.836 92.2292 107 92.3031V92.3972C106.74 92.3813 106.481 92.343 106.227 92.2829Z" fill="#263238"/>
<path d="M223.487 36.5367H125.329C120.938 36.5367 117.378 40.0966 117.378 44.488V186.092C117.378 190.483 120.938 194.043 125.329 194.043H223.487C227.878 194.043 231.438 190.483 231.438 186.092V44.488C231.438 40.0966 227.878 36.5367 223.487 36.5367Z" fill="#F5F5F5"/>
<path d="M125.397 36.5367H223.413C225.54 36.5367 227.579 37.3815 229.083 38.8853C230.587 40.3891 231.431 42.4286 231.431 44.5552V50.7253H117.378V44.5552C117.378 42.4286 118.223 40.3891 119.727 38.8853C121.23 37.3815 123.27 36.5367 125.397 36.5367Z" fill="#E0E0E0"/>
<path d="M124.59 45.8995C125.841 45.8995 126.855 44.8854 126.855 43.6345C126.855 42.3835 125.841 41.3694 124.59 41.3694C123.339 41.3694 122.325 42.3835 122.325 43.6345C122.325 44.8854 123.339 45.8995 124.59 45.8995Z" fill="white"/>
<path d="M131.392 45.8995C132.643 45.8995 133.657 44.8854 133.657 43.6345C133.657 42.3835 132.643 41.3694 131.392 41.3694C130.141 41.3694 129.127 42.3835 129.127 43.6345C129.127 44.8854 130.141 45.8995 131.392 45.8995Z" fill="white"/>
<path d="M138.261 45.8995C139.512 45.8995 140.526 44.8854 140.526 43.6345C140.526 42.3835 139.512 41.3694 138.261 41.3694C137.01 41.3694 135.996 42.3835 135.996 43.6345C135.996 44.8854 137.01 45.8995 138.261 45.8995Z" fill="white"/>
<path d="M226.29 50.7322H122.52V190.918H226.29V50.7322Z" fill="white"/>
<path d="M228.864 91.5572C228.525 91.5581 228.19 91.4921 227.878 91.3631C227.565 91.234 227.281 91.0445 227.042 90.8052C226.802 90.566 226.613 90.2819 226.484 89.9692C226.355 89.6564 226.289 89.3213 226.29 88.983V68.6579C226.29 67.9751 226.561 67.3204 227.044 66.8376C227.526 66.3548 228.181 66.0836 228.864 66.0836C229.546 66.0854 230.2 66.3572 230.682 66.8396C231.164 67.3219 231.436 67.9757 231.438 68.6579V88.9628C231.441 89.3026 231.376 89.6395 231.248 89.9541C231.12 90.2688 230.931 90.555 230.691 90.7961C230.452 91.0373 230.167 91.2288 229.854 91.3594C229.54 91.49 229.204 91.5573 228.864 91.5572Z" fill="#E0E0E0"/>
<path d="M223.164 194.05H223.507C223.848 194.04 224.187 194.002 224.522 193.936C225.839 193.717 227.082 193.174 228.138 192.356C229 191.699 229.723 190.877 230.266 189.94C230.809 189.002 231.162 187.966 231.304 186.892C231.378 186.222 231.402 185.548 231.378 184.875V182.718C231.378 181.239 231.378 179.66 231.378 178.013C231.378 164.624 231.378 145.26 231.324 121.332C231.324 109.368 231.324 96.262 231.324 82.1944C231.324 75.1639 231.324 67.896 231.324 60.3905C231.324 56.649 231.324 52.8403 231.324 48.9644V46.0608C231.365 45.0989 231.311 44.1353 231.162 43.1841C230.855 41.7548 230.17 40.4339 229.18 39.3584C228.189 38.2828 226.929 37.492 225.53 37.0677C224.586 36.7924 223.602 36.6743 222.62 36.7182H125.659C123.979 36.7193 122.341 37.2417 120.971 38.2133C119.601 39.1848 118.566 40.5576 118.01 42.1423C117.659 43.1987 117.504 44.3103 117.553 45.4223V58.8648C117.553 67.7593 117.553 76.5149 117.553 85.1315C117.553 102.345 117.553 118.953 117.553 134.775C117.553 150.597 117.553 165.632 117.553 179.7V184.936C117.522 185.786 117.581 186.638 117.728 187.476C117.904 188.297 118.206 189.086 118.622 189.815C119.027 190.541 119.546 191.197 120.161 191.758C121.371 192.876 122.892 193.603 124.523 193.841C125.333 193.93 126.148 193.962 126.963 193.936H145.742L202.416 193.989L217.827 194.023H221.86H223.205H221.86H217.827L202.416 194.056L145.742 194.11H126.963C126.137 194.142 125.31 194.111 124.489 194.016C123.651 193.905 122.836 193.66 122.076 193.29C121.305 192.931 120.595 192.453 119.972 191.872C119.338 191.287 118.798 190.607 118.373 189.856C117.948 189.099 117.638 188.284 117.452 187.436C117.298 186.578 117.237 185.706 117.271 184.835C117.271 183.105 117.271 181.362 117.271 179.606C117.271 165.538 117.271 150.503 117.271 134.681C117.271 118.859 117.271 102.251 117.271 85.0374V45.4223C117.222 44.2712 117.383 43.121 117.748 42.028C118.329 40.3906 119.4 38.9717 120.815 37.9641C122.23 36.9564 123.921 36.4088 125.659 36.3956H222.62C223.635 36.3567 224.649 36.4815 225.624 36.7653C227.07 37.2101 228.37 38.0337 229.39 39.1506C230.41 40.2674 231.112 41.6369 231.425 43.1169C231.58 44.0877 231.637 45.0718 231.593 46.0541V48.9644C231.593 52.8179 231.593 56.6266 231.593 60.3905C231.593 67.887 231.593 75.1549 231.593 82.1944C231.593 96.262 231.593 109.368 231.593 121.332C231.593 145.26 231.552 164.624 231.539 178.013C231.539 179.684 231.539 181.252 231.539 182.718C231.539 183.464 231.539 184.176 231.539 184.875C231.558 185.549 231.529 186.222 231.451 186.892C231.305 187.976 230.945 189.021 230.392 189.966C229.84 190.911 229.106 191.737 228.232 192.396C227.161 193.216 225.902 193.755 224.569 193.962C224.233 194.018 223.894 194.049 223.554 194.056L223.164 194.05Z" fill="#263238"/>
<path d="M199.707 60.8071C199.796 60.7952 199.887 60.7952 199.976 60.8071H200.816V60.9012C197.711 60.9751 187.098 61.0289 174.489 61.0289L155.125 60.9281L149.25 60.8743H147.651C147.464 60.8774 147.278 60.8661 147.093 60.8407C147.278 60.8221 147.465 60.8221 147.651 60.8407H149.25L155.125 60.7802L174.522 60.7332C187.131 60.7332 197.744 60.7869 200.85 60.8609V60.955H200.009C199.903 60.9185 199.801 60.8689 199.707 60.8071Z" fill="#263238"/>
<path d="M217.451 72.6906C217.451 72.7847 198.181 72.8654 174.435 72.8654C150.689 72.8654 131.385 72.7847 131.385 72.6906C131.385 72.5965 150.655 72.5159 174.435 72.5159C198.215 72.5159 217.451 72.5562 217.451 72.6906Z" fill="#263238"/>
<path d="M217.451 78.8337C217.451 78.9278 198.181 79.0084 174.435 79.0084C150.689 79.0084 131.385 78.9278 131.385 78.8337C131.385 78.7396 150.655 78.6589 174.435 78.6589C198.215 78.6589 217.451 78.7396 217.451 78.8337Z" fill="#263238"/>
<path d="M217.451 85.0106C217.451 85.1047 198.181 85.1853 174.435 85.1853C150.689 85.1853 131.385 85.1047 131.385 85.0106C131.385 84.9165 150.655 84.8358 174.435 84.8358C198.215 84.8358 217.451 84.9097 217.451 85.0106Z" fill="#263238"/>
<path d="M217.451 91.1806C217.451 91.2814 198.181 91.3554 174.435 91.3554C150.689 91.3554 131.385 91.2814 131.385 91.1806C131.385 91.0798 150.655 91.0059 174.435 91.0059C198.215 91.0059 217.451 91.0865 217.451 91.1806Z" fill="#263238"/>
<path d="M217.451 97.3576C217.451 97.4584 198.181 97.5324 174.435 97.5324C150.689 97.5324 131.385 97.4584 131.385 97.3576C131.385 97.2568 150.655 97.1829 174.435 97.1829C198.215 97.1829 217.451 97.2635 217.451 97.3576Z" fill="#263238"/>
<path d="M217.451 103.534C217.451 103.629 198.181 103.709 174.435 103.709C150.689 103.709 131.385 103.629 131.385 103.534C131.385 103.44 150.655 103.36 174.435 103.36C198.215 103.36 217.451 103.44 217.451 103.534Z" fill="#263238"/>
<path d="M217.451 163.3C217.451 163.394 198.181 163.475 174.435 163.475C150.689 163.475 131.385 163.394 131.385 163.3C131.385 163.206 150.655 163.125 174.435 163.125C198.215 163.125 217.451 163.199 217.451 163.3Z" fill="#263238"/>
<path d="M217.451 169.477C217.451 169.571 198.181 169.652 174.435 169.652C150.689 169.652 131.385 169.571 131.385 169.477C131.385 169.383 150.655 169.302 174.435 169.302C198.215 169.302 217.451 169.376 217.451 169.477Z" fill="#263238"/>
<path d="M217.451 175.654C217.451 175.748 198.181 175.829 174.435 175.829C150.689 175.829 131.385 175.748 131.385 175.654C131.385 175.56 150.655 175.479 174.435 175.479C198.215 175.479 217.451 175.526 217.451 175.654Z" fill="#263238"/>
<path d="M217.451 181.824C217.451 181.925 198.181 181.999 174.435 181.999C150.689 181.999 131.385 181.925 131.385 181.824C131.385 181.723 150.655 181.649 174.435 181.649C198.215 181.649 217.451 181.73 217.451 181.824Z" fill="#263238"/>
<path d="M138.705 114.033H135.66V148.016H138.705V114.033Z" fill="#F4C03B"/>
<path d="M144.579 125.574H141.534V148.016H144.579V125.574Z" fill="#F4C03B"/>
<path d="M150.453 118.254H147.409V148.184H150.453V118.254Z" fill="#F4C03B"/>
<path d="M156.328 115.343H153.283V148.015H156.328V115.343Z" fill="#F4C03B"/>
<path d="M162.202 126.266H159.157V148.016H162.202V126.266Z" fill="#F4C03B"/>
<path d="M168.077 130.534H165.032V148.016H168.077V130.534Z" fill="#F4C03B"/>
<path d="M173.951 117.521H170.906V148.016H173.951V117.521Z" fill="#F4C03B"/>
<path d="M179.825 123.02H176.781V148.016H179.825V123.02Z" fill="#F4C03B"/>
<path d="M185.7 118.624H182.655V148.016H185.7V118.624Z" fill="#F4C03B"/>
<path d="M191.574 127.993H188.529V148.016H191.574V127.993Z" fill="#F4C03B"/>
<path d="M203.296 117.521H200.251V148.016H203.296V117.521Z" fill="#F4C03B"/>
<path d="M215.771 137.141H212.726V147.572H215.771V137.141Z" fill="#F4C03B"/>
<path d="M209.688 127.993H206.643V148.016H209.688V127.993Z" fill="#F4C03B"/>
<path d="M197.449 124.182H194.404V148.016H197.449V124.182Z" fill="#F4C03B"/>
<path d="M216.624 118.395L216.356 118.348L215.583 118.194C215.165 118.103 214.744 118.036 214.319 117.992C213.742 117.91 213.161 117.86 212.578 117.844C210.979 117.791 209.379 117.928 207.813 118.254C205.741 118.697 203.749 119.451 201.905 120.492C199.668 121.752 197.646 123.361 195.916 125.258C194.005 127.502 192.317 129.926 190.875 132.497C189.249 135.151 187.602 138.035 185.209 140.508C184.013 141.787 182.6 142.843 181.035 143.627C180.224 144.023 179.355 144.288 178.461 144.413C177.553 144.536 176.631 144.506 175.732 144.326C173.968 143.891 172.335 143.035 170.973 141.832C169.654 140.694 168.474 139.404 167.458 137.988C165.442 135.239 163.963 132.275 162.411 129.573C161.043 126.963 159.349 124.537 157.37 122.354C156.453 121.391 155.403 120.565 154.251 119.901C153.708 119.591 153.145 119.319 152.564 119.088C152.004 118.88 151.432 118.71 150.85 118.577C148.786 118.101 146.634 118.161 144.599 118.752C143.063 119.192 141.613 119.889 140.311 120.815C139.497 121.413 138.743 122.088 138.059 122.831L137.535 123.423C137.414 123.557 137.354 123.624 137.347 123.618C137.394 123.541 137.448 123.469 137.508 123.403L138.006 122.784C138.675 122.018 139.42 121.322 140.23 120.707C141.536 119.754 142.996 119.031 144.545 118.57C146.608 117.95 148.795 117.872 150.897 118.342C153.454 118.918 155.779 120.248 157.571 122.159C159.579 124.349 161.296 126.789 162.679 129.418C164.246 132.107 165.704 135.078 167.727 137.793C168.729 139.185 169.894 140.453 171.195 141.57C172.511 142.739 174.091 143.569 175.799 143.99C176.66 144.163 177.544 144.193 178.414 144.077C179.272 143.953 180.106 143.699 180.887 143.324C182.416 142.555 183.797 141.522 184.967 140.273C187.326 137.847 189 134.983 190.606 132.335C192.066 129.751 193.774 127.315 195.708 125.063C197.458 123.159 199.5 121.546 201.757 120.284C203.628 119.243 205.648 118.495 207.746 118.066C209.327 117.756 210.941 117.636 212.551 117.71C213.139 117.739 213.724 117.799 214.306 117.891C214.732 117.941 215.154 118.02 215.569 118.126L216.342 118.315C216.439 118.332 216.533 118.359 216.624 118.395Z" fill="#263238"/>
<path d="M132.313 150.389C132.239 150.389 132.185 140.696 132.185 128.746C132.185 116.796 132.239 107.097 132.313 107.097C132.387 107.097 132.434 116.789 132.434 128.746C132.434 140.703 132.38 150.389 132.313 150.389Z" fill="#263238"/>
<path d="M215.771 150.388C215.771 150.456 197.516 150.509 175 150.509C152.483 150.509 134.222 150.456 134.222 150.388C134.222 150.321 152.47 150.261 175 150.261C197.529 150.261 215.771 150.314 215.771 150.388Z" fill="#263238"/>
<path d="M140.002 153.064C138.501 153.225 136.986 153.225 135.485 153.064C136.986 152.893 138.501 152.893 140.002 153.064Z" fill="#263238"/>
<path d="M147.489 153.198C145.701 153.358 143.901 153.358 142.112 153.198C143.901 153.029 145.701 153.029 147.489 153.198Z" fill="#263238"/>
<path d="M153.881 153.198C152.093 153.358 150.293 153.358 148.504 153.198C150.293 153.029 152.093 153.029 153.881 153.198Z" fill="#263238"/>
<path d="M160.266 153.198C158.478 153.358 156.678 153.358 154.889 153.198C156.678 153.029 158.478 153.029 160.266 153.198Z" fill="#263238"/>
<path d="M166.658 153.198C164.87 153.358 163.07 153.358 161.281 153.198C163.07 153.029 164.87 153.029 166.658 153.198Z" fill="#263238"/>
<path d="M173.05 153.198C171.262 153.358 169.462 153.358 167.673 153.198C169.462 153.029 171.262 153.029 173.05 153.198Z" fill="#263238"/>
<path d="M179.436 153.198C177.647 153.358 175.847 153.358 174.059 153.198C175.847 153.029 177.647 153.029 179.436 153.198Z" fill="#263238"/>
<path d="M185.828 153.198C184.039 153.358 182.239 153.358 180.451 153.198C182.239 153.029 184.039 153.029 185.828 153.198Z" fill="#263238"/>
<path d="M192.213 153.198C190.424 153.358 188.624 153.358 186.836 153.198C188.624 153.029 190.424 153.029 192.213 153.198Z" fill="#263238"/>
<path d="M198.605 153.198C196.816 153.358 195.016 153.358 193.228 153.198C195.016 153.029 196.816 153.029 198.605 153.198Z" fill="#263238"/>
<path d="M204.546 153.198C202.758 153.367 200.958 153.367 199.169 153.198C200.958 153.029 202.758 153.029 204.546 153.198Z" fill="#263238"/>
<path d="M210.488 153.198C208.7 153.367 206.899 153.367 205.111 153.198C206.9 153.038 208.699 153.038 210.488 153.198Z" fill="#263238"/>
<path d="M216.429 153.205C214.641 153.365 212.841 153.365 211.052 153.205C212.841 153.036 214.641 153.036 216.429 153.205Z" fill="#263238"/>
<path d="M163.372 129.855C163.372 129.801 163.741 129.936 163.862 130.447C163.938 130.74 163.904 131.05 163.768 131.32C163.724 131.41 163.661 131.489 163.585 131.554C163.509 131.619 163.42 131.667 163.325 131.697C163.222 131.727 163.114 131.736 163.008 131.723C162.902 131.71 162.799 131.676 162.706 131.623C162.537 131.527 162.397 131.385 162.303 131.214C162.209 131.043 162.165 130.85 162.175 130.655C162.188 130.502 162.232 130.353 162.304 130.217C162.377 130.082 162.478 129.963 162.599 129.869C162.679 129.801 162.773 129.753 162.874 129.729C162.976 129.704 163.082 129.704 163.184 129.727C163.325 129.768 163.372 129.835 163.365 129.855C163.358 129.875 163.056 129.761 162.753 130.057C162.591 130.219 162.497 130.438 162.491 130.668C162.488 130.804 162.522 130.938 162.588 131.056C162.654 131.174 162.751 131.272 162.868 131.341C162.919 131.373 162.977 131.394 163.037 131.404C163.098 131.413 163.159 131.41 163.218 131.395C163.277 131.38 163.333 131.353 163.381 131.316C163.429 131.279 163.47 131.232 163.499 131.179C163.61 130.974 163.655 130.739 163.627 130.507C163.593 130.273 163.506 130.05 163.372 129.855Z" fill="#263238"/>
<path d="M203.417 118.684C203.417 118.684 203.518 118.637 203.686 118.684C203.917 118.77 204.108 118.938 204.224 119.155C204.319 119.314 204.379 119.491 204.403 119.675C204.426 119.859 204.411 120.046 204.358 120.223C204.3 120.46 204.168 120.672 203.98 120.827C203.792 120.982 203.559 121.072 203.316 121.084C203.186 121.077 203.058 121.043 202.942 120.983C202.826 120.922 202.724 120.838 202.644 120.734C202.506 120.561 202.41 120.359 202.362 120.143C202.317 119.964 202.31 119.779 202.34 119.597C202.37 119.416 202.437 119.242 202.537 119.088C202.906 118.557 203.37 118.584 203.357 118.624C203.343 118.664 202.987 118.745 202.745 119.209C202.676 119.34 202.634 119.484 202.621 119.631C202.609 119.779 202.626 119.928 202.671 120.069C202.745 120.378 202.987 120.741 203.343 120.741C203.511 120.728 203.67 120.664 203.801 120.559C203.932 120.453 204.028 120.311 204.076 120.15C204.167 119.869 204.15 119.565 204.029 119.296C203.907 119.024 203.689 118.806 203.417 118.684Z" fill="#263238"/>
<path d="M337.023 19.028H204.553C200.162 19.028 196.602 22.5879 196.602 26.9792V215.968C196.602 220.359 200.162 223.919 204.553 223.919H337.023C341.414 223.919 344.974 220.359 344.974 215.968V26.9792C344.974 22.5879 341.414 19.028 337.023 19.028Z" fill="#F5F5F5"/>
<path d="M204.627 19.028H336.955C339.082 19.028 341.121 19.8728 342.625 21.3765C344.129 22.8803 344.974 24.9198 344.974 27.0464V37.4846H196.602V27.0464C196.602 25.9929 196.809 24.9496 197.213 23.9763C197.616 23.0031 198.207 22.1188 198.953 21.3741C199.698 20.6295 200.583 20.039 201.556 19.6364C202.53 19.2338 203.573 19.0271 204.627 19.028Z" fill="#E0E0E0"/>
<path d="M205.985 31.2066C207.614 31.2066 208.935 29.8855 208.935 28.2559C208.935 26.6263 207.614 25.3053 205.985 25.3053C204.355 25.3053 203.034 26.6263 203.034 28.2559C203.034 29.8855 204.355 31.2066 205.985 31.2066Z" fill="white"/>
<path d="M217.78 28.2563C217.782 28.8405 217.61 29.4119 217.286 29.8981C216.962 30.3844 216.501 30.7636 215.962 30.9878C215.423 31.2119 214.829 31.2709 214.256 31.1573C213.683 31.0437 213.156 30.7625 212.743 30.3494C212.33 29.9364 212.049 29.41 211.936 28.837C211.822 28.264 211.881 27.6702 212.105 27.1308C212.329 26.5913 212.708 26.1306 213.195 25.8069C213.681 25.4831 214.252 25.3111 214.837 25.3124C215.223 25.3124 215.606 25.3885 215.963 25.5365C216.32 25.6844 216.645 25.9013 216.918 26.1746C217.192 26.448 217.408 26.7725 217.556 27.1297C217.704 27.4869 217.78 27.8697 217.78 28.2563Z" fill="white"/>
<path d="M223.769 31.2066C225.399 31.2066 226.72 29.8855 226.72 28.2559C226.72 26.6263 225.399 25.3053 223.769 25.3053C222.14 25.3053 220.818 26.6263 220.818 28.2559C220.818 29.8855 222.14 31.2066 223.769 31.2066Z" fill="white"/>
<path d="M338.279 37.4846H203.296V219.839H338.279V37.4846Z" fill="white"/>
<path d="M341.707 57.4869H341.546C339.742 57.4869 338.279 58.9494 338.279 60.7535V87.3227C338.279 89.1267 339.742 90.5892 341.546 90.5892H341.707C343.511 90.5892 344.974 89.1267 344.974 87.3227V60.7535C344.974 58.9494 343.511 57.4869 341.707 57.4869Z" fill="#E0E0E0"/>
<path d="M336.707 223.919H337.157C337.609 223.895 338.059 223.834 338.501 223.738C340.215 223.35 341.762 222.427 342.917 221.103C343.771 220.142 344.38 218.989 344.691 217.742C345.081 216.398 344.92 214.792 344.954 213.111C344.954 209.751 344.954 205.846 344.954 201.47C344.954 183.948 344.954 158.602 344.9 127.281C344.9 111.62 344.9 94.4674 344.9 76.0578C344.9 66.8497 344.9 57.3346 344.9 47.5126C344.9 42.615 344.9 37.6413 344.9 32.5914V28.7603C344.978 27.5025 344.865 26.2402 344.564 25.0165C344.206 23.8022 343.57 22.6883 342.705 21.764C341.84 20.8396 340.771 20.1305 339.583 19.6933C338.987 19.4715 338.367 19.3225 337.735 19.2497C337.094 19.1923 336.45 19.1721 335.806 19.1892H204.896C203.43 19.1928 201.993 19.5911 200.734 20.3421C199.476 21.0931 198.443 22.1691 197.744 23.4572C197.071 24.7522 196.745 26.1994 196.797 27.658V49.6903C196.797 61.3405 196.797 72.8003 196.797 84.0696C196.797 106.606 196.797 128.343 196.797 149.051C196.797 169.759 196.797 189.439 196.797 207.855V214.698C196.729 215.812 196.847 216.929 197.146 218.004C197.458 219.059 197.987 220.036 198.699 220.874C199.397 221.705 200.254 222.388 201.22 222.882C202.187 223.376 203.242 223.672 204.324 223.751C206.482 223.818 208.653 223.751 210.79 223.785H235.37L309.553 223.838L329.716 223.872H334.966H336.754H334.966H329.716H309.553L235.37 223.933H210.743C208.599 223.933 206.455 223.966 204.257 223.933C202.57 223.821 200.955 223.204 199.624 222.16C198.293 221.117 197.308 219.697 196.797 218.085C196.495 216.992 196.372 215.857 196.434 214.724V207.855C196.434 189.439 196.434 169.759 196.434 149.051C196.434 128.343 196.434 106.606 196.434 84.0696V27.658C196.38 26.1392 196.725 24.6329 197.435 23.2892C198.161 21.9426 199.238 20.8175 200.551 20.0331C201.865 19.2486 203.366 18.8339 204.896 18.8329H335.725C336.382 18.8165 337.04 18.8367 337.695 18.8934C339.334 19.0928 340.879 19.7673 342.14 20.8337C343.402 21.9001 344.323 23.312 344.792 24.8955C345.103 26.1474 345.218 27.4396 345.135 28.7267V32.5242C345.135 37.5651 345.135 42.5389 345.135 47.4454C345.135 57.2585 345.135 66.7735 345.135 75.9906C345.135 94.4002 345.135 111.553 345.135 127.213C345.135 158.535 345.095 183.88 345.081 201.403C345.081 205.778 345.081 209.67 345.081 213.044C345.081 214.718 345.202 216.304 344.799 217.695C344.476 218.943 343.858 220.096 342.998 221.056C341.829 222.384 340.264 223.303 338.535 223.677C338.092 223.769 337.642 223.823 337.191 223.838L336.707 223.919Z" fill="#263238"/>
<path d="M216.517 65.0552H237.044L237.239 71.2253H236.371C235.948 69.2829 235.404 68.026 234.752 67.4412C234.1 66.8565 232.735 66.5607 230.611 66.5607H228.595V85.1383C228.595 86.5431 228.81 87.4101 229.267 87.7395C229.724 88.0688 230.658 88.2973 232.137 88.4116V89.0837H221.531V88.4116C223.07 88.2906 224.025 88.0419 224.401 87.6521C224.777 87.2623 224.972 86.3078 224.972 84.7216V66.5742H222.956C220.944 66.5742 219.577 66.8632 218.856 67.4412C218.13 68.0193 217.579 69.2896 217.216 71.2387H216.288L216.517 65.0552Z" fill="#263238"/>
<path d="M309.317 50.5909C309.443 50.5817 309.569 50.5817 309.694 50.5909H310.877V50.6783C306.515 50.7522 291.567 50.8127 273.829 50.8127L246.534 50.7186L238.26 50.6648H236.009H235.424H235.222H235.424H236.009H238.26L246.534 50.4699L273.836 50.4161C291.573 50.4161 306.521 50.4766 310.883 50.5506V50.6379H309.701C309.571 50.6397 309.442 50.6239 309.317 50.5909Z" fill="#263238"/>
<path d="M268.587 65.2971C268.587 65.3912 262.941 65.4718 255.977 65.4718C249.014 65.4718 243.362 65.3912 243.362 65.2971C243.362 65.203 249.007 65.1223 255.977 65.1223C262.947 65.1223 268.587 65.1761 268.587 65.2971Z" fill="#263238"/>
<path d="M268.587 71.2252C268.587 71.3193 262.941 71.3999 255.977 71.3999C249.014 71.3999 243.362 71.3193 243.362 71.2252C243.362 71.1311 249.007 71.0504 255.977 71.0504C262.947 71.0504 268.587 71.1311 268.587 71.2252Z" fill="#263238"/>
<path d="M268.587 77.1735C268.587 77.2743 262.941 77.3483 255.977 77.3483C249.014 77.3483 243.362 77.2743 243.362 77.1735C243.362 77.0727 249.007 76.9988 255.977 76.9988C262.947 76.9988 268.587 77.0794 268.587 77.1735Z" fill="#263238"/>
<path d="M268.587 83.1286C268.587 83.2227 262.941 83.3034 255.977 83.3034C249.014 83.3034 243.362 83.2227 243.362 83.1286C243.362 83.0345 249.007 82.9539 255.977 82.9539C262.947 82.9539 268.587 83.0278 268.587 83.1286Z" fill="#263238"/>
<path d="M268.587 89.077C268.587 89.1711 262.941 89.2517 255.977 89.2517C249.014 89.2517 243.362 89.1711 243.362 89.077C243.362 88.9829 249.007 88.9022 255.977 88.9022C262.947 88.9022 268.587 88.9829 268.587 89.077Z" fill="#263238"/>
<path d="M268.587 95.0252C268.587 95.126 256.656 95.2 241.95 95.2C227.244 95.2 215.314 95.126 215.314 95.0252C215.314 94.9244 227.237 94.8505 241.95 94.8505C256.663 94.8505 268.587 94.9311 268.587 95.0252Z" fill="#263238"/>
<path d="M268.587 100.698C268.587 100.792 256.656 100.873 241.95 100.873C227.244 100.873 215.314 100.792 215.314 100.698C215.314 100.604 227.237 100.523 241.95 100.523C256.663 100.523 268.587 100.597 268.587 100.698Z" fill="#263238"/>
<path d="M268.587 106.364C268.587 106.458 256.656 106.539 241.95 106.539C227.244 106.539 215.314 106.458 215.314 106.364C215.314 106.27 227.237 106.189 241.95 106.189C256.663 106.189 268.587 106.297 268.587 106.364Z" fill="#263238"/>
<path d="M268.587 112.03C268.587 112.124 256.656 112.205 241.95 112.205C227.244 112.205 215.314 112.124 215.314 112.03C215.314 111.936 227.237 111.855 241.95 111.855C256.663 111.855 268.587 111.936 268.587 112.03Z" fill="#263238"/>
<path d="M268.587 117.723C268.587 117.824 256.656 117.898 241.95 117.898C227.244 117.898 215.314 117.824 215.314 117.723C215.314 117.622 227.237 117.548 241.95 117.548C256.663 117.548 268.587 117.602 268.587 117.723Z" fill="#263238"/>
<path d="M268.587 123.362C268.587 123.463 256.656 123.537 241.95 123.537C227.244 123.537 215.314 123.463 215.314 123.362C215.314 123.261 227.237 123.187 241.95 123.187C256.663 123.187 268.587 123.268 268.587 123.362Z" fill="#263238"/>
<path d="M268.587 129.035C268.587 129.129 256.656 129.21 241.95 129.21C227.244 129.21 215.314 129.129 215.314 129.035C215.314 128.941 227.237 128.86 241.95 128.86C256.663 128.86 268.587 128.934 268.587 129.035Z" fill="#263238"/>
<path d="M268.587 134.701C268.587 134.795 256.656 134.876 241.95 134.876C227.244 134.876 215.314 134.795 215.314 134.701C215.314 134.607 227.237 134.526 241.95 134.526C256.663 134.526 268.587 134.6 268.587 134.701Z" fill="#263238"/>
<path d="M325.032 65.2971C325.032 65.3912 313.854 65.4718 300.069 65.4718C286.284 65.4718 275.099 65.3912 275.099 65.2971C275.099 65.203 286.277 65.1223 300.069 65.1223C313.861 65.1223 325.032 65.1761 325.032 65.2971Z" fill="#263238"/>
<path d="M325.032 70.9428C325.032 71.0369 313.854 71.1176 300.069 71.1176C286.284 71.1176 275.099 71.0369 275.099 70.9428C275.099 70.8487 286.277 70.7681 300.069 70.7681C313.861 70.7681 325.032 70.842 325.032 70.9428Z" fill="#263238"/>
<path d="M325.032 76.6091C325.032 76.7032 313.854 76.7838 300.069 76.7838C286.284 76.7838 275.099 76.7032 275.099 76.6091C275.099 76.515 286.277 76.4343 300.069 76.4343C313.861 76.4343 325.032 76.515 325.032 76.6091Z" fill="#263238"/>
<path d="M325.032 82.2751C325.032 82.3759 313.854 82.4499 300.069 82.4499C286.284 82.4499 275.099 82.3759 275.099 82.2751C275.099 82.1743 286.277 82.1003 300.069 82.1003C313.861 82.1003 325.032 82.181 325.032 82.2751Z" fill="#263238"/>
<path d="M325.032 87.941C325.032 88.0418 313.854 88.1157 300.069 88.1157C286.284 88.1157 275.099 88.0418 275.099 87.941C275.099 87.8402 286.277 87.7662 300.069 87.7662C313.861 87.7662 325.032 87.8469 325.032 87.941Z" fill="#263238"/>
<path d="M325.032 93.6137C325.032 93.7078 313.854 93.7885 300.069 93.7885C286.284 93.7885 275.099 93.7078 275.099 93.6137C275.099 93.5196 286.277 93.439 300.069 93.439C313.861 93.439 325.032 93.5263 325.032 93.6137Z" fill="#263238"/>
<path d="M325.032 99.28C325.032 99.3741 313.854 99.4547 300.069 99.4547C286.284 99.4547 275.099 99.3741 275.099 99.28C275.099 99.1859 286.277 99.1052 300.069 99.1052C313.861 99.1052 325.032 99.1792 325.032 99.28Z" fill="#263238"/>
<path d="M325.032 104.953C325.032 105.047 313.854 105.127 300.069 105.127C286.284 105.127 275.099 105.047 275.099 104.953C275.099 104.859 286.277 104.778 300.069 104.778C313.861 104.778 325.032 104.852 325.032 104.953Z" fill="#263238"/>
<path d="M268.587 148.795C268.587 148.896 256.771 148.97 242.192 148.97C227.614 148.97 215.804 148.896 215.804 148.795C215.804 148.695 227.62 148.621 242.192 148.621C256.764 148.621 268.587 148.701 268.587 148.795Z" fill="#263238"/>
<path d="M268.587 154.462C268.587 154.562 256.771 154.636 242.192 154.636C227.614 154.636 215.804 154.562 215.804 154.462C215.804 154.361 227.62 154.287 242.192 154.287C256.764 154.287 268.587 154.368 268.587 154.462Z" fill="#263238"/>
<path d="M268.587 160.134C268.587 160.228 256.771 160.309 242.192 160.309C227.614 160.309 215.804 160.228 215.804 160.134C215.804 160.04 227.62 159.96 242.192 159.96C256.764 159.96 268.587 160.067 268.587 160.134Z" fill="#263238"/>
<path d="M268.587 165.8C268.587 165.894 256.771 165.975 242.192 165.975C227.614 165.975 215.804 165.894 215.804 165.8C215.804 165.706 227.62 165.625 242.192 165.625C256.764 165.625 268.587 165.699 268.587 165.8Z" fill="#263238"/>
<path d="M268.587 171.493C268.587 171.587 256.771 171.668 242.192 171.668C227.614 171.668 215.804 171.587 215.804 171.493C215.804 171.399 227.62 171.318 242.192 171.318C256.764 171.318 268.587 171.372 268.587 171.493Z" fill="#263238"/>
<path d="M268.587 177.132C268.587 177.233 256.771 177.307 242.192 177.307C227.614 177.307 215.804 177.233 215.804 177.132C215.804 177.031 227.62 176.958 242.192 176.958C256.764 176.958 268.587 177.038 268.587 177.132Z" fill="#263238"/>
<path d="M268.587 182.799C268.587 182.899 256.771 182.973 242.192 182.973C227.614 182.973 215.804 182.899 215.804 182.799C215.804 182.698 227.62 182.624 242.192 182.624C256.764 182.624 268.587 182.704 268.587 182.799Z" fill="#263238"/>
<path d="M268.587 188.471C268.587 188.565 256.771 188.646 242.192 188.646C227.614 188.646 215.804 188.565 215.804 188.471C215.804 188.377 227.62 188.29 242.192 188.29C256.764 188.29 268.587 188.37 268.587 188.471Z" fill="#263238"/>
<path d="M268.587 194.446C268.587 194.547 256.771 194.621 242.192 194.621C227.614 194.621 215.804 194.547 215.804 194.446C215.804 194.345 227.62 194.271 242.192 194.271C256.764 194.271 268.587 194.345 268.587 194.446Z" fill="#263238"/>
<path d="M268.587 200.428C268.587 200.522 256.771 200.603 242.192 200.603C227.614 200.603 215.804 200.522 215.804 200.428C215.804 200.334 227.62 200.254 242.192 200.254C256.764 200.254 268.587 200.327 268.587 200.428Z" fill="#263238"/>
<path d="M268.587 206.444C268.587 206.538 256.771 206.618 242.192 206.618C227.614 206.618 215.804 206.538 215.804 206.444C215.804 206.35 227.62 206.269 242.192 206.269C256.764 206.269 268.587 206.309 268.587 206.444Z" fill="#263238"/>
<path d="M324.709 110.746H275.099V158.743H324.709V110.746Z" fill="#F4C03B"/>
<g opacity="0.3">
<path opacity="0.3" d="M278.944 154.629L292.669 129.936L303.893 145.717L310.715 137.336L320.865 154.629H278.944Z" fill="black"/>
</g>
<g opacity="0.3">
<path opacity="0.3" d="M308.679 125.116C308.68 125.824 308.471 126.516 308.079 127.105C307.687 127.695 307.128 128.154 306.475 128.425C305.821 128.697 305.101 128.768 304.407 128.63C303.713 128.493 303.075 128.152 302.575 127.651C302.074 127.151 301.734 126.513 301.596 125.819C301.458 125.125 301.529 124.405 301.801 123.752C302.072 123.098 302.532 122.54 303.121 122.147C303.71 121.755 304.402 121.546 305.11 121.547C306.056 121.547 306.964 121.923 307.634 122.593C308.303 123.262 308.679 124.17 308.679 125.116Z" fill="black"/>
</g>
<g opacity="0.3">
<path opacity="0.3" d="M320.865 154.764C320.859 154.699 320.859 154.634 320.865 154.569C320.865 154.428 320.865 154.24 320.865 154.011C320.865 153.5 320.865 152.775 320.865 151.847C320.865 149.945 320.865 147.196 320.811 143.701C320.811 136.691 320.75 126.703 320.71 114.719L320.912 114.92H278.998C278.944 114.974 279.441 114.477 279.233 114.692V120.123C279.233 121.924 279.233 123.705 279.233 125.466C279.233 128.995 279.233 132.449 279.233 135.81C279.233 142.531 279.233 148.883 279.233 154.73L279.031 154.529L309.331 154.63L317.779 154.69H320.051H320.636H320.844H320.663H320.092H317.867L309.364 154.744L278.931 154.851H278.722V154.643C278.722 148.796 278.722 142.444 278.722 135.723C278.722 132.362 278.722 128.907 278.722 125.379C278.722 123.618 278.722 121.836 278.722 120.035V114.604C278.514 114.813 279.011 114.309 278.964 114.362H320.878H321.08V114.564C321.039 126.602 320.999 136.63 320.979 143.674C320.979 147.149 320.938 149.884 320.925 151.78C320.925 152.687 320.925 153.4 320.925 153.897C320.925 154.125 320.925 154.3 320.925 154.435C320.918 154.546 320.897 154.657 320.865 154.764Z" fill="black"/>
</g>
<path d="M326.457 165.404C326.457 165.505 314.641 165.579 300.069 165.579C285.497 165.579 273.675 165.505 273.675 165.404C273.675 165.303 285.491 165.229 300.069 165.229C314.647 165.229 326.457 165.31 326.457 165.404Z" fill="#263238"/>
<path d="M326.457 171.07C326.457 171.171 314.641 171.245 300.069 171.245C285.497 171.245 273.675 171.171 273.675 171.07C273.675 170.969 285.491 170.895 300.069 170.895C314.647 170.895 326.457 170.976 326.457 171.07Z" fill="#263238"/>
<path d="M326.457 176.742C326.457 176.836 314.641 176.917 300.069 176.917C285.497 176.917 273.675 176.836 273.675 176.742C273.675 176.648 285.491 176.568 300.069 176.568C314.647 176.568 326.457 176.642 326.457 176.742Z" fill="#263238"/>
<path d="M326.457 182.408C326.457 182.503 314.641 182.583 300.069 182.583C285.497 182.583 273.675 182.503 273.675 182.408C273.675 182.314 285.517 182.247 300.069 182.247C314.621 182.247 326.457 182.308 326.457 182.408Z" fill="#263238"/>
<path d="M326.457 188.384C326.457 188.485 314.641 188.565 300.069 188.565C285.497 188.565 273.675 188.485 273.675 188.384C273.675 188.283 285.491 188.209 300.069 188.209C314.647 188.209 326.457 188.297 326.457 188.384Z" fill="#263238"/>
<path d="M326.457 194.346C326.457 194.446 314.641 194.52 300.069 194.52C285.497 194.52 273.675 194.446 273.675 194.346C273.675 194.245 285.491 194.171 300.069 194.171C314.647 194.171 326.457 194.272 326.457 194.346Z" fill="#263238"/>
<path d="M326.457 200.348C326.457 200.442 314.641 200.522 300.069 200.522C285.497 200.522 273.675 200.442 273.675 200.348C273.675 200.254 285.491 200.173 300.069 200.173C314.647 200.173 326.457 200.247 326.457 200.348Z" fill="#263238"/>
</svg>
