<svg width="419" height="332" viewBox="0 0 419 332" fill="none" xmlns="http://www.w3.org/2000/svg">
<path d="M417.684 331.134H0.389648V1.16887L417.925 0.389648L417.684 331.134Z" fill="#FAFAFA"/>
<path d="M417.665 331.134C417.665 328.054 417.665 198.777 417.48 0.389611L417.925 0.742123L1.03897 1.59556H0.389611L0.909093 1.16884C0.909093 121.875 0.909093 235.066 0.909093 331.134L0.463825 330.763L417.739 331.134L0.463825 331.486H0V331.115C0 235.048 0 121.856 0 1.15028V0.742123H1.16884L418.055 0H418.5V0.371061C418.036 198.777 417.684 328.054 417.665 331.134Z" fill="#263238"/>
<path d="M389.613 300.15H388.184H383.973L367.776 300.262L308.221 300.447L111.708 300.614H26.976H26.438V300.076C26.438 243.935 26.5864 195.66 26.6421 161.355C26.6421 144.268 26.7534 130.65 26.7905 121.281C26.7905 116.643 26.7905 113.062 26.7905 110.594C26.7905 109.407 26.7905 108.479 26.7905 107.83C26.7905 107.181 26.7905 106.884 26.7905 106.884C26.8069 107.199 26.8069 107.515 26.7905 107.83C26.7905 108.479 26.7905 109.407 26.7905 110.594C26.7905 113.062 26.7905 116.643 26.7905 121.281C26.7905 130.65 26.8833 144.268 26.9389 161.355C26.9389 195.66 27.0688 243.935 27.143 300.076L26.605 299.538H111.337L307.85 299.705L367.405 299.891L383.602 300.002H387.813L389.613 300.15Z" fill="#263238"/>
<path d="M93.0804 252.414H56.4568V289.037H93.0804V252.414Z" fill="#2C0BF1"/>
<path d="M146.773 226.235H110.149V289.056H146.773V226.235Z" fill="#E8505B"/>
<path d="M200.688 196.476H164.064V289.037H200.688V196.476Z" fill="#2C0BF1"/>
<path d="M252.97 163.378H216.346V289.056H252.97V163.378Z" fill="#E8505B"/>
<path d="M306.458 120.965H269.835V289.055H306.458V120.965Z" fill="#2C0BF1"/>
<path d="M359.539 88.6277H322.915V287.312H359.539V88.6277Z" fill="#E8505B"/>
<path d="M146.773 226.235H110.149V289.056H146.773V226.235Z" fill="#2C0BF1"/>
<path d="M252.97 163.378H216.346V289.056H252.97V163.378Z" fill="#2C0BF1"/>
<path d="M359.539 88.6277H322.915V287.312H359.539V88.6277Z" fill="#2C0BF1"/>
<path d="M56.4382 214.862C56.586 214.728 56.7477 214.61 56.9206 214.51L58.3491 213.527L63.915 209.816L84.917 195.994L157.608 148.48L158.443 147.923V148.925C158.443 154.12 158.443 159.667 158.443 165.326L157.571 164.862L186.216 145.66L287.312 78.1269L318.017 57.7186L326.403 52.1527L328.592 50.7612C328.835 50.5843 329.096 50.435 329.371 50.3159C329.149 50.5108 328.913 50.6905 328.666 50.854L326.533 52.3567L318.258 57.9226L287.776 78.7577L186.884 146.569L158.294 165.753L157.422 166.346V165.289C157.422 159.723 157.422 154.157 157.422 148.888L158.257 149.352L85.2881 196.569L64.1191 210.15L58.4419 213.731L56.9577 214.64C56.6237 214.788 56.4567 214.881 56.4382 214.862Z" fill="#263238"/>
<path d="M329.39 65.8818C329.061 64.4029 328.93 62.8869 329 61.3734C328.889 58.5719 328.833 54.6758 328.815 50.2417L329.39 50.8168H327.98C323.286 50.8168 319.037 50.8168 315.976 50.6498C314.302 50.7076 312.628 50.5706 310.985 50.2417C312.641 49.9741 314.321 49.8932 315.995 50.0005C319.056 49.8891 323.305 49.8335 327.998 49.8335H329.965V50.3901C329.965 54.7686 329.965 58.6647 329.78 61.5219C329.819 62.9854 329.688 64.4485 329.39 65.8818Z" fill="#263238"/>
<path d="M62.4679 95.3625C62.4679 95.3625 58.108 135.808 63.6739 157.96L117.719 155.586C117.719 155.586 106.142 115.697 113.247 98.0713L62.4679 95.3625Z" fill="#EBEBEB"/>
<path d="M62.6906 94.0635C62.6906 94.0635 63.0616 137.737 65.2694 151.058L120.056 148.461C120.056 148.461 115.233 105.529 117.088 94.0635H62.6906Z" fill="#F4C03B"/>
<path d="M108.832 112.413C108.832 112.598 100.631 113.266 90.483 113.878C80.3345 114.49 72.097 114.824 72.0784 114.62C72.0598 114.416 80.2788 113.748 90.4273 113.136C100.576 112.524 108.813 112.208 108.832 112.413Z" fill="white"/>
<path d="M108.85 121.652C108.85 121.856 100.65 122.506 90.5015 123.118C80.353 123.73 72.0969 124.064 72.0969 123.86C72.0969 123.656 80.2973 123.007 90.4458 122.394C100.594 121.782 108.832 121.448 108.85 121.652Z" fill="white"/>
<path d="M99.5368 130.743C98.5427 131.003 97.5215 131.147 96.4941 131.169C94.6388 131.355 91.9857 131.559 89.0729 131.726C86.1601 131.893 83.507 132.023 81.6517 132.06C80.6294 132.194 79.5942 132.194 78.5719 132.06C79.5726 131.801 80.5997 131.658 81.6331 131.633C83.4884 131.448 86.1415 131.244 89.0543 131.077C91.9672 130.91 94.6202 130.78 96.4755 130.743C97.4916 130.61 98.5207 130.61 99.5368 130.743Z" fill="white"/>
<path d="M199.426 44.249C199.426 44.5644 167.385 44.8056 127.867 44.8056C88.3494 44.8056 56.2527 44.5644 56.2527 44.249C56.2527 43.9336 88.2752 43.6738 127.793 43.6738C167.311 43.6738 199.426 43.9336 199.426 44.249Z" fill="#263238"/>
<path d="M108.869 57.2914C108.869 57.6068 96.8466 57.848 82.0413 57.848C67.236 57.848 55.1951 57.6068 55.1951 57.2914C55.1951 56.976 67.2175 56.7163 82.0413 56.7163C96.8652 56.7163 108.869 56.976 108.869 57.2914Z" fill="#263238"/>
<path d="M137.366 57.2914C137.366 57.6068 132.747 57.848 127.032 57.848C121.318 57.848 116.698 57.6068 116.698 57.2914C116.698 56.976 121.318 56.7163 127.032 56.7163C132.747 56.7163 137.366 56.976 137.366 57.2914Z" fill="#263238"/>
</svg>
