<svg width="1594" height="451" viewBox="0 0 1594 451" fill="none" xmlns="http://www.w3.org/2000/svg">
<path opacity="0.3" d="M1582.73 189.532L1544.42 48.3556C1545.84 47.5223 1547.05 46.356 1547.93 44.9561C1548.8 43.5563 1549.33 41.9646 1549.46 40.317C1549.59 38.6694 1549.32 37.0149 1548.67 35.4947C1548.02 33.9746 1547.02 32.6339 1545.74 31.5873C1544.46 30.5407 1542.95 29.8193 1541.33 29.4846C1539.71 29.1499 1538.04 29.2119 1536.45 29.6654C1534.86 30.1188 1533.4 30.9502 1532.21 32.0885C1531.01 33.2268 1530.1 34.6381 1529.57 36.2021L1338.35 19.2868C1337.99 16.6008 1336.57 14.1709 1334.41 12.5298C1332.25 10.8887 1329.53 10.1704 1326.85 10.5325C1324.16 10.8945 1321.73 12.3073 1320.08 14.461C1318.44 16.6148 1317.71 19.3337 1318.07 22.0215C1318.24 23.5372 1318.75 24.9948 1319.56 26.2853L1193.18 129.569C1191.92 128.465 1190.41 127.686 1188.79 127.3C1187.16 126.914 1185.46 126.934 1183.84 127.356C1182.23 127.779 1180.74 128.591 1179.51 129.724C1178.27 130.856 1177.34 132.272 1176.78 133.85L942.51 93.3002C942.514 92.9034 942.497 92.5067 942.458 92.1119C942.113 89.4453 940.735 87.0209 938.62 85.3614C936.505 83.7019 933.823 82.9402 931.153 83.2405C928.482 83.5409 926.036 84.8791 924.342 86.9669C922.648 89.0546 921.842 91.7245 922.098 94.4011C922.245 95.6614 922.621 96.8843 923.208 98.0095L797.105 183.897C795.923 182.611 794.43 181.649 792.771 181.104C791.111 180.558 789.339 180.447 787.625 180.781C785.91 181.115 784.309 181.882 782.975 183.01C781.641 184.139 780.618 185.59 780.004 187.226L589.165 146.073C589.169 146.015 589.169 145.957 589.165 145.898C588.87 143.374 587.649 141.05 585.738 139.376C583.827 137.702 581.362 136.797 578.822 136.839C576.282 136.88 573.848 137.864 571.992 139.599C570.137 141.335 568.992 143.698 568.779 146.231L453.123 157.161C452.801 155.101 451.857 153.189 450.419 151.681C448.98 150.173 447.116 149.14 445.074 148.721C443.033 148.302 440.913 148.516 438.997 149.336C437.081 150.156 435.461 151.542 434.354 153.308L169.572 14.1405C170.221 12.5519 170.462 10.8257 170.272 9.12004C170.081 7.41434 169.466 5.78367 168.483 4.37739C167.499 2.9711 166.179 1.83414 164.642 1.0707C163.106 0.307256 161.402 -0.0582875 159.688 0.00755135C157.973 0.0733902 156.303 0.568526 154.829 1.44757C153.356 2.32661 152.126 3.56148 151.253 5.03905C150.381 6.51663 149.892 8.18967 149.833 9.90495C149.774 11.6202 150.147 13.3229 150.916 14.857L64.1866 81.4087C63.1079 80.4186 61.829 79.6721 60.4365 79.2198C59.0441 78.7675 57.5707 78.6201 56.1163 78.7875C54.7771 78.9384 53.4808 79.3522 52.3017 80.005C51.1226 80.6579 50.0838 81.5371 49.2449 82.5922C48.4059 83.6473 47.7834 84.8577 47.4128 86.1539C47.0422 87.4501 46.9309 88.8067 47.0853 90.146C47.3073 92.1702 48.1271 94.0823 49.44 95.6385C50.7529 97.1946 52.4995 98.3243 54.4569 98.8833L31.3465 220.331H31.1282C29.7887 220.482 28.492 220.896 27.3124 221.549C26.1329 222.201 25.0936 223.08 24.2539 224.135C23.4143 225.19 22.7909 226.401 22.4193 227.697C22.0477 228.993 21.9353 230.35 22.0884 231.69C22.3057 233.609 23.0616 235.428 24.2687 236.935C25.4758 238.443 27.0849 239.578 28.9097 240.209L0 399.131L3.49362 394.142L204.106 371.565C204.683 373.732 205.954 375.65 207.726 377.024C209.497 378.399 211.671 379.153 213.913 379.172C216.154 379.191 218.34 378.473 220.135 377.129C221.929 375.784 223.233 373.888 223.845 371.731L374.665 391.346C374.665 391.66 374.665 391.975 374.726 392.298C375.071 394.965 376.449 397.389 378.563 399.049C380.678 400.708 383.36 401.47 386.031 401.17C388.702 400.869 391.148 399.531 392.842 397.443C394.535 395.356 395.341 392.686 395.085 390.009C394.992 389.231 394.81 388.466 394.544 387.729L577.086 290.492C578.026 291.813 579.267 292.892 580.706 293.639C582.145 294.385 583.741 294.779 585.363 294.787C586.984 294.794 588.584 294.416 590.03 293.683C591.477 292.95 592.728 291.883 593.68 290.57L757.383 379.428C756.855 380.879 756.662 382.43 756.818 383.966C756.974 385.501 757.475 386.982 758.284 388.297C759.092 389.611 760.187 390.726 761.487 391.558C762.787 392.389 764.258 392.916 765.791 393.099C767.323 393.281 768.877 393.115 770.335 392.612C771.794 392.109 773.121 391.283 774.216 390.196C775.31 389.108 776.145 387.786 776.657 386.33C777.17 384.874 777.346 383.321 777.174 381.787C777.174 381.595 777.113 381.42 777.087 381.237L1009.26 305.694C1009.97 307.119 1011 308.36 1012.27 309.317C1013.54 310.274 1015.01 310.922 1016.58 311.209C1018.14 311.495 1019.75 311.413 1021.28 310.969C1022.8 310.524 1024.2 309.729 1025.37 308.648L1138.23 399.428C1137.11 401.327 1136.63 403.543 1136.89 405.736C1137.14 408.001 1138.14 410.117 1139.73 411.75C1141.31 413.383 1143.4 414.438 1145.66 414.75C1147.92 415.062 1150.21 414.612 1152.18 413.472C1154.16 412.331 1155.69 410.565 1156.55 408.453L1284.63 439.645C1284.56 440.34 1284.56 441.039 1284.63 441.734C1284.78 443.07 1285.2 444.364 1285.85 445.542C1286.5 446.719 1287.37 447.756 1288.42 448.595C1289.48 449.433 1290.68 450.056 1291.97 450.429C1293.27 450.801 1294.62 450.915 1295.96 450.764C1297.29 450.613 1298.59 450.2 1299.76 449.549C1300.94 448.898 1301.98 448.022 1302.81 446.97C1303.65 445.918 1304.28 444.711 1304.65 443.419C1305.02 442.126 1305.13 440.772 1304.98 439.436C1304.95 439.077 1304.89 438.721 1304.81 438.37L1526.44 353.531C1527.23 354.927 1528.33 356.118 1529.66 357.01C1531 357.901 1532.52 358.468 1534.11 358.664C1535.7 358.86 1537.31 358.679 1538.82 358.138C1540.33 357.596 1541.69 356.708 1542.79 355.544C1543.89 354.381 1544.7 352.975 1545.16 351.44C1545.62 349.905 1545.72 348.283 1545.44 346.706C1545.16 345.128 1544.51 343.638 1543.55 342.356C1542.59 341.074 1541.34 340.035 1539.9 339.324L1581.58 209.768C1583.03 210.084 1584.53 210.082 1585.97 209.762C1587.42 209.443 1588.78 208.814 1589.96 207.918C1591.13 207.022 1592.11 205.88 1592.8 204.573C1593.5 203.265 1593.9 201.822 1593.98 200.343C1594.07 198.864 1593.83 197.385 1593.29 196.007C1592.74 194.629 1591.91 193.385 1590.84 192.361C1589.77 191.338 1588.49 190.559 1587.09 190.078C1585.69 189.597 1584.2 189.426 1582.73 189.576V189.532ZM1534.14 48.3469L1494.83 134.278L1338 24.066C1338.18 23.4961 1338.32 22.9116 1338.41 22.3186L1356.37 23.9088L1529.05 39.1903C1529.04 39.6773 1529.06 40.1646 1529.11 40.6494C1529.29 42.2366 1529.83 43.7598 1530.71 45.0966C1531.58 46.4335 1532.76 47.5467 1534.14 48.3469ZM1203.05 380.485L1424.38 278.731C1424.66 279.174 1424.99 279.595 1425.34 279.989L1300.19 431.756C1298.12 430.502 1295.68 430.022 1293.3 430.403C1290.91 430.784 1288.74 432 1287.17 433.835L1203.05 380.485ZM1336.63 26.7571L1493.55 137.039L1435.79 263.266C1434.5 262.896 1433.14 262.783 1431.8 262.934C1431.36 262.981 1430.93 263.06 1430.51 263.17L1334.82 28.758C1335.51 28.1739 1336.11 27.5011 1336.63 26.7571ZM1443.12 271.969C1443.04 271.289 1442.9 270.619 1442.69 269.968L1572.98 205.434L1465.72 295.349L1441.99 277.875C1442.95 276.072 1443.34 274.023 1443.12 271.995V271.969ZM1463.35 297.307L1306.48 428.794L1427.63 281.885C1429.6 283.076 1431.9 283.57 1434.18 283.288C1436.46 283.006 1438.57 281.964 1440.19 280.33L1463.35 297.307ZM1200.02 378.502L1172.36 360.966C1173.11 359.308 1173.39 357.478 1173.19 355.672C1173.19 355.532 1173.14 355.401 1173.12 355.261L1411.3 281.37L1200.02 378.502ZM1196.76 380.005L1155.71 398.869C1154.72 397.379 1153.36 396.175 1151.77 395.374L1161.25 366.969C1162.99 367.281 1164.79 367.132 1166.45 366.536C1168.12 365.94 1169.61 364.917 1170.76 363.57L1196.76 380.005ZM1140.2 396.955L1027.34 306.175C1027.35 306.132 1027.38 306.091 1027.41 306.053L1153.03 354.579C1152.53 356.799 1152.78 359.122 1153.75 361.18C1154.72 363.238 1156.35 364.913 1158.38 365.938L1148.91 394.369C1147.36 394.089 1145.76 394.175 1144.24 394.621C1142.73 395.067 1141.34 395.86 1140.18 396.938L1140.2 396.955ZM1010.06 295.262L860.253 223.197L929.086 102.99C930.491 103.456 931.982 103.608 933.453 103.435C934.123 103.364 934.785 103.223 935.427 103.016L1013.29 292.274C1011.99 293.036 1010.88 294.078 1010.03 295.323L1010.06 295.262ZM1068.17 250.431L1024.69 292.894C1022.6 291.296 1019.97 290.57 1017.35 290.867C1016.91 290.922 1016.47 291.004 1016.04 291.112L938.099 101.688L938.274 101.557L1068.17 250.431ZM1070.15 252.703L1155.22 350.228C1154.8 350.72 1154.43 351.25 1154.11 351.81L1028.49 303.309C1028.81 301.895 1028.83 300.427 1028.54 299.005C1028.24 297.584 1027.65 296.242 1026.79 295.07L1070.15 252.703ZM1072.31 250.597L1180.09 145.296C1181.2 146.157 1182.46 146.787 1183.81 147.148L1179.96 183.311L1162.58 346.637C1162.35 346.637 1162.11 346.637 1161.87 346.637C1160.31 346.817 1158.82 347.353 1157.5 348.201L1072.31 250.597ZM1194.67 143.312L1251.44 174.662L1166.15 347.118L1165.57 346.952L1183.04 182.822L1186.8 147.48C1187.06 147.476 1187.31 147.458 1187.56 147.428C1188.97 147.275 1190.32 146.831 1191.55 146.126C1192.77 145.42 1193.83 144.468 1194.67 143.33V143.312ZM1254.06 176.112L1423.35 269.566C1422.79 271.069 1422.58 272.686 1422.76 274.284C1422.76 274.424 1422.81 274.555 1422.83 274.695L1172.23 352.456C1171.46 350.867 1170.3 349.501 1168.85 348.49L1254.06 176.112ZM1255.4 173.412L1325.93 30.8287C1328.01 31.3232 1330.2 31.1427 1332.18 30.3132L1427.72 264.332C1426.59 265.01 1425.6 265.9 1424.8 266.953L1255.4 173.412ZM1496.03 138.813L1575.01 194.32C1573.8 196.266 1573.28 198.567 1573.54 200.847C1573.54 201.144 1573.62 201.433 1573.68 201.721L1441.33 267.25C1440.57 266.16 1439.61 265.229 1438.5 264.507L1496.03 138.813ZM1537.01 338.337C1536.08 338.183 1535.14 338.157 1534.2 338.258C1531.88 338.517 1529.72 339.566 1528.08 341.229L1468.2 297.193L1576.21 206.649C1576.94 207.443 1577.8 208.116 1578.74 208.641L1537.01 338.337ZM1303.81 435.478C1303.75 435.364 1303.68 435.268 1303.61 435.155L1465.82 299.185L1526.33 343.667C1525.37 345.486 1524.98 347.554 1525.21 349.599C1525.25 349.961 1525.31 350.32 1525.39 350.674L1303.81 435.478ZM1157.32 405.448C1157.39 404.756 1157.39 404.06 1157.32 403.368C1157.25 402.777 1157.13 402.192 1156.97 401.621L1199.76 381.936L1285.53 436.325C1285.48 436.419 1285.44 436.515 1285.4 436.614L1157.32 405.448ZM776.24 378.31C775.568 376.951 774.605 375.757 773.419 374.815L858.75 225.801L1008.72 298.023C1008.3 299.373 1008.17 300.795 1008.32 302.199C1008.32 302.392 1008.38 302.566 1008.42 302.759L776.24 378.31ZM183.625 122.352C181.306 123.274 179.403 125.011 178.271 127.236L107.429 103.182L155.676 19.5401C157.041 20.1895 158.532 20.5296 160.043 20.5362L183.625 122.352ZM390.15 382.285C389.74 382.039 389.314 381.82 388.875 381.63L442.319 168.974C444.78 169.153 447.222 168.426 449.184 166.929L516.742 226.107L390.15 382.285ZM380.001 382.119L306.845 286.132L437.131 167.13C437.829 167.61 438.583 168.003 439.376 168.301L385.958 380.896C385.241 380.818 384.518 380.818 383.801 380.896C382.467 381.052 381.176 381.468 380.001 382.119ZM305.011 283.729L194.717 139.014C195.951 137.743 196.836 136.175 197.285 134.461L432.869 160.018C433.087 161.852 433.807 163.59 434.947 165.042L305.011 283.729ZM302.784 285.773L220.5 360.914C218.768 359.501 216.62 358.697 214.386 358.625L190.018 141.766C190.826 141.555 191.603 141.244 192.333 140.84L302.784 285.773ZM89.987 272.012L182.76 141.006C184.081 141.676 185.533 142.045 187.014 142.089L211.408 358.974C209.716 359.417 208.169 360.294 206.919 361.517L89.987 272.012ZM87.5939 270.177L41.5392 234.896C42.3412 233.158 42.6436 231.231 42.4126 229.331C42.2953 228.29 42.0184 227.273 41.5916 226.316L179.642 138.594C179.852 138.839 180.07 139.066 180.297 139.284L87.5939 270.177ZM85.8471 272.641L5.39765 386.226L31.8706 240.689C32.3853 240.724 32.9018 240.724 33.4165 240.689C35.8711 240.402 38.1375 239.231 39.7924 237.395L85.8471 272.641ZM38.6832 222.454L105.935 105.847L177.336 130.049C177.163 131.03 177.131 132.03 177.24 133.02C177.352 134.051 177.623 135.06 178.044 136.008L39.6352 223.346C39.3212 223.035 38.9887 222.743 38.6395 222.472L38.6832 222.454ZM453.202 160.184L568.972 149.236C569.273 150.603 569.852 151.894 570.672 153.029C571.493 154.164 572.537 155.118 573.74 155.833L518.716 223.765L451.298 164.806C452.288 163.442 452.927 161.854 453.158 160.184H453.202ZM660.566 248.247L593.942 278.749C593.127 277.559 592.07 276.555 590.841 275.803C589.611 275.05 588.236 274.565 586.807 274.38L585.986 221.598L584.955 155.3C585.688 154.767 586.348 154.141 586.92 153.439L660.566 248.247ZM520.908 225.748L576.614 157.012C577.757 157.288 578.94 157.359 580.108 157.222C580.747 157.15 581.379 157.018 581.994 156.829L582.998 221.485L583.82 274.45C582.045 274.745 580.379 275.501 578.99 276.643L520.908 225.748ZM706.533 174.469L779.375 190.196C779.319 190.795 779.319 191.398 779.375 191.996C779.438 192.574 779.555 193.144 779.724 193.7L663.404 246.936L588.553 150.608C588.73 150.117 588.876 149.615 588.99 149.105L706.533 174.469ZM762.047 373.941L665.282 249.4L781.008 196.417C782.38 198.529 784.482 200.06 786.913 200.716L766.763 372.639C766.484 372.639 766.213 372.639 765.89 372.692C764.538 372.847 763.231 373.272 762.047 373.941ZM798.057 196.575L856.034 224.534L770.833 373.33C770.487 373.198 770.134 373.084 769.776 372.989L772.397 350.7L789.9 201.066C790.179 201.066 790.45 201.066 790.729 201.066C792.203 200.895 793.622 200.406 794.887 199.632C796.152 198.858 797.234 197.818 798.057 196.583V196.575ZM595.156 287.835C595.654 286.397 595.824 284.866 595.654 283.353C595.583 282.709 595.449 282.074 595.252 281.457L662.461 250.693L759.671 375.793C759.396 376.086 759.14 376.396 758.902 376.72L595.156 287.835ZM393.172 384.985C392.962 384.698 392.735 384.423 392.491 384.164L519.004 228.09L576.937 278.836C575.605 280.844 575.024 283.257 575.295 285.651C575.373 286.365 575.528 287.068 575.758 287.748L393.172 384.985ZM224.273 368.681C224.273 368.367 224.273 368.044 224.212 367.729C224.031 366.088 223.452 364.517 222.526 363.151L304.627 288.176L377.617 383.945C376.432 385.171 375.57 386.672 375.11 388.314L224.273 368.681ZM5.86929 390.787L88.2402 274.467L205.084 363.911C204.302 365.32 203.865 366.895 203.809 368.507L5.86929 390.787ZM57.4526 99.1891C57.7671 99.1891 58.0902 99.1891 58.4047 99.1279C60.28 98.9273 62.0633 98.2114 63.5571 97.0594C65.0508 95.9075 66.1968 94.3644 66.868 92.6012L103.036 104.833L36.028 220.952C35.4922 220.741 34.9401 220.574 34.3773 220.454L57.4526 99.1891ZM152.654 17.3296C152.817 17.516 152.992 17.6907 153.178 17.8538L104.529 102.195L67.4706 89.6655C67.5272 89.0552 67.5272 88.4409 67.4706 87.8306C67.3096 86.3977 66.8451 85.0157 66.1081 83.7765L152.654 17.3296ZM433.148 156.069C433.061 156.37 432.991 156.677 432.939 156.986L319.885 144.71L197.608 131.438C197.604 131.193 197.586 130.948 197.556 130.704C197.254 128.059 195.933 125.635 193.873 123.948C191.813 122.261 189.177 121.444 186.525 121.67L162.943 20.1081C164.918 19.5146 166.668 18.3393 167.965 16.7355L433.148 156.069ZM924.981 100.43C925.415 100.871 925.889 101.271 926.395 101.627L857.536 221.887L799.367 193.875C800.136 191.397 799.933 188.72 798.8 186.387L924.981 100.43ZM1176.21 136.847C1176.16 137.379 1176.16 137.914 1176.21 138.446C1176.39 140.14 1176.99 141.762 1177.95 143.164L1070.32 248.343L940.431 99.4425C941.156 98.493 941.706 97.422 942.056 96.2796L1176.21 136.847ZM1321.53 28.6094C1322.03 29.0441 1322.57 29.4331 1323.14 29.7715L1252.79 171.971L1196.08 140.665C1196.6 139.222 1196.78 137.679 1196.61 136.155C1196.45 134.63 1195.93 133.163 1195.12 131.866L1321.53 28.6094ZM1541.63 49.509L1579.83 190.301C1578.8 190.724 1577.85 191.314 1577.01 192.049L1497.35 136.069L1536.94 49.474C1538.08 49.7456 1539.27 49.8195 1540.43 49.6924C1540.83 49.6342 1541.22 49.5614 1541.61 49.474L1541.63 49.509Z" fill="white" fill-opacity="0.38"/>
</svg>
