<svg width="434" height="285" viewBox="0 0 434 285" fill="none" xmlns="http://www.w3.org/2000/svg">
<g filter="url(#filter0_b)">
<rect width="434" height="285" rx="10" fill="#191A1D" fill-opacity="0.5"/>
<rect x="0.5" y="0.5" width="433" height="284" rx="9.5" stroke="#E0E8FE"/>
</g>
<g filter="url(#filter1_b)">
<path d="M0 10C0 4.47715 4.47715 0 10 0H424C429.523 0 434 4.47715 434 10V42H0V10Z" fill="#191A1D" fill-opacity="0.4"/>
<path d="M0.5 10C0.5 4.75329 4.7533 0.5 10 0.5H424C429.247 0.5 433.5 4.7533 433.5 10V41.5H0.5V10Z" stroke="#E0E8FE"/>
</g>
<path d="M0.5 42L433.5 42" stroke="#E0E8FE"/>
<circle cx="22" cy="20" r="6" fill="#F84D4D"/>
<circle cx="44" cy="20" r="6" fill="#F4C03B"/>
<circle cx="66" cy="20" r="6" fill="#4ED36B"/>
<rect x="46.5" y="160" width="122" height="32" fill="#2C0BF1"/>
<rect x="347" y="160" width="40" height="32" fill="#2C0BF1"/>
<path d="M59.724 182.743C58.14 182.743 56.901 182.2 56.007 181.114C55.113 180.028 54.666 178.414 54.666 176.272C54.666 174.856 54.915 173.671 55.413 172.717C55.917 171.757 56.58 171.037 57.402 170.557C58.224 170.071 59.118 169.828 60.084 169.828C60.93 169.828 61.635 169.954 62.199 170.206C62.769 170.458 63.297 170.809 63.783 171.259L62.613 172.474C62.235 172.132 61.848 171.877 61.452 171.709C61.062 171.541 60.624 171.457 60.138 171.457C59.556 171.457 59.016 171.613 58.518 171.925C58.02 172.231 57.618 172.738 57.312 173.446C57.006 174.148 56.853 175.093 56.853 176.281C56.853 178.015 57.102 179.254 57.6 179.998C58.098 180.742 58.839 181.114 59.823 181.114C60.555 181.114 61.239 180.94 61.875 180.592V177.172H59.769L59.544 175.579H63.9V181.6C63.312 181.936 62.685 182.212 62.019 182.428C61.359 182.638 60.594 182.743 59.724 182.743Z" fill="white"/>
<path d="M70.202 172.744C71.594 172.744 72.656 173.197 73.388 174.103C74.12 175.009 74.486 176.218 74.486 177.73C74.486 178.738 74.318 179.617 73.982 180.367C73.652 181.117 73.166 181.702 72.524 182.122C71.888 182.536 71.111 182.743 70.193 182.743C68.807 182.743 67.745 182.296 67.007 181.402C66.269 180.502 65.9 179.284 65.9 177.748C65.9 176.764 66.065 175.897 66.395 175.147C66.731 174.391 67.22 173.803 67.862 173.383C68.504 172.957 69.284 172.744 70.202 172.744ZM70.202 174.31C69.476 174.31 68.93 174.589 68.564 175.147C68.198 175.699 68.015 176.566 68.015 177.748C68.015 178.93 68.195 179.8 68.555 180.358C68.921 180.91 69.467 181.186 70.193 181.186C70.919 181.186 71.462 180.907 71.822 180.349C72.188 179.791 72.371 178.918 72.371 177.73C72.371 176.56 72.191 175.699 71.831 175.147C71.471 174.589 70.928 174.31 70.202 174.31Z" fill="white"/>
<path d="M80.995 172.744C82.387 172.744 83.449 173.197 84.181 174.103C84.913 175.009 85.279 176.218 85.279 177.73C85.279 178.738 85.111 179.617 84.775 180.367C84.445 181.117 83.959 181.702 83.317 182.122C82.681 182.536 81.904 182.743 80.986 182.743C79.6 182.743 78.538 182.296 77.8 181.402C77.062 180.502 76.693 179.284 76.693 177.748C76.693 176.764 76.858 175.897 77.188 175.147C77.524 174.391 78.013 173.803 78.655 173.383C79.297 172.957 80.077 172.744 80.995 172.744ZM80.995 174.31C80.269 174.31 79.723 174.589 79.357 175.147C78.991 175.699 78.808 176.566 78.808 177.748C78.808 178.93 78.988 179.8 79.348 180.358C79.714 180.91 80.26 181.186 80.986 181.186C81.712 181.186 82.255 180.907 82.615 180.349C82.981 179.791 83.164 178.918 83.164 177.73C83.164 176.56 82.984 175.699 82.624 175.147C82.264 174.589 81.721 174.31 80.995 174.31Z" fill="white"/>
<path d="M95.9819 171.79L96.5219 173.464C96.1439 173.59 95.7269 173.674 95.2709 173.716C94.8209 173.758 94.3169 173.779 93.7589 173.779C94.3289 174.031 94.7579 174.355 95.0459 174.751C95.3339 175.141 95.4779 175.621 95.4779 176.191C95.4779 176.809 95.3279 177.361 95.0279 177.847C94.7279 178.333 94.2959 178.714 93.7319 178.99C93.1739 179.266 92.5079 179.404 91.7339 179.404C91.4579 179.404 91.2179 179.392 91.0139 179.368C90.8159 179.344 90.6209 179.305 90.4289 179.251C90.1469 179.437 90.0059 179.698 90.0059 180.034C90.0059 180.226 90.0839 180.394 90.2399 180.538C90.4019 180.676 90.7199 180.745 91.1939 180.745H92.8499C93.5279 180.745 94.1249 180.862 94.6409 181.096C95.1629 181.324 95.5709 181.639 95.8649 182.041C96.1649 182.437 96.3149 182.887 96.3149 183.391C96.3149 184.339 95.9069 185.074 95.0909 185.596C94.2749 186.118 93.0989 186.379 91.5629 186.379C90.4709 186.379 89.6159 186.268 88.9979 186.046C88.3859 185.824 87.9539 185.494 87.7019 185.056C87.4499 184.618 87.3239 184.081 87.3239 183.445H89.1329C89.1329 183.781 89.1959 184.057 89.3219 184.273C89.4539 184.489 89.6969 184.648 90.0509 184.75C90.4049 184.858 90.9149 184.912 91.5809 184.912C92.5709 184.912 93.2699 184.789 93.6779 184.543C94.0859 184.303 94.2899 183.964 94.2899 183.526C94.2899 183.136 94.1219 182.836 93.7859 182.626C93.4499 182.422 92.9999 182.32 92.4359 182.32H90.8069C89.9069 182.32 89.2469 182.137 88.8269 181.771C88.4129 181.405 88.2059 180.979 88.2059 180.493C88.2059 179.809 88.5599 179.236 89.2679 178.774C88.6979 178.474 88.2809 178.111 88.0169 177.685C87.7589 177.253 87.6299 176.731 87.6299 176.119C87.6299 175.447 87.7979 174.859 88.1339 174.355C88.4699 173.851 88.9349 173.458 89.5289 173.176C90.1289 172.894 90.8189 172.753 91.5989 172.753C92.3609 172.759 92.9969 172.72 93.5069 172.636C94.0169 172.552 94.4609 172.438 94.8389 172.294C95.2229 172.144 95.6039 171.976 95.9819 171.79ZM91.6169 174.139C90.9749 174.139 90.4919 174.322 90.1679 174.688C89.8439 175.048 89.6819 175.519 89.6819 176.101C89.6819 176.701 89.8469 177.184 90.1769 177.55C90.5069 177.91 90.9959 178.09 91.6439 178.09C92.2379 178.09 92.6909 177.916 93.0029 177.568C93.3209 177.22 93.4799 176.725 93.4799 176.083C93.4799 174.787 92.8589 174.139 91.6169 174.139Z" fill="white"/>
<path d="M102.95 169.18V179.908C102.95 180.346 103.082 180.658 103.346 180.844C103.616 181.024 103.964 181.114 104.39 181.114C104.66 181.114 104.918 181.087 105.164 181.033C105.416 180.973 105.659 180.895 105.893 180.799L106.406 182.203C106.124 182.347 105.776 182.473 105.362 182.581C104.954 182.689 104.486 182.743 103.958 182.743C103.004 182.743 102.26 182.473 101.726 181.933C101.198 181.393 100.934 180.658 100.934 179.728V170.665H98.0629V169.18H102.95Z" fill="white"/>
<path d="M111.241 178.396C111.301 179.374 111.574 180.082 112.06 180.52C112.552 180.958 113.143 181.177 113.833 181.177C114.295 181.177 114.724 181.105 115.12 180.961C115.522 180.817 115.924 180.613 116.326 180.349L117.199 181.555C116.755 181.915 116.236 182.203 115.642 182.419C115.048 182.635 114.412 182.743 113.734 182.743C112.744 182.743 111.907 182.533 111.223 182.113C110.545 181.693 110.029 181.108 109.675 180.358C109.327 179.608 109.153 178.741 109.153 177.757C109.153 176.803 109.327 175.951 109.675 175.201C110.023 174.445 110.521 173.848 111.169 173.41C111.817 172.966 112.591 172.744 113.491 172.744C114.751 172.744 115.747 173.167 116.479 174.013C117.217 174.859 117.586 176.02 117.586 177.496C117.586 177.658 117.58 177.82 117.568 177.982C117.562 178.138 117.553 178.276 117.541 178.396H111.241ZM113.509 174.238C112.879 174.238 112.357 174.463 111.943 174.913C111.529 175.363 111.292 176.065 111.232 177.019H115.633C115.615 176.125 115.423 175.438 115.057 174.958C114.697 174.478 114.181 174.238 113.509 174.238Z" fill="white"/>
<path d="M131.702 182.5V170.08H133.79V180.754H139.352L139.127 182.5H131.702Z" fill="white"/>
<path d="M142.495 182.5V170.08H144.583V180.754H150.145L149.92 182.5H142.495Z" fill="white"/>
<path d="M157.581 169.828C158.421 169.828 159.129 169.939 159.705 170.161C160.281 170.377 160.821 170.689 161.325 171.097L160.236 172.393C159.498 171.781 158.646 171.475 157.68 171.475C157.062 171.475 156.492 171.631 155.97 171.943C155.448 172.255 155.028 172.762 154.71 173.464C154.398 174.166 154.242 175.102 154.242 176.272C154.242 177.418 154.392 178.342 154.692 179.044C154.992 179.746 155.4 180.256 155.916 180.574C156.438 180.892 157.026 181.051 157.68 181.051C158.346 181.051 158.898 180.943 159.336 180.727C159.774 180.505 160.161 180.256 160.497 179.98L161.505 181.267C161.091 181.669 160.566 182.017 159.93 182.311C159.294 182.599 158.52 182.743 157.608 182.743C156.552 182.743 155.607 182.497 154.773 182.005C153.939 181.513 153.279 180.787 152.793 179.827C152.313 178.861 152.073 177.676 152.073 176.272C152.073 174.88 152.322 173.707 152.82 172.753C153.318 171.793 153.981 171.067 154.809 170.575C155.643 170.077 156.567 169.828 157.581 169.828Z" fill="white"/>
<path d="M178.114 168.343C178.51 168.343 178.828 168.463 179.068 168.703C179.314 168.943 179.437 169.243 179.437 169.603C179.437 169.963 179.314 170.266 179.068 170.512C178.828 170.758 178.51 170.881 178.114 170.881C177.73 170.881 177.415 170.758 177.169 170.512C176.923 170.266 176.8 169.963 176.8 169.603C176.8 169.243 176.923 168.943 177.169 168.703C177.415 168.463 177.73 168.343 178.114 168.343ZM179.518 172.996V181.024H182.101V182.5H174.658V181.024H177.502V174.472H174.748V172.996H179.518Z" fill="white"/>
<path d="M188.574 181.195C189.204 181.195 189.705 181.084 190.077 180.862C190.449 180.634 190.635 180.322 190.635 179.926C190.635 179.668 190.581 179.449 190.473 179.269C190.365 179.089 190.149 178.921 189.825 178.765C189.501 178.609 189.009 178.447 188.349 178.279C187.725 178.117 187.176 177.925 186.702 177.703C186.234 177.481 185.871 177.193 185.613 176.839C185.355 176.485 185.226 176.029 185.226 175.471C185.226 174.655 185.565 173.998 186.243 173.5C186.927 172.996 187.854 172.744 189.024 172.744C189.822 172.744 190.518 172.849 191.112 173.059C191.706 173.269 192.213 173.53 192.633 173.842L191.787 175.111C191.415 174.865 191.007 174.664 190.563 174.508C190.125 174.352 189.63 174.274 189.078 174.274C188.436 174.274 187.974 174.37 187.692 174.562C187.416 174.754 187.278 175.009 187.278 175.327C187.278 175.567 187.347 175.765 187.485 175.921C187.629 176.077 187.875 176.224 188.223 176.362C188.571 176.5 189.063 176.656 189.699 176.83C190.317 176.998 190.854 177.196 191.31 177.424C191.772 177.652 192.129 177.955 192.381 178.333C192.639 178.705 192.768 179.191 192.768 179.791C192.768 180.475 192.57 181.036 192.174 181.474C191.778 181.906 191.262 182.227 190.626 182.437C189.99 182.641 189.306 182.743 188.574 182.743C187.692 182.743 186.93 182.617 186.288 182.365C185.646 182.107 185.106 181.786 184.668 181.402L185.739 180.178C186.111 180.478 186.537 180.724 187.017 180.916C187.497 181.102 188.016 181.195 188.574 181.195Z" fill="white"/>
<path d="M208.72 168.982V174.157C209.104 173.689 209.551 173.338 210.061 173.104C210.577 172.864 211.111 172.744 211.663 172.744C212.557 172.744 213.223 172.993 213.661 173.491C214.099 173.989 214.318 174.682 214.318 175.57V182.5H212.302V175.885C212.302 175.315 212.194 174.907 211.978 174.661C211.762 174.409 211.414 174.283 210.934 174.283C210.484 174.283 210.067 174.43 209.683 174.724C209.299 175.012 208.978 175.339 208.72 175.705V182.5H206.704V169.198L208.72 168.982Z" fill="white"/>
<path d="M221.286 168.343C221.682 168.343 222 168.463 222.24 168.703C222.486 168.943 222.609 169.243 222.609 169.603C222.609 169.963 222.486 170.266 222.24 170.512C222 170.758 221.682 170.881 221.286 170.881C220.902 170.881 220.587 170.758 220.341 170.512C220.095 170.266 219.972 169.963 219.972 169.603C219.972 169.243 220.095 168.943 220.341 168.703C220.587 168.463 220.902 168.343 221.286 168.343ZM222.69 172.996V181.024H225.273V182.5H217.83V181.024H220.674V174.472H217.92V172.996H222.69Z" fill="white"/>
<path d="M228.38 182.5V181.06H229.775V174.427H228.38V172.996H231.314L231.683 175.201C232.037 174.403 232.475 173.797 232.997 173.383C233.525 172.963 234.203 172.753 235.031 172.753C235.313 172.753 235.565 172.777 235.787 172.825C236.015 172.867 236.24 172.924 236.462 172.996L236.12 176.497H234.68V174.562C234.008 174.586 233.429 174.856 232.943 175.372C232.457 175.882 232.073 176.602 231.791 177.532V181.06H233.708V182.5H228.38Z" fill="white"/>
<path d="M242.871 168.343C243.267 168.343 243.585 168.463 243.825 168.703C244.071 168.943 244.194 169.243 244.194 169.603C244.194 169.963 244.071 170.266 243.825 170.512C243.585 170.758 243.267 170.881 242.871 170.881C242.487 170.881 242.172 170.758 241.926 170.512C241.68 170.266 241.557 169.963 241.557 169.603C241.557 169.243 241.68 168.943 241.926 168.703C242.172 168.463 242.487 168.343 242.871 168.343ZM244.275 172.996V181.024H246.858V182.5H239.415V181.024H242.259V174.472H239.505V172.996H244.275Z" fill="white"/>
<path d="M249.875 182.5V172.996H251.612L251.765 174.229C252.161 173.749 252.629 173.383 253.169 173.131C253.709 172.873 254.264 172.744 254.834 172.744C255.722 172.744 256.385 172.993 256.823 173.491C257.267 173.989 257.489 174.682 257.489 175.57V182.5H255.473V176.569C255.473 175.747 255.389 175.162 255.221 174.814C255.059 174.46 254.69 174.283 254.114 174.283C253.652 174.283 253.229 174.427 252.845 174.715C252.467 174.997 252.149 175.318 251.891 175.678V182.5H249.875Z" fill="white"/>
<path d="M268.669 171.79L269.209 173.464C268.831 173.59 268.414 173.674 267.958 173.716C267.508 173.758 267.004 173.779 266.446 173.779C267.016 174.031 267.445 174.355 267.733 174.751C268.021 175.141 268.165 175.621 268.165 176.191C268.165 176.809 268.015 177.361 267.715 177.847C267.415 178.333 266.983 178.714 266.419 178.99C265.861 179.266 265.195 179.404 264.421 179.404C264.145 179.404 263.905 179.392 263.701 179.368C263.503 179.344 263.308 179.305 263.116 179.251C262.834 179.437 262.693 179.698 262.693 180.034C262.693 180.226 262.771 180.394 262.927 180.538C263.089 180.676 263.407 180.745 263.881 180.745H265.537C266.215 180.745 266.812 180.862 267.328 181.096C267.85 181.324 268.258 181.639 268.552 182.041C268.852 182.437 269.002 182.887 269.002 183.391C269.002 184.339 268.594 185.074 267.778 185.596C266.962 186.118 265.786 186.379 264.25 186.379C263.158 186.379 262.303 186.268 261.685 186.046C261.073 185.824 260.641 185.494 260.389 185.056C260.137 184.618 260.011 184.081 260.011 183.445H261.82C261.82 183.781 261.883 184.057 262.009 184.273C262.141 184.489 262.384 184.648 262.738 184.75C263.092 184.858 263.602 184.912 264.268 184.912C265.258 184.912 265.957 184.789 266.365 184.543C266.773 184.303 266.977 183.964 266.977 183.526C266.977 183.136 266.809 182.836 266.473 182.626C266.137 182.422 265.687 182.32 265.123 182.32H263.494C262.594 182.32 261.934 182.137 261.514 181.771C261.1 181.405 260.893 180.979 260.893 180.493C260.893 179.809 261.247 179.236 261.955 178.774C261.385 178.474 260.968 178.111 260.704 177.685C260.446 177.253 260.317 176.731 260.317 176.119C260.317 175.447 260.485 174.859 260.821 174.355C261.157 173.851 261.622 173.458 262.216 173.176C262.816 172.894 263.506 172.753 264.286 172.753C265.048 172.759 265.684 172.72 266.194 172.636C266.704 172.552 267.148 172.438 267.526 172.294C267.91 172.144 268.291 171.976 268.669 171.79ZM264.304 174.139C263.662 174.139 263.179 174.322 262.855 174.688C262.531 175.048 262.369 175.519 262.369 176.101C262.369 176.701 262.534 177.184 262.864 177.55C263.194 177.91 263.683 178.09 264.331 178.09C264.925 178.09 265.378 177.916 265.69 177.568C266.008 177.22 266.167 176.725 266.167 176.083C266.167 174.787 265.546 174.139 264.304 174.139Z" fill="white"/>
<path d="M286.043 168.343C286.439 168.343 286.757 168.463 286.997 168.703C287.243 168.943 287.366 169.243 287.366 169.603C287.366 169.963 287.243 170.266 286.997 170.512C286.757 170.758 286.439 170.881 286.043 170.881C285.659 170.881 285.344 170.758 285.098 170.512C284.852 170.266 284.729 169.963 284.729 169.603C284.729 169.243 284.852 168.943 285.098 168.703C285.344 168.463 285.659 168.343 286.043 168.343ZM287.447 172.996V181.024H290.03V182.5H282.587V181.024H285.431V174.472H282.677V172.996H287.447Z" fill="white"/>
<path d="M293.047 182.5V172.996H294.784L294.937 174.229C295.333 173.749 295.801 173.383 296.341 173.131C296.881 172.873 297.436 172.744 298.006 172.744C298.894 172.744 299.557 172.993 299.995 173.491C300.439 173.989 300.661 174.682 300.661 175.57V182.5H298.645V176.569C298.645 175.747 298.561 175.162 298.393 174.814C298.231 174.46 297.862 174.283 297.286 174.283C296.824 174.283 296.401 174.427 296.017 174.715C295.639 174.997 295.321 175.318 295.063 175.678V182.5H293.047Z" fill="white"/>
<path d="M322.571 181.996C322.223 182.218 321.806 182.398 321.32 182.536C320.834 182.674 320.327 182.743 319.799 182.743C318.695 182.743 317.855 182.458 317.279 181.888C316.709 181.312 316.424 180.556 316.424 179.62V174.463H314.309V172.996H316.424V170.872L318.44 170.629V172.996H321.644L321.419 174.463H318.44V179.602C318.44 180.112 318.566 180.493 318.818 180.745C319.076 180.991 319.496 181.114 320.078 181.114C320.426 181.114 320.744 181.072 321.032 180.988C321.326 180.904 321.596 180.796 321.842 180.664L322.571 181.996Z" fill="white"/>
<path d="M327.442 168.982V174.157C327.826 173.689 328.273 173.338 328.783 173.104C329.299 172.864 329.833 172.744 330.385 172.744C331.279 172.744 331.945 172.993 332.383 173.491C332.821 173.989 333.04 174.682 333.04 175.57V182.5H331.024V175.885C331.024 175.315 330.916 174.907 330.7 174.661C330.484 174.409 330.136 174.283 329.656 174.283C329.206 174.283 328.789 174.43 328.405 174.724C328.021 175.012 327.7 175.339 327.442 175.705V182.5H325.426V169.198L327.442 168.982Z" fill="white"/>
<path d="M337.893 178.396C337.953 179.374 338.226 180.082 338.712 180.52C339.204 180.958 339.795 181.177 340.485 181.177C340.947 181.177 341.376 181.105 341.772 180.961C342.174 180.817 342.576 180.613 342.978 180.349L343.851 181.555C343.407 181.915 342.888 182.203 342.294 182.419C341.7 182.635 341.064 182.743 340.386 182.743C339.396 182.743 338.559 182.533 337.875 182.113C337.197 181.693 336.681 181.108 336.327 180.358C335.979 179.608 335.805 178.741 335.805 177.757C335.805 176.803 335.979 175.951 336.327 175.201C336.675 174.445 337.173 173.848 337.821 173.41C338.469 172.966 339.243 172.744 340.143 172.744C341.403 172.744 342.399 173.167 343.131 174.013C343.869 174.859 344.238 176.02 344.238 177.496C344.238 177.658 344.232 177.82 344.22 177.982C344.214 178.138 344.205 178.276 344.193 178.396H337.893ZM340.161 174.238C339.531 174.238 339.009 174.463 338.595 174.913C338.181 175.363 337.944 176.065 337.884 177.019H342.285C342.267 176.125 342.075 175.438 341.709 174.958C341.349 174.478 340.833 174.238 340.161 174.238Z" fill="white"/>
<path d="M365.905 170.08V178.423C365.905 179.269 365.734 180.016 365.392 180.664C365.056 181.312 364.564 181.822 363.916 182.194C363.274 182.56 362.5 182.743 361.594 182.743C360.67 182.743 359.887 182.563 359.245 182.203C358.609 181.837 358.126 181.33 357.796 180.682C357.466 180.034 357.301 179.281 357.301 178.423V170.08H359.389V178.045C359.389 179.053 359.563 179.812 359.911 180.322C360.259 180.826 360.82 181.078 361.594 181.078C362.368 181.078 362.929 180.826 363.277 180.322C363.631 179.812 363.808 179.053 363.808 178.045V170.08H365.905Z" fill="white"/>
<path d="M370.659 182.5H368.571V170.08H370.659V182.5ZM370.749 175.867L375.069 170.08H377.364L373.017 175.723L377.706 182.5H375.204L370.749 175.867Z" fill="white"/>
<path d="M99.375 147.17C99.375 148.164 99.2374 149.039 98.962 149.795C98.6867 150.546 98.276 151.134 97.73 151.559C97.184 151.979 96.5074 152.189 95.7 152.189C94.8927 152.189 94.216 151.984 93.67 151.573C93.124 151.162 92.7134 150.581 92.438 149.83C92.1627 149.079 92.025 148.197 92.025 147.184C92.025 146.19 92.1627 145.315 92.438 144.559C92.7134 143.803 93.124 143.213 93.67 142.788C94.216 142.359 94.8927 142.144 95.7 142.144C96.5074 142.144 97.184 142.352 97.73 142.767C98.276 143.182 98.6867 143.768 98.962 144.524C99.2374 145.275 99.375 146.157 99.375 147.17ZM97.695 147.17C97.695 145.919 97.541 144.981 97.233 144.356C96.925 143.726 96.414 143.411 95.7 143.411C94.986 143.411 94.475 143.728 94.167 144.363C93.859 144.993 93.705 145.933 93.705 147.184C93.705 148.43 93.8637 149.366 94.181 149.991C94.4984 150.612 95.0047 150.922 95.7 150.922C96.414 150.922 96.925 150.609 97.233 149.984C97.541 149.354 97.695 148.416 97.695 147.17Z" fill="#F3BF53"/>
<path d="M107.546 145.133C107.546 145.847 107.333 146.423 106.909 146.862C106.484 147.301 105.964 147.611 105.348 147.793L108.085 152H106.195L103.766 148.024H102.709V152H101.085V142.34H103.78C105.016 142.34 105.952 142.573 106.587 143.04C107.226 143.502 107.546 144.2 107.546 145.133ZM105.845 145.133C105.845 144.573 105.681 144.169 105.355 143.922C105.028 143.67 104.533 143.544 103.871 143.544H102.709V146.834H103.906C104.522 146.834 104.998 146.703 105.334 146.442C105.674 146.176 105.845 145.74 105.845 145.133Z" fill="#F3BF53"/>
<path d="M112.741 152.189C111.509 152.189 110.545 151.767 109.85 150.922C109.155 150.077 108.807 148.822 108.807 147.156C108.807 146.055 109.001 145.133 109.388 144.391C109.78 143.644 110.296 143.084 110.935 142.711C111.574 142.333 112.27 142.144 113.021 142.144C113.679 142.144 114.227 142.242 114.666 142.438C115.109 142.634 115.52 142.907 115.898 143.257L114.988 144.202C114.694 143.936 114.393 143.738 114.085 143.607C113.782 143.476 113.441 143.411 113.063 143.411C112.61 143.411 112.19 143.532 111.803 143.775C111.416 144.013 111.103 144.407 110.865 144.958C110.627 145.504 110.508 146.239 110.508 147.163C110.508 148.512 110.702 149.475 111.089 150.054C111.476 150.633 112.053 150.922 112.818 150.922C113.387 150.922 113.919 150.787 114.414 150.516V147.856H112.776L112.601 146.617H115.989V151.3C115.532 151.561 115.044 151.776 114.526 151.944C114.013 152.107 113.418 152.189 112.741 152.189Z" fill="#F3BF53"/>
<path d="M358.452 152.689C357.22 152.689 356.256 152.267 355.561 151.422C354.866 150.577 354.518 149.322 354.518 147.656C354.518 146.555 354.712 145.633 355.099 144.891C355.491 144.144 356.007 143.584 356.646 143.211C357.285 142.833 357.981 142.644 358.732 142.644C359.39 142.644 359.938 142.742 360.377 142.938C360.82 143.134 361.231 143.407 361.609 143.757L360.699 144.702C360.405 144.436 360.104 144.238 359.796 144.107C359.493 143.976 359.152 143.911 358.774 143.911C358.321 143.911 357.901 144.032 357.514 144.275C357.127 144.513 356.814 144.907 356.576 145.458C356.338 146.004 356.219 146.739 356.219 147.663C356.219 149.012 356.413 149.975 356.8 150.554C357.187 151.133 357.764 151.422 358.529 151.422C359.098 151.422 359.63 151.287 360.125 151.016V148.356H358.487L358.312 147.117H361.7V151.8C361.243 152.061 360.755 152.276 360.237 152.444C359.724 152.607 359.129 152.689 358.452 152.689Z" fill="#F3BF53"/>
<path d="M370.297 145.871C370.297 146.622 370.136 147.234 369.814 147.705C369.492 148.172 369.047 148.515 368.477 148.734C367.913 148.949 367.262 149.056 366.524 149.056H365.355V152.5H363.731V142.84H366.412C367.626 142.84 368.575 143.09 369.261 143.589C369.952 144.084 370.297 144.844 370.297 145.871ZM368.589 145.885C368.589 145.222 368.4 144.753 368.022 144.478C367.649 144.198 367.147 144.058 366.517 144.058H365.355V147.817H366.538C367.145 147.817 367.637 147.677 368.015 147.397C368.398 147.117 368.589 146.613 368.589 145.885Z" fill="#F3BF53"/>
<path d="M373.995 144.072V146.977H377.495V148.209H373.995V151.268H378.258V152.5H372.371V142.84H378.181L377.999 144.072H373.995Z" fill="#F3BF53"/>
<rect x="181" y="82" width="72" height="32" fill="#F3BF53"/>
<path d="M208.54 103L205.028 93.608C205.049 93.8266 205.081 94.168 205.124 94.632C205.167 95.0906 205.204 95.616 205.236 96.208C205.273 96.7946 205.292 97.3866 205.292 97.984V103H203.644V91.96H206.052L209.572 101.36C209.535 101.029 209.481 100.467 209.412 99.672C209.343 98.8773 209.308 97.984 209.308 96.992V91.96H210.956V103H208.54Z" fill="#191A1D"/>
<path d="M215.758 93.368V96.688H219.758V98.096H215.758V101.592H220.63V103H213.902V91.96H220.542L220.334 93.368H215.758Z" fill="#191A1D"/>
<path d="M230.431 95.152C230.431 95.968 230.189 96.6266 229.703 97.128C229.218 97.6293 228.623 97.984 227.919 98.192L231.047 103H228.887L226.111 98.456H224.903V103H223.047V91.96H226.127C227.541 91.96 228.61 92.2266 229.335 92.76C230.066 93.288 230.431 94.0853 230.431 95.152ZM228.487 95.152C228.487 94.512 228.301 94.0506 227.927 93.768C227.554 93.48 226.989 93.336 226.231 93.336H224.903V97.096H226.271C226.975 97.096 227.519 96.9466 227.903 96.648C228.293 96.344 228.487 95.8453 228.487 95.152Z" fill="#191A1D"/>
<defs>
<filter id="filter0_b" x="-7" y="-7" width="448" height="299" filterUnits="userSpaceOnUse" color-interpolation-filters="sRGB">
<feFlood flood-opacity="0" result="BackgroundImageFix"/>
<feGaussianBlur in="BackgroundImage" stdDeviation="3.5"/>
<feComposite in2="SourceAlpha" operator="in" result="effect1_backgroundBlur"/>
<feBlend mode="normal" in="SourceGraphic" in2="effect1_backgroundBlur" result="shape"/>
</filter>
<filter id="filter1_b" x="-7" y="-7" width="448" height="56" filterUnits="userSpaceOnUse" color-interpolation-filters="sRGB">
<feFlood flood-opacity="0" result="BackgroundImageFix"/>
<feGaussianBlur in="BackgroundImage" stdDeviation="3.5"/>
<feComposite in2="SourceAlpha" operator="in" result="effect1_backgroundBlur"/>
<feBlend mode="normal" in="SourceGraphic" in2="effect1_backgroundBlur" result="shape"/>
</filter>
</defs>
</svg>
