<svg width="434" height="285" viewBox="0 0 434 285" fill="none" xmlns="http://www.w3.org/2000/svg">
<g filter="url(#filter0_b)">
<rect width="434" height="285" rx="10" fill="#191A1D" fill-opacity="0.3"/>
<rect x="0.5" y="0.5" width="433" height="284" rx="9.5" stroke="#E0E8FE"/>
</g>
<g filter="url(#filter1_b)">
<path d="M0 10C0 4.47715 4.47715 0 10 0H424C429.523 0 434 4.47715 434 10V42H0V10Z" fill="#191A1D" fill-opacity="0.4"/>
<path d="M0.5 10C0.5 4.75329 4.7533 0.5 10 0.5H424C429.247 0.5 433.5 4.7533 433.5 10V41.5H0.5V10Z" stroke="#E0E8FE"/>
</g>
<path d="M1 42L434 42" stroke="#E0E8FE"/>
<circle cx="22" cy="20" r="6" fill="#F84D4D"/>
<circle cx="44" cy="20" r="6" fill="#F4C03B"/>
<circle cx="66" cy="20" r="6" fill="#4ED36B"/>
<rect x="49.5" y="161" width="118" height="32" fill="#2C0BF1"/>
<rect x="286" y="161" width="92" height="32" fill="#2C0BF1"/>
<path d="M63.578 180.512H59.141L58.277 183.5H56.153L60.104 171.08H62.696L66.656 183.5H64.442L63.578 180.512ZM59.573 178.901H63.137L61.364 172.7L59.573 178.901Z" fill="white"/>
<path d="M73.03 173.744C73.87 173.744 74.542 173.951 75.046 174.365C75.55 174.773 75.916 175.352 76.144 176.102C76.372 176.846 76.486 177.722 76.486 178.73C76.486 179.696 76.348 180.557 76.072 181.313C75.796 182.069 75.385 182.663 74.839 183.095C74.299 183.527 73.627 183.743 72.823 183.743C71.827 183.743 71.023 183.392 70.411 182.69V187.154L68.395 187.379V173.996H70.15L70.276 175.22C70.636 174.734 71.053 174.368 71.527 174.122C72.001 173.87 72.502 173.744 73.03 173.744ZM72.472 175.301C72.022 175.301 71.623 175.436 71.275 175.706C70.933 175.976 70.645 176.294 70.411 176.66V181.106C70.885 181.814 71.512 182.168 72.292 182.168C72.97 182.168 73.486 181.895 73.84 181.349C74.194 180.803 74.371 179.933 74.371 178.739C74.371 177.521 74.212 176.645 73.894 176.111C73.582 175.571 73.108 175.301 72.472 175.301Z" fill="white"/>
<path d="M83.823 173.744C84.663 173.744 85.335 173.951 85.839 174.365C86.343 174.773 86.709 175.352 86.937 176.102C87.165 176.846 87.279 177.722 87.279 178.73C87.279 179.696 87.141 180.557 86.865 181.313C86.589 182.069 86.178 182.663 85.632 183.095C85.092 183.527 84.42 183.743 83.616 183.743C82.62 183.743 81.816 183.392 81.204 182.69V187.154L79.188 187.379V173.996H80.943L81.069 175.22C81.429 174.734 81.846 174.368 82.32 174.122C82.794 173.87 83.295 173.744 83.823 173.744ZM83.265 175.301C82.815 175.301 82.416 175.436 82.068 175.706C81.726 175.976 81.438 176.294 81.204 176.66V181.106C81.678 181.814 82.305 182.168 83.085 182.168C83.763 182.168 84.279 181.895 84.633 181.349C84.987 180.803 85.164 179.933 85.164 178.739C85.164 177.521 85.005 176.645 84.687 176.111C84.375 175.571 83.901 175.301 83.265 175.301Z" fill="white"/>
<path d="M94.1569 170.18V180.908C94.1569 181.346 94.2889 181.658 94.5529 181.844C94.8229 182.024 95.1709 182.114 95.5969 182.114C95.8669 182.114 96.1249 182.087 96.3709 182.033C96.6229 181.973 96.8659 181.895 97.0999 181.799L97.6129 183.203C97.3309 183.347 96.9829 183.473 96.5689 183.581C96.1609 183.689 95.6929 183.743 95.1649 183.743C94.2109 183.743 93.4669 183.473 92.9329 182.933C92.4049 182.393 92.1409 181.658 92.1409 180.728V171.665H89.2699V170.18H94.1569Z" fill="white"/>
<path d="M102.448 179.396C102.508 180.374 102.781 181.082 103.267 181.52C103.759 181.958 104.35 182.177 105.04 182.177C105.502 182.177 105.931 182.105 106.327 181.961C106.729 181.817 107.131 181.613 107.533 181.349L108.406 182.555C107.962 182.915 107.443 183.203 106.849 183.419C106.255 183.635 105.619 183.743 104.941 183.743C103.951 183.743 103.114 183.533 102.43 183.113C101.752 182.693 101.236 182.108 100.882 181.358C100.534 180.608 100.36 179.741 100.36 178.757C100.36 177.803 100.534 176.951 100.882 176.201C101.23 175.445 101.728 174.848 102.376 174.41C103.024 173.966 103.798 173.744 104.698 173.744C105.958 173.744 106.954 174.167 107.686 175.013C108.424 175.859 108.793 177.02 108.793 178.496C108.793 178.658 108.787 178.82 108.775 178.982C108.769 179.138 108.76 179.276 108.748 179.396H102.448ZM104.716 175.238C104.086 175.238 103.564 175.463 103.15 175.913C102.736 176.363 102.499 177.065 102.439 178.019H106.84C106.822 177.125 106.63 176.438 106.264 175.958C105.904 175.478 105.388 175.238 104.716 175.238Z" fill="white"/>
<path d="M129.893 171.08V172.673H127.211V181.898H129.893V183.5H122.423V181.898H125.105V172.673H122.423V171.08H129.893Z" fill="white"/>
<path d="M133.153 183.5V173.996H134.89L135.043 175.229C135.439 174.749 135.907 174.383 136.447 174.131C136.987 173.873 137.542 173.744 138.112 173.744C139 173.744 139.663 173.993 140.101 174.491C140.545 174.989 140.767 175.682 140.767 176.57V183.5H138.751V177.569C138.751 176.747 138.667 176.162 138.499 175.814C138.337 175.46 137.968 175.283 137.392 175.283C136.93 175.283 136.507 175.427 136.123 175.715C135.745 175.997 135.427 176.318 135.169 176.678V183.5H133.153Z" fill="white"/>
<path d="M148.527 182.087C148.971 182.087 149.385 182.009 149.769 181.853C150.153 181.697 150.519 181.499 150.867 181.259L151.803 182.555C151.389 182.909 150.885 183.197 150.291 183.419C149.703 183.635 149.094 183.743 148.464 183.743C147.492 183.743 146.658 183.539 145.962 183.131C145.272 182.717 144.744 182.141 144.378 181.403C144.018 180.659 143.838 179.789 143.838 178.793C143.838 177.827 144.021 176.966 144.387 176.21C144.759 175.448 145.293 174.848 145.989 174.41C146.685 173.966 147.522 173.744 148.5 173.744C149.772 173.744 150.87 174.125 151.794 174.887L150.867 176.156C150.495 175.898 150.114 175.703 149.724 175.571C149.334 175.433 148.938 175.364 148.536 175.364C147.78 175.364 147.165 175.64 146.691 176.192C146.217 176.744 145.98 177.611 145.98 178.793C145.98 179.981 146.22 180.827 146.7 181.331C147.18 181.835 147.789 182.087 148.527 182.087Z" fill="white"/>
<path d="M156.791 181.997C156.791 181.517 156.956 181.109 157.286 180.773C157.622 180.431 158.036 180.26 158.528 180.26C159.02 180.26 159.434 180.431 159.77 180.773C160.106 181.109 160.274 181.517 160.274 181.997C160.274 182.477 160.106 182.888 159.77 183.23C159.434 183.572 159.02 183.743 158.528 183.743C158.036 183.743 157.622 183.572 157.286 183.23C156.956 182.888 156.791 182.477 156.791 181.997Z" fill="white"/>
<path d="M180.114 169.343C180.51 169.343 180.828 169.463 181.068 169.703C181.314 169.943 181.437 170.243 181.437 170.603C181.437 170.963 181.314 171.266 181.068 171.512C180.828 171.758 180.51 171.881 180.114 171.881C179.73 171.881 179.415 171.758 179.169 171.512C178.923 171.266 178.8 170.963 178.8 170.603C178.8 170.243 178.923 169.943 179.169 169.703C179.415 169.463 179.73 169.343 180.114 169.343ZM181.518 173.996V182.024H184.101V183.5H176.658V182.024H179.502V175.472H176.748V173.996H181.518Z" fill="white"/>
<path d="M190.574 182.195C191.204 182.195 191.705 182.084 192.077 181.862C192.449 181.634 192.635 181.322 192.635 180.926C192.635 180.668 192.581 180.449 192.473 180.269C192.365 180.089 192.149 179.921 191.825 179.765C191.501 179.609 191.009 179.447 190.349 179.279C189.725 179.117 189.176 178.925 188.702 178.703C188.234 178.481 187.871 178.193 187.613 177.839C187.355 177.485 187.226 177.029 187.226 176.471C187.226 175.655 187.565 174.998 188.243 174.5C188.927 173.996 189.854 173.744 191.024 173.744C191.822 173.744 192.518 173.849 193.112 174.059C193.706 174.269 194.213 174.53 194.633 174.842L193.787 176.111C193.415 175.865 193.007 175.664 192.563 175.508C192.125 175.352 191.63 175.274 191.078 175.274C190.436 175.274 189.974 175.37 189.692 175.562C189.416 175.754 189.278 176.009 189.278 176.327C189.278 176.567 189.347 176.765 189.485 176.921C189.629 177.077 189.875 177.224 190.223 177.362C190.571 177.5 191.063 177.656 191.699 177.83C192.317 177.998 192.854 178.196 193.31 178.424C193.772 178.652 194.129 178.955 194.381 179.333C194.639 179.705 194.768 180.191 194.768 180.791C194.768 181.475 194.57 182.036 194.174 182.474C193.778 182.906 193.262 183.227 192.626 183.437C191.99 183.641 191.306 183.743 190.574 183.743C189.692 183.743 188.93 183.617 188.288 183.365C187.646 183.107 187.106 182.786 186.668 182.402L187.739 181.178C188.111 181.478 188.537 181.724 189.017 181.916C189.497 182.102 190.016 182.195 190.574 182.195Z" fill="white"/>
<path d="M212.16 182.195C212.79 182.195 213.291 182.084 213.663 181.862C214.035 181.634 214.221 181.322 214.221 180.926C214.221 180.668 214.167 180.449 214.059 180.269C213.951 180.089 213.735 179.921 213.411 179.765C213.087 179.609 212.595 179.447 211.935 179.279C211.311 179.117 210.762 178.925 210.288 178.703C209.82 178.481 209.457 178.193 209.199 177.839C208.941 177.485 208.812 177.029 208.812 176.471C208.812 175.655 209.151 174.998 209.829 174.5C210.513 173.996 211.44 173.744 212.61 173.744C213.408 173.744 214.104 173.849 214.698 174.059C215.292 174.269 215.799 174.53 216.219 174.842L215.373 176.111C215.001 175.865 214.593 175.664 214.149 175.508C213.711 175.352 213.216 175.274 212.664 175.274C212.022 175.274 211.56 175.37 211.278 175.562C211.002 175.754 210.864 176.009 210.864 176.327C210.864 176.567 210.933 176.765 211.071 176.921C211.215 177.077 211.461 177.224 211.809 177.362C212.157 177.5 212.649 177.656 213.285 177.83C213.903 177.998 214.44 178.196 214.896 178.424C215.358 178.652 215.715 178.955 215.967 179.333C216.225 179.705 216.354 180.191 216.354 180.791C216.354 181.475 216.156 182.036 215.76 182.474C215.364 182.906 214.848 183.227 214.212 183.437C213.576 183.641 212.892 183.743 212.16 183.743C211.278 183.743 210.516 183.617 209.874 183.365C209.232 183.107 208.692 182.786 208.254 182.402L209.325 181.178C209.697 181.478 210.123 181.724 210.603 181.916C211.083 182.102 211.602 182.195 212.16 182.195Z" fill="white"/>
<path d="M221.513 173.996V180.638C221.513 181.202 221.624 181.604 221.846 181.844C222.074 182.084 222.416 182.204 222.872 182.204C223.304 182.204 223.721 182.075 224.123 181.817C224.525 181.559 224.843 181.244 225.077 180.872V173.996H227.093V183.5H225.356L225.23 182.285C224.876 182.759 224.429 183.122 223.889 183.374C223.349 183.62 222.797 183.743 222.233 183.743C221.309 183.743 220.622 183.491 220.172 182.987C219.722 182.477 219.497 181.778 219.497 180.89V173.996H221.513Z" fill="white"/>
<path d="M231.964 179.396C232.024 180.374 232.297 181.082 232.783 181.52C233.275 181.958 233.866 182.177 234.556 182.177C235.018 182.177 235.447 182.105 235.843 181.961C236.245 181.817 236.647 181.613 237.049 181.349L237.922 182.555C237.478 182.915 236.959 183.203 236.365 183.419C235.771 183.635 235.135 183.743 234.457 183.743C233.467 183.743 232.63 183.533 231.946 183.113C231.268 182.693 230.752 182.108 230.398 181.358C230.05 180.608 229.876 179.741 229.876 178.757C229.876 177.803 230.05 176.951 230.398 176.201C230.746 175.445 231.244 174.848 231.892 174.41C232.54 173.966 233.314 173.744 234.214 173.744C235.474 173.744 236.47 174.167 237.202 175.013C237.94 175.859 238.309 177.02 238.309 178.496C238.309 178.658 238.303 178.82 238.291 178.982C238.285 179.138 238.276 179.276 238.264 179.396H231.964ZM234.232 175.238C233.602 175.238 233.08 175.463 232.666 175.913C232.252 176.363 232.015 177.065 231.955 178.019H236.356C236.338 177.125 236.146 176.438 235.78 175.958C235.42 175.478 234.904 175.238 234.232 175.238Z" fill="white"/>
<path d="M246.662 169.955L248.678 170.18V183.5H246.905L246.761 182.33C246.437 182.78 246.05 183.128 245.6 183.374C245.15 183.62 244.646 183.743 244.088 183.743C243.272 183.743 242.6 183.536 242.072 183.122C241.55 182.702 241.16 182.117 240.902 181.367C240.644 180.617 240.515 179.744 240.515 178.748C240.515 177.782 240.665 176.924 240.965 176.174C241.265 175.418 241.694 174.824 242.252 174.392C242.81 173.96 243.482 173.744 244.268 173.744C245.246 173.744 246.044 174.089 246.662 174.779V169.955ZM244.799 175.292C244.121 175.292 243.593 175.574 243.215 176.138C242.837 176.696 242.648 177.566 242.648 178.748C242.648 179.96 242.819 180.839 243.161 181.385C243.509 181.925 243.995 182.195 244.619 182.195C245.075 182.195 245.471 182.063 245.807 181.799C246.143 181.535 246.428 181.217 246.662 180.845V176.345C246.428 176.009 246.155 175.751 245.843 175.571C245.531 175.385 245.183 175.292 244.799 175.292Z" fill="white"/>
<path d="M264.684 175.13C265.008 174.698 265.392 174.359 265.836 174.113C266.28 173.867 266.766 173.744 267.294 173.744C268.128 173.744 268.803 173.951 269.319 174.365C269.841 174.773 270.222 175.352 270.462 176.102C270.708 176.846 270.831 177.722 270.831 178.73C270.831 179.696 270.687 180.557 270.399 181.313C270.111 182.069 269.685 182.663 269.121 183.095C268.563 183.527 267.873 183.743 267.051 183.743C265.989 183.743 265.155 183.35 264.549 182.564L264.441 183.5H262.668V170.18L264.684 169.955V175.13ZM266.547 182.204C267.231 182.204 267.759 181.925 268.131 181.367C268.509 180.809 268.698 179.933 268.698 178.739C268.698 177.521 268.527 176.645 268.185 176.111C267.849 175.571 267.369 175.301 266.745 175.301C266.295 175.301 265.896 175.436 265.548 175.706C265.206 175.976 264.918 176.294 264.684 176.66V181.106C264.906 181.448 265.173 181.718 265.485 181.916C265.803 182.108 266.157 182.204 266.547 182.204Z" fill="white"/>
<path d="M281.777 173.996L278.501 183.536C278.255 184.256 277.94 184.892 277.556 185.444C277.172 185.996 276.68 186.437 276.08 186.767C275.48 187.103 274.736 187.31 273.848 187.388L273.587 185.876C274.229 185.774 274.739 185.624 275.117 185.426C275.501 185.234 275.804 184.979 276.026 184.661C276.254 184.349 276.455 183.962 276.629 183.5H275.945L272.741 173.996H274.883L277.277 182.096L279.707 173.996H281.777Z" fill="white"/>
<path d="M303.318 179.99C303.318 180.728 303.129 181.379 302.751 181.943C302.379 182.507 301.839 182.948 301.131 183.266C300.429 183.584 299.58 183.743 298.584 183.743C297.57 183.743 296.685 183.593 295.929 183.293C295.173 182.993 294.534 182.588 294.012 182.078L295.155 180.8C295.593 181.208 296.091 181.526 296.649 181.754C297.207 181.982 297.849 182.096 298.575 182.096C299.277 182.096 299.88 181.931 300.384 181.601C300.894 181.265 301.149 180.761 301.149 180.089C301.149 179.729 301.074 179.423 300.924 179.171C300.774 178.913 300.513 178.685 300.141 178.487C299.775 178.283 299.262 178.082 298.602 177.884C297.288 177.494 296.292 177.023 295.614 176.471C294.936 175.919 294.597 175.157 294.597 174.185C294.597 173.513 294.78 172.925 295.146 172.421C295.518 171.917 296.025 171.527 296.667 171.251C297.315 170.969 298.047 170.828 298.863 170.828C299.763 170.828 300.549 170.96 301.221 171.224C301.893 171.482 302.493 171.848 303.021 172.322L301.923 173.564C301.485 173.186 301.014 172.91 300.51 172.736C300.012 172.556 299.505 172.466 298.989 172.466C298.353 172.466 297.819 172.601 297.387 172.871C296.955 173.135 296.739 173.534 296.739 174.068C296.739 174.392 296.826 174.668 297 174.896C297.18 175.118 297.48 175.328 297.9 175.526C298.326 175.718 298.908 175.925 299.646 176.147C300.342 176.351 300.966 176.603 301.518 176.903C302.076 177.203 302.514 177.599 302.832 178.091C303.156 178.577 303.318 179.21 303.318 179.99Z" fill="white"/>
<path d="M313.103 181.169C313.103 181.547 313.16 181.82 313.274 181.988C313.388 182.156 313.571 182.282 313.823 182.366L313.373 183.734C312.905 183.68 312.5 183.551 312.158 183.347C311.822 183.143 311.57 182.834 311.402 182.42C311.054 182.864 310.613 183.197 310.079 183.419C309.545 183.635 308.975 183.743 308.369 183.743C307.403 183.743 306.641 183.473 306.083 182.933C305.525 182.387 305.246 181.673 305.246 180.791C305.246 179.789 305.636 179.018 306.416 178.478C307.196 177.938 308.312 177.668 309.764 177.668H311.123V177.047C311.123 176.429 310.937 175.988 310.565 175.724C310.193 175.454 309.674 175.319 309.008 175.319C308.696 175.319 308.318 175.361 307.874 175.445C307.43 175.523 306.965 175.646 306.479 175.814L305.984 174.392C306.578 174.17 307.16 174.008 307.73 173.906C308.3 173.798 308.828 173.744 309.314 173.744C310.586 173.744 311.534 174.026 312.158 174.59C312.788 175.154 313.103 175.934 313.103 176.93V181.169ZM308.981 182.258C309.389 182.258 309.788 182.15 310.178 181.934C310.568 181.718 310.883 181.415 311.123 181.025V178.928H310.007C309.059 178.928 308.381 179.087 307.973 179.405C307.565 179.717 307.361 180.149 307.361 180.701C307.361 181.739 307.901 182.258 308.981 182.258Z" fill="white"/>
<path d="M323.185 173.744C323.545 173.744 323.869 173.822 324.157 173.978C324.445 174.134 324.67 174.41 324.832 174.806C325 175.196 325.084 175.739 325.084 176.435V183.5H323.293V176.714C323.293 176.216 323.257 175.859 323.185 175.643C323.119 175.427 322.942 175.319 322.654 175.319C322.426 175.319 322.192 175.391 321.952 175.535C321.718 175.673 321.484 175.913 321.25 176.255V183.5H319.621V176.714C319.621 176.216 319.585 175.859 319.513 175.643C319.447 175.427 319.27 175.319 318.982 175.319C318.748 175.319 318.514 175.391 318.28 175.535C318.046 175.673 317.812 175.913 317.578 176.255V183.5H315.778V173.996H317.299L317.434 175.022C317.704 174.644 317.995 174.338 318.307 174.104C318.625 173.864 319.012 173.744 319.468 173.744C319.828 173.744 320.155 173.834 320.449 174.014C320.743 174.188 320.959 174.503 321.097 174.959C321.367 174.599 321.667 174.308 321.997 174.086C322.327 173.858 322.723 173.744 323.185 173.744Z" fill="white"/>
<path d="M330.882 182.195C331.512 182.195 332.013 182.084 332.385 181.862C332.757 181.634 332.943 181.322 332.943 180.926C332.943 180.668 332.889 180.449 332.781 180.269C332.673 180.089 332.457 179.921 332.133 179.765C331.809 179.609 331.317 179.447 330.657 179.279C330.033 179.117 329.484 178.925 329.01 178.703C328.542 178.481 328.179 178.193 327.921 177.839C327.663 177.485 327.534 177.029 327.534 176.471C327.534 175.655 327.873 174.998 328.551 174.5C329.235 173.996 330.162 173.744 331.332 173.744C332.13 173.744 332.826 173.849 333.42 174.059C334.014 174.269 334.521 174.53 334.941 174.842L334.095 176.111C333.723 175.865 333.315 175.664 332.871 175.508C332.433 175.352 331.938 175.274 331.386 175.274C330.744 175.274 330.282 175.37 330 175.562C329.724 175.754 329.586 176.009 329.586 176.327C329.586 176.567 329.655 176.765 329.793 176.921C329.937 177.077 330.183 177.224 330.531 177.362C330.879 177.5 331.371 177.656 332.007 177.83C332.625 177.998 333.162 178.196 333.618 178.424C334.08 178.652 334.437 178.955 334.689 179.333C334.947 179.705 335.076 180.191 335.076 180.791C335.076 181.475 334.878 182.036 334.482 182.474C334.086 182.906 333.57 183.227 332.934 183.437C332.298 183.641 331.614 183.743 330.882 183.743C330 183.743 329.238 183.617 328.596 183.365C327.954 183.107 327.414 182.786 326.976 182.402L328.047 181.178C328.419 181.478 328.845 181.724 329.325 181.916C329.805 182.102 330.324 182.195 330.882 182.195Z" fill="white"/>
<path d="M340.235 173.996V180.638C340.235 181.202 340.346 181.604 340.568 181.844C340.796 182.084 341.138 182.204 341.594 182.204C342.026 182.204 342.443 182.075 342.845 181.817C343.247 181.559 343.565 181.244 343.799 180.872V173.996H345.815V183.5H344.078L343.952 182.285C343.598 182.759 343.151 183.122 342.611 183.374C342.071 183.62 341.519 183.743 340.955 183.743C340.031 183.743 339.344 183.491 338.894 182.987C338.444 182.477 338.219 181.778 338.219 180.89V173.996H340.235Z" fill="white"/>
<path d="M349.012 183.5V173.996H350.749L350.902 175.229C351.298 174.749 351.766 174.383 352.306 174.131C352.846 173.873 353.401 173.744 353.971 173.744C354.859 173.744 355.522 173.993 355.96 174.491C356.404 174.989 356.626 175.682 356.626 176.57V183.5H354.61V177.569C354.61 176.747 354.526 176.162 354.358 175.814C354.196 175.46 353.827 175.283 353.251 175.283C352.789 175.283 352.366 175.427 351.982 175.715C351.604 175.997 351.286 176.318 351.028 176.678V183.5H349.012Z" fill="white"/>
<path d="M367.806 172.79L368.346 174.464C367.968 174.59 367.551 174.674 367.095 174.716C366.645 174.758 366.141 174.779 365.583 174.779C366.153 175.031 366.582 175.355 366.87 175.751C367.158 176.141 367.302 176.621 367.302 177.191C367.302 177.809 367.152 178.361 366.852 178.847C366.552 179.333 366.12 179.714 365.556 179.99C364.998 180.266 364.332 180.404 363.558 180.404C363.282 180.404 363.042 180.392 362.838 180.368C362.64 180.344 362.445 180.305 362.253 180.251C361.971 180.437 361.83 180.698 361.83 181.034C361.83 181.226 361.908 181.394 362.064 181.538C362.226 181.676 362.544 181.745 363.018 181.745H364.674C365.352 181.745 365.949 181.862 366.465 182.096C366.987 182.324 367.395 182.639 367.689 183.041C367.989 183.437 368.139 183.887 368.139 184.391C368.139 185.339 367.731 186.074 366.915 186.596C366.099 187.118 364.923 187.379 363.387 187.379C362.295 187.379 361.44 187.268 360.822 187.046C360.21 186.824 359.778 186.494 359.526 186.056C359.274 185.618 359.148 185.081 359.148 184.445H360.957C360.957 184.781 361.02 185.057 361.146 185.273C361.278 185.489 361.521 185.648 361.875 185.75C362.229 185.858 362.739 185.912 363.405 185.912C364.395 185.912 365.094 185.789 365.502 185.543C365.91 185.303 366.114 184.964 366.114 184.526C366.114 184.136 365.946 183.836 365.61 183.626C365.274 183.422 364.824 183.32 364.26 183.32H362.631C361.731 183.32 361.071 183.137 360.651 182.771C360.237 182.405 360.03 181.979 360.03 181.493C360.03 180.809 360.384 180.236 361.092 179.774C360.522 179.474 360.105 179.111 359.841 178.685C359.583 178.253 359.454 177.731 359.454 177.119C359.454 176.447 359.622 175.859 359.958 175.355C360.294 174.851 360.759 174.458 361.353 174.176C361.953 173.894 362.643 173.753 363.423 173.753C364.185 173.759 364.821 173.72 365.331 173.636C365.841 173.552 366.285 173.438 366.663 173.294C367.047 173.144 367.428 172.976 367.806 172.79ZM363.441 175.139C362.799 175.139 362.316 175.322 361.992 175.688C361.668 176.048 361.506 176.519 361.506 177.101C361.506 177.701 361.671 178.184 362.001 178.55C362.331 178.91 362.82 179.09 363.468 179.09C364.062 179.09 364.515 178.916 364.827 178.568C365.145 178.22 365.304 177.725 365.304 177.083C365.304 175.787 364.683 175.139 363.441 175.139Z" fill="white"/>
<path d="M308.285 153L305.212 144.782C305.231 144.973 305.259 145.272 305.296 145.678C305.333 146.079 305.366 146.539 305.394 147.057C305.427 147.57 305.443 148.088 305.443 148.611V153H304.001V143.34H306.108L309.188 151.565C309.155 151.276 309.109 150.783 309.048 150.088C308.987 149.393 308.957 148.611 308.957 147.743V143.34H310.399V153H308.285Z" fill="#F3BF53"/>
<path d="M313.943 149.808C313.989 150.569 314.202 151.119 314.58 151.46C314.962 151.801 315.422 151.971 315.959 151.971C316.318 151.971 316.652 151.915 316.96 151.803C317.272 151.691 317.585 151.532 317.898 151.327L318.577 152.265C318.231 152.545 317.828 152.769 317.366 152.937C316.904 153.105 316.409 153.189 315.882 153.189C315.112 153.189 314.461 153.026 313.929 152.699C313.401 152.372 313 151.917 312.725 151.334C312.454 150.751 312.319 150.076 312.319 149.311C312.319 148.569 312.454 147.906 312.725 147.323C312.995 146.735 313.383 146.271 313.887 145.93C314.391 145.585 314.993 145.412 315.693 145.412C316.673 145.412 317.447 145.741 318.017 146.399C318.591 147.057 318.878 147.96 318.878 149.108C318.878 149.234 318.873 149.36 318.864 149.486C318.859 149.607 318.852 149.715 318.843 149.808H313.943ZM315.707 146.574C315.217 146.574 314.811 146.749 314.489 147.099C314.167 147.449 313.982 147.995 313.936 148.737H317.359C317.345 148.042 317.195 147.507 316.911 147.134C316.631 146.761 316.229 146.574 315.707 146.574Z" fill="#F3BF53"/>
<path d="M322.603 145.608V150.774C322.603 151.213 322.689 151.525 322.862 151.712C323.039 151.899 323.305 151.992 323.66 151.992C323.996 151.992 324.32 151.892 324.633 151.691C324.946 151.49 325.193 151.245 325.375 150.956V145.608H326.943V153H325.592L325.494 152.055C325.219 152.424 324.871 152.706 324.451 152.902C324.031 153.093 323.602 153.189 323.163 153.189C322.444 153.189 321.91 152.993 321.56 152.601C321.21 152.204 321.035 151.661 321.035 150.97V145.608H322.603Z" fill="#F3BF53"/>
<path d="M335.604 152.608C335.333 152.781 335.009 152.921 334.631 153.028C334.253 153.135 333.858 153.189 333.448 153.189C332.589 153.189 331.936 152.967 331.488 152.524C331.044 152.076 330.823 151.488 330.823 150.76V146.749H329.178V145.608H330.823V143.956L332.391 143.767V145.608H334.883L334.708 146.749H332.391V150.746C332.391 151.143 332.489 151.439 332.685 151.635C332.885 151.826 333.212 151.922 333.665 151.922C333.935 151.922 334.183 151.889 334.407 151.824C334.635 151.759 334.845 151.675 335.037 151.572L335.604 152.608Z" fill="#F3BF53"/>
<path d="M337.894 153V151.88H338.979V146.721H337.894V145.608H340.176L340.463 147.323C340.738 146.702 341.079 146.231 341.485 145.909C341.896 145.582 342.423 145.419 343.067 145.419C343.286 145.419 343.482 145.438 343.655 145.475C343.832 145.508 344.007 145.552 344.18 145.608L343.914 148.331H342.794V146.826C342.271 146.845 341.821 147.055 341.443 147.456C341.065 147.853 340.766 148.413 340.547 149.136V151.88H342.038V153H337.894Z" fill="#F3BF53"/>
<path d="M351.868 151.187C351.868 151.481 351.912 151.693 352.001 151.824C352.089 151.955 352.232 152.053 352.428 152.118L352.078 153.182C351.714 153.14 351.399 153.04 351.133 152.881C350.871 152.722 350.675 152.482 350.545 152.16C350.274 152.505 349.931 152.764 349.516 152.937C349.1 153.105 348.657 153.189 348.186 153.189C347.434 153.189 346.842 152.979 346.408 152.559C345.974 152.134 345.757 151.579 345.757 150.893C345.757 150.114 346.06 149.514 346.667 149.094C347.273 148.674 348.141 148.464 349.271 148.464H350.328V147.981C350.328 147.5 350.183 147.157 349.894 146.952C349.604 146.742 349.201 146.637 348.683 146.637C348.44 146.637 348.146 146.67 347.801 146.735C347.455 146.796 347.094 146.891 346.716 147.022L346.331 145.916C346.793 145.743 347.245 145.617 347.689 145.538C348.132 145.454 348.543 145.412 348.921 145.412C349.91 145.412 350.647 145.631 351.133 146.07C351.623 146.509 351.868 147.115 351.868 147.89V151.187ZM348.662 152.034C348.979 152.034 349.289 151.95 349.593 151.782C349.896 151.614 350.141 151.378 350.328 151.075V149.444H349.46C348.722 149.444 348.195 149.568 347.878 149.815C347.56 150.058 347.402 150.394 347.402 150.823C347.402 151.63 347.822 152.034 348.662 152.034Z" fill="#F3BF53"/>
<path d="M357.861 142.64V150.984C357.861 151.325 357.964 151.567 358.169 151.712C358.379 151.852 358.65 151.922 358.981 151.922C359.191 151.922 359.392 151.901 359.583 151.859C359.779 151.812 359.968 151.752 360.15 151.677L360.549 152.769C360.33 152.881 360.059 152.979 359.737 153.063C359.42 153.147 359.056 153.189 358.645 153.189C357.903 153.189 357.324 152.979 356.909 152.559C356.498 152.139 356.293 151.567 356.293 150.844V143.795H354.06V142.64H357.861Z" fill="#F3BF53"/>
<path d="M79.285 153L76.212 144.782C76.2306 144.973 76.2586 145.272 76.296 145.678C76.3333 146.079 76.366 146.539 76.394 147.057C76.4266 147.57 76.443 148.088 76.443 148.611V153H75.001V143.34H77.108L80.188 151.565C80.1553 151.276 80.1086 150.783 80.048 150.088C79.9873 149.393 79.957 148.611 79.957 147.743V143.34H81.399V153H79.285Z" fill="#F3BF53"/>
<path d="M84.9425 149.808C84.9892 150.569 85.2015 151.119 85.5795 151.46C85.9622 151.801 86.4218 151.971 86.9585 151.971C87.3178 151.971 87.6515 151.915 87.9595 151.803C88.2722 151.691 88.5848 151.532 88.8975 151.327L89.5765 152.265C89.2312 152.545 88.8275 152.769 88.3655 152.937C87.9035 153.105 87.4088 153.189 86.8815 153.189C86.1115 153.189 85.4605 153.026 84.9285 152.699C84.4012 152.372 83.9998 151.917 83.7245 151.334C83.4538 150.751 83.3185 150.076 83.3185 149.311C83.3185 148.569 83.4538 147.906 83.7245 147.323C83.9952 146.735 84.3825 146.271 84.8865 145.93C85.3905 145.585 85.9925 145.412 86.6925 145.412C87.6725 145.412 88.4472 145.741 89.0165 146.399C89.5905 147.057 89.8775 147.96 89.8775 149.108C89.8775 149.234 89.8728 149.36 89.8635 149.486C89.8588 149.607 89.8518 149.715 89.8425 149.808H84.9425ZM86.7065 146.574C86.2165 146.574 85.8105 146.749 85.4885 147.099C85.1665 147.449 84.9822 147.995 84.9355 148.737H88.3585C88.3445 148.042 88.1952 147.507 87.9105 147.134C87.6305 146.761 87.2292 146.574 86.7065 146.574Z" fill="#F3BF53"/>
<path d="M98.258 144.67L98.678 145.972C98.384 146.07 98.0597 146.135 97.705 146.168C97.355 146.201 96.963 146.217 96.529 146.217C96.9724 146.413 97.306 146.665 97.53 146.973C97.754 147.276 97.866 147.65 97.866 148.093C97.866 148.574 97.7494 149.003 97.516 149.381C97.2827 149.759 96.9467 150.055 96.508 150.27C96.074 150.485 95.556 150.592 94.954 150.592C94.7394 150.592 94.5527 150.583 94.394 150.564C94.24 150.545 94.0884 150.515 93.939 150.473C93.7197 150.618 93.61 150.821 93.61 151.082C93.61 151.231 93.6707 151.362 93.792 151.474C93.918 151.581 94.1654 151.635 94.534 151.635H95.822C96.3494 151.635 96.8137 151.726 97.215 151.908C97.621 152.085 97.9384 152.33 98.167 152.643C98.4004 152.951 98.517 153.301 98.517 153.693C98.517 154.43 98.1997 155.002 97.565 155.408C96.9304 155.814 96.0157 156.017 94.821 156.017C93.9717 156.017 93.3067 155.931 92.826 155.758C92.35 155.585 92.014 155.329 91.818 154.988C91.622 154.647 91.524 154.23 91.524 153.735H92.931C92.931 153.996 92.98 154.211 93.078 154.379C93.1807 154.547 93.3697 154.671 93.645 154.75C93.9204 154.834 94.317 154.876 94.835 154.876C95.605 154.876 96.1487 154.78 96.466 154.589C96.7834 154.402 96.942 154.139 96.942 153.798C96.942 153.495 96.8114 153.261 96.55 153.098C96.2887 152.939 95.9387 152.86 95.5 152.86H94.233C93.533 152.86 93.0197 152.718 92.693 152.433C92.371 152.148 92.21 151.817 92.21 151.439C92.21 150.907 92.4854 150.461 93.036 150.102C92.5927 149.869 92.2684 149.586 92.063 149.255C91.8624 148.919 91.762 148.513 91.762 148.037C91.762 147.514 91.8927 147.057 92.154 146.665C92.4154 146.273 92.777 145.967 93.239 145.748C93.7057 145.529 94.2424 145.419 94.849 145.419C95.4417 145.424 95.9364 145.393 96.333 145.328C96.7297 145.263 97.075 145.174 97.369 145.062C97.6677 144.945 97.964 144.815 98.258 144.67ZM94.863 146.497C94.3637 146.497 93.988 146.639 93.736 146.924C93.484 147.204 93.358 147.57 93.358 148.023C93.358 148.49 93.4864 148.865 93.743 149.15C93.9997 149.43 94.38 149.57 94.884 149.57C95.346 149.57 95.6984 149.435 95.941 149.164C96.1884 148.893 96.312 148.508 96.312 148.009C96.312 147.001 95.829 146.497 94.863 146.497Z" fill="#F3BF53"/>
<path d="M106.079 151.187C106.079 151.481 106.123 151.693 106.212 151.824C106.3 151.955 106.443 152.053 106.639 152.118L106.289 153.182C105.925 153.14 105.61 153.04 105.344 152.881C105.082 152.722 104.886 152.482 104.756 152.16C104.485 152.505 104.142 152.764 103.727 152.937C103.311 153.105 102.868 153.189 102.397 153.189C101.645 153.189 101.053 152.979 100.619 152.559C100.185 152.134 99.9676 151.579 99.9676 150.893C99.9676 150.114 100.271 149.514 100.878 149.094C101.484 148.674 102.352 148.464 103.482 148.464H104.539V147.981C104.539 147.5 104.394 147.157 104.105 146.952C103.815 146.742 103.412 146.637 102.894 146.637C102.651 146.637 102.357 146.67 102.012 146.735C101.666 146.796 101.305 146.891 100.927 147.022L100.542 145.916C101.004 145.743 101.456 145.617 101.9 145.538C102.343 145.454 102.754 145.412 103.132 145.412C104.121 145.412 104.858 145.631 105.344 146.07C105.834 146.509 106.079 147.115 106.079 147.89V151.187ZM102.873 152.034C103.19 152.034 103.5 151.95 103.804 151.782C104.107 151.614 104.352 151.378 104.539 151.075V149.444H103.671C102.933 149.444 102.406 149.568 102.089 149.815C101.771 150.058 101.613 150.394 101.613 150.823C101.613 151.63 102.033 152.034 102.873 152.034Z" fill="#F3BF53"/>
<path d="M114.998 152.608C114.727 152.781 114.403 152.921 114.025 153.028C113.647 153.135 113.253 153.189 112.842 153.189C111.983 153.189 111.33 152.967 110.882 152.524C110.439 152.076 110.217 151.488 110.217 150.76V146.749H108.572V145.608H110.217V143.956L111.785 143.767V145.608H114.277L114.102 146.749H111.785V150.746C111.785 151.143 111.883 151.439 112.079 151.635C112.28 151.826 112.606 151.922 113.059 151.922C113.33 151.922 113.577 151.889 113.801 151.824C114.03 151.759 114.24 151.675 114.431 151.572L114.998 152.608Z" fill="#F3BF53"/>
<path d="M120.166 141.989C120.474 141.989 120.721 142.082 120.908 142.269C121.099 142.456 121.195 142.689 121.195 142.969C121.195 143.249 121.099 143.485 120.908 143.676C120.721 143.867 120.474 143.963 120.166 143.963C119.867 143.963 119.622 143.867 119.431 143.676C119.239 143.485 119.144 143.249 119.144 142.969C119.144 142.689 119.239 142.456 119.431 142.269C119.622 142.082 119.867 141.989 120.166 141.989ZM121.258 145.608V151.852H123.267V153H117.478V151.852H119.69V146.756H117.548V145.608H121.258Z" fill="#F3BF53"/>
<path d="M132.088 145.608L129.484 153H127.65L125.046 145.608H126.726L128.602 151.698L130.485 145.608H132.088Z" fill="#F3BF53"/>
<path d="M135.31 149.808C135.356 150.569 135.569 151.119 135.947 151.46C136.329 151.801 136.789 151.971 137.326 151.971C137.685 151.971 138.019 151.915 138.327 151.803C138.639 151.691 138.952 151.532 139.265 151.327L139.944 152.265C139.598 152.545 139.195 152.769 138.733 152.937C138.271 153.105 137.776 153.189 137.249 153.189C136.479 153.189 135.828 153.026 135.296 152.699C134.768 152.372 134.367 151.917 134.092 151.334C133.821 150.751 133.686 150.076 133.686 149.311C133.686 148.569 133.821 147.906 134.092 147.323C134.362 146.735 134.75 146.271 135.254 145.93C135.758 145.585 136.36 145.412 137.06 145.412C138.04 145.412 138.814 145.741 139.384 146.399C139.958 147.057 140.245 147.96 140.245 149.108C140.245 149.234 140.24 149.36 140.231 149.486C140.226 149.607 140.219 149.715 140.21 149.808H135.31ZM137.074 146.574C136.584 146.574 136.178 146.749 135.856 147.099C135.534 147.449 135.349 147.995 135.303 148.737H138.726C138.712 148.042 138.562 147.507 138.278 147.134C137.998 146.761 137.596 146.574 137.074 146.574Z" fill="#F3BF53"/>
<rect x="115" y="82" width="204" height="32" fill="#F3BF53"/>
<path d="M139.276 99.88C139.276 100.536 139.108 101.115 138.772 101.616C138.441 102.117 137.961 102.509 137.332 102.792C136.708 103.075 135.953 103.216 135.068 103.216C134.167 103.216 133.38 103.083 132.708 102.816C132.036 102.549 131.468 102.189 131.004 101.736L132.02 100.6C132.409 100.963 132.852 101.245 133.348 101.448C133.844 101.651 134.415 101.752 135.06 101.752C135.684 101.752 136.22 101.605 136.668 101.312C137.121 101.013 137.348 100.565 137.348 99.968C137.348 99.648 137.281 99.376 137.148 99.152C137.015 98.9227 136.783 98.72 136.452 98.544C136.127 98.3627 135.671 98.184 135.084 98.008C133.916 97.6613 133.031 97.2427 132.428 96.752C131.825 96.2613 131.524 95.584 131.524 94.72C131.524 94.1227 131.687 93.6 132.012 93.152C132.343 92.704 132.793 92.3573 133.364 92.112C133.94 91.8613 134.591 91.736 135.316 91.736C136.116 91.736 136.815 91.8533 137.412 92.088C138.009 92.3173 138.543 92.6427 139.012 93.064L138.036 94.168C137.647 93.832 137.228 93.5867 136.78 93.432C136.337 93.272 135.887 93.192 135.428 93.192C134.863 93.192 134.388 93.312 134.004 93.552C133.62 93.7867 133.428 94.1413 133.428 94.616C133.428 94.904 133.505 95.1493 133.66 95.352C133.82 95.5493 134.087 95.736 134.46 95.912C134.839 96.0827 135.356 96.2667 136.012 96.464C136.631 96.6453 137.185 96.8693 137.676 97.136C138.172 97.4027 138.561 97.7547 138.844 98.192C139.132 98.624 139.276 99.1867 139.276 99.88Z" fill="#191A1D"/>
<path d="M143.006 99.352C143.059 100.221 143.302 100.851 143.734 101.24C144.171 101.629 144.696 101.824 145.31 101.824C145.72 101.824 146.102 101.76 146.454 101.632C146.811 101.504 147.168 101.323 147.526 101.088L148.302 102.16C147.907 102.48 147.446 102.736 146.918 102.928C146.39 103.12 145.824 103.216 145.222 103.216C144.342 103.216 143.598 103.029 142.99 102.656C142.387 102.283 141.928 101.763 141.614 101.096C141.304 100.429 141.15 99.6587 141.15 98.784C141.15 97.936 141.304 97.1787 141.614 96.512C141.923 95.84 142.366 95.3093 142.942 94.92C143.518 94.5253 144.206 94.328 145.006 94.328C146.126 94.328 147.011 94.704 147.662 95.456C148.318 96.208 148.646 97.24 148.646 98.552C148.646 98.696 148.64 98.84 148.63 98.984C148.624 99.1227 148.616 99.2453 148.606 99.352H143.006ZM145.022 95.656C144.462 95.656 143.998 95.856 143.63 96.256C143.262 96.656 143.051 97.28 142.998 98.128H146.91C146.894 97.3333 146.723 96.7227 146.398 96.296C146.078 95.8693 145.619 95.656 145.022 95.656Z" fill="#191A1D"/>
<path d="M151.112 103V94.552H152.656L152.792 95.648C153.144 95.2213 153.56 94.896 154.04 94.672C154.52 94.4427 155.013 94.328 155.52 94.328C156.309 94.328 156.898 94.5493 157.288 94.992C157.682 95.4347 157.88 96.0507 157.88 96.84V103H156.088V97.728C156.088 96.9973 156.013 96.4773 155.864 96.168C155.72 95.8533 155.392 95.696 154.88 95.696C154.469 95.696 154.093 95.824 153.752 96.08C153.416 96.3307 153.133 96.616 152.904 96.936V103H151.112Z" fill="#191A1D"/>
<path d="M167.761 102.552C167.452 102.749 167.081 102.909 166.649 103.032C166.217 103.155 165.767 103.216 165.297 103.216C164.316 103.216 163.569 102.963 163.057 102.456C162.551 101.944 162.297 101.272 162.297 100.44V95.856H160.417V94.552H162.297V92.664L164.089 92.448V94.552H166.937L166.737 95.856H164.089V100.424C164.089 100.877 164.201 101.216 164.425 101.44C164.655 101.659 165.028 101.768 165.545 101.768C165.855 101.768 166.137 101.731 166.393 101.656C166.655 101.581 166.895 101.485 167.113 101.368L167.761 102.552Z" fill="#191A1D"/>
<path d="M173.667 90.416C174.019 90.416 174.302 90.5227 174.515 90.736C174.734 90.9493 174.843 91.216 174.843 91.536C174.843 91.856 174.734 92.1253 174.515 92.344C174.302 92.5627 174.019 92.672 173.667 92.672C173.326 92.672 173.046 92.5627 172.827 92.344C172.608 92.1253 172.499 91.856 172.499 91.536C172.499 91.216 172.608 90.9493 172.827 90.736C173.046 90.5227 173.326 90.416 173.667 90.416ZM174.915 94.552V101.688H177.211V103H170.595V101.688H173.123V95.864H170.675V94.552H174.915Z" fill="#191A1D"/>
<path d="M185.717 94.328C186.037 94.328 186.325 94.3973 186.581 94.536C186.837 94.6747 187.037 94.92 187.181 95.272C187.33 95.6187 187.405 96.1013 187.405 96.72V103H185.813V96.968C185.813 96.5254 185.781 96.208 185.717 96.016C185.658 95.824 185.501 95.728 185.245 95.728C185.042 95.728 184.834 95.792 184.621 95.92C184.413 96.0427 184.205 96.256 183.997 96.56V103H182.549V96.968C182.549 96.5254 182.517 96.208 182.453 96.016C182.394 95.824 182.237 95.728 181.981 95.728C181.773 95.728 181.565 95.792 181.357 95.92C181.149 96.0427 180.941 96.256 180.733 96.56V103H179.133V94.552H180.485L180.605 95.464C180.845 95.128 181.103 94.856 181.381 94.648C181.663 94.4347 182.007 94.328 182.413 94.328C182.733 94.328 183.023 94.408 183.285 94.568C183.546 94.7227 183.738 95.0027 183.861 95.408C184.101 95.088 184.367 94.8293 184.661 94.632C184.954 94.4293 185.306 94.328 185.717 94.328Z" fill="#191A1D"/>
<path d="M190.975 99.352C191.028 100.221 191.271 100.851 191.703 101.24C192.14 101.629 192.665 101.824 193.279 101.824C193.689 101.824 194.071 101.76 194.423 101.632C194.78 101.504 195.137 101.323 195.495 101.088L196.271 102.16C195.876 102.48 195.415 102.736 194.887 102.928C194.359 103.12 193.793 103.216 193.191 103.216C192.311 103.216 191.567 103.029 190.959 102.656C190.356 102.283 189.897 101.763 189.583 101.096C189.273 100.429 189.119 99.6587 189.119 98.784C189.119 97.936 189.273 97.1787 189.583 96.512C189.892 95.84 190.335 95.3093 190.911 94.92C191.487 94.5253 192.175 94.328 192.975 94.328C194.095 94.328 194.98 94.704 195.631 95.456C196.287 96.208 196.615 97.24 196.615 98.552C196.615 98.696 196.609 98.84 196.599 98.984C196.593 99.1227 196.585 99.2453 196.575 99.352H190.975ZM192.991 95.656C192.431 95.656 191.967 95.856 191.599 96.256C191.231 96.656 191.02 97.28 190.967 98.128H194.879C194.863 97.3333 194.692 96.7227 194.367 96.296C194.047 95.8693 193.588 95.656 192.991 95.656Z" fill="#191A1D"/>
<path d="M199.08 103V94.552H200.624L200.76 95.648C201.112 95.2213 201.528 94.896 202.008 94.672C202.488 94.4427 202.982 94.328 203.488 94.328C204.278 94.328 204.867 94.5493 205.256 94.992C205.651 95.4347 205.848 96.0507 205.848 96.84V103H204.056V97.728C204.056 96.9973 203.982 96.4773 203.832 96.168C203.688 95.8533 203.36 95.696 202.848 95.696C202.438 95.696 202.062 95.824 201.72 96.08C201.384 96.3307 201.102 96.616 200.872 96.936V103H199.08Z" fill="#191A1D"/>
<path d="M215.73 102.552C215.421 102.749 215.05 102.909 214.618 103.032C214.186 103.155 213.735 103.216 213.266 103.216C212.285 103.216 211.538 102.963 211.026 102.456C210.519 101.944 210.266 101.272 210.266 100.44V95.856H208.386V94.552H210.266V92.664L212.058 92.448V94.552H214.906L214.706 95.856H212.058V100.424C212.058 100.877 212.17 101.216 212.394 101.44C212.623 101.659 212.997 101.768 213.514 101.768C213.823 101.768 214.106 101.731 214.362 101.656C214.623 101.581 214.863 101.485 215.082 101.368L215.73 102.552Z" fill="#191A1D"/>
<path d="M233.174 100.344H229.23L228.462 103H226.574L230.086 91.96H232.39L235.91 103H233.942L233.174 100.344ZM229.614 98.912H232.782L231.206 93.4L229.614 98.912Z" fill="#191A1D"/>
<path d="M237.455 103V94.552H238.999L239.135 95.648C239.487 95.2213 239.903 94.896 240.383 94.672C240.863 94.4427 241.357 94.328 241.863 94.328C242.653 94.328 243.242 94.5493 243.631 94.992C244.026 95.4347 244.223 96.0507 244.223 96.84V103H242.431V97.728C242.431 96.9973 242.357 96.4773 242.207 96.168C242.063 95.8533 241.735 95.696 241.223 95.696C240.813 95.696 240.437 95.824 240.095 96.08C239.759 96.3307 239.477 96.616 239.247 96.936V103H237.455Z" fill="#191A1D"/>
<path d="M253.505 100.928C253.505 101.264 253.556 101.507 253.657 101.656C253.758 101.805 253.921 101.917 254.145 101.992L253.745 103.208C253.329 103.16 252.969 103.045 252.665 102.864C252.366 102.683 252.142 102.408 251.993 102.04C251.684 102.435 251.292 102.731 250.817 102.928C250.342 103.12 249.836 103.216 249.297 103.216C248.438 103.216 247.761 102.976 247.265 102.496C246.769 102.011 246.521 101.376 246.521 100.592C246.521 99.7013 246.868 99.016 247.561 98.536C248.254 98.056 249.246 97.816 250.537 97.816H251.745V97.264C251.745 96.7147 251.58 96.3227 251.249 96.088C250.918 95.848 250.457 95.728 249.865 95.728C249.588 95.728 249.252 95.7653 248.857 95.84C248.462 95.9093 248.049 96.0187 247.617 96.168L247.177 94.904C247.705 94.7067 248.222 94.5627 248.729 94.472C249.236 94.376 249.705 94.328 250.137 94.328C251.268 94.328 252.11 94.5787 252.665 95.08C253.225 95.5813 253.505 96.2747 253.505 97.16V100.928ZM249.841 101.896C250.204 101.896 250.558 101.8 250.905 101.608C251.252 101.416 251.532 101.147 251.745 100.8V98.936H250.753C249.91 98.936 249.308 99.0773 248.945 99.36C248.582 99.6373 248.401 100.021 248.401 100.512C248.401 101.435 248.881 101.896 249.841 101.896Z" fill="#191A1D"/>
<path d="M260.355 91.16V100.696C260.355 101.085 260.472 101.363 260.707 101.528C260.947 101.688 261.256 101.768 261.635 101.768C261.875 101.768 262.104 101.744 262.323 101.696C262.547 101.643 262.763 101.573 262.971 101.488L263.427 102.736C263.176 102.864 262.867 102.976 262.499 103.072C262.136 103.168 261.72 103.216 261.251 103.216C260.403 103.216 259.741 102.976 259.267 102.496C258.797 102.016 258.563 101.363 258.563 100.536V92.48H256.011V91.16H260.355Z" fill="#191A1D"/>
<path d="M273.629 94.552L270.717 103.032C270.498 103.672 270.218 104.237 269.877 104.728C269.535 105.219 269.098 105.611 268.565 105.904C268.031 106.203 267.37 106.387 266.581 106.456L266.349 105.112C266.919 105.021 267.373 104.888 267.709 104.712C268.05 104.541 268.319 104.315 268.517 104.032C268.719 103.755 268.898 103.411 269.053 103H268.445L265.597 94.552H267.501L269.629 101.752L271.789 94.552H273.629Z" fill="#191A1D"/>
<path d="M278.902 101.84C279.462 101.84 279.908 101.741 280.238 101.544C280.569 101.341 280.734 101.064 280.734 100.712C280.734 100.483 280.686 100.288 280.59 100.128C280.494 99.968 280.302 99.8187 280.014 99.68C279.726 99.5413 279.289 99.3973 278.702 99.248C278.148 99.104 277.66 98.9333 277.238 98.736C276.822 98.5387 276.5 98.2827 276.27 97.968C276.041 97.6533 275.926 97.248 275.926 96.752C275.926 96.0267 276.228 95.4427 276.83 95C277.438 94.552 278.262 94.328 279.302 94.328C280.012 94.328 280.63 94.4213 281.158 94.608C281.686 94.7947 282.137 95.0267 282.51 95.304L281.758 96.432C281.428 96.2133 281.065 96.0347 280.67 95.896C280.281 95.7573 279.841 95.688 279.35 95.688C278.78 95.688 278.369 95.7733 278.118 95.944C277.873 96.1147 277.75 96.3413 277.75 96.624C277.75 96.8373 277.812 97.0134 277.934 97.152C278.062 97.2907 278.281 97.4213 278.59 97.544C278.9 97.6667 279.337 97.8053 279.902 97.96C280.452 98.1093 280.929 98.2853 281.334 98.488C281.745 98.6907 282.062 98.96 282.286 99.296C282.516 99.6267 282.63 100.059 282.63 100.592C282.63 101.2 282.454 101.699 282.102 102.088C281.75 102.472 281.292 102.757 280.726 102.944C280.161 103.125 279.553 103.216 278.902 103.216C278.118 103.216 277.441 103.104 276.87 102.88C276.3 102.651 275.82 102.365 275.43 102.024L276.382 100.936C276.713 101.203 277.092 101.421 277.518 101.592C277.945 101.757 278.406 101.84 278.902 101.84Z" fill="#191A1D"/>
<path d="M288.792 90.416C289.144 90.416 289.427 90.5227 289.64 90.736C289.859 90.9493 289.968 91.216 289.968 91.536C289.968 91.856 289.859 92.1253 289.64 92.344C289.427 92.5627 289.144 92.672 288.792 92.672C288.451 92.672 288.171 92.5627 287.952 92.344C287.733 92.1253 287.624 91.856 287.624 91.536C287.624 91.216 287.733 90.9493 287.952 90.736C288.171 90.5227 288.451 90.416 288.792 90.416ZM290.04 94.552V101.688H292.336V103H285.72V101.688H288.248V95.864H285.8V94.552H290.04Z" fill="#191A1D"/>
<path d="M298.09 101.84C298.65 101.84 299.095 101.741 299.426 101.544C299.756 101.341 299.922 101.064 299.922 100.712C299.922 100.483 299.874 100.288 299.778 100.128C299.682 99.968 299.49 99.8187 299.202 99.68C298.914 99.5413 298.476 99.3973 297.89 99.248C297.335 99.104 296.847 98.9333 296.426 98.736C296.01 98.5387 295.687 98.2827 295.458 97.968C295.228 97.6533 295.114 97.248 295.114 96.752C295.114 96.0267 295.415 95.4427 296.018 95C296.626 94.552 297.45 94.328 298.49 94.328C299.199 94.328 299.818 94.4213 300.346 94.608C300.874 94.7947 301.324 95.0267 301.698 95.304L300.946 96.432C300.615 96.2133 300.252 96.0347 299.858 95.896C299.468 95.7573 299.028 95.688 298.538 95.688C297.967 95.688 297.556 95.7733 297.306 95.944C297.06 96.1147 296.938 96.3413 296.938 96.624C296.938 96.8373 296.999 97.0134 297.122 97.152C297.25 97.2907 297.468 97.4213 297.778 97.544C298.087 97.6667 298.524 97.8053 299.09 97.96C299.639 98.1093 300.116 98.2853 300.522 98.488C300.932 98.6907 301.25 98.96 301.474 99.296C301.703 99.6267 301.818 100.059 301.818 100.592C301.818 101.2 301.642 101.699 301.29 102.088C300.938 102.472 300.479 102.757 299.914 102.944C299.348 103.125 298.74 103.216 298.09 103.216C297.306 103.216 296.628 103.104 296.058 102.88C295.487 102.651 295.007 102.365 294.618 102.024L295.57 100.936C295.9 101.203 296.279 101.421 296.706 101.592C297.132 101.757 297.594 101.84 298.09 101.84Z" fill="#191A1D"/>
<defs>
<filter id="filter0_b" x="-7" y="-7" width="448" height="299" filterUnits="userSpaceOnUse" color-interpolation-filters="sRGB">
<feFlood flood-opacity="0" result="BackgroundImageFix"/>
<feGaussianBlur in="BackgroundImage" stdDeviation="3.5"/>
<feComposite in2="SourceAlpha" operator="in" result="effect1_backgroundBlur"/>
<feBlend mode="normal" in="SourceGraphic" in2="effect1_backgroundBlur" result="shape"/>
</filter>
<filter id="filter1_b" x="-7" y="-7" width="448" height="56" filterUnits="userSpaceOnUse" color-interpolation-filters="sRGB">
<feFlood flood-opacity="0" result="BackgroundImageFix"/>
<feGaussianBlur in="BackgroundImage" stdDeviation="3.5"/>
<feComposite in2="SourceAlpha" operator="in" result="effect1_backgroundBlur"/>
<feBlend mode="normal" in="SourceGraphic" in2="effect1_backgroundBlur" result="shape"/>
</filter>
</defs>
</svg>
